M48
; DRILL file {KiCad (5.1.5)-3} date 2020/09/28 4:56:28 PM
; FORMAT={-:-/ absolute / inch / decimal}
; #@! TF.CreationDate,2020-09-28T16:56:28+02:00
; #@! TF.GenerationSoftware,Kicad,Pcbnew,(5.1.5)-3
; #@! TF.FileFunction,Plated,1,4,PTH
FMAT,2
INCH
T1C0.0157
%
G90
G05
T1
X5.1437Y-3.5558
X5.1506Y-3.6004
X5.1506Y-3.6427
X5.1853Y-3.6703
X5.186Y-3.9665
X5.187Y-3.625
X5.2431Y-3.9547
X5.2844Y-4.437
X5.2864Y-3.377
X5.3179Y-3.9793
X5.3612Y-3.1201
X5.377Y-3.5512
X5.3799Y-3.9783
X5.3829Y-3.6063
X5.3858Y-3.2569
X5.3986Y-3.5157
X5.4035Y-3.19
X5.4094Y-3.7628
X5.4144Y-3.2904
X5.4222Y-3.5561
X5.439Y-4.7687
X5.4626Y-3.2677
X5.4641Y-3.655
X5.5364Y-3.9803
X5.5502Y-3.2697
X5.561Y-4.4961
X5.5787Y-3.1929
X5.6073Y-3.2746
X5.6073Y-3.7175
X5.622Y-4.0197
X5.6604Y-3.7707
X5.6624Y-3.4588
X5.6713Y-3.5187
X5.6801Y-3.0256
X5.6801Y-3.565
X5.688Y-3.2844
X5.7077Y-4.3248
X5.7451Y-3.5522
X5.7844Y-3.9685
X5.8258Y-4.7972
X5.8366Y-4.4636
X5.8406Y-4.5276
X5.8671Y-3.1713
X5.9045Y-3.5866
X5.9094Y-4.5876
X5.9252Y-3.5169
X5.9281Y-3.1703
X5.9724Y-4.7657
X5.9862Y-2.998
X5.9862Y-3.2766
X6.0138Y-3.5197
X6.0138Y-3.7303
X6.0197Y-3.1841
X6.0482Y-4.0138
X6.1348Y-3.7205
X6.1447Y-4.4134
X6.1516Y-3.1014
X6.2402Y-3.9646
T0
M30
