G04 #@! TF.GenerationSoftware,KiCad,Pcbnew,(5.1.5)-3*
G04 #@! TF.CreationDate,2020-09-28T16:56:36+02:00*
G04 #@! TF.ProjectId,MAX30102_Pulse Ox,4d415833-3031-4303-925f-50756c736520,v1.4*
G04 #@! TF.SameCoordinates,Original*
G04 #@! TF.FileFunction,Soldermask,Bot*
G04 #@! TF.FilePolarity,Negative*
%FSLAX46Y46*%
G04 Gerber Fmt 4.6, Leading zero omitted, Abs format (unit mm)*
G04 Created by KiCad (PCBNEW (5.1.5)-3) date 2020-09-28 16:56:36*
%MOMM*%
%LPD*%
G04 APERTURE LIST*
%ADD10C,0.100000*%
G04 APERTURE END LIST*
D10*
G36*
X155214795Y-103920156D02*
G01*
X155321150Y-103941311D01*
X155521520Y-104024307D01*
X155701844Y-104144795D01*
X155855205Y-104298156D01*
X155975693Y-104478480D01*
X156058689Y-104678851D01*
X156101000Y-104891560D01*
X156101000Y-105108440D01*
X156058689Y-105321149D01*
X155975693Y-105521520D01*
X155855205Y-105701844D01*
X155701844Y-105855205D01*
X155521520Y-105975693D01*
X155421334Y-106017191D01*
X155321150Y-106058689D01*
X155214794Y-106079845D01*
X155108440Y-106101000D01*
X154891560Y-106101000D01*
X154785206Y-106079845D01*
X154678850Y-106058689D01*
X154578666Y-106017191D01*
X154478480Y-105975693D01*
X154298156Y-105855205D01*
X154144795Y-105701844D01*
X154024307Y-105521520D01*
X153941311Y-105321149D01*
X153899000Y-105108440D01*
X153899000Y-104891560D01*
X153941311Y-104678851D01*
X154024307Y-104478480D01*
X154144795Y-104298156D01*
X154298156Y-104144795D01*
X154478480Y-104024307D01*
X154678850Y-103941311D01*
X154785205Y-103920156D01*
X154891560Y-103899000D01*
X155108440Y-103899000D01*
X155214795Y-103920156D01*
G37*
G36*
X135214795Y-103920156D02*
G01*
X135321150Y-103941311D01*
X135521520Y-104024307D01*
X135701844Y-104144795D01*
X135855205Y-104298156D01*
X135975693Y-104478480D01*
X136058689Y-104678851D01*
X136101000Y-104891560D01*
X136101000Y-105108440D01*
X136058689Y-105321149D01*
X135975693Y-105521520D01*
X135855205Y-105701844D01*
X135701844Y-105855205D01*
X135521520Y-105975693D01*
X135421334Y-106017191D01*
X135321150Y-106058689D01*
X135214794Y-106079845D01*
X135108440Y-106101000D01*
X134891560Y-106101000D01*
X134785206Y-106079845D01*
X134678850Y-106058689D01*
X134578666Y-106017191D01*
X134478480Y-105975693D01*
X134298156Y-105855205D01*
X134144795Y-105701844D01*
X134024307Y-105521520D01*
X133941311Y-105321149D01*
X133899000Y-105108440D01*
X133899000Y-104891560D01*
X133941311Y-104678851D01*
X134024307Y-104478480D01*
X134144795Y-104298156D01*
X134298156Y-104144795D01*
X134478480Y-104024307D01*
X134678850Y-103941311D01*
X134785205Y-103920156D01*
X134891560Y-103899000D01*
X135108440Y-103899000D01*
X135214795Y-103920156D01*
G37*
G36*
X133251000Y-99651000D02*
G01*
X130149000Y-99651000D01*
X130149000Y-98049000D01*
X133251000Y-98049000D01*
X133251000Y-99651000D01*
G37*
G36*
X159701000Y-99351000D02*
G01*
X156599000Y-99351000D01*
X156599000Y-97749000D01*
X159701000Y-97749000D01*
X159701000Y-99351000D01*
G37*
G36*
X133251000Y-97651000D02*
G01*
X130149000Y-97651000D01*
X130149000Y-96049000D01*
X133251000Y-96049000D01*
X133251000Y-97651000D01*
G37*
G36*
X159701000Y-97351000D02*
G01*
X156599000Y-97351000D01*
X156599000Y-95749000D01*
X159701000Y-95749000D01*
X159701000Y-97351000D01*
G37*
G36*
X133251000Y-95651000D02*
G01*
X130149000Y-95651000D01*
X130149000Y-94049000D01*
X133251000Y-94049000D01*
X133251000Y-95651000D01*
G37*
G36*
X159601000Y-93701000D02*
G01*
X156499000Y-93701000D01*
X156499000Y-92099000D01*
X159601000Y-92099000D01*
X159601000Y-93701000D01*
G37*
G36*
X159601000Y-91701000D02*
G01*
X156499000Y-91701000D01*
X156499000Y-90099000D01*
X159601000Y-90099000D01*
X159601000Y-91701000D01*
G37*
G36*
X159601000Y-89701000D02*
G01*
X156499000Y-89701000D01*
X156499000Y-88099000D01*
X159601000Y-88099000D01*
X159601000Y-89701000D01*
G37*
G36*
X133251000Y-89701000D02*
G01*
X130149000Y-89701000D01*
X130149000Y-88099000D01*
X133251000Y-88099000D01*
X133251000Y-89701000D01*
G37*
G36*
X159601000Y-87701000D02*
G01*
X156499000Y-87701000D01*
X156499000Y-86099000D01*
X159601000Y-86099000D01*
X159601000Y-87701000D01*
G37*
G36*
X133251000Y-87701000D02*
G01*
X130149000Y-87701000D01*
X130149000Y-86099000D01*
X133251000Y-86099000D01*
X133251000Y-87701000D01*
G37*
G36*
X159601000Y-85701000D02*
G01*
X156499000Y-85701000D01*
X156499000Y-84099000D01*
X159601000Y-84099000D01*
X159601000Y-85701000D01*
G37*
G36*
X133251000Y-85701000D02*
G01*
X130149000Y-85701000D01*
X130149000Y-84099000D01*
X133251000Y-84099000D01*
X133251000Y-85701000D01*
G37*
G36*
X133251000Y-83701000D02*
G01*
X130149000Y-83701000D01*
X130149000Y-82099000D01*
X133251000Y-82099000D01*
X133251000Y-83701000D01*
G37*
G36*
X159801000Y-82426000D02*
G01*
X156699000Y-82426000D01*
X156699000Y-80824000D01*
X159801000Y-80824000D01*
X159801000Y-82426000D01*
G37*
G36*
X159801000Y-80426000D02*
G01*
X156699000Y-80426000D01*
X156699000Y-78824000D01*
X159801000Y-78824000D01*
X159801000Y-80426000D01*
G37*
G36*
X148814794Y-76470155D02*
G01*
X148921150Y-76491311D01*
X149021334Y-76532809D01*
X149121520Y-76574307D01*
X149301844Y-76694795D01*
X149455205Y-76848156D01*
X149575693Y-77028480D01*
X149658689Y-77228851D01*
X149701000Y-77441560D01*
X149701000Y-77658440D01*
X149658689Y-77871149D01*
X149575693Y-78071520D01*
X149455205Y-78251844D01*
X149301844Y-78405205D01*
X149121520Y-78525693D01*
X148921150Y-78608689D01*
X148814795Y-78629844D01*
X148708440Y-78651000D01*
X148491560Y-78651000D01*
X148385205Y-78629844D01*
X148278850Y-78608689D01*
X148078480Y-78525693D01*
X147898156Y-78405205D01*
X147744795Y-78251844D01*
X147624307Y-78071520D01*
X147541311Y-77871149D01*
X147499000Y-77658440D01*
X147499000Y-77441560D01*
X147541311Y-77228851D01*
X147624307Y-77028480D01*
X147744795Y-76848156D01*
X147898156Y-76694795D01*
X148078480Y-76574307D01*
X148178666Y-76532809D01*
X148278850Y-76491311D01*
X148385206Y-76470155D01*
X148491560Y-76449000D01*
X148708440Y-76449000D01*
X148814794Y-76470155D01*
G37*
G36*
X139476000Y-78576000D02*
G01*
X137874000Y-78576000D01*
X137874000Y-75474000D01*
X139476000Y-75474000D01*
X139476000Y-78576000D01*
G37*
G36*
X141476000Y-78576000D02*
G01*
X139874000Y-78576000D01*
X139874000Y-75474000D01*
X141476000Y-75474000D01*
X141476000Y-78576000D01*
G37*
G36*
X143476000Y-78576000D02*
G01*
X141874000Y-78576000D01*
X141874000Y-75474000D01*
X143476000Y-75474000D01*
X143476000Y-78576000D01*
G37*
M02*
