G04 #@! TF.GenerationSoftware,KiCad,Pcbnew,(5.1.5)-3*
G04 #@! TF.CreationDate,2020-09-28T16:56:36+02:00*
G04 #@! TF.ProjectId,MAX30102_Pulse Ox,4d415833-3031-4303-925f-50756c736520,v1.4*
G04 #@! TF.SameCoordinates,Original*
G04 #@! TF.FileFunction,Legend,Top*
G04 #@! TF.FilePolarity,Positive*
%FSLAX46Y46*%
G04 Gerber Fmt 4.6, Leading zero omitted, Abs format (unit mm)*
G04 Created by KiCad (PCBNEW (5.1.5)-3) date 2020-09-28 16:56:36*
%MOMM*%
%LPD*%
G04 APERTURE LIST*
%ADD10C,0.100000*%
%ADD11C,0.150000*%
%ADD12C,0.350000*%
%ADD13C,0.120000*%
%ADD14C,0.152400*%
%ADD15C,0.080000*%
%ADD16C,0.200000*%
%ADD17C,0.127000*%
G04 APERTURE END LIST*
D10*
X144285714Y-118742857D02*
X144404761Y-119076190D01*
X144523809Y-118742857D01*
X144690476Y-118623809D02*
X144714285Y-118600000D01*
X144761904Y-118576190D01*
X144880952Y-118576190D01*
X144928571Y-118600000D01*
X144952380Y-118623809D01*
X144976190Y-118671428D01*
X144976190Y-118719047D01*
X144952380Y-118790476D01*
X144666666Y-119076190D01*
X144976190Y-119076190D01*
X145190476Y-119028571D02*
X145214285Y-119052380D01*
X145190476Y-119076190D01*
X145166666Y-119052380D01*
X145190476Y-119028571D01*
X145190476Y-119076190D01*
X145523809Y-118576190D02*
X145571428Y-118576190D01*
X145619047Y-118600000D01*
X145642857Y-118623809D01*
X145666666Y-118671428D01*
X145690476Y-118766666D01*
X145690476Y-118885714D01*
X145666666Y-118980952D01*
X145642857Y-119028571D01*
X145619047Y-119052380D01*
X145571428Y-119076190D01*
X145523809Y-119076190D01*
X145476190Y-119052380D01*
X145452380Y-119028571D01*
X145428571Y-118980952D01*
X145404761Y-118885714D01*
X145404761Y-118766666D01*
X145428571Y-118671428D01*
X145452380Y-118623809D01*
X145476190Y-118600000D01*
X145523809Y-118576190D01*
D11*
X141021428Y-120253571D02*
X141128571Y-120289285D01*
X141307142Y-120289285D01*
X141378571Y-120253571D01*
X141414285Y-120217857D01*
X141450000Y-120146428D01*
X141450000Y-120075000D01*
X141414285Y-120003571D01*
X141378571Y-119967857D01*
X141307142Y-119932142D01*
X141164285Y-119896428D01*
X141092857Y-119860714D01*
X141057142Y-119825000D01*
X141021428Y-119753571D01*
X141021428Y-119682142D01*
X141057142Y-119610714D01*
X141092857Y-119575000D01*
X141164285Y-119539285D01*
X141342857Y-119539285D01*
X141450000Y-119575000D01*
X141771428Y-120289285D02*
X141771428Y-119539285D01*
X142092857Y-120289285D02*
X142092857Y-119896428D01*
X142057142Y-119825000D01*
X141985714Y-119789285D01*
X141878571Y-119789285D01*
X141807142Y-119825000D01*
X141771428Y-119860714D01*
X142735714Y-120253571D02*
X142664285Y-120289285D01*
X142521428Y-120289285D01*
X142450000Y-120253571D01*
X142414285Y-120182142D01*
X142414285Y-119896428D01*
X142450000Y-119825000D01*
X142521428Y-119789285D01*
X142664285Y-119789285D01*
X142735714Y-119825000D01*
X142771428Y-119896428D01*
X142771428Y-119967857D01*
X142414285Y-120039285D01*
X143092857Y-120289285D02*
X143092857Y-119539285D01*
X143164285Y-120003571D02*
X143378571Y-120289285D01*
X143378571Y-119789285D02*
X143092857Y-120075000D01*
X143700000Y-120289285D02*
X143700000Y-119539285D01*
X144021428Y-120289285D02*
X144021428Y-119896428D01*
X143985714Y-119825000D01*
X143914285Y-119789285D01*
X143807142Y-119789285D01*
X143735714Y-119825000D01*
X143700000Y-119860714D01*
X144700000Y-120289285D02*
X144700000Y-119896428D01*
X144664285Y-119825000D01*
X144592857Y-119789285D01*
X144450000Y-119789285D01*
X144378571Y-119825000D01*
X144700000Y-120253571D02*
X144628571Y-120289285D01*
X144450000Y-120289285D01*
X144378571Y-120253571D01*
X144342857Y-120182142D01*
X144342857Y-120110714D01*
X144378571Y-120039285D01*
X144450000Y-120003571D01*
X144628571Y-120003571D01*
X144700000Y-119967857D01*
X145057142Y-120289285D02*
X145057142Y-119789285D01*
X145057142Y-119932142D02*
X145092857Y-119860714D01*
X145128571Y-119825000D01*
X145200000Y-119789285D01*
X145271428Y-119789285D01*
X146057142Y-120253571D02*
X146164285Y-120289285D01*
X146342857Y-120289285D01*
X146414285Y-120253571D01*
X146450000Y-120217857D01*
X146485714Y-120146428D01*
X146485714Y-120075000D01*
X146450000Y-120003571D01*
X146414285Y-119967857D01*
X146342857Y-119932142D01*
X146200000Y-119896428D01*
X146128571Y-119860714D01*
X146092857Y-119825000D01*
X146057142Y-119753571D01*
X146057142Y-119682142D01*
X146092857Y-119610714D01*
X146128571Y-119575000D01*
X146200000Y-119539285D01*
X146378571Y-119539285D01*
X146485714Y-119575000D01*
X146807142Y-120289285D02*
X146807142Y-119789285D01*
X146807142Y-119539285D02*
X146771428Y-119575000D01*
X146807142Y-119610714D01*
X146842857Y-119575000D01*
X146807142Y-119539285D01*
X146807142Y-119610714D01*
X147164285Y-119789285D02*
X147164285Y-120289285D01*
X147164285Y-119860714D02*
X147200000Y-119825000D01*
X147271428Y-119789285D01*
X147378571Y-119789285D01*
X147450000Y-119825000D01*
X147485714Y-119896428D01*
X147485714Y-120289285D01*
X148164285Y-119789285D02*
X148164285Y-120396428D01*
X148128571Y-120467857D01*
X148092857Y-120503571D01*
X148021428Y-120539285D01*
X147914285Y-120539285D01*
X147842857Y-120503571D01*
X148164285Y-120253571D02*
X148092857Y-120289285D01*
X147950000Y-120289285D01*
X147878571Y-120253571D01*
X147842857Y-120217857D01*
X147807142Y-120146428D01*
X147807142Y-119932142D01*
X147842857Y-119860714D01*
X147878571Y-119825000D01*
X147950000Y-119789285D01*
X148092857Y-119789285D01*
X148164285Y-119825000D01*
X148521428Y-120289285D02*
X148521428Y-119539285D01*
X148842857Y-120289285D02*
X148842857Y-119896428D01*
X148807142Y-119825000D01*
X148735714Y-119789285D01*
X148628571Y-119789285D01*
X148557142Y-119825000D01*
X148521428Y-119860714D01*
D12*
X138664285Y-122532142D02*
X138878571Y-122603571D01*
X139235714Y-122603571D01*
X139378571Y-122532142D01*
X139450000Y-122460714D01*
X139521428Y-122317857D01*
X139521428Y-122175000D01*
X139450000Y-122032142D01*
X139378571Y-121960714D01*
X139235714Y-121889285D01*
X138950000Y-121817857D01*
X138807142Y-121746428D01*
X138735714Y-121675000D01*
X138664285Y-121532142D01*
X138664285Y-121389285D01*
X138735714Y-121246428D01*
X138807142Y-121175000D01*
X138950000Y-121103571D01*
X139307142Y-121103571D01*
X139521428Y-121175000D01*
X140164285Y-122603571D02*
X140164285Y-121103571D01*
X141021428Y-122603571D01*
X141021428Y-121103571D01*
X142521428Y-121175000D02*
X142378571Y-121103571D01*
X142164285Y-121103571D01*
X141950000Y-121175000D01*
X141807142Y-121317857D01*
X141735714Y-121460714D01*
X141664285Y-121746428D01*
X141664285Y-121960714D01*
X141735714Y-122246428D01*
X141807142Y-122389285D01*
X141950000Y-122532142D01*
X142164285Y-122603571D01*
X142307142Y-122603571D01*
X142521428Y-122532142D01*
X142592857Y-122460714D01*
X142592857Y-121960714D01*
X142307142Y-121960714D01*
X143164285Y-122532142D02*
X143378571Y-122603571D01*
X143735714Y-122603571D01*
X143878571Y-122532142D01*
X143950000Y-122460714D01*
X144021428Y-122317857D01*
X144021428Y-122175000D01*
X143950000Y-122032142D01*
X143878571Y-121960714D01*
X143735714Y-121889285D01*
X143450000Y-121817857D01*
X143307142Y-121746428D01*
X143235714Y-121675000D01*
X143164285Y-121532142D01*
X143164285Y-121389285D01*
X143235714Y-121246428D01*
X143307142Y-121175000D01*
X143450000Y-121103571D01*
X143807142Y-121103571D01*
X144021428Y-121175000D01*
X144664285Y-122603571D02*
X144664285Y-121103571D01*
X144664285Y-121817857D02*
X145521428Y-121817857D01*
X145521428Y-122603571D02*
X145521428Y-121103571D01*
X146235714Y-121817857D02*
X146735714Y-121817857D01*
X146950000Y-122603571D02*
X146235714Y-122603571D01*
X146235714Y-121103571D01*
X146950000Y-121103571D01*
X147878571Y-121103571D02*
X148021428Y-121103571D01*
X148164285Y-121175000D01*
X148235714Y-121246428D01*
X148307142Y-121389285D01*
X148378571Y-121675000D01*
X148378571Y-122032142D01*
X148307142Y-122317857D01*
X148235714Y-122460714D01*
X148164285Y-122532142D01*
X148021428Y-122603571D01*
X147878571Y-122603571D01*
X147735714Y-122532142D01*
X147664285Y-122460714D01*
X147592857Y-122317857D01*
X147521428Y-122032142D01*
X147521428Y-121675000D01*
X147592857Y-121389285D01*
X147664285Y-121246428D01*
X147735714Y-121175000D01*
X147878571Y-121103571D01*
X149807142Y-122603571D02*
X148950000Y-122603571D01*
X149378571Y-122603571D02*
X149378571Y-121103571D01*
X149235714Y-121317857D01*
X149092857Y-121460714D01*
X148950000Y-121532142D01*
X151092857Y-121603571D02*
X151092857Y-122603571D01*
X150735714Y-121032142D02*
X150378571Y-122103571D01*
X151307142Y-122103571D01*
D13*
X153315000Y-76787221D02*
X153315000Y-77112779D01*
X154335000Y-76787221D02*
X154335000Y-77112779D01*
X158065000Y-90724721D02*
X158065000Y-91050279D01*
X159085000Y-90724721D02*
X159085000Y-91050279D01*
X146540000Y-96662779D02*
X146540000Y-96337221D01*
X147560000Y-96662779D02*
X147560000Y-96337221D01*
X155960000Y-76787221D02*
X155960000Y-77112779D01*
X154940000Y-76787221D02*
X154940000Y-77112779D01*
X157610000Y-76774721D02*
X157610000Y-77100279D01*
X156590000Y-76774721D02*
X156590000Y-77100279D01*
X147524721Y-91265000D02*
X147850279Y-91265000D01*
X147524721Y-92285000D02*
X147850279Y-92285000D01*
X158215000Y-76774721D02*
X158215000Y-77100279D01*
X159235000Y-76774721D02*
X159235000Y-77100279D01*
X147512221Y-94085000D02*
X147837779Y-94085000D01*
X147512221Y-93065000D02*
X147837779Y-93065000D01*
X159585000Y-97247500D02*
X159585000Y-94962500D01*
X158115000Y-97247500D02*
X159585000Y-97247500D01*
X158115000Y-94962500D02*
X158115000Y-97247500D01*
X132285000Y-78025000D02*
X132285000Y-75740000D01*
X132285000Y-75740000D02*
X130815000Y-75740000D01*
X130815000Y-75740000D02*
X130815000Y-78025000D01*
X132515000Y-75740000D02*
X132515000Y-78025000D01*
X133985000Y-75740000D02*
X132515000Y-75740000D01*
X133985000Y-78025000D02*
X133985000Y-75740000D01*
X135685000Y-78000000D02*
X135685000Y-75715000D01*
X135685000Y-75715000D02*
X134215000Y-75715000D01*
X134215000Y-75715000D02*
X134215000Y-78000000D01*
D14*
X141340880Y-85226326D02*
X141340880Y-84972326D01*
X141340880Y-84972326D02*
X140959880Y-84972326D01*
X140959880Y-84972326D02*
X140959880Y-85226326D01*
X140959880Y-85226326D02*
X141340880Y-85226326D01*
X137797326Y-89016260D02*
X137797326Y-88635260D01*
X137797326Y-88635260D02*
X138051326Y-88635260D01*
X138051326Y-88635260D02*
X138051326Y-89016260D01*
X138051326Y-89016260D02*
X137797326Y-89016260D01*
D13*
X155490000Y-80115000D02*
X155490000Y-80495000D01*
X159540000Y-80115000D02*
X159800000Y-80115000D01*
X155490000Y-80115000D02*
X157260000Y-80115000D01*
X155490000Y-87735000D02*
X155490000Y-87355000D01*
X157260000Y-87735000D02*
X155490000Y-87735000D01*
X159800000Y-87735000D02*
X159540000Y-87735000D01*
X140510000Y-98962779D02*
X140510000Y-98637221D01*
X139490000Y-98962779D02*
X139490000Y-98637221D01*
X136165000Y-98962779D02*
X136165000Y-98637221D01*
X137185000Y-98962779D02*
X137185000Y-98637221D01*
X157685000Y-95912779D02*
X157685000Y-95587221D01*
X156665000Y-95912779D02*
X156665000Y-95587221D01*
X135535000Y-98950279D02*
X135535000Y-98624721D01*
X134515000Y-98950279D02*
X134515000Y-98624721D01*
X153865000Y-95800279D02*
X153865000Y-95474721D01*
X154885000Y-95800279D02*
X154885000Y-95474721D01*
X150049721Y-95935000D02*
X150375279Y-95935000D01*
X150049721Y-94915000D02*
X150375279Y-94915000D01*
X139262221Y-80565000D02*
X139587779Y-80565000D01*
X139262221Y-81585000D02*
X139587779Y-81585000D01*
X134050279Y-95015000D02*
X133724721Y-95015000D01*
X134050279Y-96035000D02*
X133724721Y-96035000D01*
X134025279Y-94385000D02*
X133699721Y-94385000D01*
X134025279Y-93365000D02*
X133699721Y-93365000D01*
X134000279Y-91690000D02*
X133674721Y-91690000D01*
X134000279Y-92710000D02*
X133674721Y-92710000D01*
X139287221Y-79985000D02*
X139612779Y-79985000D01*
X139287221Y-78965000D02*
X139612779Y-78965000D01*
X142800279Y-79985000D02*
X142474721Y-79985000D01*
X142800279Y-78965000D02*
X142474721Y-78965000D01*
X133962779Y-88265000D02*
X133637221Y-88265000D01*
X133962779Y-89285000D02*
X133637221Y-89285000D01*
X133950279Y-87635000D02*
X133624721Y-87635000D01*
X133950279Y-86615000D02*
X133624721Y-86615000D01*
X133987779Y-90015000D02*
X133662221Y-90015000D01*
X133987779Y-91035000D02*
X133662221Y-91035000D01*
X132035000Y-80162221D02*
X132035000Y-80487779D01*
X131015000Y-80162221D02*
X131015000Y-80487779D01*
X132740000Y-80149721D02*
X132740000Y-80475279D01*
X133760000Y-80149721D02*
X133760000Y-80475279D01*
X135460000Y-80149721D02*
X135460000Y-80475279D01*
X134440000Y-80149721D02*
X134440000Y-80475279D01*
X148915000Y-98262779D02*
X148915000Y-97937221D01*
X149935000Y-98262779D02*
X149935000Y-97937221D01*
X130590000Y-88037779D02*
X130590000Y-87712221D01*
X131610000Y-88037779D02*
X131610000Y-87712221D01*
X143985000Y-98662221D02*
X143985000Y-98987779D01*
X142965000Y-98662221D02*
X142965000Y-98987779D01*
X137815000Y-98662221D02*
X137815000Y-98987779D01*
X138835000Y-98662221D02*
X138835000Y-98987779D01*
X142160000Y-98637221D02*
X142160000Y-98962779D01*
X141140000Y-98637221D02*
X141140000Y-98962779D01*
X152535000Y-78700279D02*
X152535000Y-78374721D01*
X151515000Y-78700279D02*
X151515000Y-78374721D01*
X136875000Y-78375000D02*
X136875000Y-78075000D01*
X140175000Y-78375000D02*
X136875000Y-78375000D01*
X140175000Y-78075000D02*
X140175000Y-78375000D01*
X136875000Y-75575000D02*
X136875000Y-75875000D01*
X140175000Y-75575000D02*
X136875000Y-75575000D01*
X140175000Y-75875000D02*
X140175000Y-75575000D01*
X141925000Y-78075000D02*
X141925000Y-78375000D01*
X141925000Y-78375000D02*
X145225000Y-78375000D01*
X145225000Y-78375000D02*
X145225000Y-78075000D01*
X141925000Y-75875000D02*
X141925000Y-75575000D01*
X141925000Y-75575000D02*
X145225000Y-75575000D01*
X145225000Y-75575000D02*
X145225000Y-75875000D01*
D14*
X153523600Y-90271300D02*
X153523600Y-92328700D01*
X154836739Y-92328700D02*
X155563261Y-92328700D01*
X156876400Y-92328700D02*
X156876400Y-90271300D01*
D15*
X145725000Y-91675000D02*
X145725000Y-93275000D01*
X142825000Y-91675000D02*
X142825000Y-93275000D01*
X145725000Y-91675000D02*
X142825000Y-91675000D01*
X145725000Y-93275000D02*
X142825000Y-93275000D01*
D14*
X143425200Y-117971800D02*
X146574800Y-117971800D01*
X146574800Y-112028200D02*
X143425200Y-112028200D01*
X142826801Y-112600000D02*
G75*
G03X142826801Y-112600000I-76200J0D01*
G01*
D16*
X146820000Y-88985000D02*
G75*
G03X146820000Y-88985000I-100000J0D01*
G01*
D17*
X146125000Y-87925000D02*
X146125000Y-81925000D01*
X151125000Y-87925000D02*
X151125000Y-81925000D01*
D14*
X155417999Y-98913140D02*
X155417999Y-99736858D01*
X155417999Y-100976999D02*
X157071999Y-100976999D01*
X157071999Y-100976999D02*
X157071999Y-99938139D01*
X157071999Y-97672999D02*
X155417999Y-97672999D01*
X157071999Y-98711859D02*
X157071999Y-97672999D01*
X155121999Y-96529999D02*
G75*
G03X155121999Y-96529999I-127000J0D01*
G01*
X151152000Y-95480000D02*
G75*
G03X151152000Y-95480000I-127000J0D01*
G01*
X153102000Y-97661860D02*
X153102000Y-96623000D01*
X153102000Y-96623000D02*
X151448000Y-96623000D01*
X153102000Y-99927000D02*
X153102000Y-98888140D01*
X151448000Y-99927000D02*
X153102000Y-99927000D01*
X151448000Y-97863141D02*
X151448000Y-98686859D01*
D10*
X153771667Y-78998570D02*
X153747858Y-79022379D01*
X153676429Y-79046189D01*
X153628810Y-79046189D01*
X153557381Y-79022379D01*
X153509762Y-78974760D01*
X153485953Y-78927141D01*
X153462143Y-78831903D01*
X153462143Y-78760475D01*
X153485953Y-78665237D01*
X153509762Y-78617618D01*
X153557381Y-78569999D01*
X153628810Y-78546189D01*
X153676429Y-78546189D01*
X153747858Y-78569999D01*
X153771667Y-78593808D01*
X154247858Y-79046189D02*
X153962143Y-79046189D01*
X154105001Y-79046189D02*
X154105001Y-78546189D01*
X154057381Y-78617618D01*
X154009762Y-78665237D01*
X153962143Y-78689046D01*
X158516666Y-92978571D02*
X158492857Y-93002380D01*
X158421428Y-93026190D01*
X158373809Y-93026190D01*
X158302380Y-93002380D01*
X158254761Y-92954761D01*
X158230952Y-92907142D01*
X158207142Y-92811904D01*
X158207142Y-92740476D01*
X158230952Y-92645238D01*
X158254761Y-92597619D01*
X158302380Y-92550000D01*
X158373809Y-92526190D01*
X158421428Y-92526190D01*
X158492857Y-92550000D01*
X158516666Y-92573809D01*
X158707142Y-92573809D02*
X158730952Y-92550000D01*
X158778571Y-92526190D01*
X158897619Y-92526190D01*
X158945238Y-92550000D01*
X158969047Y-92573809D01*
X158992857Y-92621428D01*
X158992857Y-92669047D01*
X158969047Y-92740476D01*
X158683333Y-93026190D01*
X158992857Y-93026190D01*
X148453571Y-96620833D02*
X148477380Y-96644642D01*
X148501190Y-96716071D01*
X148501190Y-96763690D01*
X148477380Y-96835119D01*
X148429761Y-96882738D01*
X148382142Y-96906547D01*
X148286904Y-96930357D01*
X148215476Y-96930357D01*
X148120238Y-96906547D01*
X148072619Y-96882738D01*
X148025000Y-96835119D01*
X148001190Y-96763690D01*
X148001190Y-96716071D01*
X148025000Y-96644642D01*
X148048809Y-96620833D01*
X148001190Y-96454166D02*
X148001190Y-96144642D01*
X148191666Y-96311309D01*
X148191666Y-96239880D01*
X148215476Y-96192261D01*
X148239285Y-96168452D01*
X148286904Y-96144642D01*
X148405952Y-96144642D01*
X148453571Y-96168452D01*
X148477380Y-96192261D01*
X148501190Y-96239880D01*
X148501190Y-96382738D01*
X148477380Y-96430357D01*
X148453571Y-96454166D01*
X155416666Y-79053571D02*
X155392857Y-79077380D01*
X155321428Y-79101190D01*
X155273809Y-79101190D01*
X155202380Y-79077380D01*
X155154761Y-79029761D01*
X155130952Y-78982142D01*
X155107142Y-78886904D01*
X155107142Y-78815476D01*
X155130952Y-78720238D01*
X155154761Y-78672619D01*
X155202380Y-78625000D01*
X155273809Y-78601190D01*
X155321428Y-78601190D01*
X155392857Y-78625000D01*
X155416666Y-78648809D01*
X155845238Y-78767857D02*
X155845238Y-79101190D01*
X155726190Y-78577380D02*
X155607142Y-78934523D01*
X155916666Y-78934523D01*
X156991666Y-79003571D02*
X156967857Y-79027380D01*
X156896428Y-79051190D01*
X156848809Y-79051190D01*
X156777380Y-79027380D01*
X156729761Y-78979761D01*
X156705952Y-78932142D01*
X156682142Y-78836904D01*
X156682142Y-78765476D01*
X156705952Y-78670238D01*
X156729761Y-78622619D01*
X156777380Y-78575000D01*
X156848809Y-78551190D01*
X156896428Y-78551190D01*
X156967857Y-78575000D01*
X156991666Y-78598809D01*
X157444047Y-78551190D02*
X157205952Y-78551190D01*
X157182142Y-78789285D01*
X157205952Y-78765476D01*
X157253571Y-78741666D01*
X157372619Y-78741666D01*
X157420238Y-78765476D01*
X157444047Y-78789285D01*
X157467857Y-78836904D01*
X157467857Y-78955952D01*
X157444047Y-79003571D01*
X157420238Y-79027380D01*
X157372619Y-79051190D01*
X157253571Y-79051190D01*
X157205952Y-79027380D01*
X157182142Y-79003571D01*
X149853571Y-91883333D02*
X149877380Y-91907142D01*
X149901190Y-91978571D01*
X149901190Y-92026190D01*
X149877380Y-92097619D01*
X149829761Y-92145238D01*
X149782142Y-92169047D01*
X149686904Y-92192857D01*
X149615476Y-92192857D01*
X149520238Y-92169047D01*
X149472619Y-92145238D01*
X149425000Y-92097619D01*
X149401190Y-92026190D01*
X149401190Y-91978571D01*
X149425000Y-91907142D01*
X149448809Y-91883333D01*
X149401190Y-91454761D02*
X149401190Y-91550000D01*
X149425000Y-91597619D01*
X149448809Y-91621428D01*
X149520238Y-91669047D01*
X149615476Y-91692857D01*
X149805952Y-91692857D01*
X149853571Y-91669047D01*
X149877380Y-91645238D01*
X149901190Y-91597619D01*
X149901190Y-91502380D01*
X149877380Y-91454761D01*
X149853571Y-91430952D01*
X149805952Y-91407142D01*
X149686904Y-91407142D01*
X149639285Y-91430952D01*
X149615476Y-91454761D01*
X149591666Y-91502380D01*
X149591666Y-91597619D01*
X149615476Y-91645238D01*
X149639285Y-91669047D01*
X149686904Y-91692857D01*
X158591666Y-79028571D02*
X158567857Y-79052380D01*
X158496428Y-79076190D01*
X158448809Y-79076190D01*
X158377380Y-79052380D01*
X158329761Y-79004761D01*
X158305952Y-78957142D01*
X158282142Y-78861904D01*
X158282142Y-78790476D01*
X158305952Y-78695238D01*
X158329761Y-78647619D01*
X158377380Y-78600000D01*
X158448809Y-78576190D01*
X158496428Y-78576190D01*
X158567857Y-78600000D01*
X158591666Y-78623809D01*
X158758333Y-78576190D02*
X159091666Y-78576190D01*
X158877380Y-79076190D01*
X149778571Y-93633333D02*
X149802380Y-93657142D01*
X149826190Y-93728571D01*
X149826190Y-93776190D01*
X149802380Y-93847619D01*
X149754761Y-93895238D01*
X149707142Y-93919047D01*
X149611904Y-93942857D01*
X149540476Y-93942857D01*
X149445238Y-93919047D01*
X149397619Y-93895238D01*
X149350000Y-93847619D01*
X149326190Y-93776190D01*
X149326190Y-93728571D01*
X149350000Y-93657142D01*
X149373809Y-93633333D01*
X149540476Y-93347619D02*
X149516666Y-93395238D01*
X149492857Y-93419047D01*
X149445238Y-93442857D01*
X149421428Y-93442857D01*
X149373809Y-93419047D01*
X149350000Y-93395238D01*
X149326190Y-93347619D01*
X149326190Y-93252380D01*
X149350000Y-93204761D01*
X149373809Y-93180952D01*
X149421428Y-93157142D01*
X149445238Y-93157142D01*
X149492857Y-93180952D01*
X149516666Y-93204761D01*
X149540476Y-93252380D01*
X149540476Y-93347619D01*
X149564285Y-93395238D01*
X149588095Y-93419047D01*
X149635714Y-93442857D01*
X149730952Y-93442857D01*
X149778571Y-93419047D01*
X149802380Y-93395238D01*
X149826190Y-93347619D01*
X149826190Y-93252380D01*
X149802380Y-93204761D01*
X149778571Y-93180952D01*
X149730952Y-93157142D01*
X149635714Y-93157142D01*
X149588095Y-93180952D01*
X149564285Y-93204761D01*
X149540476Y-93252380D01*
X158530952Y-94126190D02*
X158530952Y-93626190D01*
X158650000Y-93626190D01*
X158721428Y-93650000D01*
X158769047Y-93697619D01*
X158792857Y-93745238D01*
X158816666Y-93840476D01*
X158816666Y-93911904D01*
X158792857Y-94007142D01*
X158769047Y-94054761D01*
X158721428Y-94102380D01*
X158650000Y-94126190D01*
X158530952Y-94126190D01*
X159292857Y-94126190D02*
X159007142Y-94126190D01*
X159150000Y-94126190D02*
X159150000Y-93626190D01*
X159102380Y-93697619D01*
X159054761Y-93745238D01*
X159007142Y-93769047D01*
X131230952Y-75626190D02*
X131230952Y-75126190D01*
X131350000Y-75126190D01*
X131421428Y-75150000D01*
X131469047Y-75197619D01*
X131492857Y-75245238D01*
X131516666Y-75340476D01*
X131516666Y-75411904D01*
X131492857Y-75507142D01*
X131469047Y-75554761D01*
X131421428Y-75602380D01*
X131350000Y-75626190D01*
X131230952Y-75626190D01*
X131945238Y-75292857D02*
X131945238Y-75626190D01*
X131826190Y-75102380D02*
X131707142Y-75459523D01*
X132016666Y-75459523D01*
X132880952Y-75601190D02*
X132880952Y-75101190D01*
X133000000Y-75101190D01*
X133071428Y-75125000D01*
X133119047Y-75172619D01*
X133142857Y-75220238D01*
X133166666Y-75315476D01*
X133166666Y-75386904D01*
X133142857Y-75482142D01*
X133119047Y-75529761D01*
X133071428Y-75577380D01*
X133000000Y-75601190D01*
X132880952Y-75601190D01*
X133619047Y-75101190D02*
X133380952Y-75101190D01*
X133357142Y-75339285D01*
X133380952Y-75315476D01*
X133428571Y-75291666D01*
X133547619Y-75291666D01*
X133595238Y-75315476D01*
X133619047Y-75339285D01*
X133642857Y-75386904D01*
X133642857Y-75505952D01*
X133619047Y-75553571D01*
X133595238Y-75577380D01*
X133547619Y-75601190D01*
X133428571Y-75601190D01*
X133380952Y-75577380D01*
X133357142Y-75553571D01*
X134580952Y-75601190D02*
X134580952Y-75101190D01*
X134700000Y-75101190D01*
X134771428Y-75125000D01*
X134819047Y-75172619D01*
X134842857Y-75220238D01*
X134866666Y-75315476D01*
X134866666Y-75386904D01*
X134842857Y-75482142D01*
X134819047Y-75529761D01*
X134771428Y-75577380D01*
X134700000Y-75601190D01*
X134580952Y-75601190D01*
X135295238Y-75101190D02*
X135200000Y-75101190D01*
X135152380Y-75125000D01*
X135128571Y-75148809D01*
X135080952Y-75220238D01*
X135057142Y-75315476D01*
X135057142Y-75505952D01*
X135080952Y-75553571D01*
X135104761Y-75577380D01*
X135152380Y-75601190D01*
X135247619Y-75601190D01*
X135295238Y-75577380D01*
X135319047Y-75553571D01*
X135342857Y-75505952D01*
X135342857Y-75386904D01*
X135319047Y-75339285D01*
X135295238Y-75315476D01*
X135247619Y-75291666D01*
X135152380Y-75291666D01*
X135104761Y-75315476D01*
X135080952Y-75339285D01*
X135057142Y-75386904D01*
X145233333Y-98274285D02*
X145066666Y-98274285D01*
X145066666Y-98536190D02*
X145066666Y-98036190D01*
X145304761Y-98036190D01*
X145757142Y-98536190D02*
X145471428Y-98536190D01*
X145614285Y-98536190D02*
X145614285Y-98036190D01*
X145566666Y-98107619D01*
X145519047Y-98155238D01*
X145471428Y-98179047D01*
X140231904Y-91561190D02*
X140231904Y-91061190D01*
X140755714Y-91513571D02*
X140731904Y-91537380D01*
X140660476Y-91561190D01*
X140612857Y-91561190D01*
X140541428Y-91537380D01*
X140493809Y-91489761D01*
X140470000Y-91442142D01*
X140446190Y-91346904D01*
X140446190Y-91275476D01*
X140470000Y-91180238D01*
X140493809Y-91132619D01*
X140541428Y-91085000D01*
X140612857Y-91061190D01*
X140660476Y-91061190D01*
X140731904Y-91085000D01*
X140755714Y-91108809D01*
X141231904Y-91561190D02*
X140946190Y-91561190D01*
X141089047Y-91561190D02*
X141089047Y-91061190D01*
X141041428Y-91132619D01*
X140993809Y-91180238D01*
X140946190Y-91204047D01*
D11*
X143629674Y-89409710D02*
X143629674Y-89647806D01*
X143391578Y-89552568D02*
X143629674Y-89647806D01*
X143867769Y-89552568D01*
X143486816Y-89838282D02*
X143629674Y-89647806D01*
X143772531Y-89838282D01*
X143629674Y-89409710D02*
X143629674Y-89647806D01*
X143391578Y-89552568D02*
X143629674Y-89647806D01*
X143867769Y-89552568D01*
X143486816Y-89838282D02*
X143629674Y-89647806D01*
X143772531Y-89838282D01*
D10*
X153626190Y-84091666D02*
X153983333Y-84091666D01*
X154054761Y-84115476D01*
X154102380Y-84163095D01*
X154126190Y-84234523D01*
X154126190Y-84282142D01*
X154126190Y-83591666D02*
X154126190Y-83877380D01*
X154126190Y-83734523D02*
X153626190Y-83734523D01*
X153697619Y-83782142D01*
X153745238Y-83829761D01*
X153769047Y-83877380D01*
X139916666Y-97201190D02*
X139750000Y-96963095D01*
X139630952Y-97201190D02*
X139630952Y-96701190D01*
X139821428Y-96701190D01*
X139869047Y-96725000D01*
X139892857Y-96748809D01*
X139916666Y-96796428D01*
X139916666Y-96867857D01*
X139892857Y-96915476D01*
X139869047Y-96939285D01*
X139821428Y-96963095D01*
X139630952Y-96963095D01*
X140392857Y-97201190D02*
X140107142Y-97201190D01*
X140250000Y-97201190D02*
X140250000Y-96701190D01*
X140202380Y-96772619D01*
X140154761Y-96820238D01*
X140107142Y-96844047D01*
X136591666Y-97176190D02*
X136425000Y-96938095D01*
X136305952Y-97176190D02*
X136305952Y-96676190D01*
X136496428Y-96676190D01*
X136544047Y-96700000D01*
X136567857Y-96723809D01*
X136591666Y-96771428D01*
X136591666Y-96842857D01*
X136567857Y-96890476D01*
X136544047Y-96914285D01*
X136496428Y-96938095D01*
X136305952Y-96938095D01*
X136782142Y-96723809D02*
X136805952Y-96700000D01*
X136853571Y-96676190D01*
X136972619Y-96676190D01*
X137020238Y-96700000D01*
X137044047Y-96723809D01*
X137067857Y-96771428D01*
X137067857Y-96819047D01*
X137044047Y-96890476D01*
X136758333Y-97176190D01*
X137067857Y-97176190D01*
X156326190Y-95833333D02*
X156088095Y-96000000D01*
X156326190Y-96119047D02*
X155826190Y-96119047D01*
X155826190Y-95928571D01*
X155850000Y-95880952D01*
X155873809Y-95857142D01*
X155921428Y-95833333D01*
X155992857Y-95833333D01*
X156040476Y-95857142D01*
X156064285Y-95880952D01*
X156088095Y-95928571D01*
X156088095Y-96119047D01*
X155826190Y-95666666D02*
X155826190Y-95357142D01*
X156016666Y-95523809D01*
X156016666Y-95452380D01*
X156040476Y-95404761D01*
X156064285Y-95380952D01*
X156111904Y-95357142D01*
X156230952Y-95357142D01*
X156278571Y-95380952D01*
X156302380Y-95404761D01*
X156326190Y-95452380D01*
X156326190Y-95595238D01*
X156302380Y-95642857D01*
X156278571Y-95666666D01*
X134966666Y-97201190D02*
X134800000Y-96963095D01*
X134680952Y-97201190D02*
X134680952Y-96701190D01*
X134871428Y-96701190D01*
X134919047Y-96725000D01*
X134942857Y-96748809D01*
X134966666Y-96796428D01*
X134966666Y-96867857D01*
X134942857Y-96915476D01*
X134919047Y-96939285D01*
X134871428Y-96963095D01*
X134680952Y-96963095D01*
X135395238Y-96867857D02*
X135395238Y-97201190D01*
X135276190Y-96677380D02*
X135157142Y-97034523D01*
X135466666Y-97034523D01*
X153426190Y-95683333D02*
X153188095Y-95850000D01*
X153426190Y-95969047D02*
X152926190Y-95969047D01*
X152926190Y-95778571D01*
X152950000Y-95730952D01*
X152973809Y-95707142D01*
X153021428Y-95683333D01*
X153092857Y-95683333D01*
X153140476Y-95707142D01*
X153164285Y-95730952D01*
X153188095Y-95778571D01*
X153188095Y-95969047D01*
X152926190Y-95230952D02*
X152926190Y-95469047D01*
X153164285Y-95492857D01*
X153140476Y-95469047D01*
X153116666Y-95421428D01*
X153116666Y-95302380D01*
X153140476Y-95254761D01*
X153164285Y-95230952D01*
X153211904Y-95207142D01*
X153330952Y-95207142D01*
X153378571Y-95230952D01*
X153402380Y-95254761D01*
X153426190Y-95302380D01*
X153426190Y-95421428D01*
X153402380Y-95469047D01*
X153378571Y-95492857D01*
X151116666Y-94476190D02*
X150950000Y-94238095D01*
X150830952Y-94476190D02*
X150830952Y-93976190D01*
X151021428Y-93976190D01*
X151069047Y-94000000D01*
X151092857Y-94023809D01*
X151116666Y-94071428D01*
X151116666Y-94142857D01*
X151092857Y-94190476D01*
X151069047Y-94214285D01*
X151021428Y-94238095D01*
X150830952Y-94238095D01*
X151545238Y-93976190D02*
X151450000Y-93976190D01*
X151402380Y-94000000D01*
X151378571Y-94023809D01*
X151330952Y-94095238D01*
X151307142Y-94190476D01*
X151307142Y-94380952D01*
X151330952Y-94428571D01*
X151354761Y-94452380D01*
X151402380Y-94476190D01*
X151497619Y-94476190D01*
X151545238Y-94452380D01*
X151569047Y-94428571D01*
X151592857Y-94380952D01*
X151592857Y-94261904D01*
X151569047Y-94214285D01*
X151545238Y-94190476D01*
X151497619Y-94166666D01*
X151402380Y-94166666D01*
X151354761Y-94190476D01*
X151330952Y-94214285D01*
X151307142Y-94261904D01*
X137851190Y-79883333D02*
X137613095Y-80050000D01*
X137851190Y-80169047D02*
X137351190Y-80169047D01*
X137351190Y-79978571D01*
X137375000Y-79930952D01*
X137398809Y-79907142D01*
X137446428Y-79883333D01*
X137517857Y-79883333D01*
X137565476Y-79907142D01*
X137589285Y-79930952D01*
X137613095Y-79978571D01*
X137613095Y-80169047D01*
X137351190Y-79716666D02*
X137351190Y-79383333D01*
X137851190Y-79597619D01*
X136051190Y-95558333D02*
X135813095Y-95725000D01*
X136051190Y-95844047D02*
X135551190Y-95844047D01*
X135551190Y-95653571D01*
X135575000Y-95605952D01*
X135598809Y-95582142D01*
X135646428Y-95558333D01*
X135717857Y-95558333D01*
X135765476Y-95582142D01*
X135789285Y-95605952D01*
X135813095Y-95653571D01*
X135813095Y-95844047D01*
X135765476Y-95272619D02*
X135741666Y-95320238D01*
X135717857Y-95344047D01*
X135670238Y-95367857D01*
X135646428Y-95367857D01*
X135598809Y-95344047D01*
X135575000Y-95320238D01*
X135551190Y-95272619D01*
X135551190Y-95177380D01*
X135575000Y-95129761D01*
X135598809Y-95105952D01*
X135646428Y-95082142D01*
X135670238Y-95082142D01*
X135717857Y-95105952D01*
X135741666Y-95129761D01*
X135765476Y-95177380D01*
X135765476Y-95272619D01*
X135789285Y-95320238D01*
X135813095Y-95344047D01*
X135860714Y-95367857D01*
X135955952Y-95367857D01*
X136003571Y-95344047D01*
X136027380Y-95320238D01*
X136051190Y-95272619D01*
X136051190Y-95177380D01*
X136027380Y-95129761D01*
X136003571Y-95105952D01*
X135955952Y-95082142D01*
X135860714Y-95082142D01*
X135813095Y-95105952D01*
X135789285Y-95129761D01*
X135765476Y-95177380D01*
X136026190Y-93958333D02*
X135788095Y-94125000D01*
X136026190Y-94244047D02*
X135526190Y-94244047D01*
X135526190Y-94053571D01*
X135550000Y-94005952D01*
X135573809Y-93982142D01*
X135621428Y-93958333D01*
X135692857Y-93958333D01*
X135740476Y-93982142D01*
X135764285Y-94005952D01*
X135788095Y-94053571D01*
X135788095Y-94244047D01*
X136026190Y-93720238D02*
X136026190Y-93625000D01*
X136002380Y-93577380D01*
X135978571Y-93553571D01*
X135907142Y-93505952D01*
X135811904Y-93482142D01*
X135621428Y-93482142D01*
X135573809Y-93505952D01*
X135550000Y-93529761D01*
X135526190Y-93577380D01*
X135526190Y-93672619D01*
X135550000Y-93720238D01*
X135573809Y-93744047D01*
X135621428Y-93767857D01*
X135740476Y-93767857D01*
X135788095Y-93744047D01*
X135811904Y-93720238D01*
X135835714Y-93672619D01*
X135835714Y-93577380D01*
X135811904Y-93529761D01*
X135788095Y-93505952D01*
X135740476Y-93482142D01*
X135976190Y-92496428D02*
X135738095Y-92663095D01*
X135976190Y-92782142D02*
X135476190Y-92782142D01*
X135476190Y-92591666D01*
X135500000Y-92544047D01*
X135523809Y-92520238D01*
X135571428Y-92496428D01*
X135642857Y-92496428D01*
X135690476Y-92520238D01*
X135714285Y-92544047D01*
X135738095Y-92591666D01*
X135738095Y-92782142D01*
X135976190Y-92020238D02*
X135976190Y-92305952D01*
X135976190Y-92163095D02*
X135476190Y-92163095D01*
X135547619Y-92210714D01*
X135595238Y-92258333D01*
X135619047Y-92305952D01*
X135476190Y-91710714D02*
X135476190Y-91663095D01*
X135500000Y-91615476D01*
X135523809Y-91591666D01*
X135571428Y-91567857D01*
X135666666Y-91544047D01*
X135785714Y-91544047D01*
X135880952Y-91567857D01*
X135928571Y-91591666D01*
X135952380Y-91615476D01*
X135976190Y-91663095D01*
X135976190Y-91710714D01*
X135952380Y-91758333D01*
X135928571Y-91782142D01*
X135880952Y-91805952D01*
X135785714Y-91829761D01*
X135666666Y-91829761D01*
X135571428Y-91805952D01*
X135523809Y-91782142D01*
X135500000Y-91758333D01*
X135476190Y-91710714D01*
X138178571Y-82426190D02*
X138011904Y-82188095D01*
X137892857Y-82426190D02*
X137892857Y-81926190D01*
X138083333Y-81926190D01*
X138130952Y-81950000D01*
X138154761Y-81973809D01*
X138178571Y-82021428D01*
X138178571Y-82092857D01*
X138154761Y-82140476D01*
X138130952Y-82164285D01*
X138083333Y-82188095D01*
X137892857Y-82188095D01*
X138654761Y-82426190D02*
X138369047Y-82426190D01*
X138511904Y-82426190D02*
X138511904Y-81926190D01*
X138464285Y-81997619D01*
X138416666Y-82045238D01*
X138369047Y-82069047D01*
X139130952Y-82426190D02*
X138845238Y-82426190D01*
X138988095Y-82426190D02*
X138988095Y-81926190D01*
X138940476Y-81997619D01*
X138892857Y-82045238D01*
X138845238Y-82069047D01*
X142328571Y-80851190D02*
X142161904Y-80613095D01*
X142042857Y-80851190D02*
X142042857Y-80351190D01*
X142233333Y-80351190D01*
X142280952Y-80375000D01*
X142304761Y-80398809D01*
X142328571Y-80446428D01*
X142328571Y-80517857D01*
X142304761Y-80565476D01*
X142280952Y-80589285D01*
X142233333Y-80613095D01*
X142042857Y-80613095D01*
X142804761Y-80851190D02*
X142519047Y-80851190D01*
X142661904Y-80851190D02*
X142661904Y-80351190D01*
X142614285Y-80422619D01*
X142566666Y-80470238D01*
X142519047Y-80494047D01*
X142995238Y-80398809D02*
X143019047Y-80375000D01*
X143066666Y-80351190D01*
X143185714Y-80351190D01*
X143233333Y-80375000D01*
X143257142Y-80398809D01*
X143280952Y-80446428D01*
X143280952Y-80494047D01*
X143257142Y-80565476D01*
X142971428Y-80851190D01*
X143280952Y-80851190D01*
X135926190Y-89146428D02*
X135688095Y-89313095D01*
X135926190Y-89432142D02*
X135426190Y-89432142D01*
X135426190Y-89241666D01*
X135450000Y-89194047D01*
X135473809Y-89170238D01*
X135521428Y-89146428D01*
X135592857Y-89146428D01*
X135640476Y-89170238D01*
X135664285Y-89194047D01*
X135688095Y-89241666D01*
X135688095Y-89432142D01*
X135926190Y-88670238D02*
X135926190Y-88955952D01*
X135926190Y-88813095D02*
X135426190Y-88813095D01*
X135497619Y-88860714D01*
X135545238Y-88908333D01*
X135569047Y-88955952D01*
X135426190Y-88503571D02*
X135426190Y-88194047D01*
X135616666Y-88360714D01*
X135616666Y-88289285D01*
X135640476Y-88241666D01*
X135664285Y-88217857D01*
X135711904Y-88194047D01*
X135830952Y-88194047D01*
X135878571Y-88217857D01*
X135902380Y-88241666D01*
X135926190Y-88289285D01*
X135926190Y-88432142D01*
X135902380Y-88479761D01*
X135878571Y-88503571D01*
X135901190Y-87421428D02*
X135663095Y-87588095D01*
X135901190Y-87707142D02*
X135401190Y-87707142D01*
X135401190Y-87516666D01*
X135425000Y-87469047D01*
X135448809Y-87445238D01*
X135496428Y-87421428D01*
X135567857Y-87421428D01*
X135615476Y-87445238D01*
X135639285Y-87469047D01*
X135663095Y-87516666D01*
X135663095Y-87707142D01*
X135901190Y-86945238D02*
X135901190Y-87230952D01*
X135901190Y-87088095D02*
X135401190Y-87088095D01*
X135472619Y-87135714D01*
X135520238Y-87183333D01*
X135544047Y-87230952D01*
X135567857Y-86516666D02*
X135901190Y-86516666D01*
X135377380Y-86635714D02*
X135734523Y-86754761D01*
X135734523Y-86445238D01*
X135926190Y-90846428D02*
X135688095Y-91013095D01*
X135926190Y-91132142D02*
X135426190Y-91132142D01*
X135426190Y-90941666D01*
X135450000Y-90894047D01*
X135473809Y-90870238D01*
X135521428Y-90846428D01*
X135592857Y-90846428D01*
X135640476Y-90870238D01*
X135664285Y-90894047D01*
X135688095Y-90941666D01*
X135688095Y-91132142D01*
X135926190Y-90370238D02*
X135926190Y-90655952D01*
X135926190Y-90513095D02*
X135426190Y-90513095D01*
X135497619Y-90560714D01*
X135545238Y-90608333D01*
X135569047Y-90655952D01*
X135426190Y-89917857D02*
X135426190Y-90155952D01*
X135664285Y-90179761D01*
X135640476Y-90155952D01*
X135616666Y-90108333D01*
X135616666Y-89989285D01*
X135640476Y-89941666D01*
X135664285Y-89917857D01*
X135711904Y-89894047D01*
X135830952Y-89894047D01*
X135878571Y-89917857D01*
X135902380Y-89941666D01*
X135926190Y-89989285D01*
X135926190Y-90108333D01*
X135902380Y-90155952D01*
X135878571Y-90179761D01*
X131253571Y-82426190D02*
X131086904Y-82188095D01*
X130967857Y-82426190D02*
X130967857Y-81926190D01*
X131158333Y-81926190D01*
X131205952Y-81950000D01*
X131229761Y-81973809D01*
X131253571Y-82021428D01*
X131253571Y-82092857D01*
X131229761Y-82140476D01*
X131205952Y-82164285D01*
X131158333Y-82188095D01*
X130967857Y-82188095D01*
X131729761Y-82426190D02*
X131444047Y-82426190D01*
X131586904Y-82426190D02*
X131586904Y-81926190D01*
X131539285Y-81997619D01*
X131491666Y-82045238D01*
X131444047Y-82069047D01*
X132158333Y-81926190D02*
X132063095Y-81926190D01*
X132015476Y-81950000D01*
X131991666Y-81973809D01*
X131944047Y-82045238D01*
X131920238Y-82140476D01*
X131920238Y-82330952D01*
X131944047Y-82378571D01*
X131967857Y-82402380D01*
X132015476Y-82426190D01*
X132110714Y-82426190D01*
X132158333Y-82402380D01*
X132182142Y-82378571D01*
X132205952Y-82330952D01*
X132205952Y-82211904D01*
X132182142Y-82164285D01*
X132158333Y-82140476D01*
X132110714Y-82116666D01*
X132015476Y-82116666D01*
X131967857Y-82140476D01*
X131944047Y-82164285D01*
X131920238Y-82211904D01*
X132853571Y-82476190D02*
X132686904Y-82238095D01*
X132567857Y-82476190D02*
X132567857Y-81976190D01*
X132758333Y-81976190D01*
X132805952Y-82000000D01*
X132829761Y-82023809D01*
X132853571Y-82071428D01*
X132853571Y-82142857D01*
X132829761Y-82190476D01*
X132805952Y-82214285D01*
X132758333Y-82238095D01*
X132567857Y-82238095D01*
X133329761Y-82476190D02*
X133044047Y-82476190D01*
X133186904Y-82476190D02*
X133186904Y-81976190D01*
X133139285Y-82047619D01*
X133091666Y-82095238D01*
X133044047Y-82119047D01*
X133496428Y-81976190D02*
X133829761Y-81976190D01*
X133615476Y-82476190D01*
X134678571Y-82476190D02*
X134511904Y-82238095D01*
X134392857Y-82476190D02*
X134392857Y-81976190D01*
X134583333Y-81976190D01*
X134630952Y-82000000D01*
X134654761Y-82023809D01*
X134678571Y-82071428D01*
X134678571Y-82142857D01*
X134654761Y-82190476D01*
X134630952Y-82214285D01*
X134583333Y-82238095D01*
X134392857Y-82238095D01*
X135154761Y-82476190D02*
X134869047Y-82476190D01*
X135011904Y-82476190D02*
X135011904Y-81976190D01*
X134964285Y-82047619D01*
X134916666Y-82095238D01*
X134869047Y-82119047D01*
X135440476Y-82190476D02*
X135392857Y-82166666D01*
X135369047Y-82142857D01*
X135345238Y-82095238D01*
X135345238Y-82071428D01*
X135369047Y-82023809D01*
X135392857Y-82000000D01*
X135440476Y-81976190D01*
X135535714Y-81976190D01*
X135583333Y-82000000D01*
X135607142Y-82023809D01*
X135630952Y-82071428D01*
X135630952Y-82095238D01*
X135607142Y-82142857D01*
X135583333Y-82166666D01*
X135535714Y-82190476D01*
X135440476Y-82190476D01*
X135392857Y-82214285D01*
X135369047Y-82238095D01*
X135345238Y-82285714D01*
X135345238Y-82380952D01*
X135369047Y-82428571D01*
X135392857Y-82452380D01*
X135440476Y-82476190D01*
X135535714Y-82476190D01*
X135583333Y-82452380D01*
X135607142Y-82428571D01*
X135630952Y-82380952D01*
X135630952Y-82285714D01*
X135607142Y-82238095D01*
X135583333Y-82214285D01*
X135535714Y-82190476D01*
X148551190Y-98421428D02*
X148313095Y-98588095D01*
X148551190Y-98707142D02*
X148051190Y-98707142D01*
X148051190Y-98516666D01*
X148075000Y-98469047D01*
X148098809Y-98445238D01*
X148146428Y-98421428D01*
X148217857Y-98421428D01*
X148265476Y-98445238D01*
X148289285Y-98469047D01*
X148313095Y-98516666D01*
X148313095Y-98707142D01*
X148551190Y-97945238D02*
X148551190Y-98230952D01*
X148551190Y-98088095D02*
X148051190Y-98088095D01*
X148122619Y-98135714D01*
X148170238Y-98183333D01*
X148194047Y-98230952D01*
X148551190Y-97707142D02*
X148551190Y-97611904D01*
X148527380Y-97564285D01*
X148503571Y-97540476D01*
X148432142Y-97492857D01*
X148336904Y-97469047D01*
X148146428Y-97469047D01*
X148098809Y-97492857D01*
X148075000Y-97516666D01*
X148051190Y-97564285D01*
X148051190Y-97659523D01*
X148075000Y-97707142D01*
X148098809Y-97730952D01*
X148146428Y-97754761D01*
X148265476Y-97754761D01*
X148313095Y-97730952D01*
X148336904Y-97707142D01*
X148360714Y-97659523D01*
X148360714Y-97564285D01*
X148336904Y-97516666D01*
X148313095Y-97492857D01*
X148265476Y-97469047D01*
X130603571Y-86276190D02*
X130436904Y-86038095D01*
X130317857Y-86276190D02*
X130317857Y-85776190D01*
X130508333Y-85776190D01*
X130555952Y-85800000D01*
X130579761Y-85823809D01*
X130603571Y-85871428D01*
X130603571Y-85942857D01*
X130579761Y-85990476D01*
X130555952Y-86014285D01*
X130508333Y-86038095D01*
X130317857Y-86038095D01*
X130794047Y-85823809D02*
X130817857Y-85800000D01*
X130865476Y-85776190D01*
X130984523Y-85776190D01*
X131032142Y-85800000D01*
X131055952Y-85823809D01*
X131079761Y-85871428D01*
X131079761Y-85919047D01*
X131055952Y-85990476D01*
X130770238Y-86276190D01*
X131079761Y-86276190D01*
X131555952Y-86276190D02*
X131270238Y-86276190D01*
X131413095Y-86276190D02*
X131413095Y-85776190D01*
X131365476Y-85847619D01*
X131317857Y-85895238D01*
X131270238Y-85919047D01*
X143128571Y-97201190D02*
X142961904Y-96963095D01*
X142842857Y-97201190D02*
X142842857Y-96701190D01*
X143033333Y-96701190D01*
X143080952Y-96725000D01*
X143104761Y-96748809D01*
X143128571Y-96796428D01*
X143128571Y-96867857D01*
X143104761Y-96915476D01*
X143080952Y-96939285D01*
X143033333Y-96963095D01*
X142842857Y-96963095D01*
X143319047Y-96748809D02*
X143342857Y-96725000D01*
X143390476Y-96701190D01*
X143509523Y-96701190D01*
X143557142Y-96725000D01*
X143580952Y-96748809D01*
X143604761Y-96796428D01*
X143604761Y-96844047D01*
X143580952Y-96915476D01*
X143295238Y-97201190D01*
X143604761Y-97201190D01*
X143771428Y-96701190D02*
X144080952Y-96701190D01*
X143914285Y-96891666D01*
X143985714Y-96891666D01*
X144033333Y-96915476D01*
X144057142Y-96939285D01*
X144080952Y-96986904D01*
X144080952Y-97105952D01*
X144057142Y-97153571D01*
X144033333Y-97177380D01*
X143985714Y-97201190D01*
X143842857Y-97201190D01*
X143795238Y-97177380D01*
X143771428Y-97153571D01*
X138003571Y-97226190D02*
X137836904Y-96988095D01*
X137717857Y-97226190D02*
X137717857Y-96726190D01*
X137908333Y-96726190D01*
X137955952Y-96750000D01*
X137979761Y-96773809D01*
X138003571Y-96821428D01*
X138003571Y-96892857D01*
X137979761Y-96940476D01*
X137955952Y-96964285D01*
X137908333Y-96988095D01*
X137717857Y-96988095D01*
X138194047Y-96773809D02*
X138217857Y-96750000D01*
X138265476Y-96726190D01*
X138384523Y-96726190D01*
X138432142Y-96750000D01*
X138455952Y-96773809D01*
X138479761Y-96821428D01*
X138479761Y-96869047D01*
X138455952Y-96940476D01*
X138170238Y-97226190D01*
X138479761Y-97226190D01*
X138908333Y-96892857D02*
X138908333Y-97226190D01*
X138789285Y-96702380D02*
X138670238Y-97059523D01*
X138979761Y-97059523D01*
X141328571Y-97201190D02*
X141161904Y-96963095D01*
X141042857Y-97201190D02*
X141042857Y-96701190D01*
X141233333Y-96701190D01*
X141280952Y-96725000D01*
X141304761Y-96748809D01*
X141328571Y-96796428D01*
X141328571Y-96867857D01*
X141304761Y-96915476D01*
X141280952Y-96939285D01*
X141233333Y-96963095D01*
X141042857Y-96963095D01*
X141519047Y-96748809D02*
X141542857Y-96725000D01*
X141590476Y-96701190D01*
X141709523Y-96701190D01*
X141757142Y-96725000D01*
X141780952Y-96748809D01*
X141804761Y-96796428D01*
X141804761Y-96844047D01*
X141780952Y-96915476D01*
X141495238Y-97201190D01*
X141804761Y-97201190D01*
X142257142Y-96701190D02*
X142019047Y-96701190D01*
X141995238Y-96939285D01*
X142019047Y-96915476D01*
X142066666Y-96891666D01*
X142185714Y-96891666D01*
X142233333Y-96915476D01*
X142257142Y-96939285D01*
X142280952Y-96986904D01*
X142280952Y-97105952D01*
X142257142Y-97153571D01*
X142233333Y-97177380D01*
X142185714Y-97201190D01*
X142066666Y-97201190D01*
X142019047Y-97177380D01*
X141995238Y-97153571D01*
X151101190Y-79571428D02*
X150863095Y-79738095D01*
X151101190Y-79857142D02*
X150601190Y-79857142D01*
X150601190Y-79666666D01*
X150625000Y-79619047D01*
X150648809Y-79595238D01*
X150696428Y-79571428D01*
X150767857Y-79571428D01*
X150815476Y-79595238D01*
X150839285Y-79619047D01*
X150863095Y-79666666D01*
X150863095Y-79857142D01*
X150648809Y-79380952D02*
X150625000Y-79357142D01*
X150601190Y-79309523D01*
X150601190Y-79190476D01*
X150625000Y-79142857D01*
X150648809Y-79119047D01*
X150696428Y-79095238D01*
X150744047Y-79095238D01*
X150815476Y-79119047D01*
X151101190Y-79404761D01*
X151101190Y-79095238D01*
X150601190Y-78666666D02*
X150601190Y-78761904D01*
X150625000Y-78809523D01*
X150648809Y-78833333D01*
X150720238Y-78880952D01*
X150815476Y-78904761D01*
X151005952Y-78904761D01*
X151053571Y-78880952D01*
X151077380Y-78857142D01*
X151101190Y-78809523D01*
X151101190Y-78714285D01*
X151077380Y-78666666D01*
X151053571Y-78642857D01*
X151005952Y-78619047D01*
X150886904Y-78619047D01*
X150839285Y-78642857D01*
X150815476Y-78666666D01*
X150791666Y-78714285D01*
X150791666Y-78809523D01*
X150815476Y-78857142D01*
X150839285Y-78880952D01*
X150886904Y-78904761D01*
X136633333Y-79152380D02*
X136704761Y-79176190D01*
X136823809Y-79176190D01*
X136871428Y-79152380D01*
X136895238Y-79128571D01*
X136919047Y-79080952D01*
X136919047Y-79033333D01*
X136895238Y-78985714D01*
X136871428Y-78961904D01*
X136823809Y-78938095D01*
X136728571Y-78914285D01*
X136680952Y-78890476D01*
X136657142Y-78866666D01*
X136633333Y-78819047D01*
X136633333Y-78771428D01*
X136657142Y-78723809D01*
X136680952Y-78700000D01*
X136728571Y-78676190D01*
X136847619Y-78676190D01*
X136919047Y-78700000D01*
X137085714Y-78676190D02*
X137204761Y-79176190D01*
X137300000Y-78819047D01*
X137395238Y-79176190D01*
X137514285Y-78676190D01*
X137966666Y-79176190D02*
X137680952Y-79176190D01*
X137823809Y-79176190D02*
X137823809Y-78676190D01*
X137776190Y-78747619D01*
X137728571Y-78795238D01*
X137680952Y-78819047D01*
X144533333Y-79252380D02*
X144604761Y-79276190D01*
X144723809Y-79276190D01*
X144771428Y-79252380D01*
X144795238Y-79228571D01*
X144819047Y-79180952D01*
X144819047Y-79133333D01*
X144795238Y-79085714D01*
X144771428Y-79061904D01*
X144723809Y-79038095D01*
X144628571Y-79014285D01*
X144580952Y-78990476D01*
X144557142Y-78966666D01*
X144533333Y-78919047D01*
X144533333Y-78871428D01*
X144557142Y-78823809D01*
X144580952Y-78800000D01*
X144628571Y-78776190D01*
X144747619Y-78776190D01*
X144819047Y-78800000D01*
X144985714Y-78776190D02*
X145104761Y-79276190D01*
X145200000Y-78919047D01*
X145295238Y-79276190D01*
X145414285Y-78776190D01*
X145580952Y-78823809D02*
X145604761Y-78800000D01*
X145652380Y-78776190D01*
X145771428Y-78776190D01*
X145819047Y-78800000D01*
X145842857Y-78823809D01*
X145866666Y-78871428D01*
X145866666Y-78919047D01*
X145842857Y-78990476D01*
X145557142Y-79276190D01*
X145866666Y-79276190D01*
X152401190Y-91855952D02*
X152805952Y-91855952D01*
X152853571Y-91832142D01*
X152877380Y-91808333D01*
X152901190Y-91760714D01*
X152901190Y-91665476D01*
X152877380Y-91617857D01*
X152853571Y-91594047D01*
X152805952Y-91570238D01*
X152401190Y-91570238D01*
X152901190Y-91070238D02*
X152901190Y-91355952D01*
X152901190Y-91213095D02*
X152401190Y-91213095D01*
X152472619Y-91260714D01*
X152520238Y-91308333D01*
X152544047Y-91355952D01*
X143919047Y-90426190D02*
X143919047Y-90830952D01*
X143942857Y-90878571D01*
X143966666Y-90902380D01*
X144014285Y-90926190D01*
X144109523Y-90926190D01*
X144157142Y-90902380D01*
X144180952Y-90878571D01*
X144204761Y-90830952D01*
X144204761Y-90426190D01*
X144419047Y-90473809D02*
X144442857Y-90450000D01*
X144490476Y-90426190D01*
X144609523Y-90426190D01*
X144657142Y-90450000D01*
X144680952Y-90473809D01*
X144704761Y-90521428D01*
X144704761Y-90569047D01*
X144680952Y-90640476D01*
X144395238Y-90926190D01*
X144704761Y-90926190D01*
X144619047Y-110766190D02*
X144619047Y-111170952D01*
X144642857Y-111218571D01*
X144666666Y-111242380D01*
X144714285Y-111266190D01*
X144809523Y-111266190D01*
X144857142Y-111242380D01*
X144880952Y-111218571D01*
X144904761Y-111170952D01*
X144904761Y-110766190D01*
X145095238Y-110766190D02*
X145404761Y-110766190D01*
X145238095Y-110956666D01*
X145309523Y-110956666D01*
X145357142Y-110980476D01*
X145380952Y-111004285D01*
X145404761Y-111051904D01*
X145404761Y-111170952D01*
X145380952Y-111218571D01*
X145357142Y-111242380D01*
X145309523Y-111266190D01*
X145166666Y-111266190D01*
X145119047Y-111242380D01*
X145095238Y-111218571D01*
X144716190Y-85630952D02*
X145120952Y-85630952D01*
X145168571Y-85607142D01*
X145192380Y-85583333D01*
X145216190Y-85535714D01*
X145216190Y-85440476D01*
X145192380Y-85392857D01*
X145168571Y-85369047D01*
X145120952Y-85345238D01*
X144716190Y-85345238D01*
X144882857Y-84892857D02*
X145216190Y-84892857D01*
X144692380Y-85011904D02*
X145049523Y-85130952D01*
X145049523Y-84821428D01*
X155819047Y-101326190D02*
X155819047Y-101730952D01*
X155842857Y-101778571D01*
X155866666Y-101802380D01*
X155914285Y-101826190D01*
X156009523Y-101826190D01*
X156057142Y-101802380D01*
X156080952Y-101778571D01*
X156104761Y-101730952D01*
X156104761Y-101326190D01*
X156580952Y-101326190D02*
X156342857Y-101326190D01*
X156319047Y-101564285D01*
X156342857Y-101540476D01*
X156390476Y-101516666D01*
X156509523Y-101516666D01*
X156557142Y-101540476D01*
X156580952Y-101564285D01*
X156604761Y-101611904D01*
X156604761Y-101730952D01*
X156580952Y-101778571D01*
X156557142Y-101802380D01*
X156509523Y-101826190D01*
X156390476Y-101826190D01*
X156342857Y-101802380D01*
X156319047Y-101778571D01*
X151819047Y-100326190D02*
X151819047Y-100730952D01*
X151842857Y-100778571D01*
X151866666Y-100802380D01*
X151914285Y-100826190D01*
X152009523Y-100826190D01*
X152057142Y-100802380D01*
X152080952Y-100778571D01*
X152104761Y-100730952D01*
X152104761Y-100326190D01*
X152557142Y-100326190D02*
X152461904Y-100326190D01*
X152414285Y-100350000D01*
X152390476Y-100373809D01*
X152342857Y-100445238D01*
X152319047Y-100540476D01*
X152319047Y-100730952D01*
X152342857Y-100778571D01*
X152366666Y-100802380D01*
X152414285Y-100826190D01*
X152509523Y-100826190D01*
X152557142Y-100802380D01*
X152580952Y-100778571D01*
X152604761Y-100730952D01*
X152604761Y-100611904D01*
X152580952Y-100564285D01*
X152557142Y-100540476D01*
X152509523Y-100516666D01*
X152414285Y-100516666D01*
X152366666Y-100540476D01*
X152342857Y-100564285D01*
X152319047Y-100611904D01*
M02*
