G04 #@! TF.GenerationSoftware,KiCad,Pcbnew,(5.1.5)-3*
G04 #@! TF.CreationDate,2020-09-28T16:56:36+02:00*
G04 #@! TF.ProjectId,MAX30102_Pulse Ox,4d415833-3031-4303-925f-50756c736520,v1.4*
G04 #@! TF.SameCoordinates,Original*
G04 #@! TF.FileFunction,Copper,L3,Inr*
G04 #@! TF.FilePolarity,Positive*
%FSLAX46Y46*%
G04 Gerber Fmt 4.6, Leading zero omitted, Abs format (unit mm)*
G04 Created by KiCad (PCBNEW (5.1.5)-3) date 2020-09-28 16:56:36*
%MOMM*%
%LPD*%
G04 APERTURE LIST*
%ADD10C,0.800000*%
%ADD11C,0.381000*%
%ADD12C,0.254000*%
%ADD13C,0.304800*%
G04 APERTURE END LIST*
D10*
X144275000Y-76850000D03*
X136175000Y-79250000D03*
X149975000Y-91100000D03*
X144275000Y-90550000D03*
X130825000Y-92525000D03*
X158500000Y-100700000D03*
X156075000Y-112100000D03*
X134225000Y-112700000D03*
X144975000Y-109850000D03*
X146925000Y-100800000D03*
X156250000Y-78775000D03*
X152900000Y-80875000D03*
X143825493Y-87854661D03*
X155825000Y-94500000D03*
X147975000Y-121850000D03*
X151700000Y-121050000D03*
X138150000Y-121125000D03*
X152050000Y-76150000D03*
X149025000Y-80550000D03*
X148350000Y-114999990D03*
X130649799Y-90316780D03*
X136575000Y-90200000D03*
X144050000Y-89375000D03*
X140625000Y-101100000D03*
X136650000Y-101050000D03*
X135075000Y-101075000D03*
X152750000Y-89400000D03*
X153625000Y-101950000D03*
X152750000Y-94750000D03*
X143775000Y-95775000D03*
X150100000Y-116525000D03*
X145925000Y-90225000D03*
X150575000Y-80525000D03*
X144475000Y-83425000D03*
X142425000Y-83175000D03*
X150500000Y-89329410D03*
X140975000Y-83050000D03*
X137525000Y-83575000D03*
X137125000Y-89300000D03*
X137725000Y-90325000D03*
X136800000Y-82725000D03*
X136725000Y-91600000D03*
X138787500Y-92837500D03*
X141700000Y-81100000D03*
X137400000Y-95575002D03*
X148250000Y-113375000D03*
X142425000Y-94425000D03*
X138750000Y-83000000D03*
X152050000Y-83225000D03*
X131725000Y-100750000D03*
X130825000Y-91450000D03*
X134275000Y-85775000D03*
X131705443Y-93225000D03*
X133175000Y-100450000D03*
X131750000Y-92075000D03*
X137250000Y-81025000D03*
X141250000Y-114200000D03*
X142800000Y-102100000D03*
D11*
X152750000Y-94184315D02*
X152750000Y-89400000D01*
X152750000Y-94750000D02*
X152750000Y-94184315D01*
D12*
X142425000Y-94425000D02*
X142025001Y-94025001D01*
X142025001Y-94025001D02*
X140400000Y-92400000D01*
X140400000Y-92400000D02*
X138750000Y-90750000D01*
X138750000Y-90750000D02*
X138750000Y-83000000D01*
D13*
X131725000Y-99750000D02*
X133425000Y-98050000D01*
X131224999Y-91050001D02*
X130825000Y-91450000D01*
X133425000Y-91175000D02*
X132775000Y-90525000D01*
X131750000Y-90525000D02*
X131224999Y-91050001D01*
X132775000Y-90525000D02*
X131750000Y-90525000D01*
X131725000Y-100750000D02*
X131725000Y-99750000D01*
X133425000Y-98050000D02*
X133425000Y-91175000D01*
D12*
G36*
X159065424Y-75669580D02*
G01*
X159128356Y-75688580D01*
X159186405Y-75719445D01*
X159237343Y-75760989D01*
X159279248Y-75811644D01*
X159310515Y-75869471D01*
X159329956Y-75932272D01*
X159340000Y-76027835D01*
X159340001Y-99934440D01*
X159315350Y-100057307D01*
X159303937Y-100040226D01*
X159159774Y-99896063D01*
X158990256Y-99782795D01*
X158801898Y-99704774D01*
X158601939Y-99665000D01*
X158398061Y-99665000D01*
X158198102Y-99704774D01*
X158009744Y-99782795D01*
X157840226Y-99896063D01*
X157696063Y-100040226D01*
X157582795Y-100209744D01*
X157504774Y-100398102D01*
X157465000Y-100598061D01*
X157465000Y-100801939D01*
X157504774Y-101001898D01*
X157582795Y-101190256D01*
X157696063Y-101359774D01*
X157840226Y-101503937D01*
X158009744Y-101617205D01*
X158198102Y-101695226D01*
X158398061Y-101735000D01*
X158601939Y-101735000D01*
X158801898Y-101695226D01*
X158990256Y-101617205D01*
X159004267Y-101607843D01*
X156995833Y-111618503D01*
X156992205Y-111609744D01*
X156878937Y-111440226D01*
X156734774Y-111296063D01*
X156565256Y-111182795D01*
X156376898Y-111104774D01*
X156176939Y-111065000D01*
X155973061Y-111065000D01*
X155773102Y-111104774D01*
X155584744Y-111182795D01*
X155415226Y-111296063D01*
X155271063Y-111440226D01*
X155157795Y-111609744D01*
X155079774Y-111798102D01*
X155040000Y-111998061D01*
X155040000Y-112201939D01*
X155079774Y-112401898D01*
X155157795Y-112590256D01*
X155271063Y-112759774D01*
X155415226Y-112903937D01*
X155584744Y-113017205D01*
X155773102Y-113095226D01*
X155973061Y-113135000D01*
X156176939Y-113135000D01*
X156376898Y-113095226D01*
X156565256Y-113017205D01*
X156734774Y-112903937D01*
X156738731Y-112899980D01*
X155178113Y-120678588D01*
X154990627Y-121456002D01*
X154687033Y-122145680D01*
X154266108Y-122770694D01*
X153741155Y-123311291D01*
X153128766Y-123750382D01*
X152448303Y-124074088D01*
X151721265Y-124272180D01*
X150944438Y-124340706D01*
X150911011Y-124340347D01*
X150907565Y-124340007D01*
X138512990Y-124337270D01*
X137784472Y-124184369D01*
X137085701Y-123901293D01*
X136448109Y-123498954D01*
X135891837Y-122990061D01*
X135434477Y-122390704D01*
X135090481Y-121719832D01*
X134878164Y-121023061D01*
X137115000Y-121023061D01*
X137115000Y-121226939D01*
X137154774Y-121426898D01*
X137232795Y-121615256D01*
X137346063Y-121784774D01*
X137490226Y-121928937D01*
X137659744Y-122042205D01*
X137848102Y-122120226D01*
X138048061Y-122160000D01*
X138251939Y-122160000D01*
X138451898Y-122120226D01*
X138640256Y-122042205D01*
X138809774Y-121928937D01*
X138953937Y-121784774D01*
X138978467Y-121748061D01*
X146940000Y-121748061D01*
X146940000Y-121951939D01*
X146979774Y-122151898D01*
X147057795Y-122340256D01*
X147171063Y-122509774D01*
X147315226Y-122653937D01*
X147484744Y-122767205D01*
X147673102Y-122845226D01*
X147873061Y-122885000D01*
X148076939Y-122885000D01*
X148276898Y-122845226D01*
X148465256Y-122767205D01*
X148634774Y-122653937D01*
X148778937Y-122509774D01*
X148892205Y-122340256D01*
X148970226Y-122151898D01*
X149010000Y-121951939D01*
X149010000Y-121748061D01*
X148970226Y-121548102D01*
X148892205Y-121359744D01*
X148778937Y-121190226D01*
X148634774Y-121046063D01*
X148488104Y-120948061D01*
X150665000Y-120948061D01*
X150665000Y-121151939D01*
X150704774Y-121351898D01*
X150782795Y-121540256D01*
X150896063Y-121709774D01*
X151040226Y-121853937D01*
X151209744Y-121967205D01*
X151398102Y-122045226D01*
X151598061Y-122085000D01*
X151801939Y-122085000D01*
X152001898Y-122045226D01*
X152190256Y-121967205D01*
X152359774Y-121853937D01*
X152503937Y-121709774D01*
X152617205Y-121540256D01*
X152695226Y-121351898D01*
X152735000Y-121151939D01*
X152735000Y-120948061D01*
X152695226Y-120748102D01*
X152617205Y-120559744D01*
X152503937Y-120390226D01*
X152359774Y-120246063D01*
X152190256Y-120132795D01*
X152001898Y-120054774D01*
X151801939Y-120015000D01*
X151598061Y-120015000D01*
X151398102Y-120054774D01*
X151209744Y-120132795D01*
X151040226Y-120246063D01*
X150896063Y-120390226D01*
X150782795Y-120559744D01*
X150704774Y-120748102D01*
X150665000Y-120948061D01*
X148488104Y-120948061D01*
X148465256Y-120932795D01*
X148276898Y-120854774D01*
X148076939Y-120815000D01*
X147873061Y-120815000D01*
X147673102Y-120854774D01*
X147484744Y-120932795D01*
X147315226Y-121046063D01*
X147171063Y-121190226D01*
X147057795Y-121359744D01*
X146979774Y-121548102D01*
X146940000Y-121748061D01*
X138978467Y-121748061D01*
X139067205Y-121615256D01*
X139145226Y-121426898D01*
X139185000Y-121226939D01*
X139185000Y-121023061D01*
X139145226Y-120823102D01*
X139067205Y-120634744D01*
X138953937Y-120465226D01*
X138809774Y-120321063D01*
X138640256Y-120207795D01*
X138451898Y-120129774D01*
X138251939Y-120090000D01*
X138048061Y-120090000D01*
X137848102Y-120129774D01*
X137659744Y-120207795D01*
X137490226Y-120321063D01*
X137346063Y-120465226D01*
X137232795Y-120634744D01*
X137154774Y-120823102D01*
X137115000Y-121023061D01*
X134878164Y-121023061D01*
X134864718Y-120978935D01*
X134829116Y-120783119D01*
X134828542Y-120777352D01*
X133957684Y-116423061D01*
X149065000Y-116423061D01*
X149065000Y-116626939D01*
X149104774Y-116826898D01*
X149182795Y-117015256D01*
X149296063Y-117184774D01*
X149440226Y-117328937D01*
X149609744Y-117442205D01*
X149798102Y-117520226D01*
X149998061Y-117560000D01*
X150201939Y-117560000D01*
X150401898Y-117520226D01*
X150590256Y-117442205D01*
X150759774Y-117328937D01*
X150903937Y-117184774D01*
X151017205Y-117015256D01*
X151095226Y-116826898D01*
X151135000Y-116626939D01*
X151135000Y-116423061D01*
X151095226Y-116223102D01*
X151017205Y-116034744D01*
X150903937Y-115865226D01*
X150759774Y-115721063D01*
X150590256Y-115607795D01*
X150401898Y-115529774D01*
X150201939Y-115490000D01*
X149998061Y-115490000D01*
X149798102Y-115529774D01*
X149609744Y-115607795D01*
X149440226Y-115721063D01*
X149296063Y-115865226D01*
X149182795Y-116034744D01*
X149104774Y-116223102D01*
X149065000Y-116423061D01*
X133957684Y-116423061D01*
X133492684Y-114098061D01*
X140215000Y-114098061D01*
X140215000Y-114301939D01*
X140254774Y-114501898D01*
X140332795Y-114690256D01*
X140446063Y-114859774D01*
X140590226Y-115003937D01*
X140759744Y-115117205D01*
X140948102Y-115195226D01*
X141148061Y-115235000D01*
X141351939Y-115235000D01*
X141551898Y-115195226D01*
X141740256Y-115117205D01*
X141909774Y-115003937D01*
X142053937Y-114859774D01*
X142167205Y-114690256D01*
X142245226Y-114501898D01*
X142285000Y-114301939D01*
X142285000Y-114098061D01*
X142245226Y-113898102D01*
X142167205Y-113709744D01*
X142053937Y-113540226D01*
X141909774Y-113396063D01*
X141740256Y-113282795D01*
X141716757Y-113273061D01*
X147215000Y-113273061D01*
X147215000Y-113476939D01*
X147254774Y-113676898D01*
X147332795Y-113865256D01*
X147446063Y-114034774D01*
X147590226Y-114178937D01*
X147759744Y-114292205D01*
X147948102Y-114370226D01*
X148148061Y-114410000D01*
X148351939Y-114410000D01*
X148551898Y-114370226D01*
X148740256Y-114292205D01*
X148909774Y-114178937D01*
X149053937Y-114034774D01*
X149167205Y-113865256D01*
X149245226Y-113676898D01*
X149285000Y-113476939D01*
X149285000Y-113273061D01*
X149245226Y-113073102D01*
X149167205Y-112884744D01*
X149053937Y-112715226D01*
X148909774Y-112571063D01*
X148740256Y-112457795D01*
X148551898Y-112379774D01*
X148351939Y-112340000D01*
X148148061Y-112340000D01*
X147948102Y-112379774D01*
X147759744Y-112457795D01*
X147590226Y-112571063D01*
X147446063Y-112715226D01*
X147332795Y-112884744D01*
X147254774Y-113073102D01*
X147215000Y-113273061D01*
X141716757Y-113273061D01*
X141551898Y-113204774D01*
X141351939Y-113165000D01*
X141148061Y-113165000D01*
X140948102Y-113204774D01*
X140759744Y-113282795D01*
X140590226Y-113396063D01*
X140446063Y-113540226D01*
X140332795Y-113709744D01*
X140254774Y-113898102D01*
X140215000Y-114098061D01*
X133492684Y-114098061D01*
X133312544Y-113197363D01*
X133421063Y-113359774D01*
X133565226Y-113503937D01*
X133734744Y-113617205D01*
X133923102Y-113695226D01*
X134123061Y-113735000D01*
X134326939Y-113735000D01*
X134526898Y-113695226D01*
X134715256Y-113617205D01*
X134884774Y-113503937D01*
X135028937Y-113359774D01*
X135142205Y-113190256D01*
X135220226Y-113001898D01*
X135260000Y-112801939D01*
X135260000Y-112598061D01*
X135220226Y-112398102D01*
X135142205Y-112209744D01*
X135028937Y-112040226D01*
X134884774Y-111896063D01*
X134715256Y-111782795D01*
X134526898Y-111704774D01*
X134326939Y-111665000D01*
X134123061Y-111665000D01*
X133923102Y-111704774D01*
X133734744Y-111782795D01*
X133565226Y-111896063D01*
X133421063Y-112040226D01*
X133307795Y-112209744D01*
X133229774Y-112398102D01*
X133191338Y-112591335D01*
X132622684Y-109748061D01*
X143940000Y-109748061D01*
X143940000Y-109951939D01*
X143979774Y-110151898D01*
X144057795Y-110340256D01*
X144171063Y-110509774D01*
X144315226Y-110653937D01*
X144484744Y-110767205D01*
X144673102Y-110845226D01*
X144873061Y-110885000D01*
X145076939Y-110885000D01*
X145276898Y-110845226D01*
X145465256Y-110767205D01*
X145634774Y-110653937D01*
X145778937Y-110509774D01*
X145892205Y-110340256D01*
X145970226Y-110151898D01*
X146010000Y-109951939D01*
X146010000Y-109748061D01*
X145970226Y-109548102D01*
X145892205Y-109359744D01*
X145778937Y-109190226D01*
X145634774Y-109046063D01*
X145465256Y-108932795D01*
X145276898Y-108854774D01*
X145076939Y-108815000D01*
X144873061Y-108815000D01*
X144673102Y-108854774D01*
X144484744Y-108932795D01*
X144315226Y-109046063D01*
X144171063Y-109190226D01*
X144057795Y-109359744D01*
X143979774Y-109548102D01*
X143940000Y-109748061D01*
X132622684Y-109748061D01*
X131639880Y-104834042D01*
X133315000Y-104834042D01*
X133315000Y-105165958D01*
X133379754Y-105491496D01*
X133506772Y-105798147D01*
X133691175Y-106074125D01*
X133925875Y-106308825D01*
X134201853Y-106493228D01*
X134508504Y-106620246D01*
X134834042Y-106685000D01*
X135165958Y-106685000D01*
X135491496Y-106620246D01*
X135798147Y-106493228D01*
X136074125Y-106308825D01*
X136308825Y-106074125D01*
X136493228Y-105798147D01*
X136620246Y-105491496D01*
X136685000Y-105165958D01*
X136685000Y-104834042D01*
X153315000Y-104834042D01*
X153315000Y-105165958D01*
X153379754Y-105491496D01*
X153506772Y-105798147D01*
X153691175Y-106074125D01*
X153925875Y-106308825D01*
X154201853Y-106493228D01*
X154508504Y-106620246D01*
X154834042Y-106685000D01*
X155165958Y-106685000D01*
X155491496Y-106620246D01*
X155798147Y-106493228D01*
X156074125Y-106308825D01*
X156308825Y-106074125D01*
X156493228Y-105798147D01*
X156620246Y-105491496D01*
X156685000Y-105165958D01*
X156685000Y-104834042D01*
X156620246Y-104508504D01*
X156493228Y-104201853D01*
X156308825Y-103925875D01*
X156074125Y-103691175D01*
X155798147Y-103506772D01*
X155491496Y-103379754D01*
X155165958Y-103315000D01*
X154834042Y-103315000D01*
X154508504Y-103379754D01*
X154201853Y-103506772D01*
X153925875Y-103691175D01*
X153691175Y-103925875D01*
X153506772Y-104201853D01*
X153379754Y-104508504D01*
X153315000Y-104834042D01*
X136685000Y-104834042D01*
X136620246Y-104508504D01*
X136493228Y-104201853D01*
X136308825Y-103925875D01*
X136074125Y-103691175D01*
X135798147Y-103506772D01*
X135491496Y-103379754D01*
X135165958Y-103315000D01*
X134834042Y-103315000D01*
X134508504Y-103379754D01*
X134201853Y-103506772D01*
X133925875Y-103691175D01*
X133691175Y-103925875D01*
X133506772Y-104201853D01*
X133379754Y-104508504D01*
X133315000Y-104834042D01*
X131639880Y-104834042D01*
X131072683Y-101998061D01*
X141765000Y-101998061D01*
X141765000Y-102201939D01*
X141804774Y-102401898D01*
X141882795Y-102590256D01*
X141996063Y-102759774D01*
X142140226Y-102903937D01*
X142309744Y-103017205D01*
X142498102Y-103095226D01*
X142698061Y-103135000D01*
X142901939Y-103135000D01*
X143101898Y-103095226D01*
X143290256Y-103017205D01*
X143459774Y-102903937D01*
X143603937Y-102759774D01*
X143717205Y-102590256D01*
X143795226Y-102401898D01*
X143835000Y-102201939D01*
X143835000Y-101998061D01*
X143805164Y-101848061D01*
X152590000Y-101848061D01*
X152590000Y-102051939D01*
X152629774Y-102251898D01*
X152707795Y-102440256D01*
X152821063Y-102609774D01*
X152965226Y-102753937D01*
X153134744Y-102867205D01*
X153323102Y-102945226D01*
X153523061Y-102985000D01*
X153726939Y-102985000D01*
X153926898Y-102945226D01*
X154115256Y-102867205D01*
X154284774Y-102753937D01*
X154428937Y-102609774D01*
X154542205Y-102440256D01*
X154620226Y-102251898D01*
X154660000Y-102051939D01*
X154660000Y-101848061D01*
X154620226Y-101648102D01*
X154542205Y-101459744D01*
X154428937Y-101290226D01*
X154284774Y-101146063D01*
X154115256Y-101032795D01*
X153926898Y-100954774D01*
X153726939Y-100915000D01*
X153523061Y-100915000D01*
X153323102Y-100954774D01*
X153134744Y-101032795D01*
X152965226Y-101146063D01*
X152821063Y-101290226D01*
X152707795Y-101459744D01*
X152629774Y-101648102D01*
X152590000Y-101848061D01*
X143805164Y-101848061D01*
X143795226Y-101798102D01*
X143717205Y-101609744D01*
X143603937Y-101440226D01*
X143459774Y-101296063D01*
X143290256Y-101182795D01*
X143101898Y-101104774D01*
X142901939Y-101065000D01*
X142698061Y-101065000D01*
X142498102Y-101104774D01*
X142309744Y-101182795D01*
X142140226Y-101296063D01*
X141996063Y-101440226D01*
X141882795Y-101609744D01*
X141804774Y-101798102D01*
X141765000Y-101998061D01*
X131072683Y-101998061D01*
X130963516Y-101452227D01*
X131065226Y-101553937D01*
X131234744Y-101667205D01*
X131423102Y-101745226D01*
X131623061Y-101785000D01*
X131826939Y-101785000D01*
X132026898Y-101745226D01*
X132215256Y-101667205D01*
X132384774Y-101553937D01*
X132528937Y-101409774D01*
X132596692Y-101308371D01*
X132684744Y-101367205D01*
X132873102Y-101445226D01*
X133073061Y-101485000D01*
X133276939Y-101485000D01*
X133476898Y-101445226D01*
X133665256Y-101367205D01*
X133834774Y-101253937D01*
X133978937Y-101109774D01*
X134092205Y-100940256D01*
X134170226Y-100751898D01*
X134180934Y-100698061D01*
X145890000Y-100698061D01*
X145890000Y-100901939D01*
X145929774Y-101101898D01*
X146007795Y-101290256D01*
X146121063Y-101459774D01*
X146265226Y-101603937D01*
X146434744Y-101717205D01*
X146623102Y-101795226D01*
X146823061Y-101835000D01*
X147026939Y-101835000D01*
X147226898Y-101795226D01*
X147415256Y-101717205D01*
X147584774Y-101603937D01*
X147728937Y-101459774D01*
X147842205Y-101290256D01*
X147920226Y-101101898D01*
X147960000Y-100901939D01*
X147960000Y-100698061D01*
X147920226Y-100498102D01*
X147842205Y-100309744D01*
X147728937Y-100140226D01*
X147584774Y-99996063D01*
X147415256Y-99882795D01*
X147226898Y-99804774D01*
X147026939Y-99765000D01*
X146823061Y-99765000D01*
X146623102Y-99804774D01*
X146434744Y-99882795D01*
X146265226Y-99996063D01*
X146121063Y-100140226D01*
X146007795Y-100309744D01*
X145929774Y-100498102D01*
X145890000Y-100698061D01*
X134180934Y-100698061D01*
X134210000Y-100551939D01*
X134210000Y-100348061D01*
X134170226Y-100148102D01*
X134092205Y-99959744D01*
X133978937Y-99790226D01*
X133834774Y-99646063D01*
X133665256Y-99532795D01*
X133476898Y-99454774D01*
X133276939Y-99415000D01*
X133173551Y-99415000D01*
X133954429Y-98634122D01*
X133984469Y-98609469D01*
X134082866Y-98489572D01*
X134155982Y-98352783D01*
X134201006Y-98204357D01*
X134212400Y-98088673D01*
X134212400Y-98088664D01*
X134216208Y-98050001D01*
X134212400Y-98011338D01*
X134212400Y-95473063D01*
X136365000Y-95473063D01*
X136365000Y-95676941D01*
X136404774Y-95876900D01*
X136482795Y-96065258D01*
X136596063Y-96234776D01*
X136740226Y-96378939D01*
X136909744Y-96492207D01*
X137098102Y-96570228D01*
X137298061Y-96610002D01*
X137501939Y-96610002D01*
X137701898Y-96570228D01*
X137890256Y-96492207D01*
X138059774Y-96378939D01*
X138203937Y-96234776D01*
X138317205Y-96065258D01*
X138395226Y-95876900D01*
X138435000Y-95676941D01*
X138435000Y-95473063D01*
X138395226Y-95273104D01*
X138317205Y-95084746D01*
X138203937Y-94915228D01*
X138059774Y-94771065D01*
X137890256Y-94657797D01*
X137701898Y-94579776D01*
X137501939Y-94540002D01*
X137298061Y-94540002D01*
X137098102Y-94579776D01*
X136909744Y-94657797D01*
X136740226Y-94771065D01*
X136596063Y-94915228D01*
X136482795Y-95084746D01*
X136404774Y-95273104D01*
X136365000Y-95473063D01*
X134212400Y-95473063D01*
X134212400Y-91498061D01*
X135690000Y-91498061D01*
X135690000Y-91701939D01*
X135729774Y-91901898D01*
X135807795Y-92090256D01*
X135921063Y-92259774D01*
X136065226Y-92403937D01*
X136234744Y-92517205D01*
X136423102Y-92595226D01*
X136623061Y-92635000D01*
X136826939Y-92635000D01*
X137026898Y-92595226D01*
X137215256Y-92517205D01*
X137384774Y-92403937D01*
X137528937Y-92259774D01*
X137642205Y-92090256D01*
X137720226Y-91901898D01*
X137760000Y-91701939D01*
X137760000Y-91498061D01*
X137732538Y-91360000D01*
X137826939Y-91360000D01*
X138026898Y-91320226D01*
X138180128Y-91256755D01*
X138208578Y-91291422D01*
X138237654Y-91315284D01*
X138724870Y-91802500D01*
X138685561Y-91802500D01*
X138485602Y-91842274D01*
X138297244Y-91920295D01*
X138127726Y-92033563D01*
X137983563Y-92177726D01*
X137870295Y-92347244D01*
X137792274Y-92535602D01*
X137752500Y-92735561D01*
X137752500Y-92939439D01*
X137792274Y-93139398D01*
X137870295Y-93327756D01*
X137983563Y-93497274D01*
X138127726Y-93641437D01*
X138297244Y-93754705D01*
X138485602Y-93832726D01*
X138685561Y-93872500D01*
X138889439Y-93872500D01*
X139089398Y-93832726D01*
X139277756Y-93754705D01*
X139447274Y-93641437D01*
X139591437Y-93497274D01*
X139704705Y-93327756D01*
X139782726Y-93139398D01*
X139822500Y-92939439D01*
X139822500Y-92900131D01*
X139887648Y-92965279D01*
X139887653Y-92965283D01*
X141390000Y-94467631D01*
X141390000Y-94526939D01*
X141429774Y-94726898D01*
X141507795Y-94915256D01*
X141621063Y-95084774D01*
X141765226Y-95228937D01*
X141934744Y-95342205D01*
X142123102Y-95420226D01*
X142323061Y-95460000D01*
X142526939Y-95460000D01*
X142726898Y-95420226D01*
X142817163Y-95382837D01*
X142779774Y-95473102D01*
X142740000Y-95673061D01*
X142740000Y-95876939D01*
X142779774Y-96076898D01*
X142857795Y-96265256D01*
X142971063Y-96434774D01*
X143115226Y-96578937D01*
X143284744Y-96692205D01*
X143473102Y-96770226D01*
X143673061Y-96810000D01*
X143876939Y-96810000D01*
X144076898Y-96770226D01*
X144265256Y-96692205D01*
X144434774Y-96578937D01*
X144578937Y-96434774D01*
X144692205Y-96265256D01*
X144770226Y-96076898D01*
X144810000Y-95876939D01*
X144810000Y-95673061D01*
X144770226Y-95473102D01*
X144692205Y-95284744D01*
X144578937Y-95115226D01*
X144434774Y-94971063D01*
X144265256Y-94857795D01*
X144076898Y-94779774D01*
X143876939Y-94740000D01*
X143673061Y-94740000D01*
X143473102Y-94779774D01*
X143382837Y-94817163D01*
X143420226Y-94726898D01*
X143460000Y-94526939D01*
X143460000Y-94323061D01*
X143420226Y-94123102D01*
X143342205Y-93934744D01*
X143228937Y-93765226D01*
X143084774Y-93621063D01*
X142915256Y-93507795D01*
X142726898Y-93429774D01*
X142526939Y-93390000D01*
X142467631Y-93390000D01*
X140965283Y-91887653D01*
X140965279Y-91887648D01*
X139525692Y-90448061D01*
X143240000Y-90448061D01*
X143240000Y-90651939D01*
X143279774Y-90851898D01*
X143357795Y-91040256D01*
X143471063Y-91209774D01*
X143615226Y-91353937D01*
X143784744Y-91467205D01*
X143973102Y-91545226D01*
X144173061Y-91585000D01*
X144376939Y-91585000D01*
X144576898Y-91545226D01*
X144765256Y-91467205D01*
X144934774Y-91353937D01*
X145078937Y-91209774D01*
X145192205Y-91040256D01*
X145216908Y-90980619D01*
X145265226Y-91028937D01*
X145434744Y-91142205D01*
X145623102Y-91220226D01*
X145823061Y-91260000D01*
X146026939Y-91260000D01*
X146226898Y-91220226D01*
X146415256Y-91142205D01*
X146584774Y-91028937D01*
X146615650Y-90998061D01*
X148940000Y-90998061D01*
X148940000Y-91201939D01*
X148979774Y-91401898D01*
X149057795Y-91590256D01*
X149171063Y-91759774D01*
X149315226Y-91903937D01*
X149484744Y-92017205D01*
X149673102Y-92095226D01*
X149873061Y-92135000D01*
X150076939Y-92135000D01*
X150276898Y-92095226D01*
X150465256Y-92017205D01*
X150634774Y-91903937D01*
X150778937Y-91759774D01*
X150892205Y-91590256D01*
X150970226Y-91401898D01*
X151010000Y-91201939D01*
X151010000Y-90998061D01*
X150970226Y-90798102D01*
X150892205Y-90609744D01*
X150778937Y-90440226D01*
X150686334Y-90347623D01*
X150801898Y-90324636D01*
X150990256Y-90246615D01*
X151159774Y-90133347D01*
X151303937Y-89989184D01*
X151417205Y-89819666D01*
X151495226Y-89631308D01*
X151535000Y-89431349D01*
X151535000Y-89298061D01*
X151715000Y-89298061D01*
X151715000Y-89501939D01*
X151754774Y-89701898D01*
X151832795Y-89890256D01*
X151924501Y-90027504D01*
X151924500Y-94122497D01*
X151832795Y-94259744D01*
X151754774Y-94448102D01*
X151715000Y-94648061D01*
X151715000Y-94851939D01*
X151754774Y-95051898D01*
X151832795Y-95240256D01*
X151946063Y-95409774D01*
X152090226Y-95553937D01*
X152259744Y-95667205D01*
X152448102Y-95745226D01*
X152648061Y-95785000D01*
X152851939Y-95785000D01*
X153051898Y-95745226D01*
X153240256Y-95667205D01*
X153409774Y-95553937D01*
X153553937Y-95409774D01*
X153667205Y-95240256D01*
X153745226Y-95051898D01*
X153785000Y-94851939D01*
X153785000Y-94648061D01*
X153745226Y-94448102D01*
X153724499Y-94398061D01*
X154790000Y-94398061D01*
X154790000Y-94601939D01*
X154829774Y-94801898D01*
X154907795Y-94990256D01*
X155021063Y-95159774D01*
X155165226Y-95303937D01*
X155334744Y-95417205D01*
X155523102Y-95495226D01*
X155723061Y-95535000D01*
X155926939Y-95535000D01*
X156126898Y-95495226D01*
X156315256Y-95417205D01*
X156484774Y-95303937D01*
X156628937Y-95159774D01*
X156742205Y-94990256D01*
X156820226Y-94801898D01*
X156860000Y-94601939D01*
X156860000Y-94398061D01*
X156820226Y-94198102D01*
X156742205Y-94009744D01*
X156628937Y-93840226D01*
X156484774Y-93696063D01*
X156315256Y-93582795D01*
X156126898Y-93504774D01*
X155926939Y-93465000D01*
X155723061Y-93465000D01*
X155523102Y-93504774D01*
X155334744Y-93582795D01*
X155165226Y-93696063D01*
X155021063Y-93840226D01*
X154907795Y-94009744D01*
X154829774Y-94198102D01*
X154790000Y-94398061D01*
X153724499Y-94398061D01*
X153667205Y-94259744D01*
X153575500Y-94122497D01*
X153575500Y-90027503D01*
X153667205Y-89890256D01*
X153745226Y-89701898D01*
X153785000Y-89501939D01*
X153785000Y-89298061D01*
X153745226Y-89098102D01*
X153667205Y-88909744D01*
X153553937Y-88740226D01*
X153409774Y-88596063D01*
X153240256Y-88482795D01*
X153051898Y-88404774D01*
X152851939Y-88365000D01*
X152648061Y-88365000D01*
X152448102Y-88404774D01*
X152259744Y-88482795D01*
X152090226Y-88596063D01*
X151946063Y-88740226D01*
X151832795Y-88909744D01*
X151754774Y-89098102D01*
X151715000Y-89298061D01*
X151535000Y-89298061D01*
X151535000Y-89227471D01*
X151495226Y-89027512D01*
X151417205Y-88839154D01*
X151303937Y-88669636D01*
X151159774Y-88525473D01*
X150990256Y-88412205D01*
X150801898Y-88334184D01*
X150601939Y-88294410D01*
X150398061Y-88294410D01*
X150198102Y-88334184D01*
X150009744Y-88412205D01*
X149840226Y-88525473D01*
X149696063Y-88669636D01*
X149582795Y-88839154D01*
X149504774Y-89027512D01*
X149465000Y-89227471D01*
X149465000Y-89431349D01*
X149504774Y-89631308D01*
X149582795Y-89819666D01*
X149696063Y-89989184D01*
X149788666Y-90081787D01*
X149673102Y-90104774D01*
X149484744Y-90182795D01*
X149315226Y-90296063D01*
X149171063Y-90440226D01*
X149057795Y-90609744D01*
X148979774Y-90798102D01*
X148940000Y-90998061D01*
X146615650Y-90998061D01*
X146728937Y-90884774D01*
X146842205Y-90715256D01*
X146920226Y-90526898D01*
X146960000Y-90326939D01*
X146960000Y-90123061D01*
X146920226Y-89923102D01*
X146842205Y-89734744D01*
X146728937Y-89565226D01*
X146584774Y-89421063D01*
X146415256Y-89307795D01*
X146226898Y-89229774D01*
X146026939Y-89190000D01*
X145823061Y-89190000D01*
X145623102Y-89229774D01*
X145434744Y-89307795D01*
X145265226Y-89421063D01*
X145121063Y-89565226D01*
X145007795Y-89734744D01*
X144983092Y-89794381D01*
X144934774Y-89746063D01*
X144765256Y-89632795D01*
X144576898Y-89554774D01*
X144376939Y-89515000D01*
X144173061Y-89515000D01*
X143973102Y-89554774D01*
X143784744Y-89632795D01*
X143615226Y-89746063D01*
X143471063Y-89890226D01*
X143357795Y-90059744D01*
X143279774Y-90248102D01*
X143240000Y-90448061D01*
X139525692Y-90448061D01*
X139512000Y-90434370D01*
X139512000Y-87752722D01*
X142790493Y-87752722D01*
X142790493Y-87956600D01*
X142830267Y-88156559D01*
X142908288Y-88344917D01*
X143021556Y-88514435D01*
X143165719Y-88658598D01*
X143335237Y-88771866D01*
X143523595Y-88849887D01*
X143723554Y-88889661D01*
X143927432Y-88889661D01*
X144127391Y-88849887D01*
X144315749Y-88771866D01*
X144485267Y-88658598D01*
X144629430Y-88514435D01*
X144742698Y-88344917D01*
X144820719Y-88156559D01*
X144860493Y-87956600D01*
X144860493Y-87752722D01*
X144820719Y-87552763D01*
X144742698Y-87364405D01*
X144629430Y-87194887D01*
X144485267Y-87050724D01*
X144315749Y-86937456D01*
X144127391Y-86859435D01*
X143927432Y-86819661D01*
X143723554Y-86819661D01*
X143523595Y-86859435D01*
X143335237Y-86937456D01*
X143165719Y-87050724D01*
X143021556Y-87194887D01*
X142908288Y-87364405D01*
X142830267Y-87552763D01*
X142790493Y-87752722D01*
X139512000Y-87752722D01*
X139512000Y-83701711D01*
X139553937Y-83659774D01*
X139667205Y-83490256D01*
X139745226Y-83301898D01*
X139785000Y-83101939D01*
X139785000Y-82948061D01*
X139940000Y-82948061D01*
X139940000Y-83151939D01*
X139979774Y-83351898D01*
X140057795Y-83540256D01*
X140171063Y-83709774D01*
X140315226Y-83853937D01*
X140484744Y-83967205D01*
X140673102Y-84045226D01*
X140873061Y-84085000D01*
X141076939Y-84085000D01*
X141276898Y-84045226D01*
X141465256Y-83967205D01*
X141634774Y-83853937D01*
X141637500Y-83851211D01*
X141765226Y-83978937D01*
X141934744Y-84092205D01*
X142123102Y-84170226D01*
X142323061Y-84210000D01*
X142526939Y-84210000D01*
X142726898Y-84170226D01*
X142915256Y-84092205D01*
X143084774Y-83978937D01*
X143228937Y-83834774D01*
X143342205Y-83665256D01*
X143420226Y-83476898D01*
X143440000Y-83377487D01*
X143440000Y-83526939D01*
X143479774Y-83726898D01*
X143557795Y-83915256D01*
X143671063Y-84084774D01*
X143815226Y-84228937D01*
X143984744Y-84342205D01*
X144173102Y-84420226D01*
X144373061Y-84460000D01*
X144576939Y-84460000D01*
X144776898Y-84420226D01*
X144965256Y-84342205D01*
X145134774Y-84228937D01*
X145278937Y-84084774D01*
X145392205Y-83915256D01*
X145470226Y-83726898D01*
X145510000Y-83526939D01*
X145510000Y-83323061D01*
X145470226Y-83123102D01*
X145470210Y-83123061D01*
X151015000Y-83123061D01*
X151015000Y-83326939D01*
X151054774Y-83526898D01*
X151132795Y-83715256D01*
X151246063Y-83884774D01*
X151390226Y-84028937D01*
X151559744Y-84142205D01*
X151748102Y-84220226D01*
X151948061Y-84260000D01*
X152151939Y-84260000D01*
X152351898Y-84220226D01*
X152540256Y-84142205D01*
X152709774Y-84028937D01*
X152853937Y-83884774D01*
X152967205Y-83715256D01*
X153045226Y-83526898D01*
X153085000Y-83326939D01*
X153085000Y-83123061D01*
X153045226Y-82923102D01*
X152967205Y-82734744D01*
X152853937Y-82565226D01*
X152709774Y-82421063D01*
X152540256Y-82307795D01*
X152351898Y-82229774D01*
X152151939Y-82190000D01*
X151948061Y-82190000D01*
X151748102Y-82229774D01*
X151559744Y-82307795D01*
X151390226Y-82421063D01*
X151246063Y-82565226D01*
X151132795Y-82734744D01*
X151054774Y-82923102D01*
X151015000Y-83123061D01*
X145470210Y-83123061D01*
X145392205Y-82934744D01*
X145278937Y-82765226D01*
X145134774Y-82621063D01*
X144965256Y-82507795D01*
X144776898Y-82429774D01*
X144576939Y-82390000D01*
X144373061Y-82390000D01*
X144173102Y-82429774D01*
X143984744Y-82507795D01*
X143815226Y-82621063D01*
X143671063Y-82765226D01*
X143557795Y-82934744D01*
X143479774Y-83123102D01*
X143460000Y-83222513D01*
X143460000Y-83073061D01*
X143420226Y-82873102D01*
X143342205Y-82684744D01*
X143228937Y-82515226D01*
X143084774Y-82371063D01*
X142915256Y-82257795D01*
X142726898Y-82179774D01*
X142526939Y-82140000D01*
X142323061Y-82140000D01*
X142123102Y-82179774D01*
X141934744Y-82257795D01*
X141765226Y-82371063D01*
X141762500Y-82373789D01*
X141634774Y-82246063D01*
X141465256Y-82132795D01*
X141276898Y-82054774D01*
X141076939Y-82015000D01*
X140873061Y-82015000D01*
X140673102Y-82054774D01*
X140484744Y-82132795D01*
X140315226Y-82246063D01*
X140171063Y-82390226D01*
X140057795Y-82559744D01*
X139979774Y-82748102D01*
X139940000Y-82948061D01*
X139785000Y-82948061D01*
X139785000Y-82898061D01*
X139745226Y-82698102D01*
X139667205Y-82509744D01*
X139553937Y-82340226D01*
X139409774Y-82196063D01*
X139240256Y-82082795D01*
X139051898Y-82004774D01*
X138851939Y-81965000D01*
X138648061Y-81965000D01*
X138448102Y-82004774D01*
X138259744Y-82082795D01*
X138090226Y-82196063D01*
X137946063Y-82340226D01*
X137832795Y-82509744D01*
X137819057Y-82542910D01*
X137795226Y-82423102D01*
X137717205Y-82234744D01*
X137603937Y-82065226D01*
X137556875Y-82018164D01*
X137740256Y-81942205D01*
X137909774Y-81828937D01*
X138053937Y-81684774D01*
X138167205Y-81515256D01*
X138245226Y-81326898D01*
X138285000Y-81126939D01*
X138285000Y-80998061D01*
X140665000Y-80998061D01*
X140665000Y-81201939D01*
X140704774Y-81401898D01*
X140782795Y-81590256D01*
X140896063Y-81759774D01*
X141040226Y-81903937D01*
X141209744Y-82017205D01*
X141398102Y-82095226D01*
X141598061Y-82135000D01*
X141801939Y-82135000D01*
X142001898Y-82095226D01*
X142190256Y-82017205D01*
X142359774Y-81903937D01*
X142503937Y-81759774D01*
X142617205Y-81590256D01*
X142695226Y-81401898D01*
X142735000Y-81201939D01*
X142735000Y-80998061D01*
X142695226Y-80798102D01*
X142617205Y-80609744D01*
X142503937Y-80440226D01*
X142486772Y-80423061D01*
X149540000Y-80423061D01*
X149540000Y-80626939D01*
X149579774Y-80826898D01*
X149657795Y-81015256D01*
X149771063Y-81184774D01*
X149915226Y-81328937D01*
X150084744Y-81442205D01*
X150273102Y-81520226D01*
X150473061Y-81560000D01*
X150676939Y-81560000D01*
X150876898Y-81520226D01*
X151065256Y-81442205D01*
X151234774Y-81328937D01*
X151378937Y-81184774D01*
X151492205Y-81015256D01*
X151570226Y-80826898D01*
X151580934Y-80773061D01*
X151865000Y-80773061D01*
X151865000Y-80976939D01*
X151904774Y-81176898D01*
X151982795Y-81365256D01*
X152096063Y-81534774D01*
X152240226Y-81678937D01*
X152409744Y-81792205D01*
X152598102Y-81870226D01*
X152798061Y-81910000D01*
X153001939Y-81910000D01*
X153201898Y-81870226D01*
X153390256Y-81792205D01*
X153559774Y-81678937D01*
X153703937Y-81534774D01*
X153817205Y-81365256D01*
X153895226Y-81176898D01*
X153935000Y-80976939D01*
X153935000Y-80773061D01*
X153895226Y-80573102D01*
X153817205Y-80384744D01*
X153703937Y-80215226D01*
X153559774Y-80071063D01*
X153390256Y-79957795D01*
X153201898Y-79879774D01*
X153001939Y-79840000D01*
X152798061Y-79840000D01*
X152598102Y-79879774D01*
X152409744Y-79957795D01*
X152240226Y-80071063D01*
X152096063Y-80215226D01*
X151982795Y-80384744D01*
X151904774Y-80573102D01*
X151865000Y-80773061D01*
X151580934Y-80773061D01*
X151610000Y-80626939D01*
X151610000Y-80423061D01*
X151570226Y-80223102D01*
X151492205Y-80034744D01*
X151378937Y-79865226D01*
X151234774Y-79721063D01*
X151065256Y-79607795D01*
X150876898Y-79529774D01*
X150676939Y-79490000D01*
X150473061Y-79490000D01*
X150273102Y-79529774D01*
X150084744Y-79607795D01*
X149915226Y-79721063D01*
X149771063Y-79865226D01*
X149657795Y-80034744D01*
X149579774Y-80223102D01*
X149540000Y-80423061D01*
X142486772Y-80423061D01*
X142359774Y-80296063D01*
X142190256Y-80182795D01*
X142001898Y-80104774D01*
X141801939Y-80065000D01*
X141598061Y-80065000D01*
X141398102Y-80104774D01*
X141209744Y-80182795D01*
X141040226Y-80296063D01*
X140896063Y-80440226D01*
X140782795Y-80609744D01*
X140704774Y-80798102D01*
X140665000Y-80998061D01*
X138285000Y-80998061D01*
X138285000Y-80923061D01*
X138245226Y-80723102D01*
X138167205Y-80534744D01*
X138053937Y-80365226D01*
X137909774Y-80221063D01*
X137740256Y-80107795D01*
X137551898Y-80029774D01*
X137351939Y-79990000D01*
X137148061Y-79990000D01*
X136948102Y-80029774D01*
X136759744Y-80107795D01*
X136590226Y-80221063D01*
X136446063Y-80365226D01*
X136332795Y-80534744D01*
X136254774Y-80723102D01*
X136215000Y-80923061D01*
X136215000Y-81126939D01*
X136254774Y-81326898D01*
X136332795Y-81515256D01*
X136446063Y-81684774D01*
X136493125Y-81731836D01*
X136309744Y-81807795D01*
X136140226Y-81921063D01*
X135996063Y-82065226D01*
X135882795Y-82234744D01*
X135804774Y-82423102D01*
X135765000Y-82623061D01*
X135765000Y-82826939D01*
X135804774Y-83026898D01*
X135882795Y-83215256D01*
X135996063Y-83384774D01*
X136140226Y-83528937D01*
X136309744Y-83642205D01*
X136498102Y-83720226D01*
X136498631Y-83720331D01*
X136529774Y-83876898D01*
X136607795Y-84065256D01*
X136721063Y-84234774D01*
X136865226Y-84378937D01*
X137034744Y-84492205D01*
X137223102Y-84570226D01*
X137423061Y-84610000D01*
X137626939Y-84610000D01*
X137826898Y-84570226D01*
X137988001Y-84503495D01*
X137988000Y-88728621D01*
X137928937Y-88640226D01*
X137784774Y-88496063D01*
X137615256Y-88382795D01*
X137426898Y-88304774D01*
X137226939Y-88265000D01*
X137023061Y-88265000D01*
X136823102Y-88304774D01*
X136634744Y-88382795D01*
X136465226Y-88496063D01*
X136321063Y-88640226D01*
X136207795Y-88809744D01*
X136129774Y-88998102D01*
X136090000Y-89198061D01*
X136090000Y-89401939D01*
X136129774Y-89601898D01*
X136207795Y-89790256D01*
X136321063Y-89959774D01*
X136465226Y-90103937D01*
X136634744Y-90217205D01*
X136690000Y-90240093D01*
X136690000Y-90426939D01*
X136717462Y-90565000D01*
X136623061Y-90565000D01*
X136423102Y-90604774D01*
X136234744Y-90682795D01*
X136065226Y-90796063D01*
X135921063Y-90940226D01*
X135807795Y-91109744D01*
X135729774Y-91298102D01*
X135690000Y-91498061D01*
X134212400Y-91498061D01*
X134212400Y-91213663D01*
X134216208Y-91175000D01*
X134212400Y-91136337D01*
X134212400Y-91136327D01*
X134201006Y-91020643D01*
X134155982Y-90872217D01*
X134132231Y-90827782D01*
X134082866Y-90735427D01*
X134009121Y-90645570D01*
X133984469Y-90615531D01*
X133954427Y-90590876D01*
X133359127Y-89995577D01*
X133334469Y-89965531D01*
X133214572Y-89867134D01*
X133077783Y-89794018D01*
X132929357Y-89748994D01*
X132813673Y-89737600D01*
X132813663Y-89737600D01*
X132775000Y-89733792D01*
X132736337Y-89737600D01*
X131788665Y-89737600D01*
X131750000Y-89733792D01*
X131711335Y-89737600D01*
X131711327Y-89737600D01*
X131595643Y-89748994D01*
X131447217Y-89794018D01*
X131310428Y-89867134D01*
X131190531Y-89965531D01*
X131165876Y-89995573D01*
X130746450Y-90415000D01*
X130723061Y-90415000D01*
X130660000Y-90427544D01*
X130660000Y-85673061D01*
X133240000Y-85673061D01*
X133240000Y-85876939D01*
X133279774Y-86076898D01*
X133357795Y-86265256D01*
X133471063Y-86434774D01*
X133615226Y-86578937D01*
X133784744Y-86692205D01*
X133973102Y-86770226D01*
X134173061Y-86810000D01*
X134376939Y-86810000D01*
X134576898Y-86770226D01*
X134765256Y-86692205D01*
X134934774Y-86578937D01*
X135078937Y-86434774D01*
X135192205Y-86265256D01*
X135270226Y-86076898D01*
X135310000Y-85876939D01*
X135310000Y-85673061D01*
X135270226Y-85473102D01*
X135192205Y-85284744D01*
X135078937Y-85115226D01*
X134934774Y-84971063D01*
X134765256Y-84857795D01*
X134576898Y-84779774D01*
X134376939Y-84740000D01*
X134173061Y-84740000D01*
X133973102Y-84779774D01*
X133784744Y-84857795D01*
X133615226Y-84971063D01*
X133471063Y-85115226D01*
X133357795Y-85284744D01*
X133279774Y-85473102D01*
X133240000Y-85673061D01*
X130660000Y-85673061D01*
X130660000Y-79148061D01*
X135140000Y-79148061D01*
X135140000Y-79351939D01*
X135179774Y-79551898D01*
X135257795Y-79740256D01*
X135371063Y-79909774D01*
X135515226Y-80053937D01*
X135684744Y-80167205D01*
X135873102Y-80245226D01*
X136073061Y-80285000D01*
X136276939Y-80285000D01*
X136476898Y-80245226D01*
X136665256Y-80167205D01*
X136834774Y-80053937D01*
X136978937Y-79909774D01*
X137092205Y-79740256D01*
X137170226Y-79551898D01*
X137210000Y-79351939D01*
X137210000Y-79148061D01*
X137170226Y-78948102D01*
X137092205Y-78759744D01*
X136978937Y-78590226D01*
X136834774Y-78446063D01*
X136665256Y-78332795D01*
X136476898Y-78254774D01*
X136276939Y-78215000D01*
X136073061Y-78215000D01*
X135873102Y-78254774D01*
X135684744Y-78332795D01*
X135515226Y-78446063D01*
X135371063Y-78590226D01*
X135257795Y-78759744D01*
X135179774Y-78948102D01*
X135140000Y-79148061D01*
X130660000Y-79148061D01*
X130660000Y-76748061D01*
X143240000Y-76748061D01*
X143240000Y-76951939D01*
X143279774Y-77151898D01*
X143357795Y-77340256D01*
X143471063Y-77509774D01*
X143615226Y-77653937D01*
X143784744Y-77767205D01*
X143973102Y-77845226D01*
X144173061Y-77885000D01*
X144376939Y-77885000D01*
X144576898Y-77845226D01*
X144765256Y-77767205D01*
X144934774Y-77653937D01*
X145078937Y-77509774D01*
X145162948Y-77384042D01*
X146915000Y-77384042D01*
X146915000Y-77715958D01*
X146979754Y-78041496D01*
X147106772Y-78348147D01*
X147291175Y-78624125D01*
X147525875Y-78858825D01*
X147801853Y-79043228D01*
X148108504Y-79170246D01*
X148434042Y-79235000D01*
X148765958Y-79235000D01*
X149091496Y-79170246D01*
X149398147Y-79043228D01*
X149674125Y-78858825D01*
X149859889Y-78673061D01*
X155215000Y-78673061D01*
X155215000Y-78876939D01*
X155254774Y-79076898D01*
X155332795Y-79265256D01*
X155446063Y-79434774D01*
X155590226Y-79578937D01*
X155759744Y-79692205D01*
X155948102Y-79770226D01*
X156148061Y-79810000D01*
X156351939Y-79810000D01*
X156551898Y-79770226D01*
X156740256Y-79692205D01*
X156909774Y-79578937D01*
X157053937Y-79434774D01*
X157167205Y-79265256D01*
X157245226Y-79076898D01*
X157285000Y-78876939D01*
X157285000Y-78673061D01*
X157245226Y-78473102D01*
X157167205Y-78284744D01*
X157053937Y-78115226D01*
X156909774Y-77971063D01*
X156740256Y-77857795D01*
X156551898Y-77779774D01*
X156351939Y-77740000D01*
X156148061Y-77740000D01*
X155948102Y-77779774D01*
X155759744Y-77857795D01*
X155590226Y-77971063D01*
X155446063Y-78115226D01*
X155332795Y-78284744D01*
X155254774Y-78473102D01*
X155215000Y-78673061D01*
X149859889Y-78673061D01*
X149908825Y-78624125D01*
X150093228Y-78348147D01*
X150220246Y-78041496D01*
X150285000Y-77715958D01*
X150285000Y-77384042D01*
X150220246Y-77058504D01*
X150093228Y-76751853D01*
X149908825Y-76475875D01*
X149674125Y-76241175D01*
X149398147Y-76056772D01*
X149091496Y-75929754D01*
X148765958Y-75865000D01*
X148434042Y-75865000D01*
X148108504Y-75929754D01*
X147801853Y-76056772D01*
X147525875Y-76241175D01*
X147291175Y-76475875D01*
X147106772Y-76751853D01*
X146979754Y-77058504D01*
X146915000Y-77384042D01*
X145162948Y-77384042D01*
X145192205Y-77340256D01*
X145270226Y-77151898D01*
X145310000Y-76951939D01*
X145310000Y-76748061D01*
X145270226Y-76548102D01*
X145192205Y-76359744D01*
X145078937Y-76190226D01*
X144934774Y-76046063D01*
X144765256Y-75932795D01*
X144576898Y-75854774D01*
X144376939Y-75815000D01*
X144173061Y-75815000D01*
X143973102Y-75854774D01*
X143784744Y-75932795D01*
X143615226Y-76046063D01*
X143471063Y-76190226D01*
X143357795Y-76359744D01*
X143279774Y-76548102D01*
X143240000Y-76748061D01*
X130660000Y-76748061D01*
X130660000Y-76032279D01*
X130669580Y-75934576D01*
X130688580Y-75871644D01*
X130719445Y-75813595D01*
X130760989Y-75762657D01*
X130811644Y-75720752D01*
X130869471Y-75689485D01*
X130932272Y-75670044D01*
X131027835Y-75660000D01*
X158967721Y-75660000D01*
X159065424Y-75669580D01*
G37*
X159065424Y-75669580D02*
X159128356Y-75688580D01*
X159186405Y-75719445D01*
X159237343Y-75760989D01*
X159279248Y-75811644D01*
X159310515Y-75869471D01*
X159329956Y-75932272D01*
X159340000Y-76027835D01*
X159340001Y-99934440D01*
X159315350Y-100057307D01*
X159303937Y-100040226D01*
X159159774Y-99896063D01*
X158990256Y-99782795D01*
X158801898Y-99704774D01*
X158601939Y-99665000D01*
X158398061Y-99665000D01*
X158198102Y-99704774D01*
X158009744Y-99782795D01*
X157840226Y-99896063D01*
X157696063Y-100040226D01*
X157582795Y-100209744D01*
X157504774Y-100398102D01*
X157465000Y-100598061D01*
X157465000Y-100801939D01*
X157504774Y-101001898D01*
X157582795Y-101190256D01*
X157696063Y-101359774D01*
X157840226Y-101503937D01*
X158009744Y-101617205D01*
X158198102Y-101695226D01*
X158398061Y-101735000D01*
X158601939Y-101735000D01*
X158801898Y-101695226D01*
X158990256Y-101617205D01*
X159004267Y-101607843D01*
X156995833Y-111618503D01*
X156992205Y-111609744D01*
X156878937Y-111440226D01*
X156734774Y-111296063D01*
X156565256Y-111182795D01*
X156376898Y-111104774D01*
X156176939Y-111065000D01*
X155973061Y-111065000D01*
X155773102Y-111104774D01*
X155584744Y-111182795D01*
X155415226Y-111296063D01*
X155271063Y-111440226D01*
X155157795Y-111609744D01*
X155079774Y-111798102D01*
X155040000Y-111998061D01*
X155040000Y-112201939D01*
X155079774Y-112401898D01*
X155157795Y-112590256D01*
X155271063Y-112759774D01*
X155415226Y-112903937D01*
X155584744Y-113017205D01*
X155773102Y-113095226D01*
X155973061Y-113135000D01*
X156176939Y-113135000D01*
X156376898Y-113095226D01*
X156565256Y-113017205D01*
X156734774Y-112903937D01*
X156738731Y-112899980D01*
X155178113Y-120678588D01*
X154990627Y-121456002D01*
X154687033Y-122145680D01*
X154266108Y-122770694D01*
X153741155Y-123311291D01*
X153128766Y-123750382D01*
X152448303Y-124074088D01*
X151721265Y-124272180D01*
X150944438Y-124340706D01*
X150911011Y-124340347D01*
X150907565Y-124340007D01*
X138512990Y-124337270D01*
X137784472Y-124184369D01*
X137085701Y-123901293D01*
X136448109Y-123498954D01*
X135891837Y-122990061D01*
X135434477Y-122390704D01*
X135090481Y-121719832D01*
X134878164Y-121023061D01*
X137115000Y-121023061D01*
X137115000Y-121226939D01*
X137154774Y-121426898D01*
X137232795Y-121615256D01*
X137346063Y-121784774D01*
X137490226Y-121928937D01*
X137659744Y-122042205D01*
X137848102Y-122120226D01*
X138048061Y-122160000D01*
X138251939Y-122160000D01*
X138451898Y-122120226D01*
X138640256Y-122042205D01*
X138809774Y-121928937D01*
X138953937Y-121784774D01*
X138978467Y-121748061D01*
X146940000Y-121748061D01*
X146940000Y-121951939D01*
X146979774Y-122151898D01*
X147057795Y-122340256D01*
X147171063Y-122509774D01*
X147315226Y-122653937D01*
X147484744Y-122767205D01*
X147673102Y-122845226D01*
X147873061Y-122885000D01*
X148076939Y-122885000D01*
X148276898Y-122845226D01*
X148465256Y-122767205D01*
X148634774Y-122653937D01*
X148778937Y-122509774D01*
X148892205Y-122340256D01*
X148970226Y-122151898D01*
X149010000Y-121951939D01*
X149010000Y-121748061D01*
X148970226Y-121548102D01*
X148892205Y-121359744D01*
X148778937Y-121190226D01*
X148634774Y-121046063D01*
X148488104Y-120948061D01*
X150665000Y-120948061D01*
X150665000Y-121151939D01*
X150704774Y-121351898D01*
X150782795Y-121540256D01*
X150896063Y-121709774D01*
X151040226Y-121853937D01*
X151209744Y-121967205D01*
X151398102Y-122045226D01*
X151598061Y-122085000D01*
X151801939Y-122085000D01*
X152001898Y-122045226D01*
X152190256Y-121967205D01*
X152359774Y-121853937D01*
X152503937Y-121709774D01*
X152617205Y-121540256D01*
X152695226Y-121351898D01*
X152735000Y-121151939D01*
X152735000Y-120948061D01*
X152695226Y-120748102D01*
X152617205Y-120559744D01*
X152503937Y-120390226D01*
X152359774Y-120246063D01*
X152190256Y-120132795D01*
X152001898Y-120054774D01*
X151801939Y-120015000D01*
X151598061Y-120015000D01*
X151398102Y-120054774D01*
X151209744Y-120132795D01*
X151040226Y-120246063D01*
X150896063Y-120390226D01*
X150782795Y-120559744D01*
X150704774Y-120748102D01*
X150665000Y-120948061D01*
X148488104Y-120948061D01*
X148465256Y-120932795D01*
X148276898Y-120854774D01*
X148076939Y-120815000D01*
X147873061Y-120815000D01*
X147673102Y-120854774D01*
X147484744Y-120932795D01*
X147315226Y-121046063D01*
X147171063Y-121190226D01*
X147057795Y-121359744D01*
X146979774Y-121548102D01*
X146940000Y-121748061D01*
X138978467Y-121748061D01*
X139067205Y-121615256D01*
X139145226Y-121426898D01*
X139185000Y-121226939D01*
X139185000Y-121023061D01*
X139145226Y-120823102D01*
X139067205Y-120634744D01*
X138953937Y-120465226D01*
X138809774Y-120321063D01*
X138640256Y-120207795D01*
X138451898Y-120129774D01*
X138251939Y-120090000D01*
X138048061Y-120090000D01*
X137848102Y-120129774D01*
X137659744Y-120207795D01*
X137490226Y-120321063D01*
X137346063Y-120465226D01*
X137232795Y-120634744D01*
X137154774Y-120823102D01*
X137115000Y-121023061D01*
X134878164Y-121023061D01*
X134864718Y-120978935D01*
X134829116Y-120783119D01*
X134828542Y-120777352D01*
X133957684Y-116423061D01*
X149065000Y-116423061D01*
X149065000Y-116626939D01*
X149104774Y-116826898D01*
X149182795Y-117015256D01*
X149296063Y-117184774D01*
X149440226Y-117328937D01*
X149609744Y-117442205D01*
X149798102Y-117520226D01*
X149998061Y-117560000D01*
X150201939Y-117560000D01*
X150401898Y-117520226D01*
X150590256Y-117442205D01*
X150759774Y-117328937D01*
X150903937Y-117184774D01*
X151017205Y-117015256D01*
X151095226Y-116826898D01*
X151135000Y-116626939D01*
X151135000Y-116423061D01*
X151095226Y-116223102D01*
X151017205Y-116034744D01*
X150903937Y-115865226D01*
X150759774Y-115721063D01*
X150590256Y-115607795D01*
X150401898Y-115529774D01*
X150201939Y-115490000D01*
X149998061Y-115490000D01*
X149798102Y-115529774D01*
X149609744Y-115607795D01*
X149440226Y-115721063D01*
X149296063Y-115865226D01*
X149182795Y-116034744D01*
X149104774Y-116223102D01*
X149065000Y-116423061D01*
X133957684Y-116423061D01*
X133492684Y-114098061D01*
X140215000Y-114098061D01*
X140215000Y-114301939D01*
X140254774Y-114501898D01*
X140332795Y-114690256D01*
X140446063Y-114859774D01*
X140590226Y-115003937D01*
X140759744Y-115117205D01*
X140948102Y-115195226D01*
X141148061Y-115235000D01*
X141351939Y-115235000D01*
X141551898Y-115195226D01*
X141740256Y-115117205D01*
X141909774Y-115003937D01*
X142053937Y-114859774D01*
X142167205Y-114690256D01*
X142245226Y-114501898D01*
X142285000Y-114301939D01*
X142285000Y-114098061D01*
X142245226Y-113898102D01*
X142167205Y-113709744D01*
X142053937Y-113540226D01*
X141909774Y-113396063D01*
X141740256Y-113282795D01*
X141716757Y-113273061D01*
X147215000Y-113273061D01*
X147215000Y-113476939D01*
X147254774Y-113676898D01*
X147332795Y-113865256D01*
X147446063Y-114034774D01*
X147590226Y-114178937D01*
X147759744Y-114292205D01*
X147948102Y-114370226D01*
X148148061Y-114410000D01*
X148351939Y-114410000D01*
X148551898Y-114370226D01*
X148740256Y-114292205D01*
X148909774Y-114178937D01*
X149053937Y-114034774D01*
X149167205Y-113865256D01*
X149245226Y-113676898D01*
X149285000Y-113476939D01*
X149285000Y-113273061D01*
X149245226Y-113073102D01*
X149167205Y-112884744D01*
X149053937Y-112715226D01*
X148909774Y-112571063D01*
X148740256Y-112457795D01*
X148551898Y-112379774D01*
X148351939Y-112340000D01*
X148148061Y-112340000D01*
X147948102Y-112379774D01*
X147759744Y-112457795D01*
X147590226Y-112571063D01*
X147446063Y-112715226D01*
X147332795Y-112884744D01*
X147254774Y-113073102D01*
X147215000Y-113273061D01*
X141716757Y-113273061D01*
X141551898Y-113204774D01*
X141351939Y-113165000D01*
X141148061Y-113165000D01*
X140948102Y-113204774D01*
X140759744Y-113282795D01*
X140590226Y-113396063D01*
X140446063Y-113540226D01*
X140332795Y-113709744D01*
X140254774Y-113898102D01*
X140215000Y-114098061D01*
X133492684Y-114098061D01*
X133312544Y-113197363D01*
X133421063Y-113359774D01*
X133565226Y-113503937D01*
X133734744Y-113617205D01*
X133923102Y-113695226D01*
X134123061Y-113735000D01*
X134326939Y-113735000D01*
X134526898Y-113695226D01*
X134715256Y-113617205D01*
X134884774Y-113503937D01*
X135028937Y-113359774D01*
X135142205Y-113190256D01*
X135220226Y-113001898D01*
X135260000Y-112801939D01*
X135260000Y-112598061D01*
X135220226Y-112398102D01*
X135142205Y-112209744D01*
X135028937Y-112040226D01*
X134884774Y-111896063D01*
X134715256Y-111782795D01*
X134526898Y-111704774D01*
X134326939Y-111665000D01*
X134123061Y-111665000D01*
X133923102Y-111704774D01*
X133734744Y-111782795D01*
X133565226Y-111896063D01*
X133421063Y-112040226D01*
X133307795Y-112209744D01*
X133229774Y-112398102D01*
X133191338Y-112591335D01*
X132622684Y-109748061D01*
X143940000Y-109748061D01*
X143940000Y-109951939D01*
X143979774Y-110151898D01*
X144057795Y-110340256D01*
X144171063Y-110509774D01*
X144315226Y-110653937D01*
X144484744Y-110767205D01*
X144673102Y-110845226D01*
X144873061Y-110885000D01*
X145076939Y-110885000D01*
X145276898Y-110845226D01*
X145465256Y-110767205D01*
X145634774Y-110653937D01*
X145778937Y-110509774D01*
X145892205Y-110340256D01*
X145970226Y-110151898D01*
X146010000Y-109951939D01*
X146010000Y-109748061D01*
X145970226Y-109548102D01*
X145892205Y-109359744D01*
X145778937Y-109190226D01*
X145634774Y-109046063D01*
X145465256Y-108932795D01*
X145276898Y-108854774D01*
X145076939Y-108815000D01*
X144873061Y-108815000D01*
X144673102Y-108854774D01*
X144484744Y-108932795D01*
X144315226Y-109046063D01*
X144171063Y-109190226D01*
X144057795Y-109359744D01*
X143979774Y-109548102D01*
X143940000Y-109748061D01*
X132622684Y-109748061D01*
X131639880Y-104834042D01*
X133315000Y-104834042D01*
X133315000Y-105165958D01*
X133379754Y-105491496D01*
X133506772Y-105798147D01*
X133691175Y-106074125D01*
X133925875Y-106308825D01*
X134201853Y-106493228D01*
X134508504Y-106620246D01*
X134834042Y-106685000D01*
X135165958Y-106685000D01*
X135491496Y-106620246D01*
X135798147Y-106493228D01*
X136074125Y-106308825D01*
X136308825Y-106074125D01*
X136493228Y-105798147D01*
X136620246Y-105491496D01*
X136685000Y-105165958D01*
X136685000Y-104834042D01*
X153315000Y-104834042D01*
X153315000Y-105165958D01*
X153379754Y-105491496D01*
X153506772Y-105798147D01*
X153691175Y-106074125D01*
X153925875Y-106308825D01*
X154201853Y-106493228D01*
X154508504Y-106620246D01*
X154834042Y-106685000D01*
X155165958Y-106685000D01*
X155491496Y-106620246D01*
X155798147Y-106493228D01*
X156074125Y-106308825D01*
X156308825Y-106074125D01*
X156493228Y-105798147D01*
X156620246Y-105491496D01*
X156685000Y-105165958D01*
X156685000Y-104834042D01*
X156620246Y-104508504D01*
X156493228Y-104201853D01*
X156308825Y-103925875D01*
X156074125Y-103691175D01*
X155798147Y-103506772D01*
X155491496Y-103379754D01*
X155165958Y-103315000D01*
X154834042Y-103315000D01*
X154508504Y-103379754D01*
X154201853Y-103506772D01*
X153925875Y-103691175D01*
X153691175Y-103925875D01*
X153506772Y-104201853D01*
X153379754Y-104508504D01*
X153315000Y-104834042D01*
X136685000Y-104834042D01*
X136620246Y-104508504D01*
X136493228Y-104201853D01*
X136308825Y-103925875D01*
X136074125Y-103691175D01*
X135798147Y-103506772D01*
X135491496Y-103379754D01*
X135165958Y-103315000D01*
X134834042Y-103315000D01*
X134508504Y-103379754D01*
X134201853Y-103506772D01*
X133925875Y-103691175D01*
X133691175Y-103925875D01*
X133506772Y-104201853D01*
X133379754Y-104508504D01*
X133315000Y-104834042D01*
X131639880Y-104834042D01*
X131072683Y-101998061D01*
X141765000Y-101998061D01*
X141765000Y-102201939D01*
X141804774Y-102401898D01*
X141882795Y-102590256D01*
X141996063Y-102759774D01*
X142140226Y-102903937D01*
X142309744Y-103017205D01*
X142498102Y-103095226D01*
X142698061Y-103135000D01*
X142901939Y-103135000D01*
X143101898Y-103095226D01*
X143290256Y-103017205D01*
X143459774Y-102903937D01*
X143603937Y-102759774D01*
X143717205Y-102590256D01*
X143795226Y-102401898D01*
X143835000Y-102201939D01*
X143835000Y-101998061D01*
X143805164Y-101848061D01*
X152590000Y-101848061D01*
X152590000Y-102051939D01*
X152629774Y-102251898D01*
X152707795Y-102440256D01*
X152821063Y-102609774D01*
X152965226Y-102753937D01*
X153134744Y-102867205D01*
X153323102Y-102945226D01*
X153523061Y-102985000D01*
X153726939Y-102985000D01*
X153926898Y-102945226D01*
X154115256Y-102867205D01*
X154284774Y-102753937D01*
X154428937Y-102609774D01*
X154542205Y-102440256D01*
X154620226Y-102251898D01*
X154660000Y-102051939D01*
X154660000Y-101848061D01*
X154620226Y-101648102D01*
X154542205Y-101459744D01*
X154428937Y-101290226D01*
X154284774Y-101146063D01*
X154115256Y-101032795D01*
X153926898Y-100954774D01*
X153726939Y-100915000D01*
X153523061Y-100915000D01*
X153323102Y-100954774D01*
X153134744Y-101032795D01*
X152965226Y-101146063D01*
X152821063Y-101290226D01*
X152707795Y-101459744D01*
X152629774Y-101648102D01*
X152590000Y-101848061D01*
X143805164Y-101848061D01*
X143795226Y-101798102D01*
X143717205Y-101609744D01*
X143603937Y-101440226D01*
X143459774Y-101296063D01*
X143290256Y-101182795D01*
X143101898Y-101104774D01*
X142901939Y-101065000D01*
X142698061Y-101065000D01*
X142498102Y-101104774D01*
X142309744Y-101182795D01*
X142140226Y-101296063D01*
X141996063Y-101440226D01*
X141882795Y-101609744D01*
X141804774Y-101798102D01*
X141765000Y-101998061D01*
X131072683Y-101998061D01*
X130963516Y-101452227D01*
X131065226Y-101553937D01*
X131234744Y-101667205D01*
X131423102Y-101745226D01*
X131623061Y-101785000D01*
X131826939Y-101785000D01*
X132026898Y-101745226D01*
X132215256Y-101667205D01*
X132384774Y-101553937D01*
X132528937Y-101409774D01*
X132596692Y-101308371D01*
X132684744Y-101367205D01*
X132873102Y-101445226D01*
X133073061Y-101485000D01*
X133276939Y-101485000D01*
X133476898Y-101445226D01*
X133665256Y-101367205D01*
X133834774Y-101253937D01*
X133978937Y-101109774D01*
X134092205Y-100940256D01*
X134170226Y-100751898D01*
X134180934Y-100698061D01*
X145890000Y-100698061D01*
X145890000Y-100901939D01*
X145929774Y-101101898D01*
X146007795Y-101290256D01*
X146121063Y-101459774D01*
X146265226Y-101603937D01*
X146434744Y-101717205D01*
X146623102Y-101795226D01*
X146823061Y-101835000D01*
X147026939Y-101835000D01*
X147226898Y-101795226D01*
X147415256Y-101717205D01*
X147584774Y-101603937D01*
X147728937Y-101459774D01*
X147842205Y-101290256D01*
X147920226Y-101101898D01*
X147960000Y-100901939D01*
X147960000Y-100698061D01*
X147920226Y-100498102D01*
X147842205Y-100309744D01*
X147728937Y-100140226D01*
X147584774Y-99996063D01*
X147415256Y-99882795D01*
X147226898Y-99804774D01*
X147026939Y-99765000D01*
X146823061Y-99765000D01*
X146623102Y-99804774D01*
X146434744Y-99882795D01*
X146265226Y-99996063D01*
X146121063Y-100140226D01*
X146007795Y-100309744D01*
X145929774Y-100498102D01*
X145890000Y-100698061D01*
X134180934Y-100698061D01*
X134210000Y-100551939D01*
X134210000Y-100348061D01*
X134170226Y-100148102D01*
X134092205Y-99959744D01*
X133978937Y-99790226D01*
X133834774Y-99646063D01*
X133665256Y-99532795D01*
X133476898Y-99454774D01*
X133276939Y-99415000D01*
X133173551Y-99415000D01*
X133954429Y-98634122D01*
X133984469Y-98609469D01*
X134082866Y-98489572D01*
X134155982Y-98352783D01*
X134201006Y-98204357D01*
X134212400Y-98088673D01*
X134212400Y-98088664D01*
X134216208Y-98050001D01*
X134212400Y-98011338D01*
X134212400Y-95473063D01*
X136365000Y-95473063D01*
X136365000Y-95676941D01*
X136404774Y-95876900D01*
X136482795Y-96065258D01*
X136596063Y-96234776D01*
X136740226Y-96378939D01*
X136909744Y-96492207D01*
X137098102Y-96570228D01*
X137298061Y-96610002D01*
X137501939Y-96610002D01*
X137701898Y-96570228D01*
X137890256Y-96492207D01*
X138059774Y-96378939D01*
X138203937Y-96234776D01*
X138317205Y-96065258D01*
X138395226Y-95876900D01*
X138435000Y-95676941D01*
X138435000Y-95473063D01*
X138395226Y-95273104D01*
X138317205Y-95084746D01*
X138203937Y-94915228D01*
X138059774Y-94771065D01*
X137890256Y-94657797D01*
X137701898Y-94579776D01*
X137501939Y-94540002D01*
X137298061Y-94540002D01*
X137098102Y-94579776D01*
X136909744Y-94657797D01*
X136740226Y-94771065D01*
X136596063Y-94915228D01*
X136482795Y-95084746D01*
X136404774Y-95273104D01*
X136365000Y-95473063D01*
X134212400Y-95473063D01*
X134212400Y-91498061D01*
X135690000Y-91498061D01*
X135690000Y-91701939D01*
X135729774Y-91901898D01*
X135807795Y-92090256D01*
X135921063Y-92259774D01*
X136065226Y-92403937D01*
X136234744Y-92517205D01*
X136423102Y-92595226D01*
X136623061Y-92635000D01*
X136826939Y-92635000D01*
X137026898Y-92595226D01*
X137215256Y-92517205D01*
X137384774Y-92403937D01*
X137528937Y-92259774D01*
X137642205Y-92090256D01*
X137720226Y-91901898D01*
X137760000Y-91701939D01*
X137760000Y-91498061D01*
X137732538Y-91360000D01*
X137826939Y-91360000D01*
X138026898Y-91320226D01*
X138180128Y-91256755D01*
X138208578Y-91291422D01*
X138237654Y-91315284D01*
X138724870Y-91802500D01*
X138685561Y-91802500D01*
X138485602Y-91842274D01*
X138297244Y-91920295D01*
X138127726Y-92033563D01*
X137983563Y-92177726D01*
X137870295Y-92347244D01*
X137792274Y-92535602D01*
X137752500Y-92735561D01*
X137752500Y-92939439D01*
X137792274Y-93139398D01*
X137870295Y-93327756D01*
X137983563Y-93497274D01*
X138127726Y-93641437D01*
X138297244Y-93754705D01*
X138485602Y-93832726D01*
X138685561Y-93872500D01*
X138889439Y-93872500D01*
X139089398Y-93832726D01*
X139277756Y-93754705D01*
X139447274Y-93641437D01*
X139591437Y-93497274D01*
X139704705Y-93327756D01*
X139782726Y-93139398D01*
X139822500Y-92939439D01*
X139822500Y-92900131D01*
X139887648Y-92965279D01*
X139887653Y-92965283D01*
X141390000Y-94467631D01*
X141390000Y-94526939D01*
X141429774Y-94726898D01*
X141507795Y-94915256D01*
X141621063Y-95084774D01*
X141765226Y-95228937D01*
X141934744Y-95342205D01*
X142123102Y-95420226D01*
X142323061Y-95460000D01*
X142526939Y-95460000D01*
X142726898Y-95420226D01*
X142817163Y-95382837D01*
X142779774Y-95473102D01*
X142740000Y-95673061D01*
X142740000Y-95876939D01*
X142779774Y-96076898D01*
X142857795Y-96265256D01*
X142971063Y-96434774D01*
X143115226Y-96578937D01*
X143284744Y-96692205D01*
X143473102Y-96770226D01*
X143673061Y-96810000D01*
X143876939Y-96810000D01*
X144076898Y-96770226D01*
X144265256Y-96692205D01*
X144434774Y-96578937D01*
X144578937Y-96434774D01*
X144692205Y-96265256D01*
X144770226Y-96076898D01*
X144810000Y-95876939D01*
X144810000Y-95673061D01*
X144770226Y-95473102D01*
X144692205Y-95284744D01*
X144578937Y-95115226D01*
X144434774Y-94971063D01*
X144265256Y-94857795D01*
X144076898Y-94779774D01*
X143876939Y-94740000D01*
X143673061Y-94740000D01*
X143473102Y-94779774D01*
X143382837Y-94817163D01*
X143420226Y-94726898D01*
X143460000Y-94526939D01*
X143460000Y-94323061D01*
X143420226Y-94123102D01*
X143342205Y-93934744D01*
X143228937Y-93765226D01*
X143084774Y-93621063D01*
X142915256Y-93507795D01*
X142726898Y-93429774D01*
X142526939Y-93390000D01*
X142467631Y-93390000D01*
X140965283Y-91887653D01*
X140965279Y-91887648D01*
X139525692Y-90448061D01*
X143240000Y-90448061D01*
X143240000Y-90651939D01*
X143279774Y-90851898D01*
X143357795Y-91040256D01*
X143471063Y-91209774D01*
X143615226Y-91353937D01*
X143784744Y-91467205D01*
X143973102Y-91545226D01*
X144173061Y-91585000D01*
X144376939Y-91585000D01*
X144576898Y-91545226D01*
X144765256Y-91467205D01*
X144934774Y-91353937D01*
X145078937Y-91209774D01*
X145192205Y-91040256D01*
X145216908Y-90980619D01*
X145265226Y-91028937D01*
X145434744Y-91142205D01*
X145623102Y-91220226D01*
X145823061Y-91260000D01*
X146026939Y-91260000D01*
X146226898Y-91220226D01*
X146415256Y-91142205D01*
X146584774Y-91028937D01*
X146615650Y-90998061D01*
X148940000Y-90998061D01*
X148940000Y-91201939D01*
X148979774Y-91401898D01*
X149057795Y-91590256D01*
X149171063Y-91759774D01*
X149315226Y-91903937D01*
X149484744Y-92017205D01*
X149673102Y-92095226D01*
X149873061Y-92135000D01*
X150076939Y-92135000D01*
X150276898Y-92095226D01*
X150465256Y-92017205D01*
X150634774Y-91903937D01*
X150778937Y-91759774D01*
X150892205Y-91590256D01*
X150970226Y-91401898D01*
X151010000Y-91201939D01*
X151010000Y-90998061D01*
X150970226Y-90798102D01*
X150892205Y-90609744D01*
X150778937Y-90440226D01*
X150686334Y-90347623D01*
X150801898Y-90324636D01*
X150990256Y-90246615D01*
X151159774Y-90133347D01*
X151303937Y-89989184D01*
X151417205Y-89819666D01*
X151495226Y-89631308D01*
X151535000Y-89431349D01*
X151535000Y-89298061D01*
X151715000Y-89298061D01*
X151715000Y-89501939D01*
X151754774Y-89701898D01*
X151832795Y-89890256D01*
X151924501Y-90027504D01*
X151924500Y-94122497D01*
X151832795Y-94259744D01*
X151754774Y-94448102D01*
X151715000Y-94648061D01*
X151715000Y-94851939D01*
X151754774Y-95051898D01*
X151832795Y-95240256D01*
X151946063Y-95409774D01*
X152090226Y-95553937D01*
X152259744Y-95667205D01*
X152448102Y-95745226D01*
X152648061Y-95785000D01*
X152851939Y-95785000D01*
X153051898Y-95745226D01*
X153240256Y-95667205D01*
X153409774Y-95553937D01*
X153553937Y-95409774D01*
X153667205Y-95240256D01*
X153745226Y-95051898D01*
X153785000Y-94851939D01*
X153785000Y-94648061D01*
X153745226Y-94448102D01*
X153724499Y-94398061D01*
X154790000Y-94398061D01*
X154790000Y-94601939D01*
X154829774Y-94801898D01*
X154907795Y-94990256D01*
X155021063Y-95159774D01*
X155165226Y-95303937D01*
X155334744Y-95417205D01*
X155523102Y-95495226D01*
X155723061Y-95535000D01*
X155926939Y-95535000D01*
X156126898Y-95495226D01*
X156315256Y-95417205D01*
X156484774Y-95303937D01*
X156628937Y-95159774D01*
X156742205Y-94990256D01*
X156820226Y-94801898D01*
X156860000Y-94601939D01*
X156860000Y-94398061D01*
X156820226Y-94198102D01*
X156742205Y-94009744D01*
X156628937Y-93840226D01*
X156484774Y-93696063D01*
X156315256Y-93582795D01*
X156126898Y-93504774D01*
X155926939Y-93465000D01*
X155723061Y-93465000D01*
X155523102Y-93504774D01*
X155334744Y-93582795D01*
X155165226Y-93696063D01*
X155021063Y-93840226D01*
X154907795Y-94009744D01*
X154829774Y-94198102D01*
X154790000Y-94398061D01*
X153724499Y-94398061D01*
X153667205Y-94259744D01*
X153575500Y-94122497D01*
X153575500Y-90027503D01*
X153667205Y-89890256D01*
X153745226Y-89701898D01*
X153785000Y-89501939D01*
X153785000Y-89298061D01*
X153745226Y-89098102D01*
X153667205Y-88909744D01*
X153553937Y-88740226D01*
X153409774Y-88596063D01*
X153240256Y-88482795D01*
X153051898Y-88404774D01*
X152851939Y-88365000D01*
X152648061Y-88365000D01*
X152448102Y-88404774D01*
X152259744Y-88482795D01*
X152090226Y-88596063D01*
X151946063Y-88740226D01*
X151832795Y-88909744D01*
X151754774Y-89098102D01*
X151715000Y-89298061D01*
X151535000Y-89298061D01*
X151535000Y-89227471D01*
X151495226Y-89027512D01*
X151417205Y-88839154D01*
X151303937Y-88669636D01*
X151159774Y-88525473D01*
X150990256Y-88412205D01*
X150801898Y-88334184D01*
X150601939Y-88294410D01*
X150398061Y-88294410D01*
X150198102Y-88334184D01*
X150009744Y-88412205D01*
X149840226Y-88525473D01*
X149696063Y-88669636D01*
X149582795Y-88839154D01*
X149504774Y-89027512D01*
X149465000Y-89227471D01*
X149465000Y-89431349D01*
X149504774Y-89631308D01*
X149582795Y-89819666D01*
X149696063Y-89989184D01*
X149788666Y-90081787D01*
X149673102Y-90104774D01*
X149484744Y-90182795D01*
X149315226Y-90296063D01*
X149171063Y-90440226D01*
X149057795Y-90609744D01*
X148979774Y-90798102D01*
X148940000Y-90998061D01*
X146615650Y-90998061D01*
X146728937Y-90884774D01*
X146842205Y-90715256D01*
X146920226Y-90526898D01*
X146960000Y-90326939D01*
X146960000Y-90123061D01*
X146920226Y-89923102D01*
X146842205Y-89734744D01*
X146728937Y-89565226D01*
X146584774Y-89421063D01*
X146415256Y-89307795D01*
X146226898Y-89229774D01*
X146026939Y-89190000D01*
X145823061Y-89190000D01*
X145623102Y-89229774D01*
X145434744Y-89307795D01*
X145265226Y-89421063D01*
X145121063Y-89565226D01*
X145007795Y-89734744D01*
X144983092Y-89794381D01*
X144934774Y-89746063D01*
X144765256Y-89632795D01*
X144576898Y-89554774D01*
X144376939Y-89515000D01*
X144173061Y-89515000D01*
X143973102Y-89554774D01*
X143784744Y-89632795D01*
X143615226Y-89746063D01*
X143471063Y-89890226D01*
X143357795Y-90059744D01*
X143279774Y-90248102D01*
X143240000Y-90448061D01*
X139525692Y-90448061D01*
X139512000Y-90434370D01*
X139512000Y-87752722D01*
X142790493Y-87752722D01*
X142790493Y-87956600D01*
X142830267Y-88156559D01*
X142908288Y-88344917D01*
X143021556Y-88514435D01*
X143165719Y-88658598D01*
X143335237Y-88771866D01*
X143523595Y-88849887D01*
X143723554Y-88889661D01*
X143927432Y-88889661D01*
X144127391Y-88849887D01*
X144315749Y-88771866D01*
X144485267Y-88658598D01*
X144629430Y-88514435D01*
X144742698Y-88344917D01*
X144820719Y-88156559D01*
X144860493Y-87956600D01*
X144860493Y-87752722D01*
X144820719Y-87552763D01*
X144742698Y-87364405D01*
X144629430Y-87194887D01*
X144485267Y-87050724D01*
X144315749Y-86937456D01*
X144127391Y-86859435D01*
X143927432Y-86819661D01*
X143723554Y-86819661D01*
X143523595Y-86859435D01*
X143335237Y-86937456D01*
X143165719Y-87050724D01*
X143021556Y-87194887D01*
X142908288Y-87364405D01*
X142830267Y-87552763D01*
X142790493Y-87752722D01*
X139512000Y-87752722D01*
X139512000Y-83701711D01*
X139553937Y-83659774D01*
X139667205Y-83490256D01*
X139745226Y-83301898D01*
X139785000Y-83101939D01*
X139785000Y-82948061D01*
X139940000Y-82948061D01*
X139940000Y-83151939D01*
X139979774Y-83351898D01*
X140057795Y-83540256D01*
X140171063Y-83709774D01*
X140315226Y-83853937D01*
X140484744Y-83967205D01*
X140673102Y-84045226D01*
X140873061Y-84085000D01*
X141076939Y-84085000D01*
X141276898Y-84045226D01*
X141465256Y-83967205D01*
X141634774Y-83853937D01*
X141637500Y-83851211D01*
X141765226Y-83978937D01*
X141934744Y-84092205D01*
X142123102Y-84170226D01*
X142323061Y-84210000D01*
X142526939Y-84210000D01*
X142726898Y-84170226D01*
X142915256Y-84092205D01*
X143084774Y-83978937D01*
X143228937Y-83834774D01*
X143342205Y-83665256D01*
X143420226Y-83476898D01*
X143440000Y-83377487D01*
X143440000Y-83526939D01*
X143479774Y-83726898D01*
X143557795Y-83915256D01*
X143671063Y-84084774D01*
X143815226Y-84228937D01*
X143984744Y-84342205D01*
X144173102Y-84420226D01*
X144373061Y-84460000D01*
X144576939Y-84460000D01*
X144776898Y-84420226D01*
X144965256Y-84342205D01*
X145134774Y-84228937D01*
X145278937Y-84084774D01*
X145392205Y-83915256D01*
X145470226Y-83726898D01*
X145510000Y-83526939D01*
X145510000Y-83323061D01*
X145470226Y-83123102D01*
X145470210Y-83123061D01*
X151015000Y-83123061D01*
X151015000Y-83326939D01*
X151054774Y-83526898D01*
X151132795Y-83715256D01*
X151246063Y-83884774D01*
X151390226Y-84028937D01*
X151559744Y-84142205D01*
X151748102Y-84220226D01*
X151948061Y-84260000D01*
X152151939Y-84260000D01*
X152351898Y-84220226D01*
X152540256Y-84142205D01*
X152709774Y-84028937D01*
X152853937Y-83884774D01*
X152967205Y-83715256D01*
X153045226Y-83526898D01*
X153085000Y-83326939D01*
X153085000Y-83123061D01*
X153045226Y-82923102D01*
X152967205Y-82734744D01*
X152853937Y-82565226D01*
X152709774Y-82421063D01*
X152540256Y-82307795D01*
X152351898Y-82229774D01*
X152151939Y-82190000D01*
X151948061Y-82190000D01*
X151748102Y-82229774D01*
X151559744Y-82307795D01*
X151390226Y-82421063D01*
X151246063Y-82565226D01*
X151132795Y-82734744D01*
X151054774Y-82923102D01*
X151015000Y-83123061D01*
X145470210Y-83123061D01*
X145392205Y-82934744D01*
X145278937Y-82765226D01*
X145134774Y-82621063D01*
X144965256Y-82507795D01*
X144776898Y-82429774D01*
X144576939Y-82390000D01*
X144373061Y-82390000D01*
X144173102Y-82429774D01*
X143984744Y-82507795D01*
X143815226Y-82621063D01*
X143671063Y-82765226D01*
X143557795Y-82934744D01*
X143479774Y-83123102D01*
X143460000Y-83222513D01*
X143460000Y-83073061D01*
X143420226Y-82873102D01*
X143342205Y-82684744D01*
X143228937Y-82515226D01*
X143084774Y-82371063D01*
X142915256Y-82257795D01*
X142726898Y-82179774D01*
X142526939Y-82140000D01*
X142323061Y-82140000D01*
X142123102Y-82179774D01*
X141934744Y-82257795D01*
X141765226Y-82371063D01*
X141762500Y-82373789D01*
X141634774Y-82246063D01*
X141465256Y-82132795D01*
X141276898Y-82054774D01*
X141076939Y-82015000D01*
X140873061Y-82015000D01*
X140673102Y-82054774D01*
X140484744Y-82132795D01*
X140315226Y-82246063D01*
X140171063Y-82390226D01*
X140057795Y-82559744D01*
X139979774Y-82748102D01*
X139940000Y-82948061D01*
X139785000Y-82948061D01*
X139785000Y-82898061D01*
X139745226Y-82698102D01*
X139667205Y-82509744D01*
X139553937Y-82340226D01*
X139409774Y-82196063D01*
X139240256Y-82082795D01*
X139051898Y-82004774D01*
X138851939Y-81965000D01*
X138648061Y-81965000D01*
X138448102Y-82004774D01*
X138259744Y-82082795D01*
X138090226Y-82196063D01*
X137946063Y-82340226D01*
X137832795Y-82509744D01*
X137819057Y-82542910D01*
X137795226Y-82423102D01*
X137717205Y-82234744D01*
X137603937Y-82065226D01*
X137556875Y-82018164D01*
X137740256Y-81942205D01*
X137909774Y-81828937D01*
X138053937Y-81684774D01*
X138167205Y-81515256D01*
X138245226Y-81326898D01*
X138285000Y-81126939D01*
X138285000Y-80998061D01*
X140665000Y-80998061D01*
X140665000Y-81201939D01*
X140704774Y-81401898D01*
X140782795Y-81590256D01*
X140896063Y-81759774D01*
X141040226Y-81903937D01*
X141209744Y-82017205D01*
X141398102Y-82095226D01*
X141598061Y-82135000D01*
X141801939Y-82135000D01*
X142001898Y-82095226D01*
X142190256Y-82017205D01*
X142359774Y-81903937D01*
X142503937Y-81759774D01*
X142617205Y-81590256D01*
X142695226Y-81401898D01*
X142735000Y-81201939D01*
X142735000Y-80998061D01*
X142695226Y-80798102D01*
X142617205Y-80609744D01*
X142503937Y-80440226D01*
X142486772Y-80423061D01*
X149540000Y-80423061D01*
X149540000Y-80626939D01*
X149579774Y-80826898D01*
X149657795Y-81015256D01*
X149771063Y-81184774D01*
X149915226Y-81328937D01*
X150084744Y-81442205D01*
X150273102Y-81520226D01*
X150473061Y-81560000D01*
X150676939Y-81560000D01*
X150876898Y-81520226D01*
X151065256Y-81442205D01*
X151234774Y-81328937D01*
X151378937Y-81184774D01*
X151492205Y-81015256D01*
X151570226Y-80826898D01*
X151580934Y-80773061D01*
X151865000Y-80773061D01*
X151865000Y-80976939D01*
X151904774Y-81176898D01*
X151982795Y-81365256D01*
X152096063Y-81534774D01*
X152240226Y-81678937D01*
X152409744Y-81792205D01*
X152598102Y-81870226D01*
X152798061Y-81910000D01*
X153001939Y-81910000D01*
X153201898Y-81870226D01*
X153390256Y-81792205D01*
X153559774Y-81678937D01*
X153703937Y-81534774D01*
X153817205Y-81365256D01*
X153895226Y-81176898D01*
X153935000Y-80976939D01*
X153935000Y-80773061D01*
X153895226Y-80573102D01*
X153817205Y-80384744D01*
X153703937Y-80215226D01*
X153559774Y-80071063D01*
X153390256Y-79957795D01*
X153201898Y-79879774D01*
X153001939Y-79840000D01*
X152798061Y-79840000D01*
X152598102Y-79879774D01*
X152409744Y-79957795D01*
X152240226Y-80071063D01*
X152096063Y-80215226D01*
X151982795Y-80384744D01*
X151904774Y-80573102D01*
X151865000Y-80773061D01*
X151580934Y-80773061D01*
X151610000Y-80626939D01*
X151610000Y-80423061D01*
X151570226Y-80223102D01*
X151492205Y-80034744D01*
X151378937Y-79865226D01*
X151234774Y-79721063D01*
X151065256Y-79607795D01*
X150876898Y-79529774D01*
X150676939Y-79490000D01*
X150473061Y-79490000D01*
X150273102Y-79529774D01*
X150084744Y-79607795D01*
X149915226Y-79721063D01*
X149771063Y-79865226D01*
X149657795Y-80034744D01*
X149579774Y-80223102D01*
X149540000Y-80423061D01*
X142486772Y-80423061D01*
X142359774Y-80296063D01*
X142190256Y-80182795D01*
X142001898Y-80104774D01*
X141801939Y-80065000D01*
X141598061Y-80065000D01*
X141398102Y-80104774D01*
X141209744Y-80182795D01*
X141040226Y-80296063D01*
X140896063Y-80440226D01*
X140782795Y-80609744D01*
X140704774Y-80798102D01*
X140665000Y-80998061D01*
X138285000Y-80998061D01*
X138285000Y-80923061D01*
X138245226Y-80723102D01*
X138167205Y-80534744D01*
X138053937Y-80365226D01*
X137909774Y-80221063D01*
X137740256Y-80107795D01*
X137551898Y-80029774D01*
X137351939Y-79990000D01*
X137148061Y-79990000D01*
X136948102Y-80029774D01*
X136759744Y-80107795D01*
X136590226Y-80221063D01*
X136446063Y-80365226D01*
X136332795Y-80534744D01*
X136254774Y-80723102D01*
X136215000Y-80923061D01*
X136215000Y-81126939D01*
X136254774Y-81326898D01*
X136332795Y-81515256D01*
X136446063Y-81684774D01*
X136493125Y-81731836D01*
X136309744Y-81807795D01*
X136140226Y-81921063D01*
X135996063Y-82065226D01*
X135882795Y-82234744D01*
X135804774Y-82423102D01*
X135765000Y-82623061D01*
X135765000Y-82826939D01*
X135804774Y-83026898D01*
X135882795Y-83215256D01*
X135996063Y-83384774D01*
X136140226Y-83528937D01*
X136309744Y-83642205D01*
X136498102Y-83720226D01*
X136498631Y-83720331D01*
X136529774Y-83876898D01*
X136607795Y-84065256D01*
X136721063Y-84234774D01*
X136865226Y-84378937D01*
X137034744Y-84492205D01*
X137223102Y-84570226D01*
X137423061Y-84610000D01*
X137626939Y-84610000D01*
X137826898Y-84570226D01*
X137988001Y-84503495D01*
X137988000Y-88728621D01*
X137928937Y-88640226D01*
X137784774Y-88496063D01*
X137615256Y-88382795D01*
X137426898Y-88304774D01*
X137226939Y-88265000D01*
X137023061Y-88265000D01*
X136823102Y-88304774D01*
X136634744Y-88382795D01*
X136465226Y-88496063D01*
X136321063Y-88640226D01*
X136207795Y-88809744D01*
X136129774Y-88998102D01*
X136090000Y-89198061D01*
X136090000Y-89401939D01*
X136129774Y-89601898D01*
X136207795Y-89790256D01*
X136321063Y-89959774D01*
X136465226Y-90103937D01*
X136634744Y-90217205D01*
X136690000Y-90240093D01*
X136690000Y-90426939D01*
X136717462Y-90565000D01*
X136623061Y-90565000D01*
X136423102Y-90604774D01*
X136234744Y-90682795D01*
X136065226Y-90796063D01*
X135921063Y-90940226D01*
X135807795Y-91109744D01*
X135729774Y-91298102D01*
X135690000Y-91498061D01*
X134212400Y-91498061D01*
X134212400Y-91213663D01*
X134216208Y-91175000D01*
X134212400Y-91136337D01*
X134212400Y-91136327D01*
X134201006Y-91020643D01*
X134155982Y-90872217D01*
X134132231Y-90827782D01*
X134082866Y-90735427D01*
X134009121Y-90645570D01*
X133984469Y-90615531D01*
X133954427Y-90590876D01*
X133359127Y-89995577D01*
X133334469Y-89965531D01*
X133214572Y-89867134D01*
X133077783Y-89794018D01*
X132929357Y-89748994D01*
X132813673Y-89737600D01*
X132813663Y-89737600D01*
X132775000Y-89733792D01*
X132736337Y-89737600D01*
X131788665Y-89737600D01*
X131750000Y-89733792D01*
X131711335Y-89737600D01*
X131711327Y-89737600D01*
X131595643Y-89748994D01*
X131447217Y-89794018D01*
X131310428Y-89867134D01*
X131190531Y-89965531D01*
X131165876Y-89995573D01*
X130746450Y-90415000D01*
X130723061Y-90415000D01*
X130660000Y-90427544D01*
X130660000Y-85673061D01*
X133240000Y-85673061D01*
X133240000Y-85876939D01*
X133279774Y-86076898D01*
X133357795Y-86265256D01*
X133471063Y-86434774D01*
X133615226Y-86578937D01*
X133784744Y-86692205D01*
X133973102Y-86770226D01*
X134173061Y-86810000D01*
X134376939Y-86810000D01*
X134576898Y-86770226D01*
X134765256Y-86692205D01*
X134934774Y-86578937D01*
X135078937Y-86434774D01*
X135192205Y-86265256D01*
X135270226Y-86076898D01*
X135310000Y-85876939D01*
X135310000Y-85673061D01*
X135270226Y-85473102D01*
X135192205Y-85284744D01*
X135078937Y-85115226D01*
X134934774Y-84971063D01*
X134765256Y-84857795D01*
X134576898Y-84779774D01*
X134376939Y-84740000D01*
X134173061Y-84740000D01*
X133973102Y-84779774D01*
X133784744Y-84857795D01*
X133615226Y-84971063D01*
X133471063Y-85115226D01*
X133357795Y-85284744D01*
X133279774Y-85473102D01*
X133240000Y-85673061D01*
X130660000Y-85673061D01*
X130660000Y-79148061D01*
X135140000Y-79148061D01*
X135140000Y-79351939D01*
X135179774Y-79551898D01*
X135257795Y-79740256D01*
X135371063Y-79909774D01*
X135515226Y-80053937D01*
X135684744Y-80167205D01*
X135873102Y-80245226D01*
X136073061Y-80285000D01*
X136276939Y-80285000D01*
X136476898Y-80245226D01*
X136665256Y-80167205D01*
X136834774Y-80053937D01*
X136978937Y-79909774D01*
X137092205Y-79740256D01*
X137170226Y-79551898D01*
X137210000Y-79351939D01*
X137210000Y-79148061D01*
X137170226Y-78948102D01*
X137092205Y-78759744D01*
X136978937Y-78590226D01*
X136834774Y-78446063D01*
X136665256Y-78332795D01*
X136476898Y-78254774D01*
X136276939Y-78215000D01*
X136073061Y-78215000D01*
X135873102Y-78254774D01*
X135684744Y-78332795D01*
X135515226Y-78446063D01*
X135371063Y-78590226D01*
X135257795Y-78759744D01*
X135179774Y-78948102D01*
X135140000Y-79148061D01*
X130660000Y-79148061D01*
X130660000Y-76748061D01*
X143240000Y-76748061D01*
X143240000Y-76951939D01*
X143279774Y-77151898D01*
X143357795Y-77340256D01*
X143471063Y-77509774D01*
X143615226Y-77653937D01*
X143784744Y-77767205D01*
X143973102Y-77845226D01*
X144173061Y-77885000D01*
X144376939Y-77885000D01*
X144576898Y-77845226D01*
X144765256Y-77767205D01*
X144934774Y-77653937D01*
X145078937Y-77509774D01*
X145162948Y-77384042D01*
X146915000Y-77384042D01*
X146915000Y-77715958D01*
X146979754Y-78041496D01*
X147106772Y-78348147D01*
X147291175Y-78624125D01*
X147525875Y-78858825D01*
X147801853Y-79043228D01*
X148108504Y-79170246D01*
X148434042Y-79235000D01*
X148765958Y-79235000D01*
X149091496Y-79170246D01*
X149398147Y-79043228D01*
X149674125Y-78858825D01*
X149859889Y-78673061D01*
X155215000Y-78673061D01*
X155215000Y-78876939D01*
X155254774Y-79076898D01*
X155332795Y-79265256D01*
X155446063Y-79434774D01*
X155590226Y-79578937D01*
X155759744Y-79692205D01*
X155948102Y-79770226D01*
X156148061Y-79810000D01*
X156351939Y-79810000D01*
X156551898Y-79770226D01*
X156740256Y-79692205D01*
X156909774Y-79578937D01*
X157053937Y-79434774D01*
X157167205Y-79265256D01*
X157245226Y-79076898D01*
X157285000Y-78876939D01*
X157285000Y-78673061D01*
X157245226Y-78473102D01*
X157167205Y-78284744D01*
X157053937Y-78115226D01*
X156909774Y-77971063D01*
X156740256Y-77857795D01*
X156551898Y-77779774D01*
X156351939Y-77740000D01*
X156148061Y-77740000D01*
X155948102Y-77779774D01*
X155759744Y-77857795D01*
X155590226Y-77971063D01*
X155446063Y-78115226D01*
X155332795Y-78284744D01*
X155254774Y-78473102D01*
X155215000Y-78673061D01*
X149859889Y-78673061D01*
X149908825Y-78624125D01*
X150093228Y-78348147D01*
X150220246Y-78041496D01*
X150285000Y-77715958D01*
X150285000Y-77384042D01*
X150220246Y-77058504D01*
X150093228Y-76751853D01*
X149908825Y-76475875D01*
X149674125Y-76241175D01*
X149398147Y-76056772D01*
X149091496Y-75929754D01*
X148765958Y-75865000D01*
X148434042Y-75865000D01*
X148108504Y-75929754D01*
X147801853Y-76056772D01*
X147525875Y-76241175D01*
X147291175Y-76475875D01*
X147106772Y-76751853D01*
X146979754Y-77058504D01*
X146915000Y-77384042D01*
X145162948Y-77384042D01*
X145192205Y-77340256D01*
X145270226Y-77151898D01*
X145310000Y-76951939D01*
X145310000Y-76748061D01*
X145270226Y-76548102D01*
X145192205Y-76359744D01*
X145078937Y-76190226D01*
X144934774Y-76046063D01*
X144765256Y-75932795D01*
X144576898Y-75854774D01*
X144376939Y-75815000D01*
X144173061Y-75815000D01*
X143973102Y-75854774D01*
X143784744Y-75932795D01*
X143615226Y-76046063D01*
X143471063Y-76190226D01*
X143357795Y-76359744D01*
X143279774Y-76548102D01*
X143240000Y-76748061D01*
X130660000Y-76748061D01*
X130660000Y-76032279D01*
X130669580Y-75934576D01*
X130688580Y-75871644D01*
X130719445Y-75813595D01*
X130760989Y-75762657D01*
X130811644Y-75720752D01*
X130869471Y-75689485D01*
X130932272Y-75670044D01*
X131027835Y-75660000D01*
X158967721Y-75660000D01*
X159065424Y-75669580D01*
M02*
