G04 #@! TF.GenerationSoftware,KiCad,Pcbnew,(5.1.5)-3*
G04 #@! TF.CreationDate,2020-09-28T16:56:36+02:00*
G04 #@! TF.ProjectId,MAX30102_Pulse Ox,4d415833-3031-4303-925f-50756c736520,v1.4*
G04 #@! TF.SameCoordinates,Original*
G04 #@! TF.FileFunction,Paste,Top*
G04 #@! TF.FilePolarity,Positive*
%FSLAX46Y46*%
G04 Gerber Fmt 4.6, Leading zero omitted, Abs format (unit mm)*
G04 Created by KiCad (PCBNEW (5.1.5)-3) date 2020-09-28 16:56:36*
%MOMM*%
%LPD*%
G04 APERTURE LIST*
%ADD10C,0.010000*%
%ADD11C,0.100000*%
%ADD12R,1.090000X0.760000*%
%ADD13R,0.599948X0.299974*%
%ADD14R,0.299974X0.599948*%
%ADD15R,1.380000X0.450000*%
%ADD16R,1.550000X1.425000*%
%ADD17R,1.300000X1.650000*%
%ADD18R,1.900000X1.800000*%
%ADD19R,1.900000X1.000000*%
%ADD20R,0.900000X1.700000*%
%ADD21R,0.508000X1.309599*%
%ADD22R,0.662000X1.020000*%
%ADD23R,0.807999X0.305600*%
%ADD24R,0.440000X1.040000*%
%ADD25R,0.889000X0.812800*%
G04 APERTURE END LIST*
D10*
G36*
X147360000Y-86000000D02*
G01*
X147360000Y-83850000D01*
X149890000Y-83850000D01*
X149890000Y-86000000D01*
X147360000Y-86000000D01*
G37*
X147360000Y-86000000D02*
X147360000Y-83850000D01*
X149890000Y-83850000D01*
X149890000Y-86000000D01*
X147360000Y-86000000D01*
D11*
G36*
X154102691Y-77301053D02*
G01*
X154123926Y-77304203D01*
X154144750Y-77309419D01*
X154164962Y-77316651D01*
X154184368Y-77325830D01*
X154202781Y-77336866D01*
X154220024Y-77349654D01*
X154235930Y-77364070D01*
X154250346Y-77379976D01*
X154263134Y-77397219D01*
X154274170Y-77415632D01*
X154283349Y-77435038D01*
X154290581Y-77455250D01*
X154295797Y-77476074D01*
X154298947Y-77497309D01*
X154300000Y-77518750D01*
X154300000Y-77956250D01*
X154298947Y-77977691D01*
X154295797Y-77998926D01*
X154290581Y-78019750D01*
X154283349Y-78039962D01*
X154274170Y-78059368D01*
X154263134Y-78077781D01*
X154250346Y-78095024D01*
X154235930Y-78110930D01*
X154220024Y-78125346D01*
X154202781Y-78138134D01*
X154184368Y-78149170D01*
X154164962Y-78158349D01*
X154144750Y-78165581D01*
X154123926Y-78170797D01*
X154102691Y-78173947D01*
X154081250Y-78175000D01*
X153568750Y-78175000D01*
X153547309Y-78173947D01*
X153526074Y-78170797D01*
X153505250Y-78165581D01*
X153485038Y-78158349D01*
X153465632Y-78149170D01*
X153447219Y-78138134D01*
X153429976Y-78125346D01*
X153414070Y-78110930D01*
X153399654Y-78095024D01*
X153386866Y-78077781D01*
X153375830Y-78059368D01*
X153366651Y-78039962D01*
X153359419Y-78019750D01*
X153354203Y-77998926D01*
X153351053Y-77977691D01*
X153350000Y-77956250D01*
X153350000Y-77518750D01*
X153351053Y-77497309D01*
X153354203Y-77476074D01*
X153359419Y-77455250D01*
X153366651Y-77435038D01*
X153375830Y-77415632D01*
X153386866Y-77397219D01*
X153399654Y-77379976D01*
X153414070Y-77364070D01*
X153429976Y-77349654D01*
X153447219Y-77336866D01*
X153465632Y-77325830D01*
X153485038Y-77316651D01*
X153505250Y-77309419D01*
X153526074Y-77304203D01*
X153547309Y-77301053D01*
X153568750Y-77300000D01*
X154081250Y-77300000D01*
X154102691Y-77301053D01*
G37*
G36*
X154102691Y-75726053D02*
G01*
X154123926Y-75729203D01*
X154144750Y-75734419D01*
X154164962Y-75741651D01*
X154184368Y-75750830D01*
X154202781Y-75761866D01*
X154220024Y-75774654D01*
X154235930Y-75789070D01*
X154250346Y-75804976D01*
X154263134Y-75822219D01*
X154274170Y-75840632D01*
X154283349Y-75860038D01*
X154290581Y-75880250D01*
X154295797Y-75901074D01*
X154298947Y-75922309D01*
X154300000Y-75943750D01*
X154300000Y-76381250D01*
X154298947Y-76402691D01*
X154295797Y-76423926D01*
X154290581Y-76444750D01*
X154283349Y-76464962D01*
X154274170Y-76484368D01*
X154263134Y-76502781D01*
X154250346Y-76520024D01*
X154235930Y-76535930D01*
X154220024Y-76550346D01*
X154202781Y-76563134D01*
X154184368Y-76574170D01*
X154164962Y-76583349D01*
X154144750Y-76590581D01*
X154123926Y-76595797D01*
X154102691Y-76598947D01*
X154081250Y-76600000D01*
X153568750Y-76600000D01*
X153547309Y-76598947D01*
X153526074Y-76595797D01*
X153505250Y-76590581D01*
X153485038Y-76583349D01*
X153465632Y-76574170D01*
X153447219Y-76563134D01*
X153429976Y-76550346D01*
X153414070Y-76535930D01*
X153399654Y-76520024D01*
X153386866Y-76502781D01*
X153375830Y-76484368D01*
X153366651Y-76464962D01*
X153359419Y-76444750D01*
X153354203Y-76423926D01*
X153351053Y-76402691D01*
X153350000Y-76381250D01*
X153350000Y-75943750D01*
X153351053Y-75922309D01*
X153354203Y-75901074D01*
X153359419Y-75880250D01*
X153366651Y-75860038D01*
X153375830Y-75840632D01*
X153386866Y-75822219D01*
X153399654Y-75804976D01*
X153414070Y-75789070D01*
X153429976Y-75774654D01*
X153447219Y-75761866D01*
X153465632Y-75750830D01*
X153485038Y-75741651D01*
X153505250Y-75734419D01*
X153526074Y-75729203D01*
X153547309Y-75726053D01*
X153568750Y-75725000D01*
X154081250Y-75725000D01*
X154102691Y-75726053D01*
G37*
G36*
X158852691Y-91238553D02*
G01*
X158873926Y-91241703D01*
X158894750Y-91246919D01*
X158914962Y-91254151D01*
X158934368Y-91263330D01*
X158952781Y-91274366D01*
X158970024Y-91287154D01*
X158985930Y-91301570D01*
X159000346Y-91317476D01*
X159013134Y-91334719D01*
X159024170Y-91353132D01*
X159033349Y-91372538D01*
X159040581Y-91392750D01*
X159045797Y-91413574D01*
X159048947Y-91434809D01*
X159050000Y-91456250D01*
X159050000Y-91893750D01*
X159048947Y-91915191D01*
X159045797Y-91936426D01*
X159040581Y-91957250D01*
X159033349Y-91977462D01*
X159024170Y-91996868D01*
X159013134Y-92015281D01*
X159000346Y-92032524D01*
X158985930Y-92048430D01*
X158970024Y-92062846D01*
X158952781Y-92075634D01*
X158934368Y-92086670D01*
X158914962Y-92095849D01*
X158894750Y-92103081D01*
X158873926Y-92108297D01*
X158852691Y-92111447D01*
X158831250Y-92112500D01*
X158318750Y-92112500D01*
X158297309Y-92111447D01*
X158276074Y-92108297D01*
X158255250Y-92103081D01*
X158235038Y-92095849D01*
X158215632Y-92086670D01*
X158197219Y-92075634D01*
X158179976Y-92062846D01*
X158164070Y-92048430D01*
X158149654Y-92032524D01*
X158136866Y-92015281D01*
X158125830Y-91996868D01*
X158116651Y-91977462D01*
X158109419Y-91957250D01*
X158104203Y-91936426D01*
X158101053Y-91915191D01*
X158100000Y-91893750D01*
X158100000Y-91456250D01*
X158101053Y-91434809D01*
X158104203Y-91413574D01*
X158109419Y-91392750D01*
X158116651Y-91372538D01*
X158125830Y-91353132D01*
X158136866Y-91334719D01*
X158149654Y-91317476D01*
X158164070Y-91301570D01*
X158179976Y-91287154D01*
X158197219Y-91274366D01*
X158215632Y-91263330D01*
X158235038Y-91254151D01*
X158255250Y-91246919D01*
X158276074Y-91241703D01*
X158297309Y-91238553D01*
X158318750Y-91237500D01*
X158831250Y-91237500D01*
X158852691Y-91238553D01*
G37*
G36*
X158852691Y-89663553D02*
G01*
X158873926Y-89666703D01*
X158894750Y-89671919D01*
X158914962Y-89679151D01*
X158934368Y-89688330D01*
X158952781Y-89699366D01*
X158970024Y-89712154D01*
X158985930Y-89726570D01*
X159000346Y-89742476D01*
X159013134Y-89759719D01*
X159024170Y-89778132D01*
X159033349Y-89797538D01*
X159040581Y-89817750D01*
X159045797Y-89838574D01*
X159048947Y-89859809D01*
X159050000Y-89881250D01*
X159050000Y-90318750D01*
X159048947Y-90340191D01*
X159045797Y-90361426D01*
X159040581Y-90382250D01*
X159033349Y-90402462D01*
X159024170Y-90421868D01*
X159013134Y-90440281D01*
X159000346Y-90457524D01*
X158985930Y-90473430D01*
X158970024Y-90487846D01*
X158952781Y-90500634D01*
X158934368Y-90511670D01*
X158914962Y-90520849D01*
X158894750Y-90528081D01*
X158873926Y-90533297D01*
X158852691Y-90536447D01*
X158831250Y-90537500D01*
X158318750Y-90537500D01*
X158297309Y-90536447D01*
X158276074Y-90533297D01*
X158255250Y-90528081D01*
X158235038Y-90520849D01*
X158215632Y-90511670D01*
X158197219Y-90500634D01*
X158179976Y-90487846D01*
X158164070Y-90473430D01*
X158149654Y-90457524D01*
X158136866Y-90440281D01*
X158125830Y-90421868D01*
X158116651Y-90402462D01*
X158109419Y-90382250D01*
X158104203Y-90361426D01*
X158101053Y-90340191D01*
X158100000Y-90318750D01*
X158100000Y-89881250D01*
X158101053Y-89859809D01*
X158104203Y-89838574D01*
X158109419Y-89817750D01*
X158116651Y-89797538D01*
X158125830Y-89778132D01*
X158136866Y-89759719D01*
X158149654Y-89742476D01*
X158164070Y-89726570D01*
X158179976Y-89712154D01*
X158197219Y-89699366D01*
X158215632Y-89688330D01*
X158235038Y-89679151D01*
X158255250Y-89671919D01*
X158276074Y-89666703D01*
X158297309Y-89663553D01*
X158318750Y-89662500D01*
X158831250Y-89662500D01*
X158852691Y-89663553D01*
G37*
G36*
X147327691Y-96851053D02*
G01*
X147348926Y-96854203D01*
X147369750Y-96859419D01*
X147389962Y-96866651D01*
X147409368Y-96875830D01*
X147427781Y-96886866D01*
X147445024Y-96899654D01*
X147460930Y-96914070D01*
X147475346Y-96929976D01*
X147488134Y-96947219D01*
X147499170Y-96965632D01*
X147508349Y-96985038D01*
X147515581Y-97005250D01*
X147520797Y-97026074D01*
X147523947Y-97047309D01*
X147525000Y-97068750D01*
X147525000Y-97506250D01*
X147523947Y-97527691D01*
X147520797Y-97548926D01*
X147515581Y-97569750D01*
X147508349Y-97589962D01*
X147499170Y-97609368D01*
X147488134Y-97627781D01*
X147475346Y-97645024D01*
X147460930Y-97660930D01*
X147445024Y-97675346D01*
X147427781Y-97688134D01*
X147409368Y-97699170D01*
X147389962Y-97708349D01*
X147369750Y-97715581D01*
X147348926Y-97720797D01*
X147327691Y-97723947D01*
X147306250Y-97725000D01*
X146793750Y-97725000D01*
X146772309Y-97723947D01*
X146751074Y-97720797D01*
X146730250Y-97715581D01*
X146710038Y-97708349D01*
X146690632Y-97699170D01*
X146672219Y-97688134D01*
X146654976Y-97675346D01*
X146639070Y-97660930D01*
X146624654Y-97645024D01*
X146611866Y-97627781D01*
X146600830Y-97609368D01*
X146591651Y-97589962D01*
X146584419Y-97569750D01*
X146579203Y-97548926D01*
X146576053Y-97527691D01*
X146575000Y-97506250D01*
X146575000Y-97068750D01*
X146576053Y-97047309D01*
X146579203Y-97026074D01*
X146584419Y-97005250D01*
X146591651Y-96985038D01*
X146600830Y-96965632D01*
X146611866Y-96947219D01*
X146624654Y-96929976D01*
X146639070Y-96914070D01*
X146654976Y-96899654D01*
X146672219Y-96886866D01*
X146690632Y-96875830D01*
X146710038Y-96866651D01*
X146730250Y-96859419D01*
X146751074Y-96854203D01*
X146772309Y-96851053D01*
X146793750Y-96850000D01*
X147306250Y-96850000D01*
X147327691Y-96851053D01*
G37*
G36*
X147327691Y-95276053D02*
G01*
X147348926Y-95279203D01*
X147369750Y-95284419D01*
X147389962Y-95291651D01*
X147409368Y-95300830D01*
X147427781Y-95311866D01*
X147445024Y-95324654D01*
X147460930Y-95339070D01*
X147475346Y-95354976D01*
X147488134Y-95372219D01*
X147499170Y-95390632D01*
X147508349Y-95410038D01*
X147515581Y-95430250D01*
X147520797Y-95451074D01*
X147523947Y-95472309D01*
X147525000Y-95493750D01*
X147525000Y-95931250D01*
X147523947Y-95952691D01*
X147520797Y-95973926D01*
X147515581Y-95994750D01*
X147508349Y-96014962D01*
X147499170Y-96034368D01*
X147488134Y-96052781D01*
X147475346Y-96070024D01*
X147460930Y-96085930D01*
X147445024Y-96100346D01*
X147427781Y-96113134D01*
X147409368Y-96124170D01*
X147389962Y-96133349D01*
X147369750Y-96140581D01*
X147348926Y-96145797D01*
X147327691Y-96148947D01*
X147306250Y-96150000D01*
X146793750Y-96150000D01*
X146772309Y-96148947D01*
X146751074Y-96145797D01*
X146730250Y-96140581D01*
X146710038Y-96133349D01*
X146690632Y-96124170D01*
X146672219Y-96113134D01*
X146654976Y-96100346D01*
X146639070Y-96085930D01*
X146624654Y-96070024D01*
X146611866Y-96052781D01*
X146600830Y-96034368D01*
X146591651Y-96014962D01*
X146584419Y-95994750D01*
X146579203Y-95973926D01*
X146576053Y-95952691D01*
X146575000Y-95931250D01*
X146575000Y-95493750D01*
X146576053Y-95472309D01*
X146579203Y-95451074D01*
X146584419Y-95430250D01*
X146591651Y-95410038D01*
X146600830Y-95390632D01*
X146611866Y-95372219D01*
X146624654Y-95354976D01*
X146639070Y-95339070D01*
X146654976Y-95324654D01*
X146672219Y-95311866D01*
X146690632Y-95300830D01*
X146710038Y-95291651D01*
X146730250Y-95284419D01*
X146751074Y-95279203D01*
X146772309Y-95276053D01*
X146793750Y-95275000D01*
X147306250Y-95275000D01*
X147327691Y-95276053D01*
G37*
G36*
X155727691Y-75726053D02*
G01*
X155748926Y-75729203D01*
X155769750Y-75734419D01*
X155789962Y-75741651D01*
X155809368Y-75750830D01*
X155827781Y-75761866D01*
X155845024Y-75774654D01*
X155860930Y-75789070D01*
X155875346Y-75804976D01*
X155888134Y-75822219D01*
X155899170Y-75840632D01*
X155908349Y-75860038D01*
X155915581Y-75880250D01*
X155920797Y-75901074D01*
X155923947Y-75922309D01*
X155925000Y-75943750D01*
X155925000Y-76381250D01*
X155923947Y-76402691D01*
X155920797Y-76423926D01*
X155915581Y-76444750D01*
X155908349Y-76464962D01*
X155899170Y-76484368D01*
X155888134Y-76502781D01*
X155875346Y-76520024D01*
X155860930Y-76535930D01*
X155845024Y-76550346D01*
X155827781Y-76563134D01*
X155809368Y-76574170D01*
X155789962Y-76583349D01*
X155769750Y-76590581D01*
X155748926Y-76595797D01*
X155727691Y-76598947D01*
X155706250Y-76600000D01*
X155193750Y-76600000D01*
X155172309Y-76598947D01*
X155151074Y-76595797D01*
X155130250Y-76590581D01*
X155110038Y-76583349D01*
X155090632Y-76574170D01*
X155072219Y-76563134D01*
X155054976Y-76550346D01*
X155039070Y-76535930D01*
X155024654Y-76520024D01*
X155011866Y-76502781D01*
X155000830Y-76484368D01*
X154991651Y-76464962D01*
X154984419Y-76444750D01*
X154979203Y-76423926D01*
X154976053Y-76402691D01*
X154975000Y-76381250D01*
X154975000Y-75943750D01*
X154976053Y-75922309D01*
X154979203Y-75901074D01*
X154984419Y-75880250D01*
X154991651Y-75860038D01*
X155000830Y-75840632D01*
X155011866Y-75822219D01*
X155024654Y-75804976D01*
X155039070Y-75789070D01*
X155054976Y-75774654D01*
X155072219Y-75761866D01*
X155090632Y-75750830D01*
X155110038Y-75741651D01*
X155130250Y-75734419D01*
X155151074Y-75729203D01*
X155172309Y-75726053D01*
X155193750Y-75725000D01*
X155706250Y-75725000D01*
X155727691Y-75726053D01*
G37*
G36*
X155727691Y-77301053D02*
G01*
X155748926Y-77304203D01*
X155769750Y-77309419D01*
X155789962Y-77316651D01*
X155809368Y-77325830D01*
X155827781Y-77336866D01*
X155845024Y-77349654D01*
X155860930Y-77364070D01*
X155875346Y-77379976D01*
X155888134Y-77397219D01*
X155899170Y-77415632D01*
X155908349Y-77435038D01*
X155915581Y-77455250D01*
X155920797Y-77476074D01*
X155923947Y-77497309D01*
X155925000Y-77518750D01*
X155925000Y-77956250D01*
X155923947Y-77977691D01*
X155920797Y-77998926D01*
X155915581Y-78019750D01*
X155908349Y-78039962D01*
X155899170Y-78059368D01*
X155888134Y-78077781D01*
X155875346Y-78095024D01*
X155860930Y-78110930D01*
X155845024Y-78125346D01*
X155827781Y-78138134D01*
X155809368Y-78149170D01*
X155789962Y-78158349D01*
X155769750Y-78165581D01*
X155748926Y-78170797D01*
X155727691Y-78173947D01*
X155706250Y-78175000D01*
X155193750Y-78175000D01*
X155172309Y-78173947D01*
X155151074Y-78170797D01*
X155130250Y-78165581D01*
X155110038Y-78158349D01*
X155090632Y-78149170D01*
X155072219Y-78138134D01*
X155054976Y-78125346D01*
X155039070Y-78110930D01*
X155024654Y-78095024D01*
X155011866Y-78077781D01*
X155000830Y-78059368D01*
X154991651Y-78039962D01*
X154984419Y-78019750D01*
X154979203Y-77998926D01*
X154976053Y-77977691D01*
X154975000Y-77956250D01*
X154975000Y-77518750D01*
X154976053Y-77497309D01*
X154979203Y-77476074D01*
X154984419Y-77455250D01*
X154991651Y-77435038D01*
X155000830Y-77415632D01*
X155011866Y-77397219D01*
X155024654Y-77379976D01*
X155039070Y-77364070D01*
X155054976Y-77349654D01*
X155072219Y-77336866D01*
X155090632Y-77325830D01*
X155110038Y-77316651D01*
X155130250Y-77309419D01*
X155151074Y-77304203D01*
X155172309Y-77301053D01*
X155193750Y-77300000D01*
X155706250Y-77300000D01*
X155727691Y-77301053D01*
G37*
G36*
X157377691Y-75713553D02*
G01*
X157398926Y-75716703D01*
X157419750Y-75721919D01*
X157439962Y-75729151D01*
X157459368Y-75738330D01*
X157477781Y-75749366D01*
X157495024Y-75762154D01*
X157510930Y-75776570D01*
X157525346Y-75792476D01*
X157538134Y-75809719D01*
X157549170Y-75828132D01*
X157558349Y-75847538D01*
X157565581Y-75867750D01*
X157570797Y-75888574D01*
X157573947Y-75909809D01*
X157575000Y-75931250D01*
X157575000Y-76368750D01*
X157573947Y-76390191D01*
X157570797Y-76411426D01*
X157565581Y-76432250D01*
X157558349Y-76452462D01*
X157549170Y-76471868D01*
X157538134Y-76490281D01*
X157525346Y-76507524D01*
X157510930Y-76523430D01*
X157495024Y-76537846D01*
X157477781Y-76550634D01*
X157459368Y-76561670D01*
X157439962Y-76570849D01*
X157419750Y-76578081D01*
X157398926Y-76583297D01*
X157377691Y-76586447D01*
X157356250Y-76587500D01*
X156843750Y-76587500D01*
X156822309Y-76586447D01*
X156801074Y-76583297D01*
X156780250Y-76578081D01*
X156760038Y-76570849D01*
X156740632Y-76561670D01*
X156722219Y-76550634D01*
X156704976Y-76537846D01*
X156689070Y-76523430D01*
X156674654Y-76507524D01*
X156661866Y-76490281D01*
X156650830Y-76471868D01*
X156641651Y-76452462D01*
X156634419Y-76432250D01*
X156629203Y-76411426D01*
X156626053Y-76390191D01*
X156625000Y-76368750D01*
X156625000Y-75931250D01*
X156626053Y-75909809D01*
X156629203Y-75888574D01*
X156634419Y-75867750D01*
X156641651Y-75847538D01*
X156650830Y-75828132D01*
X156661866Y-75809719D01*
X156674654Y-75792476D01*
X156689070Y-75776570D01*
X156704976Y-75762154D01*
X156722219Y-75749366D01*
X156740632Y-75738330D01*
X156760038Y-75729151D01*
X156780250Y-75721919D01*
X156801074Y-75716703D01*
X156822309Y-75713553D01*
X156843750Y-75712500D01*
X157356250Y-75712500D01*
X157377691Y-75713553D01*
G37*
G36*
X157377691Y-77288553D02*
G01*
X157398926Y-77291703D01*
X157419750Y-77296919D01*
X157439962Y-77304151D01*
X157459368Y-77313330D01*
X157477781Y-77324366D01*
X157495024Y-77337154D01*
X157510930Y-77351570D01*
X157525346Y-77367476D01*
X157538134Y-77384719D01*
X157549170Y-77403132D01*
X157558349Y-77422538D01*
X157565581Y-77442750D01*
X157570797Y-77463574D01*
X157573947Y-77484809D01*
X157575000Y-77506250D01*
X157575000Y-77943750D01*
X157573947Y-77965191D01*
X157570797Y-77986426D01*
X157565581Y-78007250D01*
X157558349Y-78027462D01*
X157549170Y-78046868D01*
X157538134Y-78065281D01*
X157525346Y-78082524D01*
X157510930Y-78098430D01*
X157495024Y-78112846D01*
X157477781Y-78125634D01*
X157459368Y-78136670D01*
X157439962Y-78145849D01*
X157419750Y-78153081D01*
X157398926Y-78158297D01*
X157377691Y-78161447D01*
X157356250Y-78162500D01*
X156843750Y-78162500D01*
X156822309Y-78161447D01*
X156801074Y-78158297D01*
X156780250Y-78153081D01*
X156760038Y-78145849D01*
X156740632Y-78136670D01*
X156722219Y-78125634D01*
X156704976Y-78112846D01*
X156689070Y-78098430D01*
X156674654Y-78082524D01*
X156661866Y-78065281D01*
X156650830Y-78046868D01*
X156641651Y-78027462D01*
X156634419Y-78007250D01*
X156629203Y-77986426D01*
X156626053Y-77965191D01*
X156625000Y-77943750D01*
X156625000Y-77506250D01*
X156626053Y-77484809D01*
X156629203Y-77463574D01*
X156634419Y-77442750D01*
X156641651Y-77422538D01*
X156650830Y-77403132D01*
X156661866Y-77384719D01*
X156674654Y-77367476D01*
X156689070Y-77351570D01*
X156704976Y-77337154D01*
X156722219Y-77324366D01*
X156740632Y-77313330D01*
X156760038Y-77304151D01*
X156780250Y-77296919D01*
X156801074Y-77291703D01*
X156822309Y-77288553D01*
X156843750Y-77287500D01*
X157356250Y-77287500D01*
X157377691Y-77288553D01*
G37*
G36*
X147140191Y-91301053D02*
G01*
X147161426Y-91304203D01*
X147182250Y-91309419D01*
X147202462Y-91316651D01*
X147221868Y-91325830D01*
X147240281Y-91336866D01*
X147257524Y-91349654D01*
X147273430Y-91364070D01*
X147287846Y-91379976D01*
X147300634Y-91397219D01*
X147311670Y-91415632D01*
X147320849Y-91435038D01*
X147328081Y-91455250D01*
X147333297Y-91476074D01*
X147336447Y-91497309D01*
X147337500Y-91518750D01*
X147337500Y-92031250D01*
X147336447Y-92052691D01*
X147333297Y-92073926D01*
X147328081Y-92094750D01*
X147320849Y-92114962D01*
X147311670Y-92134368D01*
X147300634Y-92152781D01*
X147287846Y-92170024D01*
X147273430Y-92185930D01*
X147257524Y-92200346D01*
X147240281Y-92213134D01*
X147221868Y-92224170D01*
X147202462Y-92233349D01*
X147182250Y-92240581D01*
X147161426Y-92245797D01*
X147140191Y-92248947D01*
X147118750Y-92250000D01*
X146681250Y-92250000D01*
X146659809Y-92248947D01*
X146638574Y-92245797D01*
X146617750Y-92240581D01*
X146597538Y-92233349D01*
X146578132Y-92224170D01*
X146559719Y-92213134D01*
X146542476Y-92200346D01*
X146526570Y-92185930D01*
X146512154Y-92170024D01*
X146499366Y-92152781D01*
X146488330Y-92134368D01*
X146479151Y-92114962D01*
X146471919Y-92094750D01*
X146466703Y-92073926D01*
X146463553Y-92052691D01*
X146462500Y-92031250D01*
X146462500Y-91518750D01*
X146463553Y-91497309D01*
X146466703Y-91476074D01*
X146471919Y-91455250D01*
X146479151Y-91435038D01*
X146488330Y-91415632D01*
X146499366Y-91397219D01*
X146512154Y-91379976D01*
X146526570Y-91364070D01*
X146542476Y-91349654D01*
X146559719Y-91336866D01*
X146578132Y-91325830D01*
X146597538Y-91316651D01*
X146617750Y-91309419D01*
X146638574Y-91304203D01*
X146659809Y-91301053D01*
X146681250Y-91300000D01*
X147118750Y-91300000D01*
X147140191Y-91301053D01*
G37*
G36*
X148715191Y-91301053D02*
G01*
X148736426Y-91304203D01*
X148757250Y-91309419D01*
X148777462Y-91316651D01*
X148796868Y-91325830D01*
X148815281Y-91336866D01*
X148832524Y-91349654D01*
X148848430Y-91364070D01*
X148862846Y-91379976D01*
X148875634Y-91397219D01*
X148886670Y-91415632D01*
X148895849Y-91435038D01*
X148903081Y-91455250D01*
X148908297Y-91476074D01*
X148911447Y-91497309D01*
X148912500Y-91518750D01*
X148912500Y-92031250D01*
X148911447Y-92052691D01*
X148908297Y-92073926D01*
X148903081Y-92094750D01*
X148895849Y-92114962D01*
X148886670Y-92134368D01*
X148875634Y-92152781D01*
X148862846Y-92170024D01*
X148848430Y-92185930D01*
X148832524Y-92200346D01*
X148815281Y-92213134D01*
X148796868Y-92224170D01*
X148777462Y-92233349D01*
X148757250Y-92240581D01*
X148736426Y-92245797D01*
X148715191Y-92248947D01*
X148693750Y-92250000D01*
X148256250Y-92250000D01*
X148234809Y-92248947D01*
X148213574Y-92245797D01*
X148192750Y-92240581D01*
X148172538Y-92233349D01*
X148153132Y-92224170D01*
X148134719Y-92213134D01*
X148117476Y-92200346D01*
X148101570Y-92185930D01*
X148087154Y-92170024D01*
X148074366Y-92152781D01*
X148063330Y-92134368D01*
X148054151Y-92114962D01*
X148046919Y-92094750D01*
X148041703Y-92073926D01*
X148038553Y-92052691D01*
X148037500Y-92031250D01*
X148037500Y-91518750D01*
X148038553Y-91497309D01*
X148041703Y-91476074D01*
X148046919Y-91455250D01*
X148054151Y-91435038D01*
X148063330Y-91415632D01*
X148074366Y-91397219D01*
X148087154Y-91379976D01*
X148101570Y-91364070D01*
X148117476Y-91349654D01*
X148134719Y-91336866D01*
X148153132Y-91325830D01*
X148172538Y-91316651D01*
X148192750Y-91309419D01*
X148213574Y-91304203D01*
X148234809Y-91301053D01*
X148256250Y-91300000D01*
X148693750Y-91300000D01*
X148715191Y-91301053D01*
G37*
G36*
X159002691Y-77288553D02*
G01*
X159023926Y-77291703D01*
X159044750Y-77296919D01*
X159064962Y-77304151D01*
X159084368Y-77313330D01*
X159102781Y-77324366D01*
X159120024Y-77337154D01*
X159135930Y-77351570D01*
X159150346Y-77367476D01*
X159163134Y-77384719D01*
X159174170Y-77403132D01*
X159183349Y-77422538D01*
X159190581Y-77442750D01*
X159195797Y-77463574D01*
X159198947Y-77484809D01*
X159200000Y-77506250D01*
X159200000Y-77943750D01*
X159198947Y-77965191D01*
X159195797Y-77986426D01*
X159190581Y-78007250D01*
X159183349Y-78027462D01*
X159174170Y-78046868D01*
X159163134Y-78065281D01*
X159150346Y-78082524D01*
X159135930Y-78098430D01*
X159120024Y-78112846D01*
X159102781Y-78125634D01*
X159084368Y-78136670D01*
X159064962Y-78145849D01*
X159044750Y-78153081D01*
X159023926Y-78158297D01*
X159002691Y-78161447D01*
X158981250Y-78162500D01*
X158468750Y-78162500D01*
X158447309Y-78161447D01*
X158426074Y-78158297D01*
X158405250Y-78153081D01*
X158385038Y-78145849D01*
X158365632Y-78136670D01*
X158347219Y-78125634D01*
X158329976Y-78112846D01*
X158314070Y-78098430D01*
X158299654Y-78082524D01*
X158286866Y-78065281D01*
X158275830Y-78046868D01*
X158266651Y-78027462D01*
X158259419Y-78007250D01*
X158254203Y-77986426D01*
X158251053Y-77965191D01*
X158250000Y-77943750D01*
X158250000Y-77506250D01*
X158251053Y-77484809D01*
X158254203Y-77463574D01*
X158259419Y-77442750D01*
X158266651Y-77422538D01*
X158275830Y-77403132D01*
X158286866Y-77384719D01*
X158299654Y-77367476D01*
X158314070Y-77351570D01*
X158329976Y-77337154D01*
X158347219Y-77324366D01*
X158365632Y-77313330D01*
X158385038Y-77304151D01*
X158405250Y-77296919D01*
X158426074Y-77291703D01*
X158447309Y-77288553D01*
X158468750Y-77287500D01*
X158981250Y-77287500D01*
X159002691Y-77288553D01*
G37*
G36*
X159002691Y-75713553D02*
G01*
X159023926Y-75716703D01*
X159044750Y-75721919D01*
X159064962Y-75729151D01*
X159084368Y-75738330D01*
X159102781Y-75749366D01*
X159120024Y-75762154D01*
X159135930Y-75776570D01*
X159150346Y-75792476D01*
X159163134Y-75809719D01*
X159174170Y-75828132D01*
X159183349Y-75847538D01*
X159190581Y-75867750D01*
X159195797Y-75888574D01*
X159198947Y-75909809D01*
X159200000Y-75931250D01*
X159200000Y-76368750D01*
X159198947Y-76390191D01*
X159195797Y-76411426D01*
X159190581Y-76432250D01*
X159183349Y-76452462D01*
X159174170Y-76471868D01*
X159163134Y-76490281D01*
X159150346Y-76507524D01*
X159135930Y-76523430D01*
X159120024Y-76537846D01*
X159102781Y-76550634D01*
X159084368Y-76561670D01*
X159064962Y-76570849D01*
X159044750Y-76578081D01*
X159023926Y-76583297D01*
X159002691Y-76586447D01*
X158981250Y-76587500D01*
X158468750Y-76587500D01*
X158447309Y-76586447D01*
X158426074Y-76583297D01*
X158405250Y-76578081D01*
X158385038Y-76570849D01*
X158365632Y-76561670D01*
X158347219Y-76550634D01*
X158329976Y-76537846D01*
X158314070Y-76523430D01*
X158299654Y-76507524D01*
X158286866Y-76490281D01*
X158275830Y-76471868D01*
X158266651Y-76452462D01*
X158259419Y-76432250D01*
X158254203Y-76411426D01*
X158251053Y-76390191D01*
X158250000Y-76368750D01*
X158250000Y-75931250D01*
X158251053Y-75909809D01*
X158254203Y-75888574D01*
X158259419Y-75867750D01*
X158266651Y-75847538D01*
X158275830Y-75828132D01*
X158286866Y-75809719D01*
X158299654Y-75792476D01*
X158314070Y-75776570D01*
X158329976Y-75762154D01*
X158347219Y-75749366D01*
X158365632Y-75738330D01*
X158385038Y-75729151D01*
X158405250Y-75721919D01*
X158426074Y-75716703D01*
X158447309Y-75713553D01*
X158468750Y-75712500D01*
X158981250Y-75712500D01*
X159002691Y-75713553D01*
G37*
G36*
X148702691Y-93101053D02*
G01*
X148723926Y-93104203D01*
X148744750Y-93109419D01*
X148764962Y-93116651D01*
X148784368Y-93125830D01*
X148802781Y-93136866D01*
X148820024Y-93149654D01*
X148835930Y-93164070D01*
X148850346Y-93179976D01*
X148863134Y-93197219D01*
X148874170Y-93215632D01*
X148883349Y-93235038D01*
X148890581Y-93255250D01*
X148895797Y-93276074D01*
X148898947Y-93297309D01*
X148900000Y-93318750D01*
X148900000Y-93831250D01*
X148898947Y-93852691D01*
X148895797Y-93873926D01*
X148890581Y-93894750D01*
X148883349Y-93914962D01*
X148874170Y-93934368D01*
X148863134Y-93952781D01*
X148850346Y-93970024D01*
X148835930Y-93985930D01*
X148820024Y-94000346D01*
X148802781Y-94013134D01*
X148784368Y-94024170D01*
X148764962Y-94033349D01*
X148744750Y-94040581D01*
X148723926Y-94045797D01*
X148702691Y-94048947D01*
X148681250Y-94050000D01*
X148243750Y-94050000D01*
X148222309Y-94048947D01*
X148201074Y-94045797D01*
X148180250Y-94040581D01*
X148160038Y-94033349D01*
X148140632Y-94024170D01*
X148122219Y-94013134D01*
X148104976Y-94000346D01*
X148089070Y-93985930D01*
X148074654Y-93970024D01*
X148061866Y-93952781D01*
X148050830Y-93934368D01*
X148041651Y-93914962D01*
X148034419Y-93894750D01*
X148029203Y-93873926D01*
X148026053Y-93852691D01*
X148025000Y-93831250D01*
X148025000Y-93318750D01*
X148026053Y-93297309D01*
X148029203Y-93276074D01*
X148034419Y-93255250D01*
X148041651Y-93235038D01*
X148050830Y-93215632D01*
X148061866Y-93197219D01*
X148074654Y-93179976D01*
X148089070Y-93164070D01*
X148104976Y-93149654D01*
X148122219Y-93136866D01*
X148140632Y-93125830D01*
X148160038Y-93116651D01*
X148180250Y-93109419D01*
X148201074Y-93104203D01*
X148222309Y-93101053D01*
X148243750Y-93100000D01*
X148681250Y-93100000D01*
X148702691Y-93101053D01*
G37*
G36*
X147127691Y-93101053D02*
G01*
X147148926Y-93104203D01*
X147169750Y-93109419D01*
X147189962Y-93116651D01*
X147209368Y-93125830D01*
X147227781Y-93136866D01*
X147245024Y-93149654D01*
X147260930Y-93164070D01*
X147275346Y-93179976D01*
X147288134Y-93197219D01*
X147299170Y-93215632D01*
X147308349Y-93235038D01*
X147315581Y-93255250D01*
X147320797Y-93276074D01*
X147323947Y-93297309D01*
X147325000Y-93318750D01*
X147325000Y-93831250D01*
X147323947Y-93852691D01*
X147320797Y-93873926D01*
X147315581Y-93894750D01*
X147308349Y-93914962D01*
X147299170Y-93934368D01*
X147288134Y-93952781D01*
X147275346Y-93970024D01*
X147260930Y-93985930D01*
X147245024Y-94000346D01*
X147227781Y-94013134D01*
X147209368Y-94024170D01*
X147189962Y-94033349D01*
X147169750Y-94040581D01*
X147148926Y-94045797D01*
X147127691Y-94048947D01*
X147106250Y-94050000D01*
X146668750Y-94050000D01*
X146647309Y-94048947D01*
X146626074Y-94045797D01*
X146605250Y-94040581D01*
X146585038Y-94033349D01*
X146565632Y-94024170D01*
X146547219Y-94013134D01*
X146529976Y-94000346D01*
X146514070Y-93985930D01*
X146499654Y-93970024D01*
X146486866Y-93952781D01*
X146475830Y-93934368D01*
X146466651Y-93914962D01*
X146459419Y-93894750D01*
X146454203Y-93873926D01*
X146451053Y-93852691D01*
X146450000Y-93831250D01*
X146450000Y-93318750D01*
X146451053Y-93297309D01*
X146454203Y-93276074D01*
X146459419Y-93255250D01*
X146466651Y-93235038D01*
X146475830Y-93215632D01*
X146486866Y-93197219D01*
X146499654Y-93179976D01*
X146514070Y-93164070D01*
X146529976Y-93149654D01*
X146547219Y-93136866D01*
X146565632Y-93125830D01*
X146585038Y-93116651D01*
X146605250Y-93109419D01*
X146626074Y-93104203D01*
X146647309Y-93101053D01*
X146668750Y-93100000D01*
X147106250Y-93100000D01*
X147127691Y-93101053D01*
G37*
G36*
X159127691Y-94538553D02*
G01*
X159148926Y-94541703D01*
X159169750Y-94546919D01*
X159189962Y-94554151D01*
X159209368Y-94563330D01*
X159227781Y-94574366D01*
X159245024Y-94587154D01*
X159260930Y-94601570D01*
X159275346Y-94617476D01*
X159288134Y-94634719D01*
X159299170Y-94653132D01*
X159308349Y-94672538D01*
X159315581Y-94692750D01*
X159320797Y-94713574D01*
X159323947Y-94734809D01*
X159325000Y-94756250D01*
X159325000Y-95193750D01*
X159323947Y-95215191D01*
X159320797Y-95236426D01*
X159315581Y-95257250D01*
X159308349Y-95277462D01*
X159299170Y-95296868D01*
X159288134Y-95315281D01*
X159275346Y-95332524D01*
X159260930Y-95348430D01*
X159245024Y-95362846D01*
X159227781Y-95375634D01*
X159209368Y-95386670D01*
X159189962Y-95395849D01*
X159169750Y-95403081D01*
X159148926Y-95408297D01*
X159127691Y-95411447D01*
X159106250Y-95412500D01*
X158593750Y-95412500D01*
X158572309Y-95411447D01*
X158551074Y-95408297D01*
X158530250Y-95403081D01*
X158510038Y-95395849D01*
X158490632Y-95386670D01*
X158472219Y-95375634D01*
X158454976Y-95362846D01*
X158439070Y-95348430D01*
X158424654Y-95332524D01*
X158411866Y-95315281D01*
X158400830Y-95296868D01*
X158391651Y-95277462D01*
X158384419Y-95257250D01*
X158379203Y-95236426D01*
X158376053Y-95215191D01*
X158375000Y-95193750D01*
X158375000Y-94756250D01*
X158376053Y-94734809D01*
X158379203Y-94713574D01*
X158384419Y-94692750D01*
X158391651Y-94672538D01*
X158400830Y-94653132D01*
X158411866Y-94634719D01*
X158424654Y-94617476D01*
X158439070Y-94601570D01*
X158454976Y-94587154D01*
X158472219Y-94574366D01*
X158490632Y-94563330D01*
X158510038Y-94554151D01*
X158530250Y-94546919D01*
X158551074Y-94541703D01*
X158572309Y-94538553D01*
X158593750Y-94537500D01*
X159106250Y-94537500D01*
X159127691Y-94538553D01*
G37*
G36*
X159127691Y-96113553D02*
G01*
X159148926Y-96116703D01*
X159169750Y-96121919D01*
X159189962Y-96129151D01*
X159209368Y-96138330D01*
X159227781Y-96149366D01*
X159245024Y-96162154D01*
X159260930Y-96176570D01*
X159275346Y-96192476D01*
X159288134Y-96209719D01*
X159299170Y-96228132D01*
X159308349Y-96247538D01*
X159315581Y-96267750D01*
X159320797Y-96288574D01*
X159323947Y-96309809D01*
X159325000Y-96331250D01*
X159325000Y-96768750D01*
X159323947Y-96790191D01*
X159320797Y-96811426D01*
X159315581Y-96832250D01*
X159308349Y-96852462D01*
X159299170Y-96871868D01*
X159288134Y-96890281D01*
X159275346Y-96907524D01*
X159260930Y-96923430D01*
X159245024Y-96937846D01*
X159227781Y-96950634D01*
X159209368Y-96961670D01*
X159189962Y-96970849D01*
X159169750Y-96978081D01*
X159148926Y-96983297D01*
X159127691Y-96986447D01*
X159106250Y-96987500D01*
X158593750Y-96987500D01*
X158572309Y-96986447D01*
X158551074Y-96983297D01*
X158530250Y-96978081D01*
X158510038Y-96970849D01*
X158490632Y-96961670D01*
X158472219Y-96950634D01*
X158454976Y-96937846D01*
X158439070Y-96923430D01*
X158424654Y-96907524D01*
X158411866Y-96890281D01*
X158400830Y-96871868D01*
X158391651Y-96852462D01*
X158384419Y-96832250D01*
X158379203Y-96811426D01*
X158376053Y-96790191D01*
X158375000Y-96768750D01*
X158375000Y-96331250D01*
X158376053Y-96309809D01*
X158379203Y-96288574D01*
X158384419Y-96267750D01*
X158391651Y-96247538D01*
X158400830Y-96228132D01*
X158411866Y-96209719D01*
X158424654Y-96192476D01*
X158439070Y-96176570D01*
X158454976Y-96162154D01*
X158472219Y-96149366D01*
X158490632Y-96138330D01*
X158510038Y-96129151D01*
X158530250Y-96121919D01*
X158551074Y-96116703D01*
X158572309Y-96113553D01*
X158593750Y-96112500D01*
X159106250Y-96112500D01*
X159127691Y-96113553D01*
G37*
G36*
X131827691Y-76001053D02*
G01*
X131848926Y-76004203D01*
X131869750Y-76009419D01*
X131889962Y-76016651D01*
X131909368Y-76025830D01*
X131927781Y-76036866D01*
X131945024Y-76049654D01*
X131960930Y-76064070D01*
X131975346Y-76079976D01*
X131988134Y-76097219D01*
X131999170Y-76115632D01*
X132008349Y-76135038D01*
X132015581Y-76155250D01*
X132020797Y-76176074D01*
X132023947Y-76197309D01*
X132025000Y-76218750D01*
X132025000Y-76656250D01*
X132023947Y-76677691D01*
X132020797Y-76698926D01*
X132015581Y-76719750D01*
X132008349Y-76739962D01*
X131999170Y-76759368D01*
X131988134Y-76777781D01*
X131975346Y-76795024D01*
X131960930Y-76810930D01*
X131945024Y-76825346D01*
X131927781Y-76838134D01*
X131909368Y-76849170D01*
X131889962Y-76858349D01*
X131869750Y-76865581D01*
X131848926Y-76870797D01*
X131827691Y-76873947D01*
X131806250Y-76875000D01*
X131293750Y-76875000D01*
X131272309Y-76873947D01*
X131251074Y-76870797D01*
X131230250Y-76865581D01*
X131210038Y-76858349D01*
X131190632Y-76849170D01*
X131172219Y-76838134D01*
X131154976Y-76825346D01*
X131139070Y-76810930D01*
X131124654Y-76795024D01*
X131111866Y-76777781D01*
X131100830Y-76759368D01*
X131091651Y-76739962D01*
X131084419Y-76719750D01*
X131079203Y-76698926D01*
X131076053Y-76677691D01*
X131075000Y-76656250D01*
X131075000Y-76218750D01*
X131076053Y-76197309D01*
X131079203Y-76176074D01*
X131084419Y-76155250D01*
X131091651Y-76135038D01*
X131100830Y-76115632D01*
X131111866Y-76097219D01*
X131124654Y-76079976D01*
X131139070Y-76064070D01*
X131154976Y-76049654D01*
X131172219Y-76036866D01*
X131190632Y-76025830D01*
X131210038Y-76016651D01*
X131230250Y-76009419D01*
X131251074Y-76004203D01*
X131272309Y-76001053D01*
X131293750Y-76000000D01*
X131806250Y-76000000D01*
X131827691Y-76001053D01*
G37*
G36*
X131827691Y-77576053D02*
G01*
X131848926Y-77579203D01*
X131869750Y-77584419D01*
X131889962Y-77591651D01*
X131909368Y-77600830D01*
X131927781Y-77611866D01*
X131945024Y-77624654D01*
X131960930Y-77639070D01*
X131975346Y-77654976D01*
X131988134Y-77672219D01*
X131999170Y-77690632D01*
X132008349Y-77710038D01*
X132015581Y-77730250D01*
X132020797Y-77751074D01*
X132023947Y-77772309D01*
X132025000Y-77793750D01*
X132025000Y-78231250D01*
X132023947Y-78252691D01*
X132020797Y-78273926D01*
X132015581Y-78294750D01*
X132008349Y-78314962D01*
X131999170Y-78334368D01*
X131988134Y-78352781D01*
X131975346Y-78370024D01*
X131960930Y-78385930D01*
X131945024Y-78400346D01*
X131927781Y-78413134D01*
X131909368Y-78424170D01*
X131889962Y-78433349D01*
X131869750Y-78440581D01*
X131848926Y-78445797D01*
X131827691Y-78448947D01*
X131806250Y-78450000D01*
X131293750Y-78450000D01*
X131272309Y-78448947D01*
X131251074Y-78445797D01*
X131230250Y-78440581D01*
X131210038Y-78433349D01*
X131190632Y-78424170D01*
X131172219Y-78413134D01*
X131154976Y-78400346D01*
X131139070Y-78385930D01*
X131124654Y-78370024D01*
X131111866Y-78352781D01*
X131100830Y-78334368D01*
X131091651Y-78314962D01*
X131084419Y-78294750D01*
X131079203Y-78273926D01*
X131076053Y-78252691D01*
X131075000Y-78231250D01*
X131075000Y-77793750D01*
X131076053Y-77772309D01*
X131079203Y-77751074D01*
X131084419Y-77730250D01*
X131091651Y-77710038D01*
X131100830Y-77690632D01*
X131111866Y-77672219D01*
X131124654Y-77654976D01*
X131139070Y-77639070D01*
X131154976Y-77624654D01*
X131172219Y-77611866D01*
X131190632Y-77600830D01*
X131210038Y-77591651D01*
X131230250Y-77584419D01*
X131251074Y-77579203D01*
X131272309Y-77576053D01*
X131293750Y-77575000D01*
X131806250Y-77575000D01*
X131827691Y-77576053D01*
G37*
G36*
X133527691Y-77576053D02*
G01*
X133548926Y-77579203D01*
X133569750Y-77584419D01*
X133589962Y-77591651D01*
X133609368Y-77600830D01*
X133627781Y-77611866D01*
X133645024Y-77624654D01*
X133660930Y-77639070D01*
X133675346Y-77654976D01*
X133688134Y-77672219D01*
X133699170Y-77690632D01*
X133708349Y-77710038D01*
X133715581Y-77730250D01*
X133720797Y-77751074D01*
X133723947Y-77772309D01*
X133725000Y-77793750D01*
X133725000Y-78231250D01*
X133723947Y-78252691D01*
X133720797Y-78273926D01*
X133715581Y-78294750D01*
X133708349Y-78314962D01*
X133699170Y-78334368D01*
X133688134Y-78352781D01*
X133675346Y-78370024D01*
X133660930Y-78385930D01*
X133645024Y-78400346D01*
X133627781Y-78413134D01*
X133609368Y-78424170D01*
X133589962Y-78433349D01*
X133569750Y-78440581D01*
X133548926Y-78445797D01*
X133527691Y-78448947D01*
X133506250Y-78450000D01*
X132993750Y-78450000D01*
X132972309Y-78448947D01*
X132951074Y-78445797D01*
X132930250Y-78440581D01*
X132910038Y-78433349D01*
X132890632Y-78424170D01*
X132872219Y-78413134D01*
X132854976Y-78400346D01*
X132839070Y-78385930D01*
X132824654Y-78370024D01*
X132811866Y-78352781D01*
X132800830Y-78334368D01*
X132791651Y-78314962D01*
X132784419Y-78294750D01*
X132779203Y-78273926D01*
X132776053Y-78252691D01*
X132775000Y-78231250D01*
X132775000Y-77793750D01*
X132776053Y-77772309D01*
X132779203Y-77751074D01*
X132784419Y-77730250D01*
X132791651Y-77710038D01*
X132800830Y-77690632D01*
X132811866Y-77672219D01*
X132824654Y-77654976D01*
X132839070Y-77639070D01*
X132854976Y-77624654D01*
X132872219Y-77611866D01*
X132890632Y-77600830D01*
X132910038Y-77591651D01*
X132930250Y-77584419D01*
X132951074Y-77579203D01*
X132972309Y-77576053D01*
X132993750Y-77575000D01*
X133506250Y-77575000D01*
X133527691Y-77576053D01*
G37*
G36*
X133527691Y-76001053D02*
G01*
X133548926Y-76004203D01*
X133569750Y-76009419D01*
X133589962Y-76016651D01*
X133609368Y-76025830D01*
X133627781Y-76036866D01*
X133645024Y-76049654D01*
X133660930Y-76064070D01*
X133675346Y-76079976D01*
X133688134Y-76097219D01*
X133699170Y-76115632D01*
X133708349Y-76135038D01*
X133715581Y-76155250D01*
X133720797Y-76176074D01*
X133723947Y-76197309D01*
X133725000Y-76218750D01*
X133725000Y-76656250D01*
X133723947Y-76677691D01*
X133720797Y-76698926D01*
X133715581Y-76719750D01*
X133708349Y-76739962D01*
X133699170Y-76759368D01*
X133688134Y-76777781D01*
X133675346Y-76795024D01*
X133660930Y-76810930D01*
X133645024Y-76825346D01*
X133627781Y-76838134D01*
X133609368Y-76849170D01*
X133589962Y-76858349D01*
X133569750Y-76865581D01*
X133548926Y-76870797D01*
X133527691Y-76873947D01*
X133506250Y-76875000D01*
X132993750Y-76875000D01*
X132972309Y-76873947D01*
X132951074Y-76870797D01*
X132930250Y-76865581D01*
X132910038Y-76858349D01*
X132890632Y-76849170D01*
X132872219Y-76838134D01*
X132854976Y-76825346D01*
X132839070Y-76810930D01*
X132824654Y-76795024D01*
X132811866Y-76777781D01*
X132800830Y-76759368D01*
X132791651Y-76739962D01*
X132784419Y-76719750D01*
X132779203Y-76698926D01*
X132776053Y-76677691D01*
X132775000Y-76656250D01*
X132775000Y-76218750D01*
X132776053Y-76197309D01*
X132779203Y-76176074D01*
X132784419Y-76155250D01*
X132791651Y-76135038D01*
X132800830Y-76115632D01*
X132811866Y-76097219D01*
X132824654Y-76079976D01*
X132839070Y-76064070D01*
X132854976Y-76049654D01*
X132872219Y-76036866D01*
X132890632Y-76025830D01*
X132910038Y-76016651D01*
X132930250Y-76009419D01*
X132951074Y-76004203D01*
X132972309Y-76001053D01*
X132993750Y-76000000D01*
X133506250Y-76000000D01*
X133527691Y-76001053D01*
G37*
G36*
X135227691Y-75976053D02*
G01*
X135248926Y-75979203D01*
X135269750Y-75984419D01*
X135289962Y-75991651D01*
X135309368Y-76000830D01*
X135327781Y-76011866D01*
X135345024Y-76024654D01*
X135360930Y-76039070D01*
X135375346Y-76054976D01*
X135388134Y-76072219D01*
X135399170Y-76090632D01*
X135408349Y-76110038D01*
X135415581Y-76130250D01*
X135420797Y-76151074D01*
X135423947Y-76172309D01*
X135425000Y-76193750D01*
X135425000Y-76631250D01*
X135423947Y-76652691D01*
X135420797Y-76673926D01*
X135415581Y-76694750D01*
X135408349Y-76714962D01*
X135399170Y-76734368D01*
X135388134Y-76752781D01*
X135375346Y-76770024D01*
X135360930Y-76785930D01*
X135345024Y-76800346D01*
X135327781Y-76813134D01*
X135309368Y-76824170D01*
X135289962Y-76833349D01*
X135269750Y-76840581D01*
X135248926Y-76845797D01*
X135227691Y-76848947D01*
X135206250Y-76850000D01*
X134693750Y-76850000D01*
X134672309Y-76848947D01*
X134651074Y-76845797D01*
X134630250Y-76840581D01*
X134610038Y-76833349D01*
X134590632Y-76824170D01*
X134572219Y-76813134D01*
X134554976Y-76800346D01*
X134539070Y-76785930D01*
X134524654Y-76770024D01*
X134511866Y-76752781D01*
X134500830Y-76734368D01*
X134491651Y-76714962D01*
X134484419Y-76694750D01*
X134479203Y-76673926D01*
X134476053Y-76652691D01*
X134475000Y-76631250D01*
X134475000Y-76193750D01*
X134476053Y-76172309D01*
X134479203Y-76151074D01*
X134484419Y-76130250D01*
X134491651Y-76110038D01*
X134500830Y-76090632D01*
X134511866Y-76072219D01*
X134524654Y-76054976D01*
X134539070Y-76039070D01*
X134554976Y-76024654D01*
X134572219Y-76011866D01*
X134590632Y-76000830D01*
X134610038Y-75991651D01*
X134630250Y-75984419D01*
X134651074Y-75979203D01*
X134672309Y-75976053D01*
X134693750Y-75975000D01*
X135206250Y-75975000D01*
X135227691Y-75976053D01*
G37*
G36*
X135227691Y-77551053D02*
G01*
X135248926Y-77554203D01*
X135269750Y-77559419D01*
X135289962Y-77566651D01*
X135309368Y-77575830D01*
X135327781Y-77586866D01*
X135345024Y-77599654D01*
X135360930Y-77614070D01*
X135375346Y-77629976D01*
X135388134Y-77647219D01*
X135399170Y-77665632D01*
X135408349Y-77685038D01*
X135415581Y-77705250D01*
X135420797Y-77726074D01*
X135423947Y-77747309D01*
X135425000Y-77768750D01*
X135425000Y-78206250D01*
X135423947Y-78227691D01*
X135420797Y-78248926D01*
X135415581Y-78269750D01*
X135408349Y-78289962D01*
X135399170Y-78309368D01*
X135388134Y-78327781D01*
X135375346Y-78345024D01*
X135360930Y-78360930D01*
X135345024Y-78375346D01*
X135327781Y-78388134D01*
X135309368Y-78399170D01*
X135289962Y-78408349D01*
X135269750Y-78415581D01*
X135248926Y-78420797D01*
X135227691Y-78423947D01*
X135206250Y-78425000D01*
X134693750Y-78425000D01*
X134672309Y-78423947D01*
X134651074Y-78420797D01*
X134630250Y-78415581D01*
X134610038Y-78408349D01*
X134590632Y-78399170D01*
X134572219Y-78388134D01*
X134554976Y-78375346D01*
X134539070Y-78360930D01*
X134524654Y-78345024D01*
X134511866Y-78327781D01*
X134500830Y-78309368D01*
X134491651Y-78289962D01*
X134484419Y-78269750D01*
X134479203Y-78248926D01*
X134476053Y-78227691D01*
X134475000Y-78206250D01*
X134475000Y-77768750D01*
X134476053Y-77747309D01*
X134479203Y-77726074D01*
X134484419Y-77705250D01*
X134491651Y-77685038D01*
X134500830Y-77665632D01*
X134511866Y-77647219D01*
X134524654Y-77629976D01*
X134539070Y-77614070D01*
X134554976Y-77599654D01*
X134572219Y-77586866D01*
X134590632Y-77575830D01*
X134610038Y-77566651D01*
X134630250Y-77559419D01*
X134651074Y-77554203D01*
X134672309Y-77551053D01*
X134693750Y-77550000D01*
X135206250Y-77550000D01*
X135227691Y-77551053D01*
G37*
D12*
X145450000Y-95800000D03*
X145450000Y-97320000D03*
D13*
X142694700Y-89326140D03*
X142694700Y-88825760D03*
X142694700Y-88325380D03*
X142694700Y-87825000D03*
X142694700Y-87324620D03*
X142694700Y-86824240D03*
X142694700Y-86323860D03*
D14*
X142151140Y-85780300D03*
X141650760Y-85780300D03*
X141150380Y-85780300D03*
X140650000Y-85780300D03*
X140149620Y-85780300D03*
X139649240Y-85780300D03*
X139148860Y-85780300D03*
D13*
X138605300Y-86323860D03*
X138605300Y-86824240D03*
X138605300Y-87324620D03*
X138605300Y-87825000D03*
X138605300Y-88325380D03*
X138605300Y-88825760D03*
X138605300Y-89326140D03*
D14*
X139148860Y-89869700D03*
X139649240Y-89869700D03*
X140149620Y-89869700D03*
X140650000Y-89869700D03*
X141150380Y-89869700D03*
X141650760Y-89869700D03*
X142151140Y-89869700D03*
D15*
X155740000Y-85225000D03*
X155740000Y-84575000D03*
X155740000Y-83925000D03*
X155740000Y-83275000D03*
X155740000Y-82625000D03*
D16*
X155825000Y-86412500D03*
X155825000Y-81437500D03*
D17*
X158400000Y-87300000D03*
X158400000Y-80550000D03*
D18*
X158400000Y-85075000D03*
D19*
X158400000Y-82375000D03*
D11*
G36*
X140277691Y-97576053D02*
G01*
X140298926Y-97579203D01*
X140319750Y-97584419D01*
X140339962Y-97591651D01*
X140359368Y-97600830D01*
X140377781Y-97611866D01*
X140395024Y-97624654D01*
X140410930Y-97639070D01*
X140425346Y-97654976D01*
X140438134Y-97672219D01*
X140449170Y-97690632D01*
X140458349Y-97710038D01*
X140465581Y-97730250D01*
X140470797Y-97751074D01*
X140473947Y-97772309D01*
X140475000Y-97793750D01*
X140475000Y-98231250D01*
X140473947Y-98252691D01*
X140470797Y-98273926D01*
X140465581Y-98294750D01*
X140458349Y-98314962D01*
X140449170Y-98334368D01*
X140438134Y-98352781D01*
X140425346Y-98370024D01*
X140410930Y-98385930D01*
X140395024Y-98400346D01*
X140377781Y-98413134D01*
X140359368Y-98424170D01*
X140339962Y-98433349D01*
X140319750Y-98440581D01*
X140298926Y-98445797D01*
X140277691Y-98448947D01*
X140256250Y-98450000D01*
X139743750Y-98450000D01*
X139722309Y-98448947D01*
X139701074Y-98445797D01*
X139680250Y-98440581D01*
X139660038Y-98433349D01*
X139640632Y-98424170D01*
X139622219Y-98413134D01*
X139604976Y-98400346D01*
X139589070Y-98385930D01*
X139574654Y-98370024D01*
X139561866Y-98352781D01*
X139550830Y-98334368D01*
X139541651Y-98314962D01*
X139534419Y-98294750D01*
X139529203Y-98273926D01*
X139526053Y-98252691D01*
X139525000Y-98231250D01*
X139525000Y-97793750D01*
X139526053Y-97772309D01*
X139529203Y-97751074D01*
X139534419Y-97730250D01*
X139541651Y-97710038D01*
X139550830Y-97690632D01*
X139561866Y-97672219D01*
X139574654Y-97654976D01*
X139589070Y-97639070D01*
X139604976Y-97624654D01*
X139622219Y-97611866D01*
X139640632Y-97600830D01*
X139660038Y-97591651D01*
X139680250Y-97584419D01*
X139701074Y-97579203D01*
X139722309Y-97576053D01*
X139743750Y-97575000D01*
X140256250Y-97575000D01*
X140277691Y-97576053D01*
G37*
G36*
X140277691Y-99151053D02*
G01*
X140298926Y-99154203D01*
X140319750Y-99159419D01*
X140339962Y-99166651D01*
X140359368Y-99175830D01*
X140377781Y-99186866D01*
X140395024Y-99199654D01*
X140410930Y-99214070D01*
X140425346Y-99229976D01*
X140438134Y-99247219D01*
X140449170Y-99265632D01*
X140458349Y-99285038D01*
X140465581Y-99305250D01*
X140470797Y-99326074D01*
X140473947Y-99347309D01*
X140475000Y-99368750D01*
X140475000Y-99806250D01*
X140473947Y-99827691D01*
X140470797Y-99848926D01*
X140465581Y-99869750D01*
X140458349Y-99889962D01*
X140449170Y-99909368D01*
X140438134Y-99927781D01*
X140425346Y-99945024D01*
X140410930Y-99960930D01*
X140395024Y-99975346D01*
X140377781Y-99988134D01*
X140359368Y-99999170D01*
X140339962Y-100008349D01*
X140319750Y-100015581D01*
X140298926Y-100020797D01*
X140277691Y-100023947D01*
X140256250Y-100025000D01*
X139743750Y-100025000D01*
X139722309Y-100023947D01*
X139701074Y-100020797D01*
X139680250Y-100015581D01*
X139660038Y-100008349D01*
X139640632Y-99999170D01*
X139622219Y-99988134D01*
X139604976Y-99975346D01*
X139589070Y-99960930D01*
X139574654Y-99945024D01*
X139561866Y-99927781D01*
X139550830Y-99909368D01*
X139541651Y-99889962D01*
X139534419Y-99869750D01*
X139529203Y-99848926D01*
X139526053Y-99827691D01*
X139525000Y-99806250D01*
X139525000Y-99368750D01*
X139526053Y-99347309D01*
X139529203Y-99326074D01*
X139534419Y-99305250D01*
X139541651Y-99285038D01*
X139550830Y-99265632D01*
X139561866Y-99247219D01*
X139574654Y-99229976D01*
X139589070Y-99214070D01*
X139604976Y-99199654D01*
X139622219Y-99186866D01*
X139640632Y-99175830D01*
X139660038Y-99166651D01*
X139680250Y-99159419D01*
X139701074Y-99154203D01*
X139722309Y-99151053D01*
X139743750Y-99150000D01*
X140256250Y-99150000D01*
X140277691Y-99151053D01*
G37*
G36*
X136952691Y-99151053D02*
G01*
X136973926Y-99154203D01*
X136994750Y-99159419D01*
X137014962Y-99166651D01*
X137034368Y-99175830D01*
X137052781Y-99186866D01*
X137070024Y-99199654D01*
X137085930Y-99214070D01*
X137100346Y-99229976D01*
X137113134Y-99247219D01*
X137124170Y-99265632D01*
X137133349Y-99285038D01*
X137140581Y-99305250D01*
X137145797Y-99326074D01*
X137148947Y-99347309D01*
X137150000Y-99368750D01*
X137150000Y-99806250D01*
X137148947Y-99827691D01*
X137145797Y-99848926D01*
X137140581Y-99869750D01*
X137133349Y-99889962D01*
X137124170Y-99909368D01*
X137113134Y-99927781D01*
X137100346Y-99945024D01*
X137085930Y-99960930D01*
X137070024Y-99975346D01*
X137052781Y-99988134D01*
X137034368Y-99999170D01*
X137014962Y-100008349D01*
X136994750Y-100015581D01*
X136973926Y-100020797D01*
X136952691Y-100023947D01*
X136931250Y-100025000D01*
X136418750Y-100025000D01*
X136397309Y-100023947D01*
X136376074Y-100020797D01*
X136355250Y-100015581D01*
X136335038Y-100008349D01*
X136315632Y-99999170D01*
X136297219Y-99988134D01*
X136279976Y-99975346D01*
X136264070Y-99960930D01*
X136249654Y-99945024D01*
X136236866Y-99927781D01*
X136225830Y-99909368D01*
X136216651Y-99889962D01*
X136209419Y-99869750D01*
X136204203Y-99848926D01*
X136201053Y-99827691D01*
X136200000Y-99806250D01*
X136200000Y-99368750D01*
X136201053Y-99347309D01*
X136204203Y-99326074D01*
X136209419Y-99305250D01*
X136216651Y-99285038D01*
X136225830Y-99265632D01*
X136236866Y-99247219D01*
X136249654Y-99229976D01*
X136264070Y-99214070D01*
X136279976Y-99199654D01*
X136297219Y-99186866D01*
X136315632Y-99175830D01*
X136335038Y-99166651D01*
X136355250Y-99159419D01*
X136376074Y-99154203D01*
X136397309Y-99151053D01*
X136418750Y-99150000D01*
X136931250Y-99150000D01*
X136952691Y-99151053D01*
G37*
G36*
X136952691Y-97576053D02*
G01*
X136973926Y-97579203D01*
X136994750Y-97584419D01*
X137014962Y-97591651D01*
X137034368Y-97600830D01*
X137052781Y-97611866D01*
X137070024Y-97624654D01*
X137085930Y-97639070D01*
X137100346Y-97654976D01*
X137113134Y-97672219D01*
X137124170Y-97690632D01*
X137133349Y-97710038D01*
X137140581Y-97730250D01*
X137145797Y-97751074D01*
X137148947Y-97772309D01*
X137150000Y-97793750D01*
X137150000Y-98231250D01*
X137148947Y-98252691D01*
X137145797Y-98273926D01*
X137140581Y-98294750D01*
X137133349Y-98314962D01*
X137124170Y-98334368D01*
X137113134Y-98352781D01*
X137100346Y-98370024D01*
X137085930Y-98385930D01*
X137070024Y-98400346D01*
X137052781Y-98413134D01*
X137034368Y-98424170D01*
X137014962Y-98433349D01*
X136994750Y-98440581D01*
X136973926Y-98445797D01*
X136952691Y-98448947D01*
X136931250Y-98450000D01*
X136418750Y-98450000D01*
X136397309Y-98448947D01*
X136376074Y-98445797D01*
X136355250Y-98440581D01*
X136335038Y-98433349D01*
X136315632Y-98424170D01*
X136297219Y-98413134D01*
X136279976Y-98400346D01*
X136264070Y-98385930D01*
X136249654Y-98370024D01*
X136236866Y-98352781D01*
X136225830Y-98334368D01*
X136216651Y-98314962D01*
X136209419Y-98294750D01*
X136204203Y-98273926D01*
X136201053Y-98252691D01*
X136200000Y-98231250D01*
X136200000Y-97793750D01*
X136201053Y-97772309D01*
X136204203Y-97751074D01*
X136209419Y-97730250D01*
X136216651Y-97710038D01*
X136225830Y-97690632D01*
X136236866Y-97672219D01*
X136249654Y-97654976D01*
X136264070Y-97639070D01*
X136279976Y-97624654D01*
X136297219Y-97611866D01*
X136315632Y-97600830D01*
X136335038Y-97591651D01*
X136355250Y-97584419D01*
X136376074Y-97579203D01*
X136397309Y-97576053D01*
X136418750Y-97575000D01*
X136931250Y-97575000D01*
X136952691Y-97576053D01*
G37*
G36*
X157452691Y-94526053D02*
G01*
X157473926Y-94529203D01*
X157494750Y-94534419D01*
X157514962Y-94541651D01*
X157534368Y-94550830D01*
X157552781Y-94561866D01*
X157570024Y-94574654D01*
X157585930Y-94589070D01*
X157600346Y-94604976D01*
X157613134Y-94622219D01*
X157624170Y-94640632D01*
X157633349Y-94660038D01*
X157640581Y-94680250D01*
X157645797Y-94701074D01*
X157648947Y-94722309D01*
X157650000Y-94743750D01*
X157650000Y-95181250D01*
X157648947Y-95202691D01*
X157645797Y-95223926D01*
X157640581Y-95244750D01*
X157633349Y-95264962D01*
X157624170Y-95284368D01*
X157613134Y-95302781D01*
X157600346Y-95320024D01*
X157585930Y-95335930D01*
X157570024Y-95350346D01*
X157552781Y-95363134D01*
X157534368Y-95374170D01*
X157514962Y-95383349D01*
X157494750Y-95390581D01*
X157473926Y-95395797D01*
X157452691Y-95398947D01*
X157431250Y-95400000D01*
X156918750Y-95400000D01*
X156897309Y-95398947D01*
X156876074Y-95395797D01*
X156855250Y-95390581D01*
X156835038Y-95383349D01*
X156815632Y-95374170D01*
X156797219Y-95363134D01*
X156779976Y-95350346D01*
X156764070Y-95335930D01*
X156749654Y-95320024D01*
X156736866Y-95302781D01*
X156725830Y-95284368D01*
X156716651Y-95264962D01*
X156709419Y-95244750D01*
X156704203Y-95223926D01*
X156701053Y-95202691D01*
X156700000Y-95181250D01*
X156700000Y-94743750D01*
X156701053Y-94722309D01*
X156704203Y-94701074D01*
X156709419Y-94680250D01*
X156716651Y-94660038D01*
X156725830Y-94640632D01*
X156736866Y-94622219D01*
X156749654Y-94604976D01*
X156764070Y-94589070D01*
X156779976Y-94574654D01*
X156797219Y-94561866D01*
X156815632Y-94550830D01*
X156835038Y-94541651D01*
X156855250Y-94534419D01*
X156876074Y-94529203D01*
X156897309Y-94526053D01*
X156918750Y-94525000D01*
X157431250Y-94525000D01*
X157452691Y-94526053D01*
G37*
G36*
X157452691Y-96101053D02*
G01*
X157473926Y-96104203D01*
X157494750Y-96109419D01*
X157514962Y-96116651D01*
X157534368Y-96125830D01*
X157552781Y-96136866D01*
X157570024Y-96149654D01*
X157585930Y-96164070D01*
X157600346Y-96179976D01*
X157613134Y-96197219D01*
X157624170Y-96215632D01*
X157633349Y-96235038D01*
X157640581Y-96255250D01*
X157645797Y-96276074D01*
X157648947Y-96297309D01*
X157650000Y-96318750D01*
X157650000Y-96756250D01*
X157648947Y-96777691D01*
X157645797Y-96798926D01*
X157640581Y-96819750D01*
X157633349Y-96839962D01*
X157624170Y-96859368D01*
X157613134Y-96877781D01*
X157600346Y-96895024D01*
X157585930Y-96910930D01*
X157570024Y-96925346D01*
X157552781Y-96938134D01*
X157534368Y-96949170D01*
X157514962Y-96958349D01*
X157494750Y-96965581D01*
X157473926Y-96970797D01*
X157452691Y-96973947D01*
X157431250Y-96975000D01*
X156918750Y-96975000D01*
X156897309Y-96973947D01*
X156876074Y-96970797D01*
X156855250Y-96965581D01*
X156835038Y-96958349D01*
X156815632Y-96949170D01*
X156797219Y-96938134D01*
X156779976Y-96925346D01*
X156764070Y-96910930D01*
X156749654Y-96895024D01*
X156736866Y-96877781D01*
X156725830Y-96859368D01*
X156716651Y-96839962D01*
X156709419Y-96819750D01*
X156704203Y-96798926D01*
X156701053Y-96777691D01*
X156700000Y-96756250D01*
X156700000Y-96318750D01*
X156701053Y-96297309D01*
X156704203Y-96276074D01*
X156709419Y-96255250D01*
X156716651Y-96235038D01*
X156725830Y-96215632D01*
X156736866Y-96197219D01*
X156749654Y-96179976D01*
X156764070Y-96164070D01*
X156779976Y-96149654D01*
X156797219Y-96136866D01*
X156815632Y-96125830D01*
X156835038Y-96116651D01*
X156855250Y-96109419D01*
X156876074Y-96104203D01*
X156897309Y-96101053D01*
X156918750Y-96100000D01*
X157431250Y-96100000D01*
X157452691Y-96101053D01*
G37*
G36*
X135302691Y-97563553D02*
G01*
X135323926Y-97566703D01*
X135344750Y-97571919D01*
X135364962Y-97579151D01*
X135384368Y-97588330D01*
X135402781Y-97599366D01*
X135420024Y-97612154D01*
X135435930Y-97626570D01*
X135450346Y-97642476D01*
X135463134Y-97659719D01*
X135474170Y-97678132D01*
X135483349Y-97697538D01*
X135490581Y-97717750D01*
X135495797Y-97738574D01*
X135498947Y-97759809D01*
X135500000Y-97781250D01*
X135500000Y-98218750D01*
X135498947Y-98240191D01*
X135495797Y-98261426D01*
X135490581Y-98282250D01*
X135483349Y-98302462D01*
X135474170Y-98321868D01*
X135463134Y-98340281D01*
X135450346Y-98357524D01*
X135435930Y-98373430D01*
X135420024Y-98387846D01*
X135402781Y-98400634D01*
X135384368Y-98411670D01*
X135364962Y-98420849D01*
X135344750Y-98428081D01*
X135323926Y-98433297D01*
X135302691Y-98436447D01*
X135281250Y-98437500D01*
X134768750Y-98437500D01*
X134747309Y-98436447D01*
X134726074Y-98433297D01*
X134705250Y-98428081D01*
X134685038Y-98420849D01*
X134665632Y-98411670D01*
X134647219Y-98400634D01*
X134629976Y-98387846D01*
X134614070Y-98373430D01*
X134599654Y-98357524D01*
X134586866Y-98340281D01*
X134575830Y-98321868D01*
X134566651Y-98302462D01*
X134559419Y-98282250D01*
X134554203Y-98261426D01*
X134551053Y-98240191D01*
X134550000Y-98218750D01*
X134550000Y-97781250D01*
X134551053Y-97759809D01*
X134554203Y-97738574D01*
X134559419Y-97717750D01*
X134566651Y-97697538D01*
X134575830Y-97678132D01*
X134586866Y-97659719D01*
X134599654Y-97642476D01*
X134614070Y-97626570D01*
X134629976Y-97612154D01*
X134647219Y-97599366D01*
X134665632Y-97588330D01*
X134685038Y-97579151D01*
X134705250Y-97571919D01*
X134726074Y-97566703D01*
X134747309Y-97563553D01*
X134768750Y-97562500D01*
X135281250Y-97562500D01*
X135302691Y-97563553D01*
G37*
G36*
X135302691Y-99138553D02*
G01*
X135323926Y-99141703D01*
X135344750Y-99146919D01*
X135364962Y-99154151D01*
X135384368Y-99163330D01*
X135402781Y-99174366D01*
X135420024Y-99187154D01*
X135435930Y-99201570D01*
X135450346Y-99217476D01*
X135463134Y-99234719D01*
X135474170Y-99253132D01*
X135483349Y-99272538D01*
X135490581Y-99292750D01*
X135495797Y-99313574D01*
X135498947Y-99334809D01*
X135500000Y-99356250D01*
X135500000Y-99793750D01*
X135498947Y-99815191D01*
X135495797Y-99836426D01*
X135490581Y-99857250D01*
X135483349Y-99877462D01*
X135474170Y-99896868D01*
X135463134Y-99915281D01*
X135450346Y-99932524D01*
X135435930Y-99948430D01*
X135420024Y-99962846D01*
X135402781Y-99975634D01*
X135384368Y-99986670D01*
X135364962Y-99995849D01*
X135344750Y-100003081D01*
X135323926Y-100008297D01*
X135302691Y-100011447D01*
X135281250Y-100012500D01*
X134768750Y-100012500D01*
X134747309Y-100011447D01*
X134726074Y-100008297D01*
X134705250Y-100003081D01*
X134685038Y-99995849D01*
X134665632Y-99986670D01*
X134647219Y-99975634D01*
X134629976Y-99962846D01*
X134614070Y-99948430D01*
X134599654Y-99932524D01*
X134586866Y-99915281D01*
X134575830Y-99896868D01*
X134566651Y-99877462D01*
X134559419Y-99857250D01*
X134554203Y-99836426D01*
X134551053Y-99815191D01*
X134550000Y-99793750D01*
X134550000Y-99356250D01*
X134551053Y-99334809D01*
X134554203Y-99313574D01*
X134559419Y-99292750D01*
X134566651Y-99272538D01*
X134575830Y-99253132D01*
X134586866Y-99234719D01*
X134599654Y-99217476D01*
X134614070Y-99201570D01*
X134629976Y-99187154D01*
X134647219Y-99174366D01*
X134665632Y-99163330D01*
X134685038Y-99154151D01*
X134705250Y-99146919D01*
X134726074Y-99141703D01*
X134747309Y-99138553D01*
X134768750Y-99137500D01*
X135281250Y-99137500D01*
X135302691Y-99138553D01*
G37*
G36*
X154652691Y-95988553D02*
G01*
X154673926Y-95991703D01*
X154694750Y-95996919D01*
X154714962Y-96004151D01*
X154734368Y-96013330D01*
X154752781Y-96024366D01*
X154770024Y-96037154D01*
X154785930Y-96051570D01*
X154800346Y-96067476D01*
X154813134Y-96084719D01*
X154824170Y-96103132D01*
X154833349Y-96122538D01*
X154840581Y-96142750D01*
X154845797Y-96163574D01*
X154848947Y-96184809D01*
X154850000Y-96206250D01*
X154850000Y-96643750D01*
X154848947Y-96665191D01*
X154845797Y-96686426D01*
X154840581Y-96707250D01*
X154833349Y-96727462D01*
X154824170Y-96746868D01*
X154813134Y-96765281D01*
X154800346Y-96782524D01*
X154785930Y-96798430D01*
X154770024Y-96812846D01*
X154752781Y-96825634D01*
X154734368Y-96836670D01*
X154714962Y-96845849D01*
X154694750Y-96853081D01*
X154673926Y-96858297D01*
X154652691Y-96861447D01*
X154631250Y-96862500D01*
X154118750Y-96862500D01*
X154097309Y-96861447D01*
X154076074Y-96858297D01*
X154055250Y-96853081D01*
X154035038Y-96845849D01*
X154015632Y-96836670D01*
X153997219Y-96825634D01*
X153979976Y-96812846D01*
X153964070Y-96798430D01*
X153949654Y-96782524D01*
X153936866Y-96765281D01*
X153925830Y-96746868D01*
X153916651Y-96727462D01*
X153909419Y-96707250D01*
X153904203Y-96686426D01*
X153901053Y-96665191D01*
X153900000Y-96643750D01*
X153900000Y-96206250D01*
X153901053Y-96184809D01*
X153904203Y-96163574D01*
X153909419Y-96142750D01*
X153916651Y-96122538D01*
X153925830Y-96103132D01*
X153936866Y-96084719D01*
X153949654Y-96067476D01*
X153964070Y-96051570D01*
X153979976Y-96037154D01*
X153997219Y-96024366D01*
X154015632Y-96013330D01*
X154035038Y-96004151D01*
X154055250Y-95996919D01*
X154076074Y-95991703D01*
X154097309Y-95988553D01*
X154118750Y-95987500D01*
X154631250Y-95987500D01*
X154652691Y-95988553D01*
G37*
G36*
X154652691Y-94413553D02*
G01*
X154673926Y-94416703D01*
X154694750Y-94421919D01*
X154714962Y-94429151D01*
X154734368Y-94438330D01*
X154752781Y-94449366D01*
X154770024Y-94462154D01*
X154785930Y-94476570D01*
X154800346Y-94492476D01*
X154813134Y-94509719D01*
X154824170Y-94528132D01*
X154833349Y-94547538D01*
X154840581Y-94567750D01*
X154845797Y-94588574D01*
X154848947Y-94609809D01*
X154850000Y-94631250D01*
X154850000Y-95068750D01*
X154848947Y-95090191D01*
X154845797Y-95111426D01*
X154840581Y-95132250D01*
X154833349Y-95152462D01*
X154824170Y-95171868D01*
X154813134Y-95190281D01*
X154800346Y-95207524D01*
X154785930Y-95223430D01*
X154770024Y-95237846D01*
X154752781Y-95250634D01*
X154734368Y-95261670D01*
X154714962Y-95270849D01*
X154694750Y-95278081D01*
X154673926Y-95283297D01*
X154652691Y-95286447D01*
X154631250Y-95287500D01*
X154118750Y-95287500D01*
X154097309Y-95286447D01*
X154076074Y-95283297D01*
X154055250Y-95278081D01*
X154035038Y-95270849D01*
X154015632Y-95261670D01*
X153997219Y-95250634D01*
X153979976Y-95237846D01*
X153964070Y-95223430D01*
X153949654Y-95207524D01*
X153936866Y-95190281D01*
X153925830Y-95171868D01*
X153916651Y-95152462D01*
X153909419Y-95132250D01*
X153904203Y-95111426D01*
X153901053Y-95090191D01*
X153900000Y-95068750D01*
X153900000Y-94631250D01*
X153901053Y-94609809D01*
X153904203Y-94588574D01*
X153909419Y-94567750D01*
X153916651Y-94547538D01*
X153925830Y-94528132D01*
X153936866Y-94509719D01*
X153949654Y-94492476D01*
X153964070Y-94476570D01*
X153979976Y-94462154D01*
X153997219Y-94449366D01*
X154015632Y-94438330D01*
X154035038Y-94429151D01*
X154055250Y-94421919D01*
X154076074Y-94416703D01*
X154097309Y-94413553D01*
X154118750Y-94412500D01*
X154631250Y-94412500D01*
X154652691Y-94413553D01*
G37*
G36*
X151240191Y-94951053D02*
G01*
X151261426Y-94954203D01*
X151282250Y-94959419D01*
X151302462Y-94966651D01*
X151321868Y-94975830D01*
X151340281Y-94986866D01*
X151357524Y-94999654D01*
X151373430Y-95014070D01*
X151387846Y-95029976D01*
X151400634Y-95047219D01*
X151411670Y-95065632D01*
X151420849Y-95085038D01*
X151428081Y-95105250D01*
X151433297Y-95126074D01*
X151436447Y-95147309D01*
X151437500Y-95168750D01*
X151437500Y-95681250D01*
X151436447Y-95702691D01*
X151433297Y-95723926D01*
X151428081Y-95744750D01*
X151420849Y-95764962D01*
X151411670Y-95784368D01*
X151400634Y-95802781D01*
X151387846Y-95820024D01*
X151373430Y-95835930D01*
X151357524Y-95850346D01*
X151340281Y-95863134D01*
X151321868Y-95874170D01*
X151302462Y-95883349D01*
X151282250Y-95890581D01*
X151261426Y-95895797D01*
X151240191Y-95898947D01*
X151218750Y-95900000D01*
X150781250Y-95900000D01*
X150759809Y-95898947D01*
X150738574Y-95895797D01*
X150717750Y-95890581D01*
X150697538Y-95883349D01*
X150678132Y-95874170D01*
X150659719Y-95863134D01*
X150642476Y-95850346D01*
X150626570Y-95835930D01*
X150612154Y-95820024D01*
X150599366Y-95802781D01*
X150588330Y-95784368D01*
X150579151Y-95764962D01*
X150571919Y-95744750D01*
X150566703Y-95723926D01*
X150563553Y-95702691D01*
X150562500Y-95681250D01*
X150562500Y-95168750D01*
X150563553Y-95147309D01*
X150566703Y-95126074D01*
X150571919Y-95105250D01*
X150579151Y-95085038D01*
X150588330Y-95065632D01*
X150599366Y-95047219D01*
X150612154Y-95029976D01*
X150626570Y-95014070D01*
X150642476Y-94999654D01*
X150659719Y-94986866D01*
X150678132Y-94975830D01*
X150697538Y-94966651D01*
X150717750Y-94959419D01*
X150738574Y-94954203D01*
X150759809Y-94951053D01*
X150781250Y-94950000D01*
X151218750Y-94950000D01*
X151240191Y-94951053D01*
G37*
G36*
X149665191Y-94951053D02*
G01*
X149686426Y-94954203D01*
X149707250Y-94959419D01*
X149727462Y-94966651D01*
X149746868Y-94975830D01*
X149765281Y-94986866D01*
X149782524Y-94999654D01*
X149798430Y-95014070D01*
X149812846Y-95029976D01*
X149825634Y-95047219D01*
X149836670Y-95065632D01*
X149845849Y-95085038D01*
X149853081Y-95105250D01*
X149858297Y-95126074D01*
X149861447Y-95147309D01*
X149862500Y-95168750D01*
X149862500Y-95681250D01*
X149861447Y-95702691D01*
X149858297Y-95723926D01*
X149853081Y-95744750D01*
X149845849Y-95764962D01*
X149836670Y-95784368D01*
X149825634Y-95802781D01*
X149812846Y-95820024D01*
X149798430Y-95835930D01*
X149782524Y-95850346D01*
X149765281Y-95863134D01*
X149746868Y-95874170D01*
X149727462Y-95883349D01*
X149707250Y-95890581D01*
X149686426Y-95895797D01*
X149665191Y-95898947D01*
X149643750Y-95900000D01*
X149206250Y-95900000D01*
X149184809Y-95898947D01*
X149163574Y-95895797D01*
X149142750Y-95890581D01*
X149122538Y-95883349D01*
X149103132Y-95874170D01*
X149084719Y-95863134D01*
X149067476Y-95850346D01*
X149051570Y-95835930D01*
X149037154Y-95820024D01*
X149024366Y-95802781D01*
X149013330Y-95784368D01*
X149004151Y-95764962D01*
X148996919Y-95744750D01*
X148991703Y-95723926D01*
X148988553Y-95702691D01*
X148987500Y-95681250D01*
X148987500Y-95168750D01*
X148988553Y-95147309D01*
X148991703Y-95126074D01*
X148996919Y-95105250D01*
X149004151Y-95085038D01*
X149013330Y-95065632D01*
X149024366Y-95047219D01*
X149037154Y-95029976D01*
X149051570Y-95014070D01*
X149067476Y-94999654D01*
X149084719Y-94986866D01*
X149103132Y-94975830D01*
X149122538Y-94966651D01*
X149142750Y-94959419D01*
X149163574Y-94954203D01*
X149184809Y-94951053D01*
X149206250Y-94950000D01*
X149643750Y-94950000D01*
X149665191Y-94951053D01*
G37*
G36*
X138877691Y-80601053D02*
G01*
X138898926Y-80604203D01*
X138919750Y-80609419D01*
X138939962Y-80616651D01*
X138959368Y-80625830D01*
X138977781Y-80636866D01*
X138995024Y-80649654D01*
X139010930Y-80664070D01*
X139025346Y-80679976D01*
X139038134Y-80697219D01*
X139049170Y-80715632D01*
X139058349Y-80735038D01*
X139065581Y-80755250D01*
X139070797Y-80776074D01*
X139073947Y-80797309D01*
X139075000Y-80818750D01*
X139075000Y-81331250D01*
X139073947Y-81352691D01*
X139070797Y-81373926D01*
X139065581Y-81394750D01*
X139058349Y-81414962D01*
X139049170Y-81434368D01*
X139038134Y-81452781D01*
X139025346Y-81470024D01*
X139010930Y-81485930D01*
X138995024Y-81500346D01*
X138977781Y-81513134D01*
X138959368Y-81524170D01*
X138939962Y-81533349D01*
X138919750Y-81540581D01*
X138898926Y-81545797D01*
X138877691Y-81548947D01*
X138856250Y-81550000D01*
X138418750Y-81550000D01*
X138397309Y-81548947D01*
X138376074Y-81545797D01*
X138355250Y-81540581D01*
X138335038Y-81533349D01*
X138315632Y-81524170D01*
X138297219Y-81513134D01*
X138279976Y-81500346D01*
X138264070Y-81485930D01*
X138249654Y-81470024D01*
X138236866Y-81452781D01*
X138225830Y-81434368D01*
X138216651Y-81414962D01*
X138209419Y-81394750D01*
X138204203Y-81373926D01*
X138201053Y-81352691D01*
X138200000Y-81331250D01*
X138200000Y-80818750D01*
X138201053Y-80797309D01*
X138204203Y-80776074D01*
X138209419Y-80755250D01*
X138216651Y-80735038D01*
X138225830Y-80715632D01*
X138236866Y-80697219D01*
X138249654Y-80679976D01*
X138264070Y-80664070D01*
X138279976Y-80649654D01*
X138297219Y-80636866D01*
X138315632Y-80625830D01*
X138335038Y-80616651D01*
X138355250Y-80609419D01*
X138376074Y-80604203D01*
X138397309Y-80601053D01*
X138418750Y-80600000D01*
X138856250Y-80600000D01*
X138877691Y-80601053D01*
G37*
G36*
X140452691Y-80601053D02*
G01*
X140473926Y-80604203D01*
X140494750Y-80609419D01*
X140514962Y-80616651D01*
X140534368Y-80625830D01*
X140552781Y-80636866D01*
X140570024Y-80649654D01*
X140585930Y-80664070D01*
X140600346Y-80679976D01*
X140613134Y-80697219D01*
X140624170Y-80715632D01*
X140633349Y-80735038D01*
X140640581Y-80755250D01*
X140645797Y-80776074D01*
X140648947Y-80797309D01*
X140650000Y-80818750D01*
X140650000Y-81331250D01*
X140648947Y-81352691D01*
X140645797Y-81373926D01*
X140640581Y-81394750D01*
X140633349Y-81414962D01*
X140624170Y-81434368D01*
X140613134Y-81452781D01*
X140600346Y-81470024D01*
X140585930Y-81485930D01*
X140570024Y-81500346D01*
X140552781Y-81513134D01*
X140534368Y-81524170D01*
X140514962Y-81533349D01*
X140494750Y-81540581D01*
X140473926Y-81545797D01*
X140452691Y-81548947D01*
X140431250Y-81550000D01*
X139993750Y-81550000D01*
X139972309Y-81548947D01*
X139951074Y-81545797D01*
X139930250Y-81540581D01*
X139910038Y-81533349D01*
X139890632Y-81524170D01*
X139872219Y-81513134D01*
X139854976Y-81500346D01*
X139839070Y-81485930D01*
X139824654Y-81470024D01*
X139811866Y-81452781D01*
X139800830Y-81434368D01*
X139791651Y-81414962D01*
X139784419Y-81394750D01*
X139779203Y-81373926D01*
X139776053Y-81352691D01*
X139775000Y-81331250D01*
X139775000Y-80818750D01*
X139776053Y-80797309D01*
X139779203Y-80776074D01*
X139784419Y-80755250D01*
X139791651Y-80735038D01*
X139800830Y-80715632D01*
X139811866Y-80697219D01*
X139824654Y-80679976D01*
X139839070Y-80664070D01*
X139854976Y-80649654D01*
X139872219Y-80636866D01*
X139890632Y-80625830D01*
X139910038Y-80616651D01*
X139930250Y-80609419D01*
X139951074Y-80604203D01*
X139972309Y-80601053D01*
X139993750Y-80600000D01*
X140431250Y-80600000D01*
X140452691Y-80601053D01*
G37*
G36*
X133340191Y-95051053D02*
G01*
X133361426Y-95054203D01*
X133382250Y-95059419D01*
X133402462Y-95066651D01*
X133421868Y-95075830D01*
X133440281Y-95086866D01*
X133457524Y-95099654D01*
X133473430Y-95114070D01*
X133487846Y-95129976D01*
X133500634Y-95147219D01*
X133511670Y-95165632D01*
X133520849Y-95185038D01*
X133528081Y-95205250D01*
X133533297Y-95226074D01*
X133536447Y-95247309D01*
X133537500Y-95268750D01*
X133537500Y-95781250D01*
X133536447Y-95802691D01*
X133533297Y-95823926D01*
X133528081Y-95844750D01*
X133520849Y-95864962D01*
X133511670Y-95884368D01*
X133500634Y-95902781D01*
X133487846Y-95920024D01*
X133473430Y-95935930D01*
X133457524Y-95950346D01*
X133440281Y-95963134D01*
X133421868Y-95974170D01*
X133402462Y-95983349D01*
X133382250Y-95990581D01*
X133361426Y-95995797D01*
X133340191Y-95998947D01*
X133318750Y-96000000D01*
X132881250Y-96000000D01*
X132859809Y-95998947D01*
X132838574Y-95995797D01*
X132817750Y-95990581D01*
X132797538Y-95983349D01*
X132778132Y-95974170D01*
X132759719Y-95963134D01*
X132742476Y-95950346D01*
X132726570Y-95935930D01*
X132712154Y-95920024D01*
X132699366Y-95902781D01*
X132688330Y-95884368D01*
X132679151Y-95864962D01*
X132671919Y-95844750D01*
X132666703Y-95823926D01*
X132663553Y-95802691D01*
X132662500Y-95781250D01*
X132662500Y-95268750D01*
X132663553Y-95247309D01*
X132666703Y-95226074D01*
X132671919Y-95205250D01*
X132679151Y-95185038D01*
X132688330Y-95165632D01*
X132699366Y-95147219D01*
X132712154Y-95129976D01*
X132726570Y-95114070D01*
X132742476Y-95099654D01*
X132759719Y-95086866D01*
X132778132Y-95075830D01*
X132797538Y-95066651D01*
X132817750Y-95059419D01*
X132838574Y-95054203D01*
X132859809Y-95051053D01*
X132881250Y-95050000D01*
X133318750Y-95050000D01*
X133340191Y-95051053D01*
G37*
G36*
X134915191Y-95051053D02*
G01*
X134936426Y-95054203D01*
X134957250Y-95059419D01*
X134977462Y-95066651D01*
X134996868Y-95075830D01*
X135015281Y-95086866D01*
X135032524Y-95099654D01*
X135048430Y-95114070D01*
X135062846Y-95129976D01*
X135075634Y-95147219D01*
X135086670Y-95165632D01*
X135095849Y-95185038D01*
X135103081Y-95205250D01*
X135108297Y-95226074D01*
X135111447Y-95247309D01*
X135112500Y-95268750D01*
X135112500Y-95781250D01*
X135111447Y-95802691D01*
X135108297Y-95823926D01*
X135103081Y-95844750D01*
X135095849Y-95864962D01*
X135086670Y-95884368D01*
X135075634Y-95902781D01*
X135062846Y-95920024D01*
X135048430Y-95935930D01*
X135032524Y-95950346D01*
X135015281Y-95963134D01*
X134996868Y-95974170D01*
X134977462Y-95983349D01*
X134957250Y-95990581D01*
X134936426Y-95995797D01*
X134915191Y-95998947D01*
X134893750Y-96000000D01*
X134456250Y-96000000D01*
X134434809Y-95998947D01*
X134413574Y-95995797D01*
X134392750Y-95990581D01*
X134372538Y-95983349D01*
X134353132Y-95974170D01*
X134334719Y-95963134D01*
X134317476Y-95950346D01*
X134301570Y-95935930D01*
X134287154Y-95920024D01*
X134274366Y-95902781D01*
X134263330Y-95884368D01*
X134254151Y-95864962D01*
X134246919Y-95844750D01*
X134241703Y-95823926D01*
X134238553Y-95802691D01*
X134237500Y-95781250D01*
X134237500Y-95268750D01*
X134238553Y-95247309D01*
X134241703Y-95226074D01*
X134246919Y-95205250D01*
X134254151Y-95185038D01*
X134263330Y-95165632D01*
X134274366Y-95147219D01*
X134287154Y-95129976D01*
X134301570Y-95114070D01*
X134317476Y-95099654D01*
X134334719Y-95086866D01*
X134353132Y-95075830D01*
X134372538Y-95066651D01*
X134392750Y-95059419D01*
X134413574Y-95054203D01*
X134434809Y-95051053D01*
X134456250Y-95050000D01*
X134893750Y-95050000D01*
X134915191Y-95051053D01*
G37*
G36*
X134890191Y-93401053D02*
G01*
X134911426Y-93404203D01*
X134932250Y-93409419D01*
X134952462Y-93416651D01*
X134971868Y-93425830D01*
X134990281Y-93436866D01*
X135007524Y-93449654D01*
X135023430Y-93464070D01*
X135037846Y-93479976D01*
X135050634Y-93497219D01*
X135061670Y-93515632D01*
X135070849Y-93535038D01*
X135078081Y-93555250D01*
X135083297Y-93576074D01*
X135086447Y-93597309D01*
X135087500Y-93618750D01*
X135087500Y-94131250D01*
X135086447Y-94152691D01*
X135083297Y-94173926D01*
X135078081Y-94194750D01*
X135070849Y-94214962D01*
X135061670Y-94234368D01*
X135050634Y-94252781D01*
X135037846Y-94270024D01*
X135023430Y-94285930D01*
X135007524Y-94300346D01*
X134990281Y-94313134D01*
X134971868Y-94324170D01*
X134952462Y-94333349D01*
X134932250Y-94340581D01*
X134911426Y-94345797D01*
X134890191Y-94348947D01*
X134868750Y-94350000D01*
X134431250Y-94350000D01*
X134409809Y-94348947D01*
X134388574Y-94345797D01*
X134367750Y-94340581D01*
X134347538Y-94333349D01*
X134328132Y-94324170D01*
X134309719Y-94313134D01*
X134292476Y-94300346D01*
X134276570Y-94285930D01*
X134262154Y-94270024D01*
X134249366Y-94252781D01*
X134238330Y-94234368D01*
X134229151Y-94214962D01*
X134221919Y-94194750D01*
X134216703Y-94173926D01*
X134213553Y-94152691D01*
X134212500Y-94131250D01*
X134212500Y-93618750D01*
X134213553Y-93597309D01*
X134216703Y-93576074D01*
X134221919Y-93555250D01*
X134229151Y-93535038D01*
X134238330Y-93515632D01*
X134249366Y-93497219D01*
X134262154Y-93479976D01*
X134276570Y-93464070D01*
X134292476Y-93449654D01*
X134309719Y-93436866D01*
X134328132Y-93425830D01*
X134347538Y-93416651D01*
X134367750Y-93409419D01*
X134388574Y-93404203D01*
X134409809Y-93401053D01*
X134431250Y-93400000D01*
X134868750Y-93400000D01*
X134890191Y-93401053D01*
G37*
G36*
X133315191Y-93401053D02*
G01*
X133336426Y-93404203D01*
X133357250Y-93409419D01*
X133377462Y-93416651D01*
X133396868Y-93425830D01*
X133415281Y-93436866D01*
X133432524Y-93449654D01*
X133448430Y-93464070D01*
X133462846Y-93479976D01*
X133475634Y-93497219D01*
X133486670Y-93515632D01*
X133495849Y-93535038D01*
X133503081Y-93555250D01*
X133508297Y-93576074D01*
X133511447Y-93597309D01*
X133512500Y-93618750D01*
X133512500Y-94131250D01*
X133511447Y-94152691D01*
X133508297Y-94173926D01*
X133503081Y-94194750D01*
X133495849Y-94214962D01*
X133486670Y-94234368D01*
X133475634Y-94252781D01*
X133462846Y-94270024D01*
X133448430Y-94285930D01*
X133432524Y-94300346D01*
X133415281Y-94313134D01*
X133396868Y-94324170D01*
X133377462Y-94333349D01*
X133357250Y-94340581D01*
X133336426Y-94345797D01*
X133315191Y-94348947D01*
X133293750Y-94350000D01*
X132856250Y-94350000D01*
X132834809Y-94348947D01*
X132813574Y-94345797D01*
X132792750Y-94340581D01*
X132772538Y-94333349D01*
X132753132Y-94324170D01*
X132734719Y-94313134D01*
X132717476Y-94300346D01*
X132701570Y-94285930D01*
X132687154Y-94270024D01*
X132674366Y-94252781D01*
X132663330Y-94234368D01*
X132654151Y-94214962D01*
X132646919Y-94194750D01*
X132641703Y-94173926D01*
X132638553Y-94152691D01*
X132637500Y-94131250D01*
X132637500Y-93618750D01*
X132638553Y-93597309D01*
X132641703Y-93576074D01*
X132646919Y-93555250D01*
X132654151Y-93535038D01*
X132663330Y-93515632D01*
X132674366Y-93497219D01*
X132687154Y-93479976D01*
X132701570Y-93464070D01*
X132717476Y-93449654D01*
X132734719Y-93436866D01*
X132753132Y-93425830D01*
X132772538Y-93416651D01*
X132792750Y-93409419D01*
X132813574Y-93404203D01*
X132834809Y-93401053D01*
X132856250Y-93400000D01*
X133293750Y-93400000D01*
X133315191Y-93401053D01*
G37*
G36*
X133290191Y-91726053D02*
G01*
X133311426Y-91729203D01*
X133332250Y-91734419D01*
X133352462Y-91741651D01*
X133371868Y-91750830D01*
X133390281Y-91761866D01*
X133407524Y-91774654D01*
X133423430Y-91789070D01*
X133437846Y-91804976D01*
X133450634Y-91822219D01*
X133461670Y-91840632D01*
X133470849Y-91860038D01*
X133478081Y-91880250D01*
X133483297Y-91901074D01*
X133486447Y-91922309D01*
X133487500Y-91943750D01*
X133487500Y-92456250D01*
X133486447Y-92477691D01*
X133483297Y-92498926D01*
X133478081Y-92519750D01*
X133470849Y-92539962D01*
X133461670Y-92559368D01*
X133450634Y-92577781D01*
X133437846Y-92595024D01*
X133423430Y-92610930D01*
X133407524Y-92625346D01*
X133390281Y-92638134D01*
X133371868Y-92649170D01*
X133352462Y-92658349D01*
X133332250Y-92665581D01*
X133311426Y-92670797D01*
X133290191Y-92673947D01*
X133268750Y-92675000D01*
X132831250Y-92675000D01*
X132809809Y-92673947D01*
X132788574Y-92670797D01*
X132767750Y-92665581D01*
X132747538Y-92658349D01*
X132728132Y-92649170D01*
X132709719Y-92638134D01*
X132692476Y-92625346D01*
X132676570Y-92610930D01*
X132662154Y-92595024D01*
X132649366Y-92577781D01*
X132638330Y-92559368D01*
X132629151Y-92539962D01*
X132621919Y-92519750D01*
X132616703Y-92498926D01*
X132613553Y-92477691D01*
X132612500Y-92456250D01*
X132612500Y-91943750D01*
X132613553Y-91922309D01*
X132616703Y-91901074D01*
X132621919Y-91880250D01*
X132629151Y-91860038D01*
X132638330Y-91840632D01*
X132649366Y-91822219D01*
X132662154Y-91804976D01*
X132676570Y-91789070D01*
X132692476Y-91774654D01*
X132709719Y-91761866D01*
X132728132Y-91750830D01*
X132747538Y-91741651D01*
X132767750Y-91734419D01*
X132788574Y-91729203D01*
X132809809Y-91726053D01*
X132831250Y-91725000D01*
X133268750Y-91725000D01*
X133290191Y-91726053D01*
G37*
G36*
X134865191Y-91726053D02*
G01*
X134886426Y-91729203D01*
X134907250Y-91734419D01*
X134927462Y-91741651D01*
X134946868Y-91750830D01*
X134965281Y-91761866D01*
X134982524Y-91774654D01*
X134998430Y-91789070D01*
X135012846Y-91804976D01*
X135025634Y-91822219D01*
X135036670Y-91840632D01*
X135045849Y-91860038D01*
X135053081Y-91880250D01*
X135058297Y-91901074D01*
X135061447Y-91922309D01*
X135062500Y-91943750D01*
X135062500Y-92456250D01*
X135061447Y-92477691D01*
X135058297Y-92498926D01*
X135053081Y-92519750D01*
X135045849Y-92539962D01*
X135036670Y-92559368D01*
X135025634Y-92577781D01*
X135012846Y-92595024D01*
X134998430Y-92610930D01*
X134982524Y-92625346D01*
X134965281Y-92638134D01*
X134946868Y-92649170D01*
X134927462Y-92658349D01*
X134907250Y-92665581D01*
X134886426Y-92670797D01*
X134865191Y-92673947D01*
X134843750Y-92675000D01*
X134406250Y-92675000D01*
X134384809Y-92673947D01*
X134363574Y-92670797D01*
X134342750Y-92665581D01*
X134322538Y-92658349D01*
X134303132Y-92649170D01*
X134284719Y-92638134D01*
X134267476Y-92625346D01*
X134251570Y-92610930D01*
X134237154Y-92595024D01*
X134224366Y-92577781D01*
X134213330Y-92559368D01*
X134204151Y-92539962D01*
X134196919Y-92519750D01*
X134191703Y-92498926D01*
X134188553Y-92477691D01*
X134187500Y-92456250D01*
X134187500Y-91943750D01*
X134188553Y-91922309D01*
X134191703Y-91901074D01*
X134196919Y-91880250D01*
X134204151Y-91860038D01*
X134213330Y-91840632D01*
X134224366Y-91822219D01*
X134237154Y-91804976D01*
X134251570Y-91789070D01*
X134267476Y-91774654D01*
X134284719Y-91761866D01*
X134303132Y-91750830D01*
X134322538Y-91741651D01*
X134342750Y-91734419D01*
X134363574Y-91729203D01*
X134384809Y-91726053D01*
X134406250Y-91725000D01*
X134843750Y-91725000D01*
X134865191Y-91726053D01*
G37*
G36*
X140477691Y-79001053D02*
G01*
X140498926Y-79004203D01*
X140519750Y-79009419D01*
X140539962Y-79016651D01*
X140559368Y-79025830D01*
X140577781Y-79036866D01*
X140595024Y-79049654D01*
X140610930Y-79064070D01*
X140625346Y-79079976D01*
X140638134Y-79097219D01*
X140649170Y-79115632D01*
X140658349Y-79135038D01*
X140665581Y-79155250D01*
X140670797Y-79176074D01*
X140673947Y-79197309D01*
X140675000Y-79218750D01*
X140675000Y-79731250D01*
X140673947Y-79752691D01*
X140670797Y-79773926D01*
X140665581Y-79794750D01*
X140658349Y-79814962D01*
X140649170Y-79834368D01*
X140638134Y-79852781D01*
X140625346Y-79870024D01*
X140610930Y-79885930D01*
X140595024Y-79900346D01*
X140577781Y-79913134D01*
X140559368Y-79924170D01*
X140539962Y-79933349D01*
X140519750Y-79940581D01*
X140498926Y-79945797D01*
X140477691Y-79948947D01*
X140456250Y-79950000D01*
X140018750Y-79950000D01*
X139997309Y-79948947D01*
X139976074Y-79945797D01*
X139955250Y-79940581D01*
X139935038Y-79933349D01*
X139915632Y-79924170D01*
X139897219Y-79913134D01*
X139879976Y-79900346D01*
X139864070Y-79885930D01*
X139849654Y-79870024D01*
X139836866Y-79852781D01*
X139825830Y-79834368D01*
X139816651Y-79814962D01*
X139809419Y-79794750D01*
X139804203Y-79773926D01*
X139801053Y-79752691D01*
X139800000Y-79731250D01*
X139800000Y-79218750D01*
X139801053Y-79197309D01*
X139804203Y-79176074D01*
X139809419Y-79155250D01*
X139816651Y-79135038D01*
X139825830Y-79115632D01*
X139836866Y-79097219D01*
X139849654Y-79079976D01*
X139864070Y-79064070D01*
X139879976Y-79049654D01*
X139897219Y-79036866D01*
X139915632Y-79025830D01*
X139935038Y-79016651D01*
X139955250Y-79009419D01*
X139976074Y-79004203D01*
X139997309Y-79001053D01*
X140018750Y-79000000D01*
X140456250Y-79000000D01*
X140477691Y-79001053D01*
G37*
G36*
X138902691Y-79001053D02*
G01*
X138923926Y-79004203D01*
X138944750Y-79009419D01*
X138964962Y-79016651D01*
X138984368Y-79025830D01*
X139002781Y-79036866D01*
X139020024Y-79049654D01*
X139035930Y-79064070D01*
X139050346Y-79079976D01*
X139063134Y-79097219D01*
X139074170Y-79115632D01*
X139083349Y-79135038D01*
X139090581Y-79155250D01*
X139095797Y-79176074D01*
X139098947Y-79197309D01*
X139100000Y-79218750D01*
X139100000Y-79731250D01*
X139098947Y-79752691D01*
X139095797Y-79773926D01*
X139090581Y-79794750D01*
X139083349Y-79814962D01*
X139074170Y-79834368D01*
X139063134Y-79852781D01*
X139050346Y-79870024D01*
X139035930Y-79885930D01*
X139020024Y-79900346D01*
X139002781Y-79913134D01*
X138984368Y-79924170D01*
X138964962Y-79933349D01*
X138944750Y-79940581D01*
X138923926Y-79945797D01*
X138902691Y-79948947D01*
X138881250Y-79950000D01*
X138443750Y-79950000D01*
X138422309Y-79948947D01*
X138401074Y-79945797D01*
X138380250Y-79940581D01*
X138360038Y-79933349D01*
X138340632Y-79924170D01*
X138322219Y-79913134D01*
X138304976Y-79900346D01*
X138289070Y-79885930D01*
X138274654Y-79870024D01*
X138261866Y-79852781D01*
X138250830Y-79834368D01*
X138241651Y-79814962D01*
X138234419Y-79794750D01*
X138229203Y-79773926D01*
X138226053Y-79752691D01*
X138225000Y-79731250D01*
X138225000Y-79218750D01*
X138226053Y-79197309D01*
X138229203Y-79176074D01*
X138234419Y-79155250D01*
X138241651Y-79135038D01*
X138250830Y-79115632D01*
X138261866Y-79097219D01*
X138274654Y-79079976D01*
X138289070Y-79064070D01*
X138304976Y-79049654D01*
X138322219Y-79036866D01*
X138340632Y-79025830D01*
X138360038Y-79016651D01*
X138380250Y-79009419D01*
X138401074Y-79004203D01*
X138422309Y-79001053D01*
X138443750Y-79000000D01*
X138881250Y-79000000D01*
X138902691Y-79001053D01*
G37*
G36*
X143665191Y-79001053D02*
G01*
X143686426Y-79004203D01*
X143707250Y-79009419D01*
X143727462Y-79016651D01*
X143746868Y-79025830D01*
X143765281Y-79036866D01*
X143782524Y-79049654D01*
X143798430Y-79064070D01*
X143812846Y-79079976D01*
X143825634Y-79097219D01*
X143836670Y-79115632D01*
X143845849Y-79135038D01*
X143853081Y-79155250D01*
X143858297Y-79176074D01*
X143861447Y-79197309D01*
X143862500Y-79218750D01*
X143862500Y-79731250D01*
X143861447Y-79752691D01*
X143858297Y-79773926D01*
X143853081Y-79794750D01*
X143845849Y-79814962D01*
X143836670Y-79834368D01*
X143825634Y-79852781D01*
X143812846Y-79870024D01*
X143798430Y-79885930D01*
X143782524Y-79900346D01*
X143765281Y-79913134D01*
X143746868Y-79924170D01*
X143727462Y-79933349D01*
X143707250Y-79940581D01*
X143686426Y-79945797D01*
X143665191Y-79948947D01*
X143643750Y-79950000D01*
X143206250Y-79950000D01*
X143184809Y-79948947D01*
X143163574Y-79945797D01*
X143142750Y-79940581D01*
X143122538Y-79933349D01*
X143103132Y-79924170D01*
X143084719Y-79913134D01*
X143067476Y-79900346D01*
X143051570Y-79885930D01*
X143037154Y-79870024D01*
X143024366Y-79852781D01*
X143013330Y-79834368D01*
X143004151Y-79814962D01*
X142996919Y-79794750D01*
X142991703Y-79773926D01*
X142988553Y-79752691D01*
X142987500Y-79731250D01*
X142987500Y-79218750D01*
X142988553Y-79197309D01*
X142991703Y-79176074D01*
X142996919Y-79155250D01*
X143004151Y-79135038D01*
X143013330Y-79115632D01*
X143024366Y-79097219D01*
X143037154Y-79079976D01*
X143051570Y-79064070D01*
X143067476Y-79049654D01*
X143084719Y-79036866D01*
X143103132Y-79025830D01*
X143122538Y-79016651D01*
X143142750Y-79009419D01*
X143163574Y-79004203D01*
X143184809Y-79001053D01*
X143206250Y-79000000D01*
X143643750Y-79000000D01*
X143665191Y-79001053D01*
G37*
G36*
X142090191Y-79001053D02*
G01*
X142111426Y-79004203D01*
X142132250Y-79009419D01*
X142152462Y-79016651D01*
X142171868Y-79025830D01*
X142190281Y-79036866D01*
X142207524Y-79049654D01*
X142223430Y-79064070D01*
X142237846Y-79079976D01*
X142250634Y-79097219D01*
X142261670Y-79115632D01*
X142270849Y-79135038D01*
X142278081Y-79155250D01*
X142283297Y-79176074D01*
X142286447Y-79197309D01*
X142287500Y-79218750D01*
X142287500Y-79731250D01*
X142286447Y-79752691D01*
X142283297Y-79773926D01*
X142278081Y-79794750D01*
X142270849Y-79814962D01*
X142261670Y-79834368D01*
X142250634Y-79852781D01*
X142237846Y-79870024D01*
X142223430Y-79885930D01*
X142207524Y-79900346D01*
X142190281Y-79913134D01*
X142171868Y-79924170D01*
X142152462Y-79933349D01*
X142132250Y-79940581D01*
X142111426Y-79945797D01*
X142090191Y-79948947D01*
X142068750Y-79950000D01*
X141631250Y-79950000D01*
X141609809Y-79948947D01*
X141588574Y-79945797D01*
X141567750Y-79940581D01*
X141547538Y-79933349D01*
X141528132Y-79924170D01*
X141509719Y-79913134D01*
X141492476Y-79900346D01*
X141476570Y-79885930D01*
X141462154Y-79870024D01*
X141449366Y-79852781D01*
X141438330Y-79834368D01*
X141429151Y-79814962D01*
X141421919Y-79794750D01*
X141416703Y-79773926D01*
X141413553Y-79752691D01*
X141412500Y-79731250D01*
X141412500Y-79218750D01*
X141413553Y-79197309D01*
X141416703Y-79176074D01*
X141421919Y-79155250D01*
X141429151Y-79135038D01*
X141438330Y-79115632D01*
X141449366Y-79097219D01*
X141462154Y-79079976D01*
X141476570Y-79064070D01*
X141492476Y-79049654D01*
X141509719Y-79036866D01*
X141528132Y-79025830D01*
X141547538Y-79016651D01*
X141567750Y-79009419D01*
X141588574Y-79004203D01*
X141609809Y-79001053D01*
X141631250Y-79000000D01*
X142068750Y-79000000D01*
X142090191Y-79001053D01*
G37*
G36*
X133252691Y-88301053D02*
G01*
X133273926Y-88304203D01*
X133294750Y-88309419D01*
X133314962Y-88316651D01*
X133334368Y-88325830D01*
X133352781Y-88336866D01*
X133370024Y-88349654D01*
X133385930Y-88364070D01*
X133400346Y-88379976D01*
X133413134Y-88397219D01*
X133424170Y-88415632D01*
X133433349Y-88435038D01*
X133440581Y-88455250D01*
X133445797Y-88476074D01*
X133448947Y-88497309D01*
X133450000Y-88518750D01*
X133450000Y-89031250D01*
X133448947Y-89052691D01*
X133445797Y-89073926D01*
X133440581Y-89094750D01*
X133433349Y-89114962D01*
X133424170Y-89134368D01*
X133413134Y-89152781D01*
X133400346Y-89170024D01*
X133385930Y-89185930D01*
X133370024Y-89200346D01*
X133352781Y-89213134D01*
X133334368Y-89224170D01*
X133314962Y-89233349D01*
X133294750Y-89240581D01*
X133273926Y-89245797D01*
X133252691Y-89248947D01*
X133231250Y-89250000D01*
X132793750Y-89250000D01*
X132772309Y-89248947D01*
X132751074Y-89245797D01*
X132730250Y-89240581D01*
X132710038Y-89233349D01*
X132690632Y-89224170D01*
X132672219Y-89213134D01*
X132654976Y-89200346D01*
X132639070Y-89185930D01*
X132624654Y-89170024D01*
X132611866Y-89152781D01*
X132600830Y-89134368D01*
X132591651Y-89114962D01*
X132584419Y-89094750D01*
X132579203Y-89073926D01*
X132576053Y-89052691D01*
X132575000Y-89031250D01*
X132575000Y-88518750D01*
X132576053Y-88497309D01*
X132579203Y-88476074D01*
X132584419Y-88455250D01*
X132591651Y-88435038D01*
X132600830Y-88415632D01*
X132611866Y-88397219D01*
X132624654Y-88379976D01*
X132639070Y-88364070D01*
X132654976Y-88349654D01*
X132672219Y-88336866D01*
X132690632Y-88325830D01*
X132710038Y-88316651D01*
X132730250Y-88309419D01*
X132751074Y-88304203D01*
X132772309Y-88301053D01*
X132793750Y-88300000D01*
X133231250Y-88300000D01*
X133252691Y-88301053D01*
G37*
G36*
X134827691Y-88301053D02*
G01*
X134848926Y-88304203D01*
X134869750Y-88309419D01*
X134889962Y-88316651D01*
X134909368Y-88325830D01*
X134927781Y-88336866D01*
X134945024Y-88349654D01*
X134960930Y-88364070D01*
X134975346Y-88379976D01*
X134988134Y-88397219D01*
X134999170Y-88415632D01*
X135008349Y-88435038D01*
X135015581Y-88455250D01*
X135020797Y-88476074D01*
X135023947Y-88497309D01*
X135025000Y-88518750D01*
X135025000Y-89031250D01*
X135023947Y-89052691D01*
X135020797Y-89073926D01*
X135015581Y-89094750D01*
X135008349Y-89114962D01*
X134999170Y-89134368D01*
X134988134Y-89152781D01*
X134975346Y-89170024D01*
X134960930Y-89185930D01*
X134945024Y-89200346D01*
X134927781Y-89213134D01*
X134909368Y-89224170D01*
X134889962Y-89233349D01*
X134869750Y-89240581D01*
X134848926Y-89245797D01*
X134827691Y-89248947D01*
X134806250Y-89250000D01*
X134368750Y-89250000D01*
X134347309Y-89248947D01*
X134326074Y-89245797D01*
X134305250Y-89240581D01*
X134285038Y-89233349D01*
X134265632Y-89224170D01*
X134247219Y-89213134D01*
X134229976Y-89200346D01*
X134214070Y-89185930D01*
X134199654Y-89170024D01*
X134186866Y-89152781D01*
X134175830Y-89134368D01*
X134166651Y-89114962D01*
X134159419Y-89094750D01*
X134154203Y-89073926D01*
X134151053Y-89052691D01*
X134150000Y-89031250D01*
X134150000Y-88518750D01*
X134151053Y-88497309D01*
X134154203Y-88476074D01*
X134159419Y-88455250D01*
X134166651Y-88435038D01*
X134175830Y-88415632D01*
X134186866Y-88397219D01*
X134199654Y-88379976D01*
X134214070Y-88364070D01*
X134229976Y-88349654D01*
X134247219Y-88336866D01*
X134265632Y-88325830D01*
X134285038Y-88316651D01*
X134305250Y-88309419D01*
X134326074Y-88304203D01*
X134347309Y-88301053D01*
X134368750Y-88300000D01*
X134806250Y-88300000D01*
X134827691Y-88301053D01*
G37*
G36*
X134815191Y-86651053D02*
G01*
X134836426Y-86654203D01*
X134857250Y-86659419D01*
X134877462Y-86666651D01*
X134896868Y-86675830D01*
X134915281Y-86686866D01*
X134932524Y-86699654D01*
X134948430Y-86714070D01*
X134962846Y-86729976D01*
X134975634Y-86747219D01*
X134986670Y-86765632D01*
X134995849Y-86785038D01*
X135003081Y-86805250D01*
X135008297Y-86826074D01*
X135011447Y-86847309D01*
X135012500Y-86868750D01*
X135012500Y-87381250D01*
X135011447Y-87402691D01*
X135008297Y-87423926D01*
X135003081Y-87444750D01*
X134995849Y-87464962D01*
X134986670Y-87484368D01*
X134975634Y-87502781D01*
X134962846Y-87520024D01*
X134948430Y-87535930D01*
X134932524Y-87550346D01*
X134915281Y-87563134D01*
X134896868Y-87574170D01*
X134877462Y-87583349D01*
X134857250Y-87590581D01*
X134836426Y-87595797D01*
X134815191Y-87598947D01*
X134793750Y-87600000D01*
X134356250Y-87600000D01*
X134334809Y-87598947D01*
X134313574Y-87595797D01*
X134292750Y-87590581D01*
X134272538Y-87583349D01*
X134253132Y-87574170D01*
X134234719Y-87563134D01*
X134217476Y-87550346D01*
X134201570Y-87535930D01*
X134187154Y-87520024D01*
X134174366Y-87502781D01*
X134163330Y-87484368D01*
X134154151Y-87464962D01*
X134146919Y-87444750D01*
X134141703Y-87423926D01*
X134138553Y-87402691D01*
X134137500Y-87381250D01*
X134137500Y-86868750D01*
X134138553Y-86847309D01*
X134141703Y-86826074D01*
X134146919Y-86805250D01*
X134154151Y-86785038D01*
X134163330Y-86765632D01*
X134174366Y-86747219D01*
X134187154Y-86729976D01*
X134201570Y-86714070D01*
X134217476Y-86699654D01*
X134234719Y-86686866D01*
X134253132Y-86675830D01*
X134272538Y-86666651D01*
X134292750Y-86659419D01*
X134313574Y-86654203D01*
X134334809Y-86651053D01*
X134356250Y-86650000D01*
X134793750Y-86650000D01*
X134815191Y-86651053D01*
G37*
G36*
X133240191Y-86651053D02*
G01*
X133261426Y-86654203D01*
X133282250Y-86659419D01*
X133302462Y-86666651D01*
X133321868Y-86675830D01*
X133340281Y-86686866D01*
X133357524Y-86699654D01*
X133373430Y-86714070D01*
X133387846Y-86729976D01*
X133400634Y-86747219D01*
X133411670Y-86765632D01*
X133420849Y-86785038D01*
X133428081Y-86805250D01*
X133433297Y-86826074D01*
X133436447Y-86847309D01*
X133437500Y-86868750D01*
X133437500Y-87381250D01*
X133436447Y-87402691D01*
X133433297Y-87423926D01*
X133428081Y-87444750D01*
X133420849Y-87464962D01*
X133411670Y-87484368D01*
X133400634Y-87502781D01*
X133387846Y-87520024D01*
X133373430Y-87535930D01*
X133357524Y-87550346D01*
X133340281Y-87563134D01*
X133321868Y-87574170D01*
X133302462Y-87583349D01*
X133282250Y-87590581D01*
X133261426Y-87595797D01*
X133240191Y-87598947D01*
X133218750Y-87600000D01*
X132781250Y-87600000D01*
X132759809Y-87598947D01*
X132738574Y-87595797D01*
X132717750Y-87590581D01*
X132697538Y-87583349D01*
X132678132Y-87574170D01*
X132659719Y-87563134D01*
X132642476Y-87550346D01*
X132626570Y-87535930D01*
X132612154Y-87520024D01*
X132599366Y-87502781D01*
X132588330Y-87484368D01*
X132579151Y-87464962D01*
X132571919Y-87444750D01*
X132566703Y-87423926D01*
X132563553Y-87402691D01*
X132562500Y-87381250D01*
X132562500Y-86868750D01*
X132563553Y-86847309D01*
X132566703Y-86826074D01*
X132571919Y-86805250D01*
X132579151Y-86785038D01*
X132588330Y-86765632D01*
X132599366Y-86747219D01*
X132612154Y-86729976D01*
X132626570Y-86714070D01*
X132642476Y-86699654D01*
X132659719Y-86686866D01*
X132678132Y-86675830D01*
X132697538Y-86666651D01*
X132717750Y-86659419D01*
X132738574Y-86654203D01*
X132759809Y-86651053D01*
X132781250Y-86650000D01*
X133218750Y-86650000D01*
X133240191Y-86651053D01*
G37*
G36*
X133277691Y-90051053D02*
G01*
X133298926Y-90054203D01*
X133319750Y-90059419D01*
X133339962Y-90066651D01*
X133359368Y-90075830D01*
X133377781Y-90086866D01*
X133395024Y-90099654D01*
X133410930Y-90114070D01*
X133425346Y-90129976D01*
X133438134Y-90147219D01*
X133449170Y-90165632D01*
X133458349Y-90185038D01*
X133465581Y-90205250D01*
X133470797Y-90226074D01*
X133473947Y-90247309D01*
X133475000Y-90268750D01*
X133475000Y-90781250D01*
X133473947Y-90802691D01*
X133470797Y-90823926D01*
X133465581Y-90844750D01*
X133458349Y-90864962D01*
X133449170Y-90884368D01*
X133438134Y-90902781D01*
X133425346Y-90920024D01*
X133410930Y-90935930D01*
X133395024Y-90950346D01*
X133377781Y-90963134D01*
X133359368Y-90974170D01*
X133339962Y-90983349D01*
X133319750Y-90990581D01*
X133298926Y-90995797D01*
X133277691Y-90998947D01*
X133256250Y-91000000D01*
X132818750Y-91000000D01*
X132797309Y-90998947D01*
X132776074Y-90995797D01*
X132755250Y-90990581D01*
X132735038Y-90983349D01*
X132715632Y-90974170D01*
X132697219Y-90963134D01*
X132679976Y-90950346D01*
X132664070Y-90935930D01*
X132649654Y-90920024D01*
X132636866Y-90902781D01*
X132625830Y-90884368D01*
X132616651Y-90864962D01*
X132609419Y-90844750D01*
X132604203Y-90823926D01*
X132601053Y-90802691D01*
X132600000Y-90781250D01*
X132600000Y-90268750D01*
X132601053Y-90247309D01*
X132604203Y-90226074D01*
X132609419Y-90205250D01*
X132616651Y-90185038D01*
X132625830Y-90165632D01*
X132636866Y-90147219D01*
X132649654Y-90129976D01*
X132664070Y-90114070D01*
X132679976Y-90099654D01*
X132697219Y-90086866D01*
X132715632Y-90075830D01*
X132735038Y-90066651D01*
X132755250Y-90059419D01*
X132776074Y-90054203D01*
X132797309Y-90051053D01*
X132818750Y-90050000D01*
X133256250Y-90050000D01*
X133277691Y-90051053D01*
G37*
G36*
X134852691Y-90051053D02*
G01*
X134873926Y-90054203D01*
X134894750Y-90059419D01*
X134914962Y-90066651D01*
X134934368Y-90075830D01*
X134952781Y-90086866D01*
X134970024Y-90099654D01*
X134985930Y-90114070D01*
X135000346Y-90129976D01*
X135013134Y-90147219D01*
X135024170Y-90165632D01*
X135033349Y-90185038D01*
X135040581Y-90205250D01*
X135045797Y-90226074D01*
X135048947Y-90247309D01*
X135050000Y-90268750D01*
X135050000Y-90781250D01*
X135048947Y-90802691D01*
X135045797Y-90823926D01*
X135040581Y-90844750D01*
X135033349Y-90864962D01*
X135024170Y-90884368D01*
X135013134Y-90902781D01*
X135000346Y-90920024D01*
X134985930Y-90935930D01*
X134970024Y-90950346D01*
X134952781Y-90963134D01*
X134934368Y-90974170D01*
X134914962Y-90983349D01*
X134894750Y-90990581D01*
X134873926Y-90995797D01*
X134852691Y-90998947D01*
X134831250Y-91000000D01*
X134393750Y-91000000D01*
X134372309Y-90998947D01*
X134351074Y-90995797D01*
X134330250Y-90990581D01*
X134310038Y-90983349D01*
X134290632Y-90974170D01*
X134272219Y-90963134D01*
X134254976Y-90950346D01*
X134239070Y-90935930D01*
X134224654Y-90920024D01*
X134211866Y-90902781D01*
X134200830Y-90884368D01*
X134191651Y-90864962D01*
X134184419Y-90844750D01*
X134179203Y-90823926D01*
X134176053Y-90802691D01*
X134175000Y-90781250D01*
X134175000Y-90268750D01*
X134176053Y-90247309D01*
X134179203Y-90226074D01*
X134184419Y-90205250D01*
X134191651Y-90185038D01*
X134200830Y-90165632D01*
X134211866Y-90147219D01*
X134224654Y-90129976D01*
X134239070Y-90114070D01*
X134254976Y-90099654D01*
X134272219Y-90086866D01*
X134290632Y-90075830D01*
X134310038Y-90066651D01*
X134330250Y-90059419D01*
X134351074Y-90054203D01*
X134372309Y-90051053D01*
X134393750Y-90050000D01*
X134831250Y-90050000D01*
X134852691Y-90051053D01*
G37*
G36*
X131802691Y-79101053D02*
G01*
X131823926Y-79104203D01*
X131844750Y-79109419D01*
X131864962Y-79116651D01*
X131884368Y-79125830D01*
X131902781Y-79136866D01*
X131920024Y-79149654D01*
X131935930Y-79164070D01*
X131950346Y-79179976D01*
X131963134Y-79197219D01*
X131974170Y-79215632D01*
X131983349Y-79235038D01*
X131990581Y-79255250D01*
X131995797Y-79276074D01*
X131998947Y-79297309D01*
X132000000Y-79318750D01*
X132000000Y-79756250D01*
X131998947Y-79777691D01*
X131995797Y-79798926D01*
X131990581Y-79819750D01*
X131983349Y-79839962D01*
X131974170Y-79859368D01*
X131963134Y-79877781D01*
X131950346Y-79895024D01*
X131935930Y-79910930D01*
X131920024Y-79925346D01*
X131902781Y-79938134D01*
X131884368Y-79949170D01*
X131864962Y-79958349D01*
X131844750Y-79965581D01*
X131823926Y-79970797D01*
X131802691Y-79973947D01*
X131781250Y-79975000D01*
X131268750Y-79975000D01*
X131247309Y-79973947D01*
X131226074Y-79970797D01*
X131205250Y-79965581D01*
X131185038Y-79958349D01*
X131165632Y-79949170D01*
X131147219Y-79938134D01*
X131129976Y-79925346D01*
X131114070Y-79910930D01*
X131099654Y-79895024D01*
X131086866Y-79877781D01*
X131075830Y-79859368D01*
X131066651Y-79839962D01*
X131059419Y-79819750D01*
X131054203Y-79798926D01*
X131051053Y-79777691D01*
X131050000Y-79756250D01*
X131050000Y-79318750D01*
X131051053Y-79297309D01*
X131054203Y-79276074D01*
X131059419Y-79255250D01*
X131066651Y-79235038D01*
X131075830Y-79215632D01*
X131086866Y-79197219D01*
X131099654Y-79179976D01*
X131114070Y-79164070D01*
X131129976Y-79149654D01*
X131147219Y-79136866D01*
X131165632Y-79125830D01*
X131185038Y-79116651D01*
X131205250Y-79109419D01*
X131226074Y-79104203D01*
X131247309Y-79101053D01*
X131268750Y-79100000D01*
X131781250Y-79100000D01*
X131802691Y-79101053D01*
G37*
G36*
X131802691Y-80676053D02*
G01*
X131823926Y-80679203D01*
X131844750Y-80684419D01*
X131864962Y-80691651D01*
X131884368Y-80700830D01*
X131902781Y-80711866D01*
X131920024Y-80724654D01*
X131935930Y-80739070D01*
X131950346Y-80754976D01*
X131963134Y-80772219D01*
X131974170Y-80790632D01*
X131983349Y-80810038D01*
X131990581Y-80830250D01*
X131995797Y-80851074D01*
X131998947Y-80872309D01*
X132000000Y-80893750D01*
X132000000Y-81331250D01*
X131998947Y-81352691D01*
X131995797Y-81373926D01*
X131990581Y-81394750D01*
X131983349Y-81414962D01*
X131974170Y-81434368D01*
X131963134Y-81452781D01*
X131950346Y-81470024D01*
X131935930Y-81485930D01*
X131920024Y-81500346D01*
X131902781Y-81513134D01*
X131884368Y-81524170D01*
X131864962Y-81533349D01*
X131844750Y-81540581D01*
X131823926Y-81545797D01*
X131802691Y-81548947D01*
X131781250Y-81550000D01*
X131268750Y-81550000D01*
X131247309Y-81548947D01*
X131226074Y-81545797D01*
X131205250Y-81540581D01*
X131185038Y-81533349D01*
X131165632Y-81524170D01*
X131147219Y-81513134D01*
X131129976Y-81500346D01*
X131114070Y-81485930D01*
X131099654Y-81470024D01*
X131086866Y-81452781D01*
X131075830Y-81434368D01*
X131066651Y-81414962D01*
X131059419Y-81394750D01*
X131054203Y-81373926D01*
X131051053Y-81352691D01*
X131050000Y-81331250D01*
X131050000Y-80893750D01*
X131051053Y-80872309D01*
X131054203Y-80851074D01*
X131059419Y-80830250D01*
X131066651Y-80810038D01*
X131075830Y-80790632D01*
X131086866Y-80772219D01*
X131099654Y-80754976D01*
X131114070Y-80739070D01*
X131129976Y-80724654D01*
X131147219Y-80711866D01*
X131165632Y-80700830D01*
X131185038Y-80691651D01*
X131205250Y-80684419D01*
X131226074Y-80679203D01*
X131247309Y-80676053D01*
X131268750Y-80675000D01*
X131781250Y-80675000D01*
X131802691Y-80676053D01*
G37*
G36*
X133527691Y-80663553D02*
G01*
X133548926Y-80666703D01*
X133569750Y-80671919D01*
X133589962Y-80679151D01*
X133609368Y-80688330D01*
X133627781Y-80699366D01*
X133645024Y-80712154D01*
X133660930Y-80726570D01*
X133675346Y-80742476D01*
X133688134Y-80759719D01*
X133699170Y-80778132D01*
X133708349Y-80797538D01*
X133715581Y-80817750D01*
X133720797Y-80838574D01*
X133723947Y-80859809D01*
X133725000Y-80881250D01*
X133725000Y-81318750D01*
X133723947Y-81340191D01*
X133720797Y-81361426D01*
X133715581Y-81382250D01*
X133708349Y-81402462D01*
X133699170Y-81421868D01*
X133688134Y-81440281D01*
X133675346Y-81457524D01*
X133660930Y-81473430D01*
X133645024Y-81487846D01*
X133627781Y-81500634D01*
X133609368Y-81511670D01*
X133589962Y-81520849D01*
X133569750Y-81528081D01*
X133548926Y-81533297D01*
X133527691Y-81536447D01*
X133506250Y-81537500D01*
X132993750Y-81537500D01*
X132972309Y-81536447D01*
X132951074Y-81533297D01*
X132930250Y-81528081D01*
X132910038Y-81520849D01*
X132890632Y-81511670D01*
X132872219Y-81500634D01*
X132854976Y-81487846D01*
X132839070Y-81473430D01*
X132824654Y-81457524D01*
X132811866Y-81440281D01*
X132800830Y-81421868D01*
X132791651Y-81402462D01*
X132784419Y-81382250D01*
X132779203Y-81361426D01*
X132776053Y-81340191D01*
X132775000Y-81318750D01*
X132775000Y-80881250D01*
X132776053Y-80859809D01*
X132779203Y-80838574D01*
X132784419Y-80817750D01*
X132791651Y-80797538D01*
X132800830Y-80778132D01*
X132811866Y-80759719D01*
X132824654Y-80742476D01*
X132839070Y-80726570D01*
X132854976Y-80712154D01*
X132872219Y-80699366D01*
X132890632Y-80688330D01*
X132910038Y-80679151D01*
X132930250Y-80671919D01*
X132951074Y-80666703D01*
X132972309Y-80663553D01*
X132993750Y-80662500D01*
X133506250Y-80662500D01*
X133527691Y-80663553D01*
G37*
G36*
X133527691Y-79088553D02*
G01*
X133548926Y-79091703D01*
X133569750Y-79096919D01*
X133589962Y-79104151D01*
X133609368Y-79113330D01*
X133627781Y-79124366D01*
X133645024Y-79137154D01*
X133660930Y-79151570D01*
X133675346Y-79167476D01*
X133688134Y-79184719D01*
X133699170Y-79203132D01*
X133708349Y-79222538D01*
X133715581Y-79242750D01*
X133720797Y-79263574D01*
X133723947Y-79284809D01*
X133725000Y-79306250D01*
X133725000Y-79743750D01*
X133723947Y-79765191D01*
X133720797Y-79786426D01*
X133715581Y-79807250D01*
X133708349Y-79827462D01*
X133699170Y-79846868D01*
X133688134Y-79865281D01*
X133675346Y-79882524D01*
X133660930Y-79898430D01*
X133645024Y-79912846D01*
X133627781Y-79925634D01*
X133609368Y-79936670D01*
X133589962Y-79945849D01*
X133569750Y-79953081D01*
X133548926Y-79958297D01*
X133527691Y-79961447D01*
X133506250Y-79962500D01*
X132993750Y-79962500D01*
X132972309Y-79961447D01*
X132951074Y-79958297D01*
X132930250Y-79953081D01*
X132910038Y-79945849D01*
X132890632Y-79936670D01*
X132872219Y-79925634D01*
X132854976Y-79912846D01*
X132839070Y-79898430D01*
X132824654Y-79882524D01*
X132811866Y-79865281D01*
X132800830Y-79846868D01*
X132791651Y-79827462D01*
X132784419Y-79807250D01*
X132779203Y-79786426D01*
X132776053Y-79765191D01*
X132775000Y-79743750D01*
X132775000Y-79306250D01*
X132776053Y-79284809D01*
X132779203Y-79263574D01*
X132784419Y-79242750D01*
X132791651Y-79222538D01*
X132800830Y-79203132D01*
X132811866Y-79184719D01*
X132824654Y-79167476D01*
X132839070Y-79151570D01*
X132854976Y-79137154D01*
X132872219Y-79124366D01*
X132890632Y-79113330D01*
X132910038Y-79104151D01*
X132930250Y-79096919D01*
X132951074Y-79091703D01*
X132972309Y-79088553D01*
X132993750Y-79087500D01*
X133506250Y-79087500D01*
X133527691Y-79088553D01*
G37*
G36*
X135227691Y-79088553D02*
G01*
X135248926Y-79091703D01*
X135269750Y-79096919D01*
X135289962Y-79104151D01*
X135309368Y-79113330D01*
X135327781Y-79124366D01*
X135345024Y-79137154D01*
X135360930Y-79151570D01*
X135375346Y-79167476D01*
X135388134Y-79184719D01*
X135399170Y-79203132D01*
X135408349Y-79222538D01*
X135415581Y-79242750D01*
X135420797Y-79263574D01*
X135423947Y-79284809D01*
X135425000Y-79306250D01*
X135425000Y-79743750D01*
X135423947Y-79765191D01*
X135420797Y-79786426D01*
X135415581Y-79807250D01*
X135408349Y-79827462D01*
X135399170Y-79846868D01*
X135388134Y-79865281D01*
X135375346Y-79882524D01*
X135360930Y-79898430D01*
X135345024Y-79912846D01*
X135327781Y-79925634D01*
X135309368Y-79936670D01*
X135289962Y-79945849D01*
X135269750Y-79953081D01*
X135248926Y-79958297D01*
X135227691Y-79961447D01*
X135206250Y-79962500D01*
X134693750Y-79962500D01*
X134672309Y-79961447D01*
X134651074Y-79958297D01*
X134630250Y-79953081D01*
X134610038Y-79945849D01*
X134590632Y-79936670D01*
X134572219Y-79925634D01*
X134554976Y-79912846D01*
X134539070Y-79898430D01*
X134524654Y-79882524D01*
X134511866Y-79865281D01*
X134500830Y-79846868D01*
X134491651Y-79827462D01*
X134484419Y-79807250D01*
X134479203Y-79786426D01*
X134476053Y-79765191D01*
X134475000Y-79743750D01*
X134475000Y-79306250D01*
X134476053Y-79284809D01*
X134479203Y-79263574D01*
X134484419Y-79242750D01*
X134491651Y-79222538D01*
X134500830Y-79203132D01*
X134511866Y-79184719D01*
X134524654Y-79167476D01*
X134539070Y-79151570D01*
X134554976Y-79137154D01*
X134572219Y-79124366D01*
X134590632Y-79113330D01*
X134610038Y-79104151D01*
X134630250Y-79096919D01*
X134651074Y-79091703D01*
X134672309Y-79088553D01*
X134693750Y-79087500D01*
X135206250Y-79087500D01*
X135227691Y-79088553D01*
G37*
G36*
X135227691Y-80663553D02*
G01*
X135248926Y-80666703D01*
X135269750Y-80671919D01*
X135289962Y-80679151D01*
X135309368Y-80688330D01*
X135327781Y-80699366D01*
X135345024Y-80712154D01*
X135360930Y-80726570D01*
X135375346Y-80742476D01*
X135388134Y-80759719D01*
X135399170Y-80778132D01*
X135408349Y-80797538D01*
X135415581Y-80817750D01*
X135420797Y-80838574D01*
X135423947Y-80859809D01*
X135425000Y-80881250D01*
X135425000Y-81318750D01*
X135423947Y-81340191D01*
X135420797Y-81361426D01*
X135415581Y-81382250D01*
X135408349Y-81402462D01*
X135399170Y-81421868D01*
X135388134Y-81440281D01*
X135375346Y-81457524D01*
X135360930Y-81473430D01*
X135345024Y-81487846D01*
X135327781Y-81500634D01*
X135309368Y-81511670D01*
X135289962Y-81520849D01*
X135269750Y-81528081D01*
X135248926Y-81533297D01*
X135227691Y-81536447D01*
X135206250Y-81537500D01*
X134693750Y-81537500D01*
X134672309Y-81536447D01*
X134651074Y-81533297D01*
X134630250Y-81528081D01*
X134610038Y-81520849D01*
X134590632Y-81511670D01*
X134572219Y-81500634D01*
X134554976Y-81487846D01*
X134539070Y-81473430D01*
X134524654Y-81457524D01*
X134511866Y-81440281D01*
X134500830Y-81421868D01*
X134491651Y-81402462D01*
X134484419Y-81382250D01*
X134479203Y-81361426D01*
X134476053Y-81340191D01*
X134475000Y-81318750D01*
X134475000Y-80881250D01*
X134476053Y-80859809D01*
X134479203Y-80838574D01*
X134484419Y-80817750D01*
X134491651Y-80797538D01*
X134500830Y-80778132D01*
X134511866Y-80759719D01*
X134524654Y-80742476D01*
X134539070Y-80726570D01*
X134554976Y-80712154D01*
X134572219Y-80699366D01*
X134590632Y-80688330D01*
X134610038Y-80679151D01*
X134630250Y-80671919D01*
X134651074Y-80666703D01*
X134672309Y-80663553D01*
X134693750Y-80662500D01*
X135206250Y-80662500D01*
X135227691Y-80663553D01*
G37*
G36*
X149702691Y-98451053D02*
G01*
X149723926Y-98454203D01*
X149744750Y-98459419D01*
X149764962Y-98466651D01*
X149784368Y-98475830D01*
X149802781Y-98486866D01*
X149820024Y-98499654D01*
X149835930Y-98514070D01*
X149850346Y-98529976D01*
X149863134Y-98547219D01*
X149874170Y-98565632D01*
X149883349Y-98585038D01*
X149890581Y-98605250D01*
X149895797Y-98626074D01*
X149898947Y-98647309D01*
X149900000Y-98668750D01*
X149900000Y-99106250D01*
X149898947Y-99127691D01*
X149895797Y-99148926D01*
X149890581Y-99169750D01*
X149883349Y-99189962D01*
X149874170Y-99209368D01*
X149863134Y-99227781D01*
X149850346Y-99245024D01*
X149835930Y-99260930D01*
X149820024Y-99275346D01*
X149802781Y-99288134D01*
X149784368Y-99299170D01*
X149764962Y-99308349D01*
X149744750Y-99315581D01*
X149723926Y-99320797D01*
X149702691Y-99323947D01*
X149681250Y-99325000D01*
X149168750Y-99325000D01*
X149147309Y-99323947D01*
X149126074Y-99320797D01*
X149105250Y-99315581D01*
X149085038Y-99308349D01*
X149065632Y-99299170D01*
X149047219Y-99288134D01*
X149029976Y-99275346D01*
X149014070Y-99260930D01*
X148999654Y-99245024D01*
X148986866Y-99227781D01*
X148975830Y-99209368D01*
X148966651Y-99189962D01*
X148959419Y-99169750D01*
X148954203Y-99148926D01*
X148951053Y-99127691D01*
X148950000Y-99106250D01*
X148950000Y-98668750D01*
X148951053Y-98647309D01*
X148954203Y-98626074D01*
X148959419Y-98605250D01*
X148966651Y-98585038D01*
X148975830Y-98565632D01*
X148986866Y-98547219D01*
X148999654Y-98529976D01*
X149014070Y-98514070D01*
X149029976Y-98499654D01*
X149047219Y-98486866D01*
X149065632Y-98475830D01*
X149085038Y-98466651D01*
X149105250Y-98459419D01*
X149126074Y-98454203D01*
X149147309Y-98451053D01*
X149168750Y-98450000D01*
X149681250Y-98450000D01*
X149702691Y-98451053D01*
G37*
G36*
X149702691Y-96876053D02*
G01*
X149723926Y-96879203D01*
X149744750Y-96884419D01*
X149764962Y-96891651D01*
X149784368Y-96900830D01*
X149802781Y-96911866D01*
X149820024Y-96924654D01*
X149835930Y-96939070D01*
X149850346Y-96954976D01*
X149863134Y-96972219D01*
X149874170Y-96990632D01*
X149883349Y-97010038D01*
X149890581Y-97030250D01*
X149895797Y-97051074D01*
X149898947Y-97072309D01*
X149900000Y-97093750D01*
X149900000Y-97531250D01*
X149898947Y-97552691D01*
X149895797Y-97573926D01*
X149890581Y-97594750D01*
X149883349Y-97614962D01*
X149874170Y-97634368D01*
X149863134Y-97652781D01*
X149850346Y-97670024D01*
X149835930Y-97685930D01*
X149820024Y-97700346D01*
X149802781Y-97713134D01*
X149784368Y-97724170D01*
X149764962Y-97733349D01*
X149744750Y-97740581D01*
X149723926Y-97745797D01*
X149702691Y-97748947D01*
X149681250Y-97750000D01*
X149168750Y-97750000D01*
X149147309Y-97748947D01*
X149126074Y-97745797D01*
X149105250Y-97740581D01*
X149085038Y-97733349D01*
X149065632Y-97724170D01*
X149047219Y-97713134D01*
X149029976Y-97700346D01*
X149014070Y-97685930D01*
X148999654Y-97670024D01*
X148986866Y-97652781D01*
X148975830Y-97634368D01*
X148966651Y-97614962D01*
X148959419Y-97594750D01*
X148954203Y-97573926D01*
X148951053Y-97552691D01*
X148950000Y-97531250D01*
X148950000Y-97093750D01*
X148951053Y-97072309D01*
X148954203Y-97051074D01*
X148959419Y-97030250D01*
X148966651Y-97010038D01*
X148975830Y-96990632D01*
X148986866Y-96972219D01*
X148999654Y-96954976D01*
X149014070Y-96939070D01*
X149029976Y-96924654D01*
X149047219Y-96911866D01*
X149065632Y-96900830D01*
X149085038Y-96891651D01*
X149105250Y-96884419D01*
X149126074Y-96879203D01*
X149147309Y-96876053D01*
X149168750Y-96875000D01*
X149681250Y-96875000D01*
X149702691Y-96876053D01*
G37*
G36*
X131377691Y-88226053D02*
G01*
X131398926Y-88229203D01*
X131419750Y-88234419D01*
X131439962Y-88241651D01*
X131459368Y-88250830D01*
X131477781Y-88261866D01*
X131495024Y-88274654D01*
X131510930Y-88289070D01*
X131525346Y-88304976D01*
X131538134Y-88322219D01*
X131549170Y-88340632D01*
X131558349Y-88360038D01*
X131565581Y-88380250D01*
X131570797Y-88401074D01*
X131573947Y-88422309D01*
X131575000Y-88443750D01*
X131575000Y-88881250D01*
X131573947Y-88902691D01*
X131570797Y-88923926D01*
X131565581Y-88944750D01*
X131558349Y-88964962D01*
X131549170Y-88984368D01*
X131538134Y-89002781D01*
X131525346Y-89020024D01*
X131510930Y-89035930D01*
X131495024Y-89050346D01*
X131477781Y-89063134D01*
X131459368Y-89074170D01*
X131439962Y-89083349D01*
X131419750Y-89090581D01*
X131398926Y-89095797D01*
X131377691Y-89098947D01*
X131356250Y-89100000D01*
X130843750Y-89100000D01*
X130822309Y-89098947D01*
X130801074Y-89095797D01*
X130780250Y-89090581D01*
X130760038Y-89083349D01*
X130740632Y-89074170D01*
X130722219Y-89063134D01*
X130704976Y-89050346D01*
X130689070Y-89035930D01*
X130674654Y-89020024D01*
X130661866Y-89002781D01*
X130650830Y-88984368D01*
X130641651Y-88964962D01*
X130634419Y-88944750D01*
X130629203Y-88923926D01*
X130626053Y-88902691D01*
X130625000Y-88881250D01*
X130625000Y-88443750D01*
X130626053Y-88422309D01*
X130629203Y-88401074D01*
X130634419Y-88380250D01*
X130641651Y-88360038D01*
X130650830Y-88340632D01*
X130661866Y-88322219D01*
X130674654Y-88304976D01*
X130689070Y-88289070D01*
X130704976Y-88274654D01*
X130722219Y-88261866D01*
X130740632Y-88250830D01*
X130760038Y-88241651D01*
X130780250Y-88234419D01*
X130801074Y-88229203D01*
X130822309Y-88226053D01*
X130843750Y-88225000D01*
X131356250Y-88225000D01*
X131377691Y-88226053D01*
G37*
G36*
X131377691Y-86651053D02*
G01*
X131398926Y-86654203D01*
X131419750Y-86659419D01*
X131439962Y-86666651D01*
X131459368Y-86675830D01*
X131477781Y-86686866D01*
X131495024Y-86699654D01*
X131510930Y-86714070D01*
X131525346Y-86729976D01*
X131538134Y-86747219D01*
X131549170Y-86765632D01*
X131558349Y-86785038D01*
X131565581Y-86805250D01*
X131570797Y-86826074D01*
X131573947Y-86847309D01*
X131575000Y-86868750D01*
X131575000Y-87306250D01*
X131573947Y-87327691D01*
X131570797Y-87348926D01*
X131565581Y-87369750D01*
X131558349Y-87389962D01*
X131549170Y-87409368D01*
X131538134Y-87427781D01*
X131525346Y-87445024D01*
X131510930Y-87460930D01*
X131495024Y-87475346D01*
X131477781Y-87488134D01*
X131459368Y-87499170D01*
X131439962Y-87508349D01*
X131419750Y-87515581D01*
X131398926Y-87520797D01*
X131377691Y-87523947D01*
X131356250Y-87525000D01*
X130843750Y-87525000D01*
X130822309Y-87523947D01*
X130801074Y-87520797D01*
X130780250Y-87515581D01*
X130760038Y-87508349D01*
X130740632Y-87499170D01*
X130722219Y-87488134D01*
X130704976Y-87475346D01*
X130689070Y-87460930D01*
X130674654Y-87445024D01*
X130661866Y-87427781D01*
X130650830Y-87409368D01*
X130641651Y-87389962D01*
X130634419Y-87369750D01*
X130629203Y-87348926D01*
X130626053Y-87327691D01*
X130625000Y-87306250D01*
X130625000Y-86868750D01*
X130626053Y-86847309D01*
X130629203Y-86826074D01*
X130634419Y-86805250D01*
X130641651Y-86785038D01*
X130650830Y-86765632D01*
X130661866Y-86747219D01*
X130674654Y-86729976D01*
X130689070Y-86714070D01*
X130704976Y-86699654D01*
X130722219Y-86686866D01*
X130740632Y-86675830D01*
X130760038Y-86666651D01*
X130780250Y-86659419D01*
X130801074Y-86654203D01*
X130822309Y-86651053D01*
X130843750Y-86650000D01*
X131356250Y-86650000D01*
X131377691Y-86651053D01*
G37*
G36*
X143752691Y-97601053D02*
G01*
X143773926Y-97604203D01*
X143794750Y-97609419D01*
X143814962Y-97616651D01*
X143834368Y-97625830D01*
X143852781Y-97636866D01*
X143870024Y-97649654D01*
X143885930Y-97664070D01*
X143900346Y-97679976D01*
X143913134Y-97697219D01*
X143924170Y-97715632D01*
X143933349Y-97735038D01*
X143940581Y-97755250D01*
X143945797Y-97776074D01*
X143948947Y-97797309D01*
X143950000Y-97818750D01*
X143950000Y-98256250D01*
X143948947Y-98277691D01*
X143945797Y-98298926D01*
X143940581Y-98319750D01*
X143933349Y-98339962D01*
X143924170Y-98359368D01*
X143913134Y-98377781D01*
X143900346Y-98395024D01*
X143885930Y-98410930D01*
X143870024Y-98425346D01*
X143852781Y-98438134D01*
X143834368Y-98449170D01*
X143814962Y-98458349D01*
X143794750Y-98465581D01*
X143773926Y-98470797D01*
X143752691Y-98473947D01*
X143731250Y-98475000D01*
X143218750Y-98475000D01*
X143197309Y-98473947D01*
X143176074Y-98470797D01*
X143155250Y-98465581D01*
X143135038Y-98458349D01*
X143115632Y-98449170D01*
X143097219Y-98438134D01*
X143079976Y-98425346D01*
X143064070Y-98410930D01*
X143049654Y-98395024D01*
X143036866Y-98377781D01*
X143025830Y-98359368D01*
X143016651Y-98339962D01*
X143009419Y-98319750D01*
X143004203Y-98298926D01*
X143001053Y-98277691D01*
X143000000Y-98256250D01*
X143000000Y-97818750D01*
X143001053Y-97797309D01*
X143004203Y-97776074D01*
X143009419Y-97755250D01*
X143016651Y-97735038D01*
X143025830Y-97715632D01*
X143036866Y-97697219D01*
X143049654Y-97679976D01*
X143064070Y-97664070D01*
X143079976Y-97649654D01*
X143097219Y-97636866D01*
X143115632Y-97625830D01*
X143135038Y-97616651D01*
X143155250Y-97609419D01*
X143176074Y-97604203D01*
X143197309Y-97601053D01*
X143218750Y-97600000D01*
X143731250Y-97600000D01*
X143752691Y-97601053D01*
G37*
G36*
X143752691Y-99176053D02*
G01*
X143773926Y-99179203D01*
X143794750Y-99184419D01*
X143814962Y-99191651D01*
X143834368Y-99200830D01*
X143852781Y-99211866D01*
X143870024Y-99224654D01*
X143885930Y-99239070D01*
X143900346Y-99254976D01*
X143913134Y-99272219D01*
X143924170Y-99290632D01*
X143933349Y-99310038D01*
X143940581Y-99330250D01*
X143945797Y-99351074D01*
X143948947Y-99372309D01*
X143950000Y-99393750D01*
X143950000Y-99831250D01*
X143948947Y-99852691D01*
X143945797Y-99873926D01*
X143940581Y-99894750D01*
X143933349Y-99914962D01*
X143924170Y-99934368D01*
X143913134Y-99952781D01*
X143900346Y-99970024D01*
X143885930Y-99985930D01*
X143870024Y-100000346D01*
X143852781Y-100013134D01*
X143834368Y-100024170D01*
X143814962Y-100033349D01*
X143794750Y-100040581D01*
X143773926Y-100045797D01*
X143752691Y-100048947D01*
X143731250Y-100050000D01*
X143218750Y-100050000D01*
X143197309Y-100048947D01*
X143176074Y-100045797D01*
X143155250Y-100040581D01*
X143135038Y-100033349D01*
X143115632Y-100024170D01*
X143097219Y-100013134D01*
X143079976Y-100000346D01*
X143064070Y-99985930D01*
X143049654Y-99970024D01*
X143036866Y-99952781D01*
X143025830Y-99934368D01*
X143016651Y-99914962D01*
X143009419Y-99894750D01*
X143004203Y-99873926D01*
X143001053Y-99852691D01*
X143000000Y-99831250D01*
X143000000Y-99393750D01*
X143001053Y-99372309D01*
X143004203Y-99351074D01*
X143009419Y-99330250D01*
X143016651Y-99310038D01*
X143025830Y-99290632D01*
X143036866Y-99272219D01*
X143049654Y-99254976D01*
X143064070Y-99239070D01*
X143079976Y-99224654D01*
X143097219Y-99211866D01*
X143115632Y-99200830D01*
X143135038Y-99191651D01*
X143155250Y-99184419D01*
X143176074Y-99179203D01*
X143197309Y-99176053D01*
X143218750Y-99175000D01*
X143731250Y-99175000D01*
X143752691Y-99176053D01*
G37*
G36*
X138602691Y-99176053D02*
G01*
X138623926Y-99179203D01*
X138644750Y-99184419D01*
X138664962Y-99191651D01*
X138684368Y-99200830D01*
X138702781Y-99211866D01*
X138720024Y-99224654D01*
X138735930Y-99239070D01*
X138750346Y-99254976D01*
X138763134Y-99272219D01*
X138774170Y-99290632D01*
X138783349Y-99310038D01*
X138790581Y-99330250D01*
X138795797Y-99351074D01*
X138798947Y-99372309D01*
X138800000Y-99393750D01*
X138800000Y-99831250D01*
X138798947Y-99852691D01*
X138795797Y-99873926D01*
X138790581Y-99894750D01*
X138783349Y-99914962D01*
X138774170Y-99934368D01*
X138763134Y-99952781D01*
X138750346Y-99970024D01*
X138735930Y-99985930D01*
X138720024Y-100000346D01*
X138702781Y-100013134D01*
X138684368Y-100024170D01*
X138664962Y-100033349D01*
X138644750Y-100040581D01*
X138623926Y-100045797D01*
X138602691Y-100048947D01*
X138581250Y-100050000D01*
X138068750Y-100050000D01*
X138047309Y-100048947D01*
X138026074Y-100045797D01*
X138005250Y-100040581D01*
X137985038Y-100033349D01*
X137965632Y-100024170D01*
X137947219Y-100013134D01*
X137929976Y-100000346D01*
X137914070Y-99985930D01*
X137899654Y-99970024D01*
X137886866Y-99952781D01*
X137875830Y-99934368D01*
X137866651Y-99914962D01*
X137859419Y-99894750D01*
X137854203Y-99873926D01*
X137851053Y-99852691D01*
X137850000Y-99831250D01*
X137850000Y-99393750D01*
X137851053Y-99372309D01*
X137854203Y-99351074D01*
X137859419Y-99330250D01*
X137866651Y-99310038D01*
X137875830Y-99290632D01*
X137886866Y-99272219D01*
X137899654Y-99254976D01*
X137914070Y-99239070D01*
X137929976Y-99224654D01*
X137947219Y-99211866D01*
X137965632Y-99200830D01*
X137985038Y-99191651D01*
X138005250Y-99184419D01*
X138026074Y-99179203D01*
X138047309Y-99176053D01*
X138068750Y-99175000D01*
X138581250Y-99175000D01*
X138602691Y-99176053D01*
G37*
G36*
X138602691Y-97601053D02*
G01*
X138623926Y-97604203D01*
X138644750Y-97609419D01*
X138664962Y-97616651D01*
X138684368Y-97625830D01*
X138702781Y-97636866D01*
X138720024Y-97649654D01*
X138735930Y-97664070D01*
X138750346Y-97679976D01*
X138763134Y-97697219D01*
X138774170Y-97715632D01*
X138783349Y-97735038D01*
X138790581Y-97755250D01*
X138795797Y-97776074D01*
X138798947Y-97797309D01*
X138800000Y-97818750D01*
X138800000Y-98256250D01*
X138798947Y-98277691D01*
X138795797Y-98298926D01*
X138790581Y-98319750D01*
X138783349Y-98339962D01*
X138774170Y-98359368D01*
X138763134Y-98377781D01*
X138750346Y-98395024D01*
X138735930Y-98410930D01*
X138720024Y-98425346D01*
X138702781Y-98438134D01*
X138684368Y-98449170D01*
X138664962Y-98458349D01*
X138644750Y-98465581D01*
X138623926Y-98470797D01*
X138602691Y-98473947D01*
X138581250Y-98475000D01*
X138068750Y-98475000D01*
X138047309Y-98473947D01*
X138026074Y-98470797D01*
X138005250Y-98465581D01*
X137985038Y-98458349D01*
X137965632Y-98449170D01*
X137947219Y-98438134D01*
X137929976Y-98425346D01*
X137914070Y-98410930D01*
X137899654Y-98395024D01*
X137886866Y-98377781D01*
X137875830Y-98359368D01*
X137866651Y-98339962D01*
X137859419Y-98319750D01*
X137854203Y-98298926D01*
X137851053Y-98277691D01*
X137850000Y-98256250D01*
X137850000Y-97818750D01*
X137851053Y-97797309D01*
X137854203Y-97776074D01*
X137859419Y-97755250D01*
X137866651Y-97735038D01*
X137875830Y-97715632D01*
X137886866Y-97697219D01*
X137899654Y-97679976D01*
X137914070Y-97664070D01*
X137929976Y-97649654D01*
X137947219Y-97636866D01*
X137965632Y-97625830D01*
X137985038Y-97616651D01*
X138005250Y-97609419D01*
X138026074Y-97604203D01*
X138047309Y-97601053D01*
X138068750Y-97600000D01*
X138581250Y-97600000D01*
X138602691Y-97601053D01*
G37*
G36*
X141927691Y-97576053D02*
G01*
X141948926Y-97579203D01*
X141969750Y-97584419D01*
X141989962Y-97591651D01*
X142009368Y-97600830D01*
X142027781Y-97611866D01*
X142045024Y-97624654D01*
X142060930Y-97639070D01*
X142075346Y-97654976D01*
X142088134Y-97672219D01*
X142099170Y-97690632D01*
X142108349Y-97710038D01*
X142115581Y-97730250D01*
X142120797Y-97751074D01*
X142123947Y-97772309D01*
X142125000Y-97793750D01*
X142125000Y-98231250D01*
X142123947Y-98252691D01*
X142120797Y-98273926D01*
X142115581Y-98294750D01*
X142108349Y-98314962D01*
X142099170Y-98334368D01*
X142088134Y-98352781D01*
X142075346Y-98370024D01*
X142060930Y-98385930D01*
X142045024Y-98400346D01*
X142027781Y-98413134D01*
X142009368Y-98424170D01*
X141989962Y-98433349D01*
X141969750Y-98440581D01*
X141948926Y-98445797D01*
X141927691Y-98448947D01*
X141906250Y-98450000D01*
X141393750Y-98450000D01*
X141372309Y-98448947D01*
X141351074Y-98445797D01*
X141330250Y-98440581D01*
X141310038Y-98433349D01*
X141290632Y-98424170D01*
X141272219Y-98413134D01*
X141254976Y-98400346D01*
X141239070Y-98385930D01*
X141224654Y-98370024D01*
X141211866Y-98352781D01*
X141200830Y-98334368D01*
X141191651Y-98314962D01*
X141184419Y-98294750D01*
X141179203Y-98273926D01*
X141176053Y-98252691D01*
X141175000Y-98231250D01*
X141175000Y-97793750D01*
X141176053Y-97772309D01*
X141179203Y-97751074D01*
X141184419Y-97730250D01*
X141191651Y-97710038D01*
X141200830Y-97690632D01*
X141211866Y-97672219D01*
X141224654Y-97654976D01*
X141239070Y-97639070D01*
X141254976Y-97624654D01*
X141272219Y-97611866D01*
X141290632Y-97600830D01*
X141310038Y-97591651D01*
X141330250Y-97584419D01*
X141351074Y-97579203D01*
X141372309Y-97576053D01*
X141393750Y-97575000D01*
X141906250Y-97575000D01*
X141927691Y-97576053D01*
G37*
G36*
X141927691Y-99151053D02*
G01*
X141948926Y-99154203D01*
X141969750Y-99159419D01*
X141989962Y-99166651D01*
X142009368Y-99175830D01*
X142027781Y-99186866D01*
X142045024Y-99199654D01*
X142060930Y-99214070D01*
X142075346Y-99229976D01*
X142088134Y-99247219D01*
X142099170Y-99265632D01*
X142108349Y-99285038D01*
X142115581Y-99305250D01*
X142120797Y-99326074D01*
X142123947Y-99347309D01*
X142125000Y-99368750D01*
X142125000Y-99806250D01*
X142123947Y-99827691D01*
X142120797Y-99848926D01*
X142115581Y-99869750D01*
X142108349Y-99889962D01*
X142099170Y-99909368D01*
X142088134Y-99927781D01*
X142075346Y-99945024D01*
X142060930Y-99960930D01*
X142045024Y-99975346D01*
X142027781Y-99988134D01*
X142009368Y-99999170D01*
X141989962Y-100008349D01*
X141969750Y-100015581D01*
X141948926Y-100020797D01*
X141927691Y-100023947D01*
X141906250Y-100025000D01*
X141393750Y-100025000D01*
X141372309Y-100023947D01*
X141351074Y-100020797D01*
X141330250Y-100015581D01*
X141310038Y-100008349D01*
X141290632Y-99999170D01*
X141272219Y-99988134D01*
X141254976Y-99975346D01*
X141239070Y-99960930D01*
X141224654Y-99945024D01*
X141211866Y-99927781D01*
X141200830Y-99909368D01*
X141191651Y-99889962D01*
X141184419Y-99869750D01*
X141179203Y-99848926D01*
X141176053Y-99827691D01*
X141175000Y-99806250D01*
X141175000Y-99368750D01*
X141176053Y-99347309D01*
X141179203Y-99326074D01*
X141184419Y-99305250D01*
X141191651Y-99285038D01*
X141200830Y-99265632D01*
X141211866Y-99247219D01*
X141224654Y-99229976D01*
X141239070Y-99214070D01*
X141254976Y-99199654D01*
X141272219Y-99186866D01*
X141290632Y-99175830D01*
X141310038Y-99166651D01*
X141330250Y-99159419D01*
X141351074Y-99154203D01*
X141372309Y-99151053D01*
X141393750Y-99150000D01*
X141906250Y-99150000D01*
X141927691Y-99151053D01*
G37*
G36*
X152302691Y-77313553D02*
G01*
X152323926Y-77316703D01*
X152344750Y-77321919D01*
X152364962Y-77329151D01*
X152384368Y-77338330D01*
X152402781Y-77349366D01*
X152420024Y-77362154D01*
X152435930Y-77376570D01*
X152450346Y-77392476D01*
X152463134Y-77409719D01*
X152474170Y-77428132D01*
X152483349Y-77447538D01*
X152490581Y-77467750D01*
X152495797Y-77488574D01*
X152498947Y-77509809D01*
X152500000Y-77531250D01*
X152500000Y-77968750D01*
X152498947Y-77990191D01*
X152495797Y-78011426D01*
X152490581Y-78032250D01*
X152483349Y-78052462D01*
X152474170Y-78071868D01*
X152463134Y-78090281D01*
X152450346Y-78107524D01*
X152435930Y-78123430D01*
X152420024Y-78137846D01*
X152402781Y-78150634D01*
X152384368Y-78161670D01*
X152364962Y-78170849D01*
X152344750Y-78178081D01*
X152323926Y-78183297D01*
X152302691Y-78186447D01*
X152281250Y-78187500D01*
X151768750Y-78187500D01*
X151747309Y-78186447D01*
X151726074Y-78183297D01*
X151705250Y-78178081D01*
X151685038Y-78170849D01*
X151665632Y-78161670D01*
X151647219Y-78150634D01*
X151629976Y-78137846D01*
X151614070Y-78123430D01*
X151599654Y-78107524D01*
X151586866Y-78090281D01*
X151575830Y-78071868D01*
X151566651Y-78052462D01*
X151559419Y-78032250D01*
X151554203Y-78011426D01*
X151551053Y-77990191D01*
X151550000Y-77968750D01*
X151550000Y-77531250D01*
X151551053Y-77509809D01*
X151554203Y-77488574D01*
X151559419Y-77467750D01*
X151566651Y-77447538D01*
X151575830Y-77428132D01*
X151586866Y-77409719D01*
X151599654Y-77392476D01*
X151614070Y-77376570D01*
X151629976Y-77362154D01*
X151647219Y-77349366D01*
X151665632Y-77338330D01*
X151685038Y-77329151D01*
X151705250Y-77321919D01*
X151726074Y-77316703D01*
X151747309Y-77313553D01*
X151768750Y-77312500D01*
X152281250Y-77312500D01*
X152302691Y-77313553D01*
G37*
G36*
X152302691Y-78888553D02*
G01*
X152323926Y-78891703D01*
X152344750Y-78896919D01*
X152364962Y-78904151D01*
X152384368Y-78913330D01*
X152402781Y-78924366D01*
X152420024Y-78937154D01*
X152435930Y-78951570D01*
X152450346Y-78967476D01*
X152463134Y-78984719D01*
X152474170Y-79003132D01*
X152483349Y-79022538D01*
X152490581Y-79042750D01*
X152495797Y-79063574D01*
X152498947Y-79084809D01*
X152500000Y-79106250D01*
X152500000Y-79543750D01*
X152498947Y-79565191D01*
X152495797Y-79586426D01*
X152490581Y-79607250D01*
X152483349Y-79627462D01*
X152474170Y-79646868D01*
X152463134Y-79665281D01*
X152450346Y-79682524D01*
X152435930Y-79698430D01*
X152420024Y-79712846D01*
X152402781Y-79725634D01*
X152384368Y-79736670D01*
X152364962Y-79745849D01*
X152344750Y-79753081D01*
X152323926Y-79758297D01*
X152302691Y-79761447D01*
X152281250Y-79762500D01*
X151768750Y-79762500D01*
X151747309Y-79761447D01*
X151726074Y-79758297D01*
X151705250Y-79753081D01*
X151685038Y-79745849D01*
X151665632Y-79736670D01*
X151647219Y-79725634D01*
X151629976Y-79712846D01*
X151614070Y-79698430D01*
X151599654Y-79682524D01*
X151586866Y-79665281D01*
X151575830Y-79646868D01*
X151566651Y-79627462D01*
X151559419Y-79607250D01*
X151554203Y-79586426D01*
X151551053Y-79565191D01*
X151550000Y-79543750D01*
X151550000Y-79106250D01*
X151551053Y-79084809D01*
X151554203Y-79063574D01*
X151559419Y-79042750D01*
X151566651Y-79022538D01*
X151575830Y-79003132D01*
X151586866Y-78984719D01*
X151599654Y-78967476D01*
X151614070Y-78951570D01*
X151629976Y-78937154D01*
X151647219Y-78924366D01*
X151665632Y-78913330D01*
X151685038Y-78904151D01*
X151705250Y-78896919D01*
X151726074Y-78891703D01*
X151747309Y-78888553D01*
X151768750Y-78887500D01*
X152281250Y-78887500D01*
X152302691Y-78888553D01*
G37*
D20*
X136825000Y-76975000D03*
X140225000Y-76975000D03*
X141875000Y-76975000D03*
X145275000Y-76975000D03*
D21*
X156150001Y-90004600D03*
X155200000Y-90004600D03*
X154249999Y-90004600D03*
X154249999Y-92595400D03*
X156150001Y-92595400D03*
D22*
X143325000Y-93375000D03*
X144275000Y-93375000D03*
X145225000Y-93375000D03*
X145225000Y-91575000D03*
X143325000Y-91575000D03*
D23*
X143656200Y-112600000D03*
X143656200Y-113400001D03*
X143656200Y-114199999D03*
X143656200Y-115000000D03*
X143656200Y-115799998D03*
X143656200Y-116599999D03*
X143656200Y-117400000D03*
X146343800Y-117400000D03*
X146343800Y-116599999D03*
X146343800Y-115800001D03*
X146343800Y-115000000D03*
X146343800Y-114200002D03*
X146343800Y-113400001D03*
X146343800Y-112600000D03*
D24*
X146720000Y-87770000D03*
X147990000Y-87770000D03*
X149260000Y-87770000D03*
X150530000Y-87770000D03*
X150530000Y-82080000D03*
X149260000Y-82080000D03*
X147990000Y-82080000D03*
X146720000Y-82080000D03*
D25*
X155300000Y-98300000D03*
X155300000Y-100349998D03*
X157189999Y-99324999D03*
X153220000Y-98275000D03*
X151330001Y-99299999D03*
X151330001Y-97250001D03*
M02*
