G04 #@! TF.GenerationSoftware,KiCad,Pcbnew,(5.1.5)-3*
G04 #@! TF.CreationDate,2020-09-28T16:56:36+02:00*
G04 #@! TF.ProjectId,MAX30102_Pulse Ox,4d415833-3031-4303-925f-50756c736520,v1.4*
G04 #@! TF.SameCoordinates,Original*
G04 #@! TF.FileFunction,Soldermask,Top*
G04 #@! TF.FilePolarity,Negative*
%FSLAX46Y46*%
G04 Gerber Fmt 4.6, Leading zero omitted, Abs format (unit mm)*
G04 Created by KiCad (PCBNEW (5.1.5)-3) date 2020-09-28 16:56:36*
%MOMM*%
%LPD*%
G04 APERTURE LIST*
%ADD10C,0.100000*%
G04 APERTURE END LIST*
D10*
G36*
X146798799Y-117603800D02*
G01*
X145888801Y-117603800D01*
X145888801Y-117196200D01*
X146798799Y-117196200D01*
X146798799Y-117603800D01*
G37*
G36*
X144111199Y-117603800D02*
G01*
X143201201Y-117603800D01*
X143201201Y-117196200D01*
X144111199Y-117196200D01*
X144111199Y-117603800D01*
G37*
G36*
X146798799Y-116803799D02*
G01*
X145888801Y-116803799D01*
X145888801Y-116396199D01*
X146798799Y-116396199D01*
X146798799Y-116803799D01*
G37*
G36*
X144111199Y-116803799D02*
G01*
X143201201Y-116803799D01*
X143201201Y-116396199D01*
X144111199Y-116396199D01*
X144111199Y-116803799D01*
G37*
G36*
X146798799Y-116003801D02*
G01*
X145888801Y-116003801D01*
X145888801Y-115596201D01*
X146798799Y-115596201D01*
X146798799Y-116003801D01*
G37*
G36*
X144111199Y-116003798D02*
G01*
X143201201Y-116003798D01*
X143201201Y-115596198D01*
X144111199Y-115596198D01*
X144111199Y-116003798D01*
G37*
G36*
X144111199Y-115203800D02*
G01*
X143201201Y-115203800D01*
X143201201Y-114796200D01*
X144111199Y-114796200D01*
X144111199Y-115203800D01*
G37*
G36*
X146798799Y-115203800D02*
G01*
X145888801Y-115203800D01*
X145888801Y-114796200D01*
X146798799Y-114796200D01*
X146798799Y-115203800D01*
G37*
G36*
X146798799Y-114403802D02*
G01*
X145888801Y-114403802D01*
X145888801Y-113996202D01*
X146798799Y-113996202D01*
X146798799Y-114403802D01*
G37*
G36*
X144111199Y-114403799D02*
G01*
X143201201Y-114403799D01*
X143201201Y-113996199D01*
X144111199Y-113996199D01*
X144111199Y-114403799D01*
G37*
G36*
X144111199Y-113603801D02*
G01*
X143201201Y-113603801D01*
X143201201Y-113196201D01*
X144111199Y-113196201D01*
X144111199Y-113603801D01*
G37*
G36*
X146798799Y-113603801D02*
G01*
X145888801Y-113603801D01*
X145888801Y-113196201D01*
X146798799Y-113196201D01*
X146798799Y-113603801D01*
G37*
G36*
X144111199Y-112803800D02*
G01*
X143201201Y-112803800D01*
X143201201Y-112396200D01*
X144111199Y-112396200D01*
X144111199Y-112803800D01*
G37*
G36*
X146798799Y-112803800D02*
G01*
X145888801Y-112803800D01*
X145888801Y-112396200D01*
X146798799Y-112396200D01*
X146798799Y-112803800D01*
G37*
G36*
X141852290Y-104525619D02*
G01*
X141916689Y-104538429D01*
X142098678Y-104613811D01*
X142262463Y-104723249D01*
X142401751Y-104862537D01*
X142511189Y-105026322D01*
X142586571Y-105208311D01*
X142625000Y-105401509D01*
X142625000Y-105598491D01*
X142586571Y-105791689D01*
X142511189Y-105973678D01*
X142401751Y-106137463D01*
X142262463Y-106276751D01*
X142098678Y-106386189D01*
X141916689Y-106461571D01*
X141852290Y-106474381D01*
X141723493Y-106500000D01*
X141526507Y-106500000D01*
X141397710Y-106474381D01*
X141333311Y-106461571D01*
X141151322Y-106386189D01*
X140987537Y-106276751D01*
X140848249Y-106137463D01*
X140738811Y-105973678D01*
X140663429Y-105791689D01*
X140625000Y-105598491D01*
X140625000Y-105401509D01*
X140663429Y-105208311D01*
X140738811Y-105026322D01*
X140848249Y-104862537D01*
X140987537Y-104723249D01*
X141151322Y-104613811D01*
X141333311Y-104538429D01*
X141397710Y-104525619D01*
X141526507Y-104500000D01*
X141723493Y-104500000D01*
X141852290Y-104525619D01*
G37*
G36*
X135214795Y-103920156D02*
G01*
X135321150Y-103941311D01*
X135521520Y-104024307D01*
X135701844Y-104144795D01*
X135855205Y-104298156D01*
X135975693Y-104478480D01*
X136017191Y-104578666D01*
X136058689Y-104678850D01*
X136079844Y-104785205D01*
X136101000Y-104891560D01*
X136101000Y-105108440D01*
X136058689Y-105321149D01*
X135975693Y-105521520D01*
X135855205Y-105701844D01*
X135701844Y-105855205D01*
X135521520Y-105975693D01*
X135421334Y-106017191D01*
X135321150Y-106058689D01*
X135214794Y-106079845D01*
X135108440Y-106101000D01*
X134891560Y-106101000D01*
X134785206Y-106079845D01*
X134678850Y-106058689D01*
X134578666Y-106017191D01*
X134478480Y-105975693D01*
X134298156Y-105855205D01*
X134144795Y-105701844D01*
X134024307Y-105521520D01*
X133941311Y-105321149D01*
X133899000Y-105108440D01*
X133899000Y-104891560D01*
X133920156Y-104785205D01*
X133941311Y-104678850D01*
X133982809Y-104578666D01*
X134024307Y-104478480D01*
X134144795Y-104298156D01*
X134298156Y-104144795D01*
X134478480Y-104024307D01*
X134678850Y-103941311D01*
X134785205Y-103920156D01*
X134891560Y-103899000D01*
X135108440Y-103899000D01*
X135214795Y-103920156D01*
G37*
G36*
X155214795Y-103920156D02*
G01*
X155321150Y-103941311D01*
X155521520Y-104024307D01*
X155701844Y-104144795D01*
X155855205Y-104298156D01*
X155975693Y-104478480D01*
X156017191Y-104578666D01*
X156058689Y-104678850D01*
X156079844Y-104785205D01*
X156101000Y-104891560D01*
X156101000Y-105108440D01*
X156058689Y-105321149D01*
X155975693Y-105521520D01*
X155855205Y-105701844D01*
X155701844Y-105855205D01*
X155521520Y-105975693D01*
X155421334Y-106017191D01*
X155321150Y-106058689D01*
X155214794Y-106079845D01*
X155108440Y-106101000D01*
X154891560Y-106101000D01*
X154785206Y-106079845D01*
X154678850Y-106058689D01*
X154578666Y-106017191D01*
X154478480Y-105975693D01*
X154298156Y-105855205D01*
X154144795Y-105701844D01*
X154024307Y-105521520D01*
X153941311Y-105321149D01*
X153899000Y-105108440D01*
X153899000Y-104891560D01*
X153920156Y-104785205D01*
X153941311Y-104678850D01*
X153982809Y-104578666D01*
X154024307Y-104478480D01*
X154144795Y-104298156D01*
X154298156Y-104144795D01*
X154478480Y-104024307D01*
X154678850Y-103941311D01*
X154785205Y-103920156D01*
X154891560Y-103899000D01*
X155108440Y-103899000D01*
X155214795Y-103920156D01*
G37*
G36*
X155795500Y-100807398D02*
G01*
X154804500Y-100807398D01*
X154804500Y-99892598D01*
X155795500Y-99892598D01*
X155795500Y-100807398D01*
G37*
G36*
X143854591Y-99128085D02*
G01*
X143888569Y-99138393D01*
X143919890Y-99155134D01*
X143947339Y-99177661D01*
X143969866Y-99205110D01*
X143986607Y-99236431D01*
X143996915Y-99270409D01*
X144001000Y-99311890D01*
X144001000Y-99913110D01*
X143996915Y-99954591D01*
X143986607Y-99988569D01*
X143969866Y-100019890D01*
X143947339Y-100047339D01*
X143919890Y-100069866D01*
X143888569Y-100086607D01*
X143854591Y-100096915D01*
X143813110Y-100101000D01*
X143136890Y-100101000D01*
X143095409Y-100096915D01*
X143061431Y-100086607D01*
X143030110Y-100069866D01*
X143002661Y-100047339D01*
X142980134Y-100019890D01*
X142963393Y-99988569D01*
X142953085Y-99954591D01*
X142949000Y-99913110D01*
X142949000Y-99311890D01*
X142953085Y-99270409D01*
X142963393Y-99236431D01*
X142980134Y-99205110D01*
X143002661Y-99177661D01*
X143030110Y-99155134D01*
X143061431Y-99138393D01*
X143095409Y-99128085D01*
X143136890Y-99124000D01*
X143813110Y-99124000D01*
X143854591Y-99128085D01*
G37*
G36*
X138704591Y-99128085D02*
G01*
X138738569Y-99138393D01*
X138769890Y-99155134D01*
X138797339Y-99177661D01*
X138819866Y-99205110D01*
X138836607Y-99236431D01*
X138846915Y-99270409D01*
X138851000Y-99311890D01*
X138851000Y-99913110D01*
X138846915Y-99954591D01*
X138836607Y-99988569D01*
X138819866Y-100019890D01*
X138797339Y-100047339D01*
X138769890Y-100069866D01*
X138738569Y-100086607D01*
X138704591Y-100096915D01*
X138663110Y-100101000D01*
X137986890Y-100101000D01*
X137945409Y-100096915D01*
X137911431Y-100086607D01*
X137880110Y-100069866D01*
X137852661Y-100047339D01*
X137830134Y-100019890D01*
X137813393Y-99988569D01*
X137803085Y-99954591D01*
X137799000Y-99913110D01*
X137799000Y-99311890D01*
X137803085Y-99270409D01*
X137813393Y-99236431D01*
X137830134Y-99205110D01*
X137852661Y-99177661D01*
X137880110Y-99155134D01*
X137911431Y-99138393D01*
X137945409Y-99128085D01*
X137986890Y-99124000D01*
X138663110Y-99124000D01*
X138704591Y-99128085D01*
G37*
G36*
X137054591Y-99103085D02*
G01*
X137088569Y-99113393D01*
X137119890Y-99130134D01*
X137147339Y-99152661D01*
X137169866Y-99180110D01*
X137186607Y-99211431D01*
X137196915Y-99245409D01*
X137201000Y-99286890D01*
X137201000Y-99888110D01*
X137196915Y-99929591D01*
X137186607Y-99963569D01*
X137169866Y-99994890D01*
X137147339Y-100022339D01*
X137119890Y-100044866D01*
X137088569Y-100061607D01*
X137054591Y-100071915D01*
X137013110Y-100076000D01*
X136336890Y-100076000D01*
X136295409Y-100071915D01*
X136261431Y-100061607D01*
X136230110Y-100044866D01*
X136202661Y-100022339D01*
X136180134Y-99994890D01*
X136163393Y-99963569D01*
X136153085Y-99929591D01*
X136149000Y-99888110D01*
X136149000Y-99286890D01*
X136153085Y-99245409D01*
X136163393Y-99211431D01*
X136180134Y-99180110D01*
X136202661Y-99152661D01*
X136230110Y-99130134D01*
X136261431Y-99113393D01*
X136295409Y-99103085D01*
X136336890Y-99099000D01*
X137013110Y-99099000D01*
X137054591Y-99103085D01*
G37*
G36*
X142029591Y-99103085D02*
G01*
X142063569Y-99113393D01*
X142094890Y-99130134D01*
X142122339Y-99152661D01*
X142144866Y-99180110D01*
X142161607Y-99211431D01*
X142171915Y-99245409D01*
X142176000Y-99286890D01*
X142176000Y-99888110D01*
X142171915Y-99929591D01*
X142161607Y-99963569D01*
X142144866Y-99994890D01*
X142122339Y-100022339D01*
X142094890Y-100044866D01*
X142063569Y-100061607D01*
X142029591Y-100071915D01*
X141988110Y-100076000D01*
X141311890Y-100076000D01*
X141270409Y-100071915D01*
X141236431Y-100061607D01*
X141205110Y-100044866D01*
X141177661Y-100022339D01*
X141155134Y-99994890D01*
X141138393Y-99963569D01*
X141128085Y-99929591D01*
X141124000Y-99888110D01*
X141124000Y-99286890D01*
X141128085Y-99245409D01*
X141138393Y-99211431D01*
X141155134Y-99180110D01*
X141177661Y-99152661D01*
X141205110Y-99130134D01*
X141236431Y-99113393D01*
X141270409Y-99103085D01*
X141311890Y-99099000D01*
X141988110Y-99099000D01*
X142029591Y-99103085D01*
G37*
G36*
X140379591Y-99103085D02*
G01*
X140413569Y-99113393D01*
X140444890Y-99130134D01*
X140472339Y-99152661D01*
X140494866Y-99180110D01*
X140511607Y-99211431D01*
X140521915Y-99245409D01*
X140526000Y-99286890D01*
X140526000Y-99888110D01*
X140521915Y-99929591D01*
X140511607Y-99963569D01*
X140494866Y-99994890D01*
X140472339Y-100022339D01*
X140444890Y-100044866D01*
X140413569Y-100061607D01*
X140379591Y-100071915D01*
X140338110Y-100076000D01*
X139661890Y-100076000D01*
X139620409Y-100071915D01*
X139586431Y-100061607D01*
X139555110Y-100044866D01*
X139527661Y-100022339D01*
X139505134Y-99994890D01*
X139488393Y-99963569D01*
X139478085Y-99929591D01*
X139474000Y-99888110D01*
X139474000Y-99286890D01*
X139478085Y-99245409D01*
X139488393Y-99211431D01*
X139505134Y-99180110D01*
X139527661Y-99152661D01*
X139555110Y-99130134D01*
X139586431Y-99113393D01*
X139620409Y-99103085D01*
X139661890Y-99099000D01*
X140338110Y-99099000D01*
X140379591Y-99103085D01*
G37*
G36*
X135404591Y-99090585D02*
G01*
X135438569Y-99100893D01*
X135469890Y-99117634D01*
X135497339Y-99140161D01*
X135519866Y-99167610D01*
X135536607Y-99198931D01*
X135546915Y-99232909D01*
X135551000Y-99274390D01*
X135551000Y-99875610D01*
X135546915Y-99917091D01*
X135536607Y-99951069D01*
X135519866Y-99982390D01*
X135497339Y-100009839D01*
X135469890Y-100032366D01*
X135438569Y-100049107D01*
X135404591Y-100059415D01*
X135363110Y-100063500D01*
X134686890Y-100063500D01*
X134645409Y-100059415D01*
X134611431Y-100049107D01*
X134580110Y-100032366D01*
X134552661Y-100009839D01*
X134530134Y-99982390D01*
X134513393Y-99951069D01*
X134503085Y-99917091D01*
X134499000Y-99875610D01*
X134499000Y-99274390D01*
X134503085Y-99232909D01*
X134513393Y-99198931D01*
X134530134Y-99167610D01*
X134552661Y-99140161D01*
X134580110Y-99117634D01*
X134611431Y-99100893D01*
X134645409Y-99090585D01*
X134686890Y-99086500D01*
X135363110Y-99086500D01*
X135404591Y-99090585D01*
G37*
G36*
X157685499Y-99782399D02*
G01*
X156694499Y-99782399D01*
X156694499Y-98867599D01*
X157685499Y-98867599D01*
X157685499Y-99782399D01*
G37*
G36*
X151825501Y-99757399D02*
G01*
X150834501Y-99757399D01*
X150834501Y-98842599D01*
X151825501Y-98842599D01*
X151825501Y-99757399D01*
G37*
G36*
X149804591Y-98403085D02*
G01*
X149838569Y-98413393D01*
X149869890Y-98430134D01*
X149897339Y-98452661D01*
X149919866Y-98480110D01*
X149936607Y-98511431D01*
X149946915Y-98545409D01*
X149951000Y-98586890D01*
X149951000Y-99188110D01*
X149946915Y-99229591D01*
X149936607Y-99263569D01*
X149919866Y-99294890D01*
X149897339Y-99322339D01*
X149869890Y-99344866D01*
X149838569Y-99361607D01*
X149804591Y-99371915D01*
X149763110Y-99376000D01*
X149086890Y-99376000D01*
X149045409Y-99371915D01*
X149011431Y-99361607D01*
X148980110Y-99344866D01*
X148952661Y-99322339D01*
X148930134Y-99294890D01*
X148913393Y-99263569D01*
X148903085Y-99229591D01*
X148899000Y-99188110D01*
X148899000Y-98586890D01*
X148903085Y-98545409D01*
X148913393Y-98511431D01*
X148930134Y-98480110D01*
X148952661Y-98452661D01*
X148980110Y-98430134D01*
X149011431Y-98413393D01*
X149045409Y-98403085D01*
X149086890Y-98399000D01*
X149763110Y-98399000D01*
X149804591Y-98403085D01*
G37*
G36*
X155795500Y-98757400D02*
G01*
X154804500Y-98757400D01*
X154804500Y-97842600D01*
X155795500Y-97842600D01*
X155795500Y-98757400D01*
G37*
G36*
X153715500Y-98732400D02*
G01*
X152724500Y-98732400D01*
X152724500Y-97817600D01*
X153715500Y-97817600D01*
X153715500Y-98732400D01*
G37*
G36*
X138704591Y-97553085D02*
G01*
X138738569Y-97563393D01*
X138769890Y-97580134D01*
X138797339Y-97602661D01*
X138819866Y-97630110D01*
X138836607Y-97661431D01*
X138846915Y-97695409D01*
X138851000Y-97736890D01*
X138851000Y-98338110D01*
X138846915Y-98379591D01*
X138836607Y-98413569D01*
X138819866Y-98444890D01*
X138797339Y-98472339D01*
X138769890Y-98494866D01*
X138738569Y-98511607D01*
X138704591Y-98521915D01*
X138663110Y-98526000D01*
X137986890Y-98526000D01*
X137945409Y-98521915D01*
X137911431Y-98511607D01*
X137880110Y-98494866D01*
X137852661Y-98472339D01*
X137830134Y-98444890D01*
X137813393Y-98413569D01*
X137803085Y-98379591D01*
X137799000Y-98338110D01*
X137799000Y-97736890D01*
X137803085Y-97695409D01*
X137813393Y-97661431D01*
X137830134Y-97630110D01*
X137852661Y-97602661D01*
X137880110Y-97580134D01*
X137911431Y-97563393D01*
X137945409Y-97553085D01*
X137986890Y-97549000D01*
X138663110Y-97549000D01*
X138704591Y-97553085D01*
G37*
G36*
X143854591Y-97553085D02*
G01*
X143888569Y-97563393D01*
X143919890Y-97580134D01*
X143947339Y-97602661D01*
X143969866Y-97630110D01*
X143986607Y-97661431D01*
X143996915Y-97695409D01*
X144001000Y-97736890D01*
X144001000Y-98338110D01*
X143996915Y-98379591D01*
X143986607Y-98413569D01*
X143969866Y-98444890D01*
X143947339Y-98472339D01*
X143919890Y-98494866D01*
X143888569Y-98511607D01*
X143854591Y-98521915D01*
X143813110Y-98526000D01*
X143136890Y-98526000D01*
X143095409Y-98521915D01*
X143061431Y-98511607D01*
X143030110Y-98494866D01*
X143002661Y-98472339D01*
X142980134Y-98444890D01*
X142963393Y-98413569D01*
X142953085Y-98379591D01*
X142949000Y-98338110D01*
X142949000Y-97736890D01*
X142953085Y-97695409D01*
X142963393Y-97661431D01*
X142980134Y-97630110D01*
X143002661Y-97602661D01*
X143030110Y-97580134D01*
X143061431Y-97563393D01*
X143095409Y-97553085D01*
X143136890Y-97549000D01*
X143813110Y-97549000D01*
X143854591Y-97553085D01*
G37*
G36*
X140379591Y-97528085D02*
G01*
X140413569Y-97538393D01*
X140444890Y-97555134D01*
X140472339Y-97577661D01*
X140494866Y-97605110D01*
X140511607Y-97636431D01*
X140521915Y-97670409D01*
X140526000Y-97711890D01*
X140526000Y-98313110D01*
X140521915Y-98354591D01*
X140511607Y-98388569D01*
X140494866Y-98419890D01*
X140472339Y-98447339D01*
X140444890Y-98469866D01*
X140413569Y-98486607D01*
X140379591Y-98496915D01*
X140338110Y-98501000D01*
X139661890Y-98501000D01*
X139620409Y-98496915D01*
X139586431Y-98486607D01*
X139555110Y-98469866D01*
X139527661Y-98447339D01*
X139505134Y-98419890D01*
X139488393Y-98388569D01*
X139478085Y-98354591D01*
X139474000Y-98313110D01*
X139474000Y-97711890D01*
X139478085Y-97670409D01*
X139488393Y-97636431D01*
X139505134Y-97605110D01*
X139527661Y-97577661D01*
X139555110Y-97555134D01*
X139586431Y-97538393D01*
X139620409Y-97528085D01*
X139661890Y-97524000D01*
X140338110Y-97524000D01*
X140379591Y-97528085D01*
G37*
G36*
X142029591Y-97528085D02*
G01*
X142063569Y-97538393D01*
X142094890Y-97555134D01*
X142122339Y-97577661D01*
X142144866Y-97605110D01*
X142161607Y-97636431D01*
X142171915Y-97670409D01*
X142176000Y-97711890D01*
X142176000Y-98313110D01*
X142171915Y-98354591D01*
X142161607Y-98388569D01*
X142144866Y-98419890D01*
X142122339Y-98447339D01*
X142094890Y-98469866D01*
X142063569Y-98486607D01*
X142029591Y-98496915D01*
X141988110Y-98501000D01*
X141311890Y-98501000D01*
X141270409Y-98496915D01*
X141236431Y-98486607D01*
X141205110Y-98469866D01*
X141177661Y-98447339D01*
X141155134Y-98419890D01*
X141138393Y-98388569D01*
X141128085Y-98354591D01*
X141124000Y-98313110D01*
X141124000Y-97711890D01*
X141128085Y-97670409D01*
X141138393Y-97636431D01*
X141155134Y-97605110D01*
X141177661Y-97577661D01*
X141205110Y-97555134D01*
X141236431Y-97538393D01*
X141270409Y-97528085D01*
X141311890Y-97524000D01*
X141988110Y-97524000D01*
X142029591Y-97528085D01*
G37*
G36*
X137054591Y-97528085D02*
G01*
X137088569Y-97538393D01*
X137119890Y-97555134D01*
X137147339Y-97577661D01*
X137169866Y-97605110D01*
X137186607Y-97636431D01*
X137196915Y-97670409D01*
X137201000Y-97711890D01*
X137201000Y-98313110D01*
X137196915Y-98354591D01*
X137186607Y-98388569D01*
X137169866Y-98419890D01*
X137147339Y-98447339D01*
X137119890Y-98469866D01*
X137088569Y-98486607D01*
X137054591Y-98496915D01*
X137013110Y-98501000D01*
X136336890Y-98501000D01*
X136295409Y-98496915D01*
X136261431Y-98486607D01*
X136230110Y-98469866D01*
X136202661Y-98447339D01*
X136180134Y-98419890D01*
X136163393Y-98388569D01*
X136153085Y-98354591D01*
X136149000Y-98313110D01*
X136149000Y-97711890D01*
X136153085Y-97670409D01*
X136163393Y-97636431D01*
X136180134Y-97605110D01*
X136202661Y-97577661D01*
X136230110Y-97555134D01*
X136261431Y-97538393D01*
X136295409Y-97528085D01*
X136336890Y-97524000D01*
X137013110Y-97524000D01*
X137054591Y-97528085D01*
G37*
G36*
X135404591Y-97515585D02*
G01*
X135438569Y-97525893D01*
X135469890Y-97542634D01*
X135497339Y-97565161D01*
X135519866Y-97592610D01*
X135536607Y-97623931D01*
X135546915Y-97657909D01*
X135551000Y-97699390D01*
X135551000Y-98300610D01*
X135546915Y-98342091D01*
X135536607Y-98376069D01*
X135519866Y-98407390D01*
X135497339Y-98434839D01*
X135469890Y-98457366D01*
X135438569Y-98474107D01*
X135404591Y-98484415D01*
X135363110Y-98488500D01*
X134686890Y-98488500D01*
X134645409Y-98484415D01*
X134611431Y-98474107D01*
X134580110Y-98457366D01*
X134552661Y-98434839D01*
X134530134Y-98407390D01*
X134513393Y-98376069D01*
X134503085Y-98342091D01*
X134499000Y-98300610D01*
X134499000Y-97699390D01*
X134503085Y-97657909D01*
X134513393Y-97623931D01*
X134530134Y-97592610D01*
X134552661Y-97565161D01*
X134580110Y-97542634D01*
X134611431Y-97525893D01*
X134645409Y-97515585D01*
X134686890Y-97511500D01*
X135363110Y-97511500D01*
X135404591Y-97515585D01*
G37*
G36*
X149804591Y-96828085D02*
G01*
X149838569Y-96838393D01*
X149869890Y-96855134D01*
X149897339Y-96877661D01*
X149919866Y-96905110D01*
X149936607Y-96936431D01*
X149946915Y-96970409D01*
X149951000Y-97011890D01*
X149951000Y-97613110D01*
X149946915Y-97654591D01*
X149936607Y-97688569D01*
X149919866Y-97719890D01*
X149897339Y-97747339D01*
X149869890Y-97769866D01*
X149838569Y-97786607D01*
X149804591Y-97796915D01*
X149763110Y-97801000D01*
X149086890Y-97801000D01*
X149045409Y-97796915D01*
X149011431Y-97786607D01*
X148980110Y-97769866D01*
X148952661Y-97747339D01*
X148930134Y-97719890D01*
X148913393Y-97688569D01*
X148903085Y-97654591D01*
X148899000Y-97613110D01*
X148899000Y-97011890D01*
X148903085Y-96970409D01*
X148913393Y-96936431D01*
X148930134Y-96905110D01*
X148952661Y-96877661D01*
X148980110Y-96855134D01*
X149011431Y-96838393D01*
X149045409Y-96828085D01*
X149086890Y-96824000D01*
X149763110Y-96824000D01*
X149804591Y-96828085D01*
G37*
G36*
X147429591Y-96803085D02*
G01*
X147463569Y-96813393D01*
X147494890Y-96830134D01*
X147522339Y-96852661D01*
X147544866Y-96880110D01*
X147561607Y-96911431D01*
X147571915Y-96945409D01*
X147576000Y-96986890D01*
X147576000Y-97588110D01*
X147571915Y-97629591D01*
X147561607Y-97663569D01*
X147544866Y-97694890D01*
X147522339Y-97722339D01*
X147494890Y-97744866D01*
X147463569Y-97761607D01*
X147429591Y-97771915D01*
X147388110Y-97776000D01*
X146711890Y-97776000D01*
X146670409Y-97771915D01*
X146636431Y-97761607D01*
X146605110Y-97744866D01*
X146577661Y-97722339D01*
X146555134Y-97694890D01*
X146538393Y-97663569D01*
X146528085Y-97629591D01*
X146524000Y-97588110D01*
X146524000Y-96986890D01*
X146528085Y-96945409D01*
X146538393Y-96911431D01*
X146555134Y-96880110D01*
X146577661Y-96852661D01*
X146605110Y-96830134D01*
X146636431Y-96813393D01*
X146670409Y-96803085D01*
X146711890Y-96799000D01*
X147388110Y-96799000D01*
X147429591Y-96803085D01*
G37*
G36*
X146046000Y-97751000D02*
G01*
X144854000Y-97751000D01*
X144854000Y-96889000D01*
X146046000Y-96889000D01*
X146046000Y-97751000D01*
G37*
G36*
X151825501Y-97707401D02*
G01*
X150834501Y-97707401D01*
X150834501Y-96792601D01*
X151825501Y-96792601D01*
X151825501Y-97707401D01*
G37*
G36*
X159229591Y-96065585D02*
G01*
X159263569Y-96075893D01*
X159294890Y-96092634D01*
X159322339Y-96115161D01*
X159344866Y-96142610D01*
X159361607Y-96173931D01*
X159371915Y-96207909D01*
X159376000Y-96249390D01*
X159376000Y-96850610D01*
X159371915Y-96892091D01*
X159361607Y-96926069D01*
X159344866Y-96957390D01*
X159322339Y-96984839D01*
X159294890Y-97007366D01*
X159263569Y-97024107D01*
X159229591Y-97034415D01*
X159188110Y-97038500D01*
X158511890Y-97038500D01*
X158470409Y-97034415D01*
X158436431Y-97024107D01*
X158405110Y-97007366D01*
X158377661Y-96984839D01*
X158355134Y-96957390D01*
X158338393Y-96926069D01*
X158328085Y-96892091D01*
X158324000Y-96850610D01*
X158324000Y-96249390D01*
X158328085Y-96207909D01*
X158338393Y-96173931D01*
X158355134Y-96142610D01*
X158377661Y-96115161D01*
X158405110Y-96092634D01*
X158436431Y-96075893D01*
X158470409Y-96065585D01*
X158511890Y-96061500D01*
X159188110Y-96061500D01*
X159229591Y-96065585D01*
G37*
G36*
X157554591Y-96053085D02*
G01*
X157588569Y-96063393D01*
X157619890Y-96080134D01*
X157647339Y-96102661D01*
X157669866Y-96130110D01*
X157686607Y-96161431D01*
X157696915Y-96195409D01*
X157701000Y-96236890D01*
X157701000Y-96838110D01*
X157696915Y-96879591D01*
X157686607Y-96913569D01*
X157669866Y-96944890D01*
X157647339Y-96972339D01*
X157619890Y-96994866D01*
X157588569Y-97011607D01*
X157554591Y-97021915D01*
X157513110Y-97026000D01*
X156836890Y-97026000D01*
X156795409Y-97021915D01*
X156761431Y-97011607D01*
X156730110Y-96994866D01*
X156702661Y-96972339D01*
X156680134Y-96944890D01*
X156663393Y-96913569D01*
X156653085Y-96879591D01*
X156649000Y-96838110D01*
X156649000Y-96236890D01*
X156653085Y-96195409D01*
X156663393Y-96161431D01*
X156680134Y-96130110D01*
X156702661Y-96102661D01*
X156730110Y-96080134D01*
X156761431Y-96063393D01*
X156795409Y-96053085D01*
X156836890Y-96049000D01*
X157513110Y-96049000D01*
X157554591Y-96053085D01*
G37*
G36*
X154754591Y-95940585D02*
G01*
X154788569Y-95950893D01*
X154819890Y-95967634D01*
X154847339Y-95990161D01*
X154869866Y-96017610D01*
X154886607Y-96048931D01*
X154896915Y-96082909D01*
X154901000Y-96124390D01*
X154901000Y-96725610D01*
X154896915Y-96767091D01*
X154886607Y-96801069D01*
X154869866Y-96832390D01*
X154847339Y-96859839D01*
X154819890Y-96882366D01*
X154788569Y-96899107D01*
X154754591Y-96909415D01*
X154713110Y-96913500D01*
X154036890Y-96913500D01*
X153995409Y-96909415D01*
X153961431Y-96899107D01*
X153930110Y-96882366D01*
X153902661Y-96859839D01*
X153880134Y-96832390D01*
X153863393Y-96801069D01*
X153853085Y-96767091D01*
X153849000Y-96725610D01*
X153849000Y-96124390D01*
X153853085Y-96082909D01*
X153863393Y-96048931D01*
X153880134Y-96017610D01*
X153902661Y-95990161D01*
X153930110Y-95967634D01*
X153961431Y-95950893D01*
X153995409Y-95940585D01*
X154036890Y-95936500D01*
X154713110Y-95936500D01*
X154754591Y-95940585D01*
G37*
G36*
X146046000Y-96231000D02*
G01*
X144854000Y-96231000D01*
X144854000Y-95369000D01*
X146046000Y-95369000D01*
X146046000Y-96231000D01*
G37*
G36*
X147429591Y-95228085D02*
G01*
X147463569Y-95238393D01*
X147494890Y-95255134D01*
X147522339Y-95277661D01*
X147544866Y-95305110D01*
X147561607Y-95336431D01*
X147571915Y-95370409D01*
X147576000Y-95411890D01*
X147576000Y-96013110D01*
X147571915Y-96054591D01*
X147561607Y-96088569D01*
X147544866Y-96119890D01*
X147522339Y-96147339D01*
X147494890Y-96169866D01*
X147463569Y-96186607D01*
X147429591Y-96196915D01*
X147388110Y-96201000D01*
X146711890Y-96201000D01*
X146670409Y-96196915D01*
X146636431Y-96186607D01*
X146605110Y-96169866D01*
X146577661Y-96147339D01*
X146555134Y-96119890D01*
X146538393Y-96088569D01*
X146528085Y-96054591D01*
X146524000Y-96013110D01*
X146524000Y-95411890D01*
X146528085Y-95370409D01*
X146538393Y-95336431D01*
X146555134Y-95305110D01*
X146577661Y-95277661D01*
X146605110Y-95255134D01*
X146636431Y-95238393D01*
X146670409Y-95228085D01*
X146711890Y-95224000D01*
X147388110Y-95224000D01*
X147429591Y-95228085D01*
G37*
G36*
X135017091Y-95003085D02*
G01*
X135051069Y-95013393D01*
X135082390Y-95030134D01*
X135109839Y-95052661D01*
X135132366Y-95080110D01*
X135149107Y-95111431D01*
X135159415Y-95145409D01*
X135163500Y-95186890D01*
X135163500Y-95863110D01*
X135159415Y-95904591D01*
X135149107Y-95938569D01*
X135132366Y-95969890D01*
X135109839Y-95997339D01*
X135082390Y-96019866D01*
X135051069Y-96036607D01*
X135017091Y-96046915D01*
X134975610Y-96051000D01*
X134374390Y-96051000D01*
X134332909Y-96046915D01*
X134298931Y-96036607D01*
X134267610Y-96019866D01*
X134240161Y-95997339D01*
X134217634Y-95969890D01*
X134200893Y-95938569D01*
X134190585Y-95904591D01*
X134186500Y-95863110D01*
X134186500Y-95186890D01*
X134190585Y-95145409D01*
X134200893Y-95111431D01*
X134217634Y-95080110D01*
X134240161Y-95052661D01*
X134267610Y-95030134D01*
X134298931Y-95013393D01*
X134332909Y-95003085D01*
X134374390Y-94999000D01*
X134975610Y-94999000D01*
X135017091Y-95003085D01*
G37*
G36*
X133442091Y-95003085D02*
G01*
X133476069Y-95013393D01*
X133507390Y-95030134D01*
X133534839Y-95052661D01*
X133557366Y-95080110D01*
X133574107Y-95111431D01*
X133584415Y-95145409D01*
X133588500Y-95186890D01*
X133588500Y-95863110D01*
X133584415Y-95904591D01*
X133574107Y-95938569D01*
X133557366Y-95969890D01*
X133534839Y-95997339D01*
X133507390Y-96019866D01*
X133476069Y-96036607D01*
X133442091Y-96046915D01*
X133400610Y-96051000D01*
X132799390Y-96051000D01*
X132757909Y-96046915D01*
X132723931Y-96036607D01*
X132692610Y-96019866D01*
X132665161Y-95997339D01*
X132642634Y-95969890D01*
X132625893Y-95938569D01*
X132615585Y-95904591D01*
X132611500Y-95863110D01*
X132611500Y-95186890D01*
X132615585Y-95145409D01*
X132625893Y-95111431D01*
X132642634Y-95080110D01*
X132665161Y-95052661D01*
X132692610Y-95030134D01*
X132723931Y-95013393D01*
X132757909Y-95003085D01*
X132799390Y-94999000D01*
X133400610Y-94999000D01*
X133442091Y-95003085D01*
G37*
G36*
X151342091Y-94903085D02*
G01*
X151376069Y-94913393D01*
X151407390Y-94930134D01*
X151434839Y-94952661D01*
X151457366Y-94980110D01*
X151474107Y-95011431D01*
X151484415Y-95045409D01*
X151488500Y-95086890D01*
X151488500Y-95763110D01*
X151484415Y-95804591D01*
X151474107Y-95838569D01*
X151457366Y-95869890D01*
X151434839Y-95897339D01*
X151407390Y-95919866D01*
X151376069Y-95936607D01*
X151342091Y-95946915D01*
X151300610Y-95951000D01*
X150699390Y-95951000D01*
X150657909Y-95946915D01*
X150623931Y-95936607D01*
X150592610Y-95919866D01*
X150565161Y-95897339D01*
X150542634Y-95869890D01*
X150525893Y-95838569D01*
X150515585Y-95804591D01*
X150511500Y-95763110D01*
X150511500Y-95086890D01*
X150515585Y-95045409D01*
X150525893Y-95011431D01*
X150542634Y-94980110D01*
X150565161Y-94952661D01*
X150592610Y-94930134D01*
X150623931Y-94913393D01*
X150657909Y-94903085D01*
X150699390Y-94899000D01*
X151300610Y-94899000D01*
X151342091Y-94903085D01*
G37*
G36*
X149767091Y-94903085D02*
G01*
X149801069Y-94913393D01*
X149832390Y-94930134D01*
X149859839Y-94952661D01*
X149882366Y-94980110D01*
X149899107Y-95011431D01*
X149909415Y-95045409D01*
X149913500Y-95086890D01*
X149913500Y-95763110D01*
X149909415Y-95804591D01*
X149899107Y-95838569D01*
X149882366Y-95869890D01*
X149859839Y-95897339D01*
X149832390Y-95919866D01*
X149801069Y-95936607D01*
X149767091Y-95946915D01*
X149725610Y-95951000D01*
X149124390Y-95951000D01*
X149082909Y-95946915D01*
X149048931Y-95936607D01*
X149017610Y-95919866D01*
X148990161Y-95897339D01*
X148967634Y-95869890D01*
X148950893Y-95838569D01*
X148940585Y-95804591D01*
X148936500Y-95763110D01*
X148936500Y-95086890D01*
X148940585Y-95045409D01*
X148950893Y-95011431D01*
X148967634Y-94980110D01*
X148990161Y-94952661D01*
X149017610Y-94930134D01*
X149048931Y-94913393D01*
X149082909Y-94903085D01*
X149124390Y-94899000D01*
X149725610Y-94899000D01*
X149767091Y-94903085D01*
G37*
G36*
X159229591Y-94490585D02*
G01*
X159263569Y-94500893D01*
X159294890Y-94517634D01*
X159322339Y-94540161D01*
X159344866Y-94567610D01*
X159361607Y-94598931D01*
X159371915Y-94632909D01*
X159376000Y-94674390D01*
X159376000Y-95275610D01*
X159371915Y-95317091D01*
X159361607Y-95351069D01*
X159344866Y-95382390D01*
X159322339Y-95409839D01*
X159294890Y-95432366D01*
X159263569Y-95449107D01*
X159229591Y-95459415D01*
X159188110Y-95463500D01*
X158511890Y-95463500D01*
X158470409Y-95459415D01*
X158436431Y-95449107D01*
X158405110Y-95432366D01*
X158377661Y-95409839D01*
X158355134Y-95382390D01*
X158338393Y-95351069D01*
X158328085Y-95317091D01*
X158324000Y-95275610D01*
X158324000Y-94674390D01*
X158328085Y-94632909D01*
X158338393Y-94598931D01*
X158355134Y-94567610D01*
X158377661Y-94540161D01*
X158405110Y-94517634D01*
X158436431Y-94500893D01*
X158470409Y-94490585D01*
X158511890Y-94486500D01*
X159188110Y-94486500D01*
X159229591Y-94490585D01*
G37*
G36*
X157554591Y-94478085D02*
G01*
X157588569Y-94488393D01*
X157619890Y-94505134D01*
X157647339Y-94527661D01*
X157669866Y-94555110D01*
X157686607Y-94586431D01*
X157696915Y-94620409D01*
X157701000Y-94661890D01*
X157701000Y-95263110D01*
X157696915Y-95304591D01*
X157686607Y-95338569D01*
X157669866Y-95369890D01*
X157647339Y-95397339D01*
X157619890Y-95419866D01*
X157588569Y-95436607D01*
X157554591Y-95446915D01*
X157513110Y-95451000D01*
X156836890Y-95451000D01*
X156795409Y-95446915D01*
X156761431Y-95436607D01*
X156730110Y-95419866D01*
X156702661Y-95397339D01*
X156680134Y-95369890D01*
X156663393Y-95338569D01*
X156653085Y-95304591D01*
X156649000Y-95263110D01*
X156649000Y-94661890D01*
X156653085Y-94620409D01*
X156663393Y-94586431D01*
X156680134Y-94555110D01*
X156702661Y-94527661D01*
X156730110Y-94505134D01*
X156761431Y-94488393D01*
X156795409Y-94478085D01*
X156836890Y-94474000D01*
X157513110Y-94474000D01*
X157554591Y-94478085D01*
G37*
G36*
X154754591Y-94365585D02*
G01*
X154788569Y-94375893D01*
X154819890Y-94392634D01*
X154847339Y-94415161D01*
X154869866Y-94442610D01*
X154886607Y-94473931D01*
X154896915Y-94507909D01*
X154901000Y-94549390D01*
X154901000Y-95150610D01*
X154896915Y-95192091D01*
X154886607Y-95226069D01*
X154869866Y-95257390D01*
X154847339Y-95284839D01*
X154819890Y-95307366D01*
X154788569Y-95324107D01*
X154754591Y-95334415D01*
X154713110Y-95338500D01*
X154036890Y-95338500D01*
X153995409Y-95334415D01*
X153961431Y-95324107D01*
X153930110Y-95307366D01*
X153902661Y-95284839D01*
X153880134Y-95257390D01*
X153863393Y-95226069D01*
X153853085Y-95192091D01*
X153849000Y-95150610D01*
X153849000Y-94549390D01*
X153853085Y-94507909D01*
X153863393Y-94473931D01*
X153880134Y-94442610D01*
X153902661Y-94415161D01*
X153930110Y-94392634D01*
X153961431Y-94375893D01*
X153995409Y-94365585D01*
X154036890Y-94361500D01*
X154713110Y-94361500D01*
X154754591Y-94365585D01*
G37*
G36*
X134992091Y-93353085D02*
G01*
X135026069Y-93363393D01*
X135057390Y-93380134D01*
X135084839Y-93402661D01*
X135107366Y-93430110D01*
X135124107Y-93461431D01*
X135134415Y-93495409D01*
X135138500Y-93536890D01*
X135138500Y-94213110D01*
X135134415Y-94254591D01*
X135124107Y-94288569D01*
X135107366Y-94319890D01*
X135084839Y-94347339D01*
X135057390Y-94369866D01*
X135026069Y-94386607D01*
X134992091Y-94396915D01*
X134950610Y-94401000D01*
X134349390Y-94401000D01*
X134307909Y-94396915D01*
X134273931Y-94386607D01*
X134242610Y-94369866D01*
X134215161Y-94347339D01*
X134192634Y-94319890D01*
X134175893Y-94288569D01*
X134165585Y-94254591D01*
X134161500Y-94213110D01*
X134161500Y-93536890D01*
X134165585Y-93495409D01*
X134175893Y-93461431D01*
X134192634Y-93430110D01*
X134215161Y-93402661D01*
X134242610Y-93380134D01*
X134273931Y-93363393D01*
X134307909Y-93353085D01*
X134349390Y-93349000D01*
X134950610Y-93349000D01*
X134992091Y-93353085D01*
G37*
G36*
X133417091Y-93353085D02*
G01*
X133451069Y-93363393D01*
X133482390Y-93380134D01*
X133509839Y-93402661D01*
X133532366Y-93430110D01*
X133549107Y-93461431D01*
X133559415Y-93495409D01*
X133563500Y-93536890D01*
X133563500Y-94213110D01*
X133559415Y-94254591D01*
X133549107Y-94288569D01*
X133532366Y-94319890D01*
X133509839Y-94347339D01*
X133482390Y-94369866D01*
X133451069Y-94386607D01*
X133417091Y-94396915D01*
X133375610Y-94401000D01*
X132774390Y-94401000D01*
X132732909Y-94396915D01*
X132698931Y-94386607D01*
X132667610Y-94369866D01*
X132640161Y-94347339D01*
X132617634Y-94319890D01*
X132600893Y-94288569D01*
X132590585Y-94254591D01*
X132586500Y-94213110D01*
X132586500Y-93536890D01*
X132590585Y-93495409D01*
X132600893Y-93461431D01*
X132617634Y-93430110D01*
X132640161Y-93402661D01*
X132667610Y-93380134D01*
X132698931Y-93363393D01*
X132732909Y-93353085D01*
X132774390Y-93349000D01*
X133375610Y-93349000D01*
X133417091Y-93353085D01*
G37*
G36*
X147229591Y-93053085D02*
G01*
X147263569Y-93063393D01*
X147294890Y-93080134D01*
X147322339Y-93102661D01*
X147344866Y-93130110D01*
X147361607Y-93161431D01*
X147371915Y-93195409D01*
X147376000Y-93236890D01*
X147376000Y-93913110D01*
X147371915Y-93954591D01*
X147361607Y-93988569D01*
X147344866Y-94019890D01*
X147322339Y-94047339D01*
X147294890Y-94069866D01*
X147263569Y-94086607D01*
X147229591Y-94096915D01*
X147188110Y-94101000D01*
X146586890Y-94101000D01*
X146545409Y-94096915D01*
X146511431Y-94086607D01*
X146480110Y-94069866D01*
X146452661Y-94047339D01*
X146430134Y-94019890D01*
X146413393Y-93988569D01*
X146403085Y-93954591D01*
X146399000Y-93913110D01*
X146399000Y-93236890D01*
X146403085Y-93195409D01*
X146413393Y-93161431D01*
X146430134Y-93130110D01*
X146452661Y-93102661D01*
X146480110Y-93080134D01*
X146511431Y-93063393D01*
X146545409Y-93053085D01*
X146586890Y-93049000D01*
X147188110Y-93049000D01*
X147229591Y-93053085D01*
G37*
G36*
X148804591Y-93053085D02*
G01*
X148838569Y-93063393D01*
X148869890Y-93080134D01*
X148897339Y-93102661D01*
X148919866Y-93130110D01*
X148936607Y-93161431D01*
X148946915Y-93195409D01*
X148951000Y-93236890D01*
X148951000Y-93913110D01*
X148946915Y-93954591D01*
X148936607Y-93988569D01*
X148919866Y-94019890D01*
X148897339Y-94047339D01*
X148869890Y-94069866D01*
X148838569Y-94086607D01*
X148804591Y-94096915D01*
X148763110Y-94101000D01*
X148161890Y-94101000D01*
X148120409Y-94096915D01*
X148086431Y-94086607D01*
X148055110Y-94069866D01*
X148027661Y-94047339D01*
X148005134Y-94019890D01*
X147988393Y-93988569D01*
X147978085Y-93954591D01*
X147974000Y-93913110D01*
X147974000Y-93236890D01*
X147978085Y-93195409D01*
X147988393Y-93161431D01*
X148005134Y-93130110D01*
X148027661Y-93102661D01*
X148055110Y-93080134D01*
X148086431Y-93063393D01*
X148120409Y-93053085D01*
X148161890Y-93049000D01*
X148763110Y-93049000D01*
X148804591Y-93053085D01*
G37*
G36*
X145607000Y-93936000D02*
G01*
X142943000Y-93936000D01*
X142943000Y-92814000D01*
X145607000Y-92814000D01*
X145607000Y-93936000D01*
G37*
G36*
X151427290Y-91525619D02*
G01*
X151491689Y-91538429D01*
X151673678Y-91613811D01*
X151837463Y-91723249D01*
X151976751Y-91862537D01*
X152086189Y-92026322D01*
X152155000Y-92192448D01*
X152161571Y-92208312D01*
X152200000Y-92401507D01*
X152200000Y-92598493D01*
X152190771Y-92644890D01*
X152161571Y-92791689D01*
X152086189Y-92973678D01*
X151976751Y-93137463D01*
X151837463Y-93276751D01*
X151673678Y-93386189D01*
X151491689Y-93461571D01*
X151427290Y-93474381D01*
X151298493Y-93500000D01*
X151101507Y-93500000D01*
X150972710Y-93474381D01*
X150908311Y-93461571D01*
X150726322Y-93386189D01*
X150562537Y-93276751D01*
X150423249Y-93137463D01*
X150313811Y-92973678D01*
X150238429Y-92791689D01*
X150209229Y-92644890D01*
X150200000Y-92598493D01*
X150200000Y-92401507D01*
X150238429Y-92208312D01*
X150245000Y-92192448D01*
X150313811Y-92026322D01*
X150423249Y-91862537D01*
X150562537Y-91723249D01*
X150726322Y-91613811D01*
X150908311Y-91538429D01*
X150972710Y-91525619D01*
X151101507Y-91500000D01*
X151298493Y-91500000D01*
X151427290Y-91525619D01*
G37*
G36*
X156455001Y-93301199D02*
G01*
X155845001Y-93301199D01*
X155845001Y-91889601D01*
X156455001Y-91889601D01*
X156455001Y-93301199D01*
G37*
G36*
X154554999Y-93301199D02*
G01*
X153944999Y-93301199D01*
X153944999Y-91889601D01*
X154554999Y-91889601D01*
X154554999Y-93301199D01*
G37*
G36*
X133392091Y-91678085D02*
G01*
X133426069Y-91688393D01*
X133457390Y-91705134D01*
X133484839Y-91727661D01*
X133507366Y-91755110D01*
X133524107Y-91786431D01*
X133534415Y-91820409D01*
X133538500Y-91861890D01*
X133538500Y-92538110D01*
X133534415Y-92579591D01*
X133524107Y-92613569D01*
X133507366Y-92644890D01*
X133484839Y-92672339D01*
X133457390Y-92694866D01*
X133426069Y-92711607D01*
X133392091Y-92721915D01*
X133350610Y-92726000D01*
X132749390Y-92726000D01*
X132707909Y-92721915D01*
X132673931Y-92711607D01*
X132642610Y-92694866D01*
X132615161Y-92672339D01*
X132592634Y-92644890D01*
X132575893Y-92613569D01*
X132565585Y-92579591D01*
X132561500Y-92538110D01*
X132561500Y-91861890D01*
X132565585Y-91820409D01*
X132575893Y-91786431D01*
X132592634Y-91755110D01*
X132615161Y-91727661D01*
X132642610Y-91705134D01*
X132673931Y-91688393D01*
X132707909Y-91678085D01*
X132749390Y-91674000D01*
X133350610Y-91674000D01*
X133392091Y-91678085D01*
G37*
G36*
X134967091Y-91678085D02*
G01*
X135001069Y-91688393D01*
X135032390Y-91705134D01*
X135059839Y-91727661D01*
X135082366Y-91755110D01*
X135099107Y-91786431D01*
X135109415Y-91820409D01*
X135113500Y-91861890D01*
X135113500Y-92538110D01*
X135109415Y-92579591D01*
X135099107Y-92613569D01*
X135082366Y-92644890D01*
X135059839Y-92672339D01*
X135032390Y-92694866D01*
X135001069Y-92711607D01*
X134967091Y-92721915D01*
X134925610Y-92726000D01*
X134324390Y-92726000D01*
X134282909Y-92721915D01*
X134248931Y-92711607D01*
X134217610Y-92694866D01*
X134190161Y-92672339D01*
X134167634Y-92644890D01*
X134150893Y-92613569D01*
X134140585Y-92579591D01*
X134136500Y-92538110D01*
X134136500Y-91861890D01*
X134140585Y-91820409D01*
X134150893Y-91786431D01*
X134167634Y-91755110D01*
X134190161Y-91727661D01*
X134217610Y-91705134D01*
X134248931Y-91688393D01*
X134282909Y-91678085D01*
X134324390Y-91674000D01*
X134925610Y-91674000D01*
X134967091Y-91678085D01*
G37*
G36*
X148817091Y-91253085D02*
G01*
X148851069Y-91263393D01*
X148882390Y-91280134D01*
X148909839Y-91302661D01*
X148932366Y-91330110D01*
X148949107Y-91361431D01*
X148959415Y-91395409D01*
X148963500Y-91436890D01*
X148963500Y-92113110D01*
X148959415Y-92154591D01*
X148949107Y-92188569D01*
X148932366Y-92219890D01*
X148909839Y-92247339D01*
X148882390Y-92269866D01*
X148851069Y-92286607D01*
X148817091Y-92296915D01*
X148775610Y-92301000D01*
X148174390Y-92301000D01*
X148132909Y-92296915D01*
X148098931Y-92286607D01*
X148067610Y-92269866D01*
X148040161Y-92247339D01*
X148017634Y-92219890D01*
X148000893Y-92188569D01*
X147990585Y-92154591D01*
X147986500Y-92113110D01*
X147986500Y-91436890D01*
X147990585Y-91395409D01*
X148000893Y-91361431D01*
X148017634Y-91330110D01*
X148040161Y-91302661D01*
X148067610Y-91280134D01*
X148098931Y-91263393D01*
X148132909Y-91253085D01*
X148174390Y-91249000D01*
X148775610Y-91249000D01*
X148817091Y-91253085D01*
G37*
G36*
X147242091Y-91253085D02*
G01*
X147276069Y-91263393D01*
X147307390Y-91280134D01*
X147334839Y-91302661D01*
X147357366Y-91330110D01*
X147374107Y-91361431D01*
X147384415Y-91395409D01*
X147388500Y-91436890D01*
X147388500Y-92113110D01*
X147384415Y-92154591D01*
X147374107Y-92188569D01*
X147357366Y-92219890D01*
X147334839Y-92247339D01*
X147307390Y-92269866D01*
X147276069Y-92286607D01*
X147242091Y-92296915D01*
X147200610Y-92301000D01*
X146599390Y-92301000D01*
X146557909Y-92296915D01*
X146523931Y-92286607D01*
X146492610Y-92269866D01*
X146465161Y-92247339D01*
X146442634Y-92219890D01*
X146425893Y-92188569D01*
X146415585Y-92154591D01*
X146411500Y-92113110D01*
X146411500Y-91436890D01*
X146415585Y-91395409D01*
X146425893Y-91361431D01*
X146442634Y-91330110D01*
X146465161Y-91302661D01*
X146492610Y-91280134D01*
X146523931Y-91263393D01*
X146557909Y-91253085D01*
X146599390Y-91249000D01*
X147200610Y-91249000D01*
X147242091Y-91253085D01*
G37*
G36*
X158954591Y-91190585D02*
G01*
X158988569Y-91200893D01*
X159019890Y-91217634D01*
X159047339Y-91240161D01*
X159069866Y-91267610D01*
X159086607Y-91298931D01*
X159096915Y-91332909D01*
X159101000Y-91374390D01*
X159101000Y-91975610D01*
X159096915Y-92017091D01*
X159086607Y-92051069D01*
X159069866Y-92082390D01*
X159047339Y-92109839D01*
X159019890Y-92132366D01*
X158988569Y-92149107D01*
X158954591Y-92159415D01*
X158913110Y-92163500D01*
X158236890Y-92163500D01*
X158195409Y-92159415D01*
X158161431Y-92149107D01*
X158130110Y-92132366D01*
X158102661Y-92109839D01*
X158080134Y-92082390D01*
X158063393Y-92051069D01*
X158053085Y-92017091D01*
X158049000Y-91975610D01*
X158049000Y-91374390D01*
X158053085Y-91332909D01*
X158063393Y-91298931D01*
X158080134Y-91267610D01*
X158102661Y-91240161D01*
X158130110Y-91217634D01*
X158161431Y-91200893D01*
X158195409Y-91190585D01*
X158236890Y-91186500D01*
X158913110Y-91186500D01*
X158954591Y-91190585D01*
G37*
G36*
X143707000Y-92136000D02*
G01*
X142943000Y-92136000D01*
X142943000Y-91014000D01*
X143707000Y-91014000D01*
X143707000Y-92136000D01*
G37*
G36*
X145607000Y-92136000D02*
G01*
X144843000Y-92136000D01*
X144843000Y-91014000D01*
X145607000Y-91014000D01*
X145607000Y-92136000D01*
G37*
G36*
X133379591Y-90003085D02*
G01*
X133413569Y-90013393D01*
X133444890Y-90030134D01*
X133472339Y-90052661D01*
X133494866Y-90080110D01*
X133511607Y-90111431D01*
X133521915Y-90145409D01*
X133526000Y-90186890D01*
X133526000Y-90863110D01*
X133521915Y-90904591D01*
X133511607Y-90938569D01*
X133494866Y-90969890D01*
X133472339Y-90997339D01*
X133444890Y-91019866D01*
X133413569Y-91036607D01*
X133379591Y-91046915D01*
X133338110Y-91051000D01*
X132736890Y-91051000D01*
X132695409Y-91046915D01*
X132661431Y-91036607D01*
X132630110Y-91019866D01*
X132602661Y-90997339D01*
X132580134Y-90969890D01*
X132563393Y-90938569D01*
X132553085Y-90904591D01*
X132549000Y-90863110D01*
X132549000Y-90186890D01*
X132553085Y-90145409D01*
X132563393Y-90111431D01*
X132580134Y-90080110D01*
X132602661Y-90052661D01*
X132630110Y-90030134D01*
X132661431Y-90013393D01*
X132695409Y-90003085D01*
X132736890Y-89999000D01*
X133338110Y-89999000D01*
X133379591Y-90003085D01*
G37*
G36*
X134954591Y-90003085D02*
G01*
X134988569Y-90013393D01*
X135019890Y-90030134D01*
X135047339Y-90052661D01*
X135069866Y-90080110D01*
X135086607Y-90111431D01*
X135096915Y-90145409D01*
X135101000Y-90186890D01*
X135101000Y-90863110D01*
X135096915Y-90904591D01*
X135086607Y-90938569D01*
X135069866Y-90969890D01*
X135047339Y-90997339D01*
X135019890Y-91019866D01*
X134988569Y-91036607D01*
X134954591Y-91046915D01*
X134913110Y-91051000D01*
X134311890Y-91051000D01*
X134270409Y-91046915D01*
X134236431Y-91036607D01*
X134205110Y-91019866D01*
X134177661Y-90997339D01*
X134155134Y-90969890D01*
X134138393Y-90938569D01*
X134128085Y-90904591D01*
X134124000Y-90863110D01*
X134124000Y-90186890D01*
X134128085Y-90145409D01*
X134138393Y-90111431D01*
X134155134Y-90080110D01*
X134177661Y-90052661D01*
X134205110Y-90030134D01*
X134236431Y-90013393D01*
X134270409Y-90003085D01*
X134311890Y-89999000D01*
X134913110Y-89999000D01*
X134954591Y-90003085D01*
G37*
G36*
X154554999Y-90710399D02*
G01*
X153944999Y-90710399D01*
X153944999Y-89298801D01*
X154554999Y-89298801D01*
X154554999Y-90710399D01*
G37*
G36*
X155505000Y-90710399D02*
G01*
X154895000Y-90710399D01*
X154895000Y-89298801D01*
X155505000Y-89298801D01*
X155505000Y-90710399D01*
G37*
G36*
X156455001Y-90710399D02*
G01*
X155845001Y-90710399D01*
X155845001Y-89298801D01*
X156455001Y-89298801D01*
X156455001Y-90710399D01*
G37*
G36*
X158954591Y-89615585D02*
G01*
X158988569Y-89625893D01*
X159019890Y-89642634D01*
X159047339Y-89665161D01*
X159069866Y-89692610D01*
X159086607Y-89723931D01*
X159096915Y-89757909D01*
X159101000Y-89799390D01*
X159101000Y-90400610D01*
X159096915Y-90442091D01*
X159086607Y-90476069D01*
X159069866Y-90507390D01*
X159047339Y-90534839D01*
X159019890Y-90557366D01*
X158988569Y-90574107D01*
X158954591Y-90584415D01*
X158913110Y-90588500D01*
X158236890Y-90588500D01*
X158195409Y-90584415D01*
X158161431Y-90574107D01*
X158130110Y-90557366D01*
X158102661Y-90534839D01*
X158080134Y-90507390D01*
X158063393Y-90476069D01*
X158053085Y-90442091D01*
X158049000Y-90400610D01*
X158049000Y-89799390D01*
X158053085Y-89757909D01*
X158063393Y-89723931D01*
X158080134Y-89692610D01*
X158102661Y-89665161D01*
X158130110Y-89642634D01*
X158161431Y-89625893D01*
X158195409Y-89615585D01*
X158236890Y-89611500D01*
X158913110Y-89611500D01*
X158954591Y-89615585D01*
G37*
G36*
X142352127Y-85997874D02*
G01*
X142354529Y-86022260D01*
X142361642Y-86045709D01*
X142373193Y-86067320D01*
X142388738Y-86086262D01*
X142407680Y-86101807D01*
X142429291Y-86113358D01*
X142452740Y-86120471D01*
X142477126Y-86122873D01*
X143045674Y-86122873D01*
X143045674Y-89527127D01*
X142477126Y-89527127D01*
X142452740Y-89529529D01*
X142429291Y-89536642D01*
X142407680Y-89548193D01*
X142388738Y-89563738D01*
X142373193Y-89582680D01*
X142361642Y-89604291D01*
X142354529Y-89627740D01*
X142352127Y-89652126D01*
X142352127Y-90220674D01*
X138947873Y-90220674D01*
X138947873Y-89652126D01*
X138945471Y-89627740D01*
X138938358Y-89604291D01*
X138926807Y-89582680D01*
X138911262Y-89563738D01*
X138892320Y-89548193D01*
X138870709Y-89536642D01*
X138847260Y-89529529D01*
X138822874Y-89527127D01*
X138254326Y-89527127D01*
X138254326Y-86256273D01*
X138956274Y-86256273D01*
X138956274Y-89393727D01*
X138958676Y-89418113D01*
X138965789Y-89441562D01*
X138977340Y-89463173D01*
X138992885Y-89482115D01*
X139011827Y-89497660D01*
X139033438Y-89509211D01*
X139056887Y-89516324D01*
X139081273Y-89518726D01*
X142218727Y-89518726D01*
X142243113Y-89516324D01*
X142266562Y-89509211D01*
X142288173Y-89497660D01*
X142307115Y-89482115D01*
X142322660Y-89463173D01*
X142334211Y-89441562D01*
X142341324Y-89418113D01*
X142343726Y-89393727D01*
X142343726Y-86256273D01*
X142341324Y-86231887D01*
X142334211Y-86208438D01*
X142322660Y-86186827D01*
X142307115Y-86167885D01*
X142288173Y-86152340D01*
X142266562Y-86140789D01*
X142243113Y-86133676D01*
X142218727Y-86131274D01*
X139081273Y-86131274D01*
X139056887Y-86133676D01*
X139033438Y-86140789D01*
X139011827Y-86152340D01*
X138992885Y-86167885D01*
X138977340Y-86186827D01*
X138965789Y-86208438D01*
X138958676Y-86231887D01*
X138956274Y-86256273D01*
X138254326Y-86256273D01*
X138254326Y-86122873D01*
X138822874Y-86122873D01*
X138847260Y-86120471D01*
X138870709Y-86113358D01*
X138892320Y-86101807D01*
X138911262Y-86086262D01*
X138926807Y-86067320D01*
X138938358Y-86045709D01*
X138945471Y-86022260D01*
X138947873Y-85997874D01*
X138947873Y-85429326D01*
X142352127Y-85429326D01*
X142352127Y-85997874D01*
G37*
G36*
X134929591Y-88253085D02*
G01*
X134963569Y-88263393D01*
X134994890Y-88280134D01*
X135022339Y-88302661D01*
X135044866Y-88330110D01*
X135061607Y-88361431D01*
X135071915Y-88395409D01*
X135076000Y-88436890D01*
X135076000Y-89113110D01*
X135071915Y-89154591D01*
X135061607Y-89188569D01*
X135044866Y-89219890D01*
X135022339Y-89247339D01*
X134994890Y-89269866D01*
X134963569Y-89286607D01*
X134929591Y-89296915D01*
X134888110Y-89301000D01*
X134286890Y-89301000D01*
X134245409Y-89296915D01*
X134211431Y-89286607D01*
X134180110Y-89269866D01*
X134152661Y-89247339D01*
X134130134Y-89219890D01*
X134113393Y-89188569D01*
X134103085Y-89154591D01*
X134099000Y-89113110D01*
X134099000Y-88436890D01*
X134103085Y-88395409D01*
X134113393Y-88361431D01*
X134130134Y-88330110D01*
X134152661Y-88302661D01*
X134180110Y-88280134D01*
X134211431Y-88263393D01*
X134245409Y-88253085D01*
X134286890Y-88249000D01*
X134888110Y-88249000D01*
X134929591Y-88253085D01*
G37*
G36*
X133354591Y-88253085D02*
G01*
X133388569Y-88263393D01*
X133419890Y-88280134D01*
X133447339Y-88302661D01*
X133469866Y-88330110D01*
X133486607Y-88361431D01*
X133496915Y-88395409D01*
X133501000Y-88436890D01*
X133501000Y-89113110D01*
X133496915Y-89154591D01*
X133486607Y-89188569D01*
X133469866Y-89219890D01*
X133447339Y-89247339D01*
X133419890Y-89269866D01*
X133388569Y-89286607D01*
X133354591Y-89296915D01*
X133313110Y-89301000D01*
X132711890Y-89301000D01*
X132670409Y-89296915D01*
X132636431Y-89286607D01*
X132605110Y-89269866D01*
X132577661Y-89247339D01*
X132555134Y-89219890D01*
X132538393Y-89188569D01*
X132528085Y-89154591D01*
X132524000Y-89113110D01*
X132524000Y-88436890D01*
X132528085Y-88395409D01*
X132538393Y-88361431D01*
X132555134Y-88330110D01*
X132577661Y-88302661D01*
X132605110Y-88280134D01*
X132636431Y-88263393D01*
X132670409Y-88253085D01*
X132711890Y-88249000D01*
X133313110Y-88249000D01*
X133354591Y-88253085D01*
G37*
G36*
X131479591Y-88178085D02*
G01*
X131513569Y-88188393D01*
X131544890Y-88205134D01*
X131572339Y-88227661D01*
X131594866Y-88255110D01*
X131611607Y-88286431D01*
X131621915Y-88320409D01*
X131626000Y-88361890D01*
X131626000Y-88963110D01*
X131621915Y-89004591D01*
X131611607Y-89038569D01*
X131594866Y-89069890D01*
X131572339Y-89097339D01*
X131544890Y-89119866D01*
X131513569Y-89136607D01*
X131479591Y-89146915D01*
X131438110Y-89151000D01*
X130761890Y-89151000D01*
X130720409Y-89146915D01*
X130686431Y-89136607D01*
X130655110Y-89119866D01*
X130627661Y-89097339D01*
X130605134Y-89069890D01*
X130588393Y-89038569D01*
X130578085Y-89004591D01*
X130574000Y-88963110D01*
X130574000Y-88361890D01*
X130578085Y-88320409D01*
X130588393Y-88286431D01*
X130605134Y-88255110D01*
X130627661Y-88227661D01*
X130655110Y-88205134D01*
X130686431Y-88188393D01*
X130720409Y-88178085D01*
X130761890Y-88174000D01*
X131438110Y-88174000D01*
X131479591Y-88178085D01*
G37*
G36*
X146991000Y-88341000D02*
G01*
X146449000Y-88341000D01*
X146449000Y-87199000D01*
X146991000Y-87199000D01*
X146991000Y-88341000D01*
G37*
G36*
X148261000Y-88341000D02*
G01*
X147719000Y-88341000D01*
X147719000Y-87199000D01*
X148261000Y-87199000D01*
X148261000Y-88341000D01*
G37*
G36*
X149531000Y-88341000D02*
G01*
X148989000Y-88341000D01*
X148989000Y-87199000D01*
X149531000Y-87199000D01*
X149531000Y-88341000D01*
G37*
G36*
X150801000Y-88341000D02*
G01*
X150259000Y-88341000D01*
X150259000Y-87199000D01*
X150801000Y-87199000D01*
X150801000Y-88341000D01*
G37*
G36*
X159101000Y-88176000D02*
G01*
X157699000Y-88176000D01*
X157699000Y-86424000D01*
X159101000Y-86424000D01*
X159101000Y-88176000D01*
G37*
G36*
X133342091Y-86603085D02*
G01*
X133376069Y-86613393D01*
X133407390Y-86630134D01*
X133434839Y-86652661D01*
X133457366Y-86680110D01*
X133474107Y-86711431D01*
X133484415Y-86745409D01*
X133488500Y-86786890D01*
X133488500Y-87463110D01*
X133484415Y-87504591D01*
X133474107Y-87538569D01*
X133457366Y-87569890D01*
X133434839Y-87597339D01*
X133407390Y-87619866D01*
X133376069Y-87636607D01*
X133342091Y-87646915D01*
X133300610Y-87651000D01*
X132699390Y-87651000D01*
X132657909Y-87646915D01*
X132623931Y-87636607D01*
X132592610Y-87619866D01*
X132565161Y-87597339D01*
X132542634Y-87569890D01*
X132525893Y-87538569D01*
X132515585Y-87504591D01*
X132511500Y-87463110D01*
X132511500Y-86786890D01*
X132515585Y-86745409D01*
X132525893Y-86711431D01*
X132542634Y-86680110D01*
X132565161Y-86652661D01*
X132592610Y-86630134D01*
X132623931Y-86613393D01*
X132657909Y-86603085D01*
X132699390Y-86599000D01*
X133300610Y-86599000D01*
X133342091Y-86603085D01*
G37*
G36*
X134917091Y-86603085D02*
G01*
X134951069Y-86613393D01*
X134982390Y-86630134D01*
X135009839Y-86652661D01*
X135032366Y-86680110D01*
X135049107Y-86711431D01*
X135059415Y-86745409D01*
X135063500Y-86786890D01*
X135063500Y-87463110D01*
X135059415Y-87504591D01*
X135049107Y-87538569D01*
X135032366Y-87569890D01*
X135009839Y-87597339D01*
X134982390Y-87619866D01*
X134951069Y-87636607D01*
X134917091Y-87646915D01*
X134875610Y-87651000D01*
X134274390Y-87651000D01*
X134232909Y-87646915D01*
X134198931Y-87636607D01*
X134167610Y-87619866D01*
X134140161Y-87597339D01*
X134117634Y-87569890D01*
X134100893Y-87538569D01*
X134090585Y-87504591D01*
X134086500Y-87463110D01*
X134086500Y-86786890D01*
X134090585Y-86745409D01*
X134100893Y-86711431D01*
X134117634Y-86680110D01*
X134140161Y-86652661D01*
X134167610Y-86630134D01*
X134198931Y-86613393D01*
X134232909Y-86603085D01*
X134274390Y-86599000D01*
X134875610Y-86599000D01*
X134917091Y-86603085D01*
G37*
G36*
X131479591Y-86603085D02*
G01*
X131513569Y-86613393D01*
X131544890Y-86630134D01*
X131572339Y-86652661D01*
X131594866Y-86680110D01*
X131611607Y-86711431D01*
X131621915Y-86745409D01*
X131626000Y-86786890D01*
X131626000Y-87388110D01*
X131621915Y-87429591D01*
X131611607Y-87463569D01*
X131594866Y-87494890D01*
X131572339Y-87522339D01*
X131544890Y-87544866D01*
X131513569Y-87561607D01*
X131479591Y-87571915D01*
X131438110Y-87576000D01*
X130761890Y-87576000D01*
X130720409Y-87571915D01*
X130686431Y-87561607D01*
X130655110Y-87544866D01*
X130627661Y-87522339D01*
X130605134Y-87494890D01*
X130588393Y-87463569D01*
X130578085Y-87429591D01*
X130574000Y-87388110D01*
X130574000Y-86786890D01*
X130578085Y-86745409D01*
X130588393Y-86711431D01*
X130605134Y-86680110D01*
X130627661Y-86652661D01*
X130655110Y-86630134D01*
X130686431Y-86613393D01*
X130720409Y-86603085D01*
X130761890Y-86599000D01*
X131438110Y-86599000D01*
X131479591Y-86603085D01*
G37*
G36*
X156651000Y-82201000D02*
G01*
X156605999Y-82201000D01*
X156581613Y-82203402D01*
X156558164Y-82210515D01*
X156536553Y-82222066D01*
X156517611Y-82237611D01*
X156502066Y-82256553D01*
X156490515Y-82278164D01*
X156483402Y-82301613D01*
X156481000Y-82325999D01*
X156481000Y-85524001D01*
X156483402Y-85548387D01*
X156490515Y-85571836D01*
X156502066Y-85593447D01*
X156517611Y-85612389D01*
X156536553Y-85627934D01*
X156558164Y-85639485D01*
X156581613Y-85646598D01*
X156605999Y-85649000D01*
X156651000Y-85649000D01*
X156651000Y-87176000D01*
X154999000Y-87176000D01*
X154999000Y-80674000D01*
X156651000Y-80674000D01*
X156651000Y-82201000D01*
G37*
G36*
X150676000Y-86676000D02*
G01*
X146574000Y-86676000D01*
X146574000Y-83174000D01*
X150676000Y-83174000D01*
X150676000Y-86676000D01*
G37*
G36*
X159401000Y-86026000D02*
G01*
X157399000Y-86026000D01*
X157399000Y-84124000D01*
X159401000Y-84124000D01*
X159401000Y-86026000D01*
G37*
G36*
X132452290Y-83850619D02*
G01*
X132516689Y-83863429D01*
X132698678Y-83938811D01*
X132862463Y-84048249D01*
X133001751Y-84187537D01*
X133111189Y-84351322D01*
X133186571Y-84533311D01*
X133225000Y-84726509D01*
X133225000Y-84923491D01*
X133186571Y-85116689D01*
X133111189Y-85298678D01*
X133001751Y-85462463D01*
X132862463Y-85601751D01*
X132698678Y-85711189D01*
X132516689Y-85786571D01*
X132452290Y-85799381D01*
X132323493Y-85825000D01*
X132126507Y-85825000D01*
X131997710Y-85799381D01*
X131933311Y-85786571D01*
X131751322Y-85711189D01*
X131587537Y-85601751D01*
X131448249Y-85462463D01*
X131338811Y-85298678D01*
X131263429Y-85116689D01*
X131225000Y-84923491D01*
X131225000Y-84726509D01*
X131263429Y-84533311D01*
X131338811Y-84351322D01*
X131448249Y-84187537D01*
X131587537Y-84048249D01*
X131751322Y-83938811D01*
X131933311Y-83863429D01*
X131997710Y-83850619D01*
X132126507Y-83825000D01*
X132323493Y-83825000D01*
X132452290Y-83850619D01*
G37*
G36*
X159401000Y-82926000D02*
G01*
X157399000Y-82926000D01*
X157399000Y-81824000D01*
X159401000Y-81824000D01*
X159401000Y-82926000D01*
G37*
G36*
X144773070Y-80774780D02*
G01*
X144841689Y-80788429D01*
X145023678Y-80863811D01*
X145187463Y-80973249D01*
X145326751Y-81112537D01*
X145436189Y-81276322D01*
X145510030Y-81454591D01*
X145511571Y-81458312D01*
X145539954Y-81601000D01*
X145550000Y-81651509D01*
X145550000Y-81848491D01*
X145511571Y-82041689D01*
X145436189Y-82223678D01*
X145326751Y-82387463D01*
X145187463Y-82526751D01*
X145023678Y-82636189D01*
X144841689Y-82711571D01*
X144777290Y-82724381D01*
X144648493Y-82750000D01*
X144451507Y-82750000D01*
X144322710Y-82724381D01*
X144258311Y-82711571D01*
X144076322Y-82636189D01*
X143912537Y-82526751D01*
X143773249Y-82387463D01*
X143663811Y-82223678D01*
X143588429Y-82041689D01*
X143550000Y-81848491D01*
X143550000Y-81651509D01*
X143560047Y-81601000D01*
X143588429Y-81458312D01*
X143589970Y-81454591D01*
X143663811Y-81276322D01*
X143773249Y-81112537D01*
X143912537Y-80973249D01*
X144076322Y-80863811D01*
X144258311Y-80788429D01*
X144326930Y-80774780D01*
X144451507Y-80750000D01*
X144648493Y-80750000D01*
X144773070Y-80774780D01*
G37*
G36*
X148261000Y-82651000D02*
G01*
X147719000Y-82651000D01*
X147719000Y-81509000D01*
X148261000Y-81509000D01*
X148261000Y-82651000D01*
G37*
G36*
X150801000Y-82651000D02*
G01*
X150259000Y-82651000D01*
X150259000Y-81509000D01*
X150801000Y-81509000D01*
X150801000Y-82651000D01*
G37*
G36*
X149531000Y-82651000D02*
G01*
X148989000Y-82651000D01*
X148989000Y-81509000D01*
X149531000Y-81509000D01*
X149531000Y-82651000D01*
G37*
G36*
X146991000Y-82651000D02*
G01*
X146449000Y-82651000D01*
X146449000Y-81509000D01*
X146991000Y-81509000D01*
X146991000Y-82651000D01*
G37*
G36*
X140554591Y-80553085D02*
G01*
X140588569Y-80563393D01*
X140619890Y-80580134D01*
X140647339Y-80602661D01*
X140669866Y-80630110D01*
X140686607Y-80661431D01*
X140696915Y-80695409D01*
X140701000Y-80736890D01*
X140701000Y-81413110D01*
X140696915Y-81454591D01*
X140686607Y-81488569D01*
X140669866Y-81519890D01*
X140647339Y-81547339D01*
X140619890Y-81569866D01*
X140588569Y-81586607D01*
X140554591Y-81596915D01*
X140513110Y-81601000D01*
X139911890Y-81601000D01*
X139870409Y-81596915D01*
X139836431Y-81586607D01*
X139805110Y-81569866D01*
X139777661Y-81547339D01*
X139755134Y-81519890D01*
X139738393Y-81488569D01*
X139728085Y-81454591D01*
X139724000Y-81413110D01*
X139724000Y-80736890D01*
X139728085Y-80695409D01*
X139738393Y-80661431D01*
X139755134Y-80630110D01*
X139777661Y-80602661D01*
X139805110Y-80580134D01*
X139836431Y-80563393D01*
X139870409Y-80553085D01*
X139911890Y-80549000D01*
X140513110Y-80549000D01*
X140554591Y-80553085D01*
G37*
G36*
X131904591Y-80628085D02*
G01*
X131938569Y-80638393D01*
X131969890Y-80655134D01*
X131997339Y-80677661D01*
X132019866Y-80705110D01*
X132036607Y-80736431D01*
X132046915Y-80770409D01*
X132051000Y-80811890D01*
X132051000Y-81413110D01*
X132046915Y-81454591D01*
X132036607Y-81488569D01*
X132019866Y-81519890D01*
X131997339Y-81547339D01*
X131969890Y-81569866D01*
X131938569Y-81586607D01*
X131904591Y-81596915D01*
X131863110Y-81601000D01*
X131186890Y-81601000D01*
X131145409Y-81596915D01*
X131111431Y-81586607D01*
X131080110Y-81569866D01*
X131052661Y-81547339D01*
X131030134Y-81519890D01*
X131013393Y-81488569D01*
X131003085Y-81454591D01*
X130999000Y-81413110D01*
X130999000Y-80811890D01*
X131003085Y-80770409D01*
X131013393Y-80736431D01*
X131030134Y-80705110D01*
X131052661Y-80677661D01*
X131080110Y-80655134D01*
X131111431Y-80638393D01*
X131145409Y-80628085D01*
X131186890Y-80624000D01*
X131863110Y-80624000D01*
X131904591Y-80628085D01*
G37*
G36*
X138979591Y-80553085D02*
G01*
X139013569Y-80563393D01*
X139044890Y-80580134D01*
X139072339Y-80602661D01*
X139094866Y-80630110D01*
X139111607Y-80661431D01*
X139121915Y-80695409D01*
X139126000Y-80736890D01*
X139126000Y-81413110D01*
X139121915Y-81454591D01*
X139111607Y-81488569D01*
X139094866Y-81519890D01*
X139072339Y-81547339D01*
X139044890Y-81569866D01*
X139013569Y-81586607D01*
X138979591Y-81596915D01*
X138938110Y-81601000D01*
X138336890Y-81601000D01*
X138295409Y-81596915D01*
X138261431Y-81586607D01*
X138230110Y-81569866D01*
X138202661Y-81547339D01*
X138180134Y-81519890D01*
X138163393Y-81488569D01*
X138153085Y-81454591D01*
X138149000Y-81413110D01*
X138149000Y-80736890D01*
X138153085Y-80695409D01*
X138163393Y-80661431D01*
X138180134Y-80630110D01*
X138202661Y-80602661D01*
X138230110Y-80580134D01*
X138261431Y-80563393D01*
X138295409Y-80553085D01*
X138336890Y-80549000D01*
X138938110Y-80549000D01*
X138979591Y-80553085D01*
G37*
G36*
X133629591Y-80615585D02*
G01*
X133663569Y-80625893D01*
X133694890Y-80642634D01*
X133722339Y-80665161D01*
X133744866Y-80692610D01*
X133761607Y-80723931D01*
X133771915Y-80757909D01*
X133776000Y-80799390D01*
X133776000Y-81400610D01*
X133771915Y-81442091D01*
X133761607Y-81476069D01*
X133744866Y-81507390D01*
X133722339Y-81534839D01*
X133694890Y-81557366D01*
X133663569Y-81574107D01*
X133629591Y-81584415D01*
X133588110Y-81588500D01*
X132911890Y-81588500D01*
X132870409Y-81584415D01*
X132836431Y-81574107D01*
X132805110Y-81557366D01*
X132777661Y-81534839D01*
X132755134Y-81507390D01*
X132738393Y-81476069D01*
X132728085Y-81442091D01*
X132724000Y-81400610D01*
X132724000Y-80799390D01*
X132728085Y-80757909D01*
X132738393Y-80723931D01*
X132755134Y-80692610D01*
X132777661Y-80665161D01*
X132805110Y-80642634D01*
X132836431Y-80625893D01*
X132870409Y-80615585D01*
X132911890Y-80611500D01*
X133588110Y-80611500D01*
X133629591Y-80615585D01*
G37*
G36*
X135329591Y-80615585D02*
G01*
X135363569Y-80625893D01*
X135394890Y-80642634D01*
X135422339Y-80665161D01*
X135444866Y-80692610D01*
X135461607Y-80723931D01*
X135471915Y-80757909D01*
X135476000Y-80799390D01*
X135476000Y-81400610D01*
X135471915Y-81442091D01*
X135461607Y-81476069D01*
X135444866Y-81507390D01*
X135422339Y-81534839D01*
X135394890Y-81557366D01*
X135363569Y-81574107D01*
X135329591Y-81584415D01*
X135288110Y-81588500D01*
X134611890Y-81588500D01*
X134570409Y-81584415D01*
X134536431Y-81574107D01*
X134505110Y-81557366D01*
X134477661Y-81534839D01*
X134455134Y-81507390D01*
X134438393Y-81476069D01*
X134428085Y-81442091D01*
X134424000Y-81400610D01*
X134424000Y-80799390D01*
X134428085Y-80757909D01*
X134438393Y-80723931D01*
X134455134Y-80692610D01*
X134477661Y-80665161D01*
X134505110Y-80642634D01*
X134536431Y-80625893D01*
X134570409Y-80615585D01*
X134611890Y-80611500D01*
X135288110Y-80611500D01*
X135329591Y-80615585D01*
G37*
G36*
X159101000Y-81426000D02*
G01*
X157699000Y-81426000D01*
X157699000Y-79674000D01*
X159101000Y-79674000D01*
X159101000Y-81426000D01*
G37*
G36*
X131904591Y-79053085D02*
G01*
X131938569Y-79063393D01*
X131969890Y-79080134D01*
X131997339Y-79102661D01*
X132019866Y-79130110D01*
X132036607Y-79161431D01*
X132046915Y-79195409D01*
X132051000Y-79236890D01*
X132051000Y-79838110D01*
X132046915Y-79879591D01*
X132036607Y-79913569D01*
X132019866Y-79944890D01*
X131997339Y-79972339D01*
X131969890Y-79994866D01*
X131938569Y-80011607D01*
X131904591Y-80021915D01*
X131863110Y-80026000D01*
X131186890Y-80026000D01*
X131145409Y-80021915D01*
X131111431Y-80011607D01*
X131080110Y-79994866D01*
X131052661Y-79972339D01*
X131030134Y-79944890D01*
X131013393Y-79913569D01*
X131003085Y-79879591D01*
X130999000Y-79838110D01*
X130999000Y-79236890D01*
X131003085Y-79195409D01*
X131013393Y-79161431D01*
X131030134Y-79130110D01*
X131052661Y-79102661D01*
X131080110Y-79080134D01*
X131111431Y-79063393D01*
X131145409Y-79053085D01*
X131186890Y-79049000D01*
X131863110Y-79049000D01*
X131904591Y-79053085D01*
G37*
G36*
X135329591Y-79040585D02*
G01*
X135363569Y-79050893D01*
X135394890Y-79067634D01*
X135422339Y-79090161D01*
X135444866Y-79117610D01*
X135461607Y-79148931D01*
X135471915Y-79182909D01*
X135476000Y-79224390D01*
X135476000Y-79825610D01*
X135471915Y-79867091D01*
X135461607Y-79901069D01*
X135444866Y-79932390D01*
X135422339Y-79959839D01*
X135394890Y-79982366D01*
X135363569Y-79999107D01*
X135329591Y-80009415D01*
X135288110Y-80013500D01*
X134611890Y-80013500D01*
X134570409Y-80009415D01*
X134536431Y-79999107D01*
X134505110Y-79982366D01*
X134477661Y-79959839D01*
X134455134Y-79932390D01*
X134438393Y-79901069D01*
X134428085Y-79867091D01*
X134424000Y-79825610D01*
X134424000Y-79224390D01*
X134428085Y-79182909D01*
X134438393Y-79148931D01*
X134455134Y-79117610D01*
X134477661Y-79090161D01*
X134505110Y-79067634D01*
X134536431Y-79050893D01*
X134570409Y-79040585D01*
X134611890Y-79036500D01*
X135288110Y-79036500D01*
X135329591Y-79040585D01*
G37*
G36*
X133629591Y-79040585D02*
G01*
X133663569Y-79050893D01*
X133694890Y-79067634D01*
X133722339Y-79090161D01*
X133744866Y-79117610D01*
X133761607Y-79148931D01*
X133771915Y-79182909D01*
X133776000Y-79224390D01*
X133776000Y-79825610D01*
X133771915Y-79867091D01*
X133761607Y-79901069D01*
X133744866Y-79932390D01*
X133722339Y-79959839D01*
X133694890Y-79982366D01*
X133663569Y-79999107D01*
X133629591Y-80009415D01*
X133588110Y-80013500D01*
X132911890Y-80013500D01*
X132870409Y-80009415D01*
X132836431Y-79999107D01*
X132805110Y-79982366D01*
X132777661Y-79959839D01*
X132755134Y-79932390D01*
X132738393Y-79901069D01*
X132728085Y-79867091D01*
X132724000Y-79825610D01*
X132724000Y-79224390D01*
X132728085Y-79182909D01*
X132738393Y-79148931D01*
X132755134Y-79117610D01*
X132777661Y-79090161D01*
X132805110Y-79067634D01*
X132836431Y-79050893D01*
X132870409Y-79040585D01*
X132911890Y-79036500D01*
X133588110Y-79036500D01*
X133629591Y-79040585D01*
G37*
G36*
X139004591Y-78953085D02*
G01*
X139038569Y-78963393D01*
X139069890Y-78980134D01*
X139097339Y-79002661D01*
X139119866Y-79030110D01*
X139136607Y-79061431D01*
X139146915Y-79095409D01*
X139151000Y-79136890D01*
X139151000Y-79813110D01*
X139146915Y-79854591D01*
X139136607Y-79888569D01*
X139119866Y-79919890D01*
X139097339Y-79947339D01*
X139069890Y-79969866D01*
X139038569Y-79986607D01*
X139004591Y-79996915D01*
X138963110Y-80001000D01*
X138361890Y-80001000D01*
X138320409Y-79996915D01*
X138286431Y-79986607D01*
X138255110Y-79969866D01*
X138227661Y-79947339D01*
X138205134Y-79919890D01*
X138188393Y-79888569D01*
X138178085Y-79854591D01*
X138174000Y-79813110D01*
X138174000Y-79136890D01*
X138178085Y-79095409D01*
X138188393Y-79061431D01*
X138205134Y-79030110D01*
X138227661Y-79002661D01*
X138255110Y-78980134D01*
X138286431Y-78963393D01*
X138320409Y-78953085D01*
X138361890Y-78949000D01*
X138963110Y-78949000D01*
X139004591Y-78953085D01*
G37*
G36*
X140579591Y-78953085D02*
G01*
X140613569Y-78963393D01*
X140644890Y-78980134D01*
X140672339Y-79002661D01*
X140694866Y-79030110D01*
X140711607Y-79061431D01*
X140721915Y-79095409D01*
X140726000Y-79136890D01*
X140726000Y-79813110D01*
X140721915Y-79854591D01*
X140711607Y-79888569D01*
X140694866Y-79919890D01*
X140672339Y-79947339D01*
X140644890Y-79969866D01*
X140613569Y-79986607D01*
X140579591Y-79996915D01*
X140538110Y-80001000D01*
X139936890Y-80001000D01*
X139895409Y-79996915D01*
X139861431Y-79986607D01*
X139830110Y-79969866D01*
X139802661Y-79947339D01*
X139780134Y-79919890D01*
X139763393Y-79888569D01*
X139753085Y-79854591D01*
X139749000Y-79813110D01*
X139749000Y-79136890D01*
X139753085Y-79095409D01*
X139763393Y-79061431D01*
X139780134Y-79030110D01*
X139802661Y-79002661D01*
X139830110Y-78980134D01*
X139861431Y-78963393D01*
X139895409Y-78953085D01*
X139936890Y-78949000D01*
X140538110Y-78949000D01*
X140579591Y-78953085D01*
G37*
G36*
X143767091Y-78953085D02*
G01*
X143801069Y-78963393D01*
X143832390Y-78980134D01*
X143859839Y-79002661D01*
X143882366Y-79030110D01*
X143899107Y-79061431D01*
X143909415Y-79095409D01*
X143913500Y-79136890D01*
X143913500Y-79813110D01*
X143909415Y-79854591D01*
X143899107Y-79888569D01*
X143882366Y-79919890D01*
X143859839Y-79947339D01*
X143832390Y-79969866D01*
X143801069Y-79986607D01*
X143767091Y-79996915D01*
X143725610Y-80001000D01*
X143124390Y-80001000D01*
X143082909Y-79996915D01*
X143048931Y-79986607D01*
X143017610Y-79969866D01*
X142990161Y-79947339D01*
X142967634Y-79919890D01*
X142950893Y-79888569D01*
X142940585Y-79854591D01*
X142936500Y-79813110D01*
X142936500Y-79136890D01*
X142940585Y-79095409D01*
X142950893Y-79061431D01*
X142967634Y-79030110D01*
X142990161Y-79002661D01*
X143017610Y-78980134D01*
X143048931Y-78963393D01*
X143082909Y-78953085D01*
X143124390Y-78949000D01*
X143725610Y-78949000D01*
X143767091Y-78953085D01*
G37*
G36*
X142192091Y-78953085D02*
G01*
X142226069Y-78963393D01*
X142257390Y-78980134D01*
X142284839Y-79002661D01*
X142307366Y-79030110D01*
X142324107Y-79061431D01*
X142334415Y-79095409D01*
X142338500Y-79136890D01*
X142338500Y-79813110D01*
X142334415Y-79854591D01*
X142324107Y-79888569D01*
X142307366Y-79919890D01*
X142284839Y-79947339D01*
X142257390Y-79969866D01*
X142226069Y-79986607D01*
X142192091Y-79996915D01*
X142150610Y-80001000D01*
X141549390Y-80001000D01*
X141507909Y-79996915D01*
X141473931Y-79986607D01*
X141442610Y-79969866D01*
X141415161Y-79947339D01*
X141392634Y-79919890D01*
X141375893Y-79888569D01*
X141365585Y-79854591D01*
X141361500Y-79813110D01*
X141361500Y-79136890D01*
X141365585Y-79095409D01*
X141375893Y-79061431D01*
X141392634Y-79030110D01*
X141415161Y-79002661D01*
X141442610Y-78980134D01*
X141473931Y-78963393D01*
X141507909Y-78953085D01*
X141549390Y-78949000D01*
X142150610Y-78949000D01*
X142192091Y-78953085D01*
G37*
G36*
X152404591Y-78840585D02*
G01*
X152438569Y-78850893D01*
X152469890Y-78867634D01*
X152497339Y-78890161D01*
X152519866Y-78917610D01*
X152536607Y-78948931D01*
X152546915Y-78982909D01*
X152551000Y-79024390D01*
X152551000Y-79625610D01*
X152546915Y-79667091D01*
X152536607Y-79701069D01*
X152519866Y-79732390D01*
X152497339Y-79759839D01*
X152469890Y-79782366D01*
X152438569Y-79799107D01*
X152404591Y-79809415D01*
X152363110Y-79813500D01*
X151686890Y-79813500D01*
X151645409Y-79809415D01*
X151611431Y-79799107D01*
X151580110Y-79782366D01*
X151552661Y-79759839D01*
X151530134Y-79732390D01*
X151513393Y-79701069D01*
X151503085Y-79667091D01*
X151499000Y-79625610D01*
X151499000Y-79024390D01*
X151503085Y-78982909D01*
X151513393Y-78948931D01*
X151530134Y-78917610D01*
X151552661Y-78890161D01*
X151580110Y-78867634D01*
X151611431Y-78850893D01*
X151645409Y-78840585D01*
X151686890Y-78836500D01*
X152363110Y-78836500D01*
X152404591Y-78840585D01*
G37*
G36*
X148735592Y-76454401D02*
G01*
X148921150Y-76491311D01*
X149005063Y-76526069D01*
X149121520Y-76574307D01*
X149301844Y-76694795D01*
X149455205Y-76848156D01*
X149575693Y-77028480D01*
X149575693Y-77028481D01*
X149658689Y-77228850D01*
X149676927Y-77320539D01*
X149701000Y-77441560D01*
X149701000Y-77658440D01*
X149658689Y-77871149D01*
X149575693Y-78071520D01*
X149455205Y-78251844D01*
X149301844Y-78405205D01*
X149121520Y-78525693D01*
X148921150Y-78608689D01*
X148814795Y-78629844D01*
X148708440Y-78651000D01*
X148491560Y-78651000D01*
X148385205Y-78629844D01*
X148278850Y-78608689D01*
X148078480Y-78525693D01*
X147898156Y-78405205D01*
X147744795Y-78251844D01*
X147624307Y-78071520D01*
X147541311Y-77871149D01*
X147499000Y-77658440D01*
X147499000Y-77441560D01*
X147523073Y-77320539D01*
X147541311Y-77228850D01*
X147624307Y-77028481D01*
X147624307Y-77028480D01*
X147744795Y-76848156D01*
X147898156Y-76694795D01*
X148078480Y-76574307D01*
X148194937Y-76526069D01*
X148278850Y-76491311D01*
X148464408Y-76454401D01*
X148491560Y-76449000D01*
X148708440Y-76449000D01*
X148735592Y-76454401D01*
G37*
G36*
X133629591Y-77528085D02*
G01*
X133663569Y-77538393D01*
X133694890Y-77555134D01*
X133722339Y-77577661D01*
X133744866Y-77605110D01*
X133761607Y-77636431D01*
X133771915Y-77670409D01*
X133776000Y-77711890D01*
X133776000Y-78313110D01*
X133771915Y-78354591D01*
X133761607Y-78388569D01*
X133744866Y-78419890D01*
X133722339Y-78447339D01*
X133694890Y-78469866D01*
X133663569Y-78486607D01*
X133629591Y-78496915D01*
X133588110Y-78501000D01*
X132911890Y-78501000D01*
X132870409Y-78496915D01*
X132836431Y-78486607D01*
X132805110Y-78469866D01*
X132777661Y-78447339D01*
X132755134Y-78419890D01*
X132738393Y-78388569D01*
X132728085Y-78354591D01*
X132724000Y-78313110D01*
X132724000Y-77711890D01*
X132728085Y-77670409D01*
X132738393Y-77636431D01*
X132755134Y-77605110D01*
X132777661Y-77577661D01*
X132805110Y-77555134D01*
X132836431Y-77538393D01*
X132870409Y-77528085D01*
X132911890Y-77524000D01*
X133588110Y-77524000D01*
X133629591Y-77528085D01*
G37*
G36*
X131929591Y-77528085D02*
G01*
X131963569Y-77538393D01*
X131994890Y-77555134D01*
X132022339Y-77577661D01*
X132044866Y-77605110D01*
X132061607Y-77636431D01*
X132071915Y-77670409D01*
X132076000Y-77711890D01*
X132076000Y-78313110D01*
X132071915Y-78354591D01*
X132061607Y-78388569D01*
X132044866Y-78419890D01*
X132022339Y-78447339D01*
X131994890Y-78469866D01*
X131963569Y-78486607D01*
X131929591Y-78496915D01*
X131888110Y-78501000D01*
X131211890Y-78501000D01*
X131170409Y-78496915D01*
X131136431Y-78486607D01*
X131105110Y-78469866D01*
X131077661Y-78447339D01*
X131055134Y-78419890D01*
X131038393Y-78388569D01*
X131028085Y-78354591D01*
X131024000Y-78313110D01*
X131024000Y-77711890D01*
X131028085Y-77670409D01*
X131038393Y-77636431D01*
X131055134Y-77605110D01*
X131077661Y-77577661D01*
X131105110Y-77555134D01*
X131136431Y-77538393D01*
X131170409Y-77528085D01*
X131211890Y-77524000D01*
X131888110Y-77524000D01*
X131929591Y-77528085D01*
G37*
G36*
X135329591Y-77503085D02*
G01*
X135363569Y-77513393D01*
X135394890Y-77530134D01*
X135422339Y-77552661D01*
X135444866Y-77580110D01*
X135461607Y-77611431D01*
X135471915Y-77645409D01*
X135476000Y-77686890D01*
X135476000Y-78288110D01*
X135471915Y-78329591D01*
X135461607Y-78363569D01*
X135444866Y-78394890D01*
X135422339Y-78422339D01*
X135394890Y-78444866D01*
X135363569Y-78461607D01*
X135329591Y-78471915D01*
X135288110Y-78476000D01*
X134611890Y-78476000D01*
X134570409Y-78471915D01*
X134536431Y-78461607D01*
X134505110Y-78444866D01*
X134477661Y-78422339D01*
X134455134Y-78394890D01*
X134438393Y-78363569D01*
X134428085Y-78329591D01*
X134424000Y-78288110D01*
X134424000Y-77686890D01*
X134428085Y-77645409D01*
X134438393Y-77611431D01*
X134455134Y-77580110D01*
X134477661Y-77552661D01*
X134505110Y-77530134D01*
X134536431Y-77513393D01*
X134570409Y-77503085D01*
X134611890Y-77499000D01*
X135288110Y-77499000D01*
X135329591Y-77503085D01*
G37*
G36*
X152404591Y-77265585D02*
G01*
X152438569Y-77275893D01*
X152469890Y-77292634D01*
X152497339Y-77315161D01*
X152519866Y-77342610D01*
X152536607Y-77373931D01*
X152546915Y-77407909D01*
X152551000Y-77449390D01*
X152551000Y-78050610D01*
X152546915Y-78092091D01*
X152536607Y-78126069D01*
X152519866Y-78157390D01*
X152497339Y-78184839D01*
X152469890Y-78207366D01*
X152438569Y-78224107D01*
X152404591Y-78234415D01*
X152363110Y-78238500D01*
X151686890Y-78238500D01*
X151645409Y-78234415D01*
X151611431Y-78224107D01*
X151580110Y-78207366D01*
X151552661Y-78184839D01*
X151530134Y-78157390D01*
X151513393Y-78126069D01*
X151503085Y-78092091D01*
X151499000Y-78050610D01*
X151499000Y-77449390D01*
X151503085Y-77407909D01*
X151513393Y-77373931D01*
X151530134Y-77342610D01*
X151552661Y-77315161D01*
X151580110Y-77292634D01*
X151611431Y-77275893D01*
X151645409Y-77265585D01*
X151686890Y-77261500D01*
X152363110Y-77261500D01*
X152404591Y-77265585D01*
G37*
G36*
X155829591Y-77253085D02*
G01*
X155863569Y-77263393D01*
X155894890Y-77280134D01*
X155922339Y-77302661D01*
X155944866Y-77330110D01*
X155961607Y-77361431D01*
X155971915Y-77395409D01*
X155976000Y-77436890D01*
X155976000Y-78038110D01*
X155971915Y-78079591D01*
X155961607Y-78113569D01*
X155944866Y-78144890D01*
X155922339Y-78172339D01*
X155894890Y-78194866D01*
X155863569Y-78211607D01*
X155829591Y-78221915D01*
X155788110Y-78226000D01*
X155111890Y-78226000D01*
X155070409Y-78221915D01*
X155036431Y-78211607D01*
X155005110Y-78194866D01*
X154977661Y-78172339D01*
X154955134Y-78144890D01*
X154938393Y-78113569D01*
X154928085Y-78079591D01*
X154924000Y-78038110D01*
X154924000Y-77436890D01*
X154928085Y-77395409D01*
X154938393Y-77361431D01*
X154955134Y-77330110D01*
X154977661Y-77302661D01*
X155005110Y-77280134D01*
X155036431Y-77263393D01*
X155070409Y-77253085D01*
X155111890Y-77249000D01*
X155788110Y-77249000D01*
X155829591Y-77253085D01*
G37*
G36*
X154204591Y-77253085D02*
G01*
X154238569Y-77263393D01*
X154269890Y-77280134D01*
X154297339Y-77302661D01*
X154319866Y-77330110D01*
X154336607Y-77361431D01*
X154346915Y-77395409D01*
X154351000Y-77436890D01*
X154351000Y-78038110D01*
X154346915Y-78079591D01*
X154336607Y-78113569D01*
X154319866Y-78144890D01*
X154297339Y-78172339D01*
X154269890Y-78194866D01*
X154238569Y-78211607D01*
X154204591Y-78221915D01*
X154163110Y-78226000D01*
X153486890Y-78226000D01*
X153445409Y-78221915D01*
X153411431Y-78211607D01*
X153380110Y-78194866D01*
X153352661Y-78172339D01*
X153330134Y-78144890D01*
X153313393Y-78113569D01*
X153303085Y-78079591D01*
X153299000Y-78038110D01*
X153299000Y-77436890D01*
X153303085Y-77395409D01*
X153313393Y-77361431D01*
X153330134Y-77330110D01*
X153352661Y-77302661D01*
X153380110Y-77280134D01*
X153411431Y-77263393D01*
X153445409Y-77253085D01*
X153486890Y-77249000D01*
X154163110Y-77249000D01*
X154204591Y-77253085D01*
G37*
G36*
X157479591Y-77240585D02*
G01*
X157513569Y-77250893D01*
X157544890Y-77267634D01*
X157572339Y-77290161D01*
X157594866Y-77317610D01*
X157611607Y-77348931D01*
X157621915Y-77382909D01*
X157626000Y-77424390D01*
X157626000Y-78025610D01*
X157621915Y-78067091D01*
X157611607Y-78101069D01*
X157594866Y-78132390D01*
X157572339Y-78159839D01*
X157544890Y-78182366D01*
X157513569Y-78199107D01*
X157479591Y-78209415D01*
X157438110Y-78213500D01*
X156761890Y-78213500D01*
X156720409Y-78209415D01*
X156686431Y-78199107D01*
X156655110Y-78182366D01*
X156627661Y-78159839D01*
X156605134Y-78132390D01*
X156588393Y-78101069D01*
X156578085Y-78067091D01*
X156574000Y-78025610D01*
X156574000Y-77424390D01*
X156578085Y-77382909D01*
X156588393Y-77348931D01*
X156605134Y-77317610D01*
X156627661Y-77290161D01*
X156655110Y-77267634D01*
X156686431Y-77250893D01*
X156720409Y-77240585D01*
X156761890Y-77236500D01*
X157438110Y-77236500D01*
X157479591Y-77240585D01*
G37*
G36*
X159104591Y-77240585D02*
G01*
X159138569Y-77250893D01*
X159169890Y-77267634D01*
X159197339Y-77290161D01*
X159219866Y-77317610D01*
X159236607Y-77348931D01*
X159246915Y-77382909D01*
X159251000Y-77424390D01*
X159251000Y-78025610D01*
X159246915Y-78067091D01*
X159236607Y-78101069D01*
X159219866Y-78132390D01*
X159197339Y-78159839D01*
X159169890Y-78182366D01*
X159138569Y-78199107D01*
X159104591Y-78209415D01*
X159063110Y-78213500D01*
X158386890Y-78213500D01*
X158345409Y-78209415D01*
X158311431Y-78199107D01*
X158280110Y-78182366D01*
X158252661Y-78159839D01*
X158230134Y-78132390D01*
X158213393Y-78101069D01*
X158203085Y-78067091D01*
X158199000Y-78025610D01*
X158199000Y-77424390D01*
X158203085Y-77382909D01*
X158213393Y-77348931D01*
X158230134Y-77317610D01*
X158252661Y-77290161D01*
X158280110Y-77267634D01*
X158311431Y-77250893D01*
X158345409Y-77240585D01*
X158386890Y-77236500D01*
X159063110Y-77236500D01*
X159104591Y-77240585D01*
G37*
G36*
X142376000Y-77876000D02*
G01*
X141374000Y-77876000D01*
X141374000Y-76074000D01*
X142376000Y-76074000D01*
X142376000Y-77876000D01*
G37*
G36*
X137326000Y-77876000D02*
G01*
X136324000Y-77876000D01*
X136324000Y-76074000D01*
X137326000Y-76074000D01*
X137326000Y-77876000D01*
G37*
G36*
X140726000Y-77876000D02*
G01*
X139724000Y-77876000D01*
X139724000Y-76074000D01*
X140726000Y-76074000D01*
X140726000Y-77876000D01*
G37*
G36*
X145776000Y-77876000D02*
G01*
X144774000Y-77876000D01*
X144774000Y-76074000D01*
X145776000Y-76074000D01*
X145776000Y-77876000D01*
G37*
G36*
X133629591Y-75953085D02*
G01*
X133663569Y-75963393D01*
X133694890Y-75980134D01*
X133722339Y-76002661D01*
X133744866Y-76030110D01*
X133761607Y-76061431D01*
X133771915Y-76095409D01*
X133776000Y-76136890D01*
X133776000Y-76738110D01*
X133771915Y-76779591D01*
X133761607Y-76813569D01*
X133744866Y-76844890D01*
X133722339Y-76872339D01*
X133694890Y-76894866D01*
X133663569Y-76911607D01*
X133629591Y-76921915D01*
X133588110Y-76926000D01*
X132911890Y-76926000D01*
X132870409Y-76921915D01*
X132836431Y-76911607D01*
X132805110Y-76894866D01*
X132777661Y-76872339D01*
X132755134Y-76844890D01*
X132738393Y-76813569D01*
X132728085Y-76779591D01*
X132724000Y-76738110D01*
X132724000Y-76136890D01*
X132728085Y-76095409D01*
X132738393Y-76061431D01*
X132755134Y-76030110D01*
X132777661Y-76002661D01*
X132805110Y-75980134D01*
X132836431Y-75963393D01*
X132870409Y-75953085D01*
X132911890Y-75949000D01*
X133588110Y-75949000D01*
X133629591Y-75953085D01*
G37*
G36*
X131929591Y-75953085D02*
G01*
X131963569Y-75963393D01*
X131994890Y-75980134D01*
X132022339Y-76002661D01*
X132044866Y-76030110D01*
X132061607Y-76061431D01*
X132071915Y-76095409D01*
X132076000Y-76136890D01*
X132076000Y-76738110D01*
X132071915Y-76779591D01*
X132061607Y-76813569D01*
X132044866Y-76844890D01*
X132022339Y-76872339D01*
X131994890Y-76894866D01*
X131963569Y-76911607D01*
X131929591Y-76921915D01*
X131888110Y-76926000D01*
X131211890Y-76926000D01*
X131170409Y-76921915D01*
X131136431Y-76911607D01*
X131105110Y-76894866D01*
X131077661Y-76872339D01*
X131055134Y-76844890D01*
X131038393Y-76813569D01*
X131028085Y-76779591D01*
X131024000Y-76738110D01*
X131024000Y-76136890D01*
X131028085Y-76095409D01*
X131038393Y-76061431D01*
X131055134Y-76030110D01*
X131077661Y-76002661D01*
X131105110Y-75980134D01*
X131136431Y-75963393D01*
X131170409Y-75953085D01*
X131211890Y-75949000D01*
X131888110Y-75949000D01*
X131929591Y-75953085D01*
G37*
G36*
X135329591Y-75928085D02*
G01*
X135363569Y-75938393D01*
X135394890Y-75955134D01*
X135422339Y-75977661D01*
X135444866Y-76005110D01*
X135461607Y-76036431D01*
X135471915Y-76070409D01*
X135476000Y-76111890D01*
X135476000Y-76713110D01*
X135471915Y-76754591D01*
X135461607Y-76788569D01*
X135444866Y-76819890D01*
X135422339Y-76847339D01*
X135394890Y-76869866D01*
X135363569Y-76886607D01*
X135329591Y-76896915D01*
X135288110Y-76901000D01*
X134611890Y-76901000D01*
X134570409Y-76896915D01*
X134536431Y-76886607D01*
X134505110Y-76869866D01*
X134477661Y-76847339D01*
X134455134Y-76819890D01*
X134438393Y-76788569D01*
X134428085Y-76754591D01*
X134424000Y-76713110D01*
X134424000Y-76111890D01*
X134428085Y-76070409D01*
X134438393Y-76036431D01*
X134455134Y-76005110D01*
X134477661Y-75977661D01*
X134505110Y-75955134D01*
X134536431Y-75938393D01*
X134570409Y-75928085D01*
X134611890Y-75924000D01*
X135288110Y-75924000D01*
X135329591Y-75928085D01*
G37*
G36*
X155829591Y-75678085D02*
G01*
X155863569Y-75688393D01*
X155894890Y-75705134D01*
X155922339Y-75727661D01*
X155944866Y-75755110D01*
X155961607Y-75786431D01*
X155971915Y-75820409D01*
X155976000Y-75861890D01*
X155976000Y-76463110D01*
X155971915Y-76504591D01*
X155961607Y-76538569D01*
X155944866Y-76569890D01*
X155922339Y-76597339D01*
X155894890Y-76619866D01*
X155863569Y-76636607D01*
X155829591Y-76646915D01*
X155788110Y-76651000D01*
X155111890Y-76651000D01*
X155070409Y-76646915D01*
X155036431Y-76636607D01*
X155005110Y-76619866D01*
X154977661Y-76597339D01*
X154955134Y-76569890D01*
X154938393Y-76538569D01*
X154928085Y-76504591D01*
X154924000Y-76463110D01*
X154924000Y-75861890D01*
X154928085Y-75820409D01*
X154938393Y-75786431D01*
X154955134Y-75755110D01*
X154977661Y-75727661D01*
X155005110Y-75705134D01*
X155036431Y-75688393D01*
X155070409Y-75678085D01*
X155111890Y-75674000D01*
X155788110Y-75674000D01*
X155829591Y-75678085D01*
G37*
G36*
X154204591Y-75678085D02*
G01*
X154238569Y-75688393D01*
X154269890Y-75705134D01*
X154297339Y-75727661D01*
X154319866Y-75755110D01*
X154336607Y-75786431D01*
X154346915Y-75820409D01*
X154351000Y-75861890D01*
X154351000Y-76463110D01*
X154346915Y-76504591D01*
X154336607Y-76538569D01*
X154319866Y-76569890D01*
X154297339Y-76597339D01*
X154269890Y-76619866D01*
X154238569Y-76636607D01*
X154204591Y-76646915D01*
X154163110Y-76651000D01*
X153486890Y-76651000D01*
X153445409Y-76646915D01*
X153411431Y-76636607D01*
X153380110Y-76619866D01*
X153352661Y-76597339D01*
X153330134Y-76569890D01*
X153313393Y-76538569D01*
X153303085Y-76504591D01*
X153299000Y-76463110D01*
X153299000Y-75861890D01*
X153303085Y-75820409D01*
X153313393Y-75786431D01*
X153330134Y-75755110D01*
X153352661Y-75727661D01*
X153380110Y-75705134D01*
X153411431Y-75688393D01*
X153445409Y-75678085D01*
X153486890Y-75674000D01*
X154163110Y-75674000D01*
X154204591Y-75678085D01*
G37*
G36*
X157479591Y-75665585D02*
G01*
X157513569Y-75675893D01*
X157544890Y-75692634D01*
X157572339Y-75715161D01*
X157594866Y-75742610D01*
X157611607Y-75773931D01*
X157621915Y-75807909D01*
X157626000Y-75849390D01*
X157626000Y-76450610D01*
X157621915Y-76492091D01*
X157611607Y-76526069D01*
X157594866Y-76557390D01*
X157572339Y-76584839D01*
X157544890Y-76607366D01*
X157513569Y-76624107D01*
X157479591Y-76634415D01*
X157438110Y-76638500D01*
X156761890Y-76638500D01*
X156720409Y-76634415D01*
X156686431Y-76624107D01*
X156655110Y-76607366D01*
X156627661Y-76584839D01*
X156605134Y-76557390D01*
X156588393Y-76526069D01*
X156578085Y-76492091D01*
X156574000Y-76450610D01*
X156574000Y-75849390D01*
X156578085Y-75807909D01*
X156588393Y-75773931D01*
X156605134Y-75742610D01*
X156627661Y-75715161D01*
X156655110Y-75692634D01*
X156686431Y-75675893D01*
X156720409Y-75665585D01*
X156761890Y-75661500D01*
X157438110Y-75661500D01*
X157479591Y-75665585D01*
G37*
G36*
X159104591Y-75665585D02*
G01*
X159138569Y-75675893D01*
X159169890Y-75692634D01*
X159197339Y-75715161D01*
X159219866Y-75742610D01*
X159236607Y-75773931D01*
X159246915Y-75807909D01*
X159251000Y-75849390D01*
X159251000Y-76450610D01*
X159246915Y-76492091D01*
X159236607Y-76526069D01*
X159219866Y-76557390D01*
X159197339Y-76584839D01*
X159169890Y-76607366D01*
X159138569Y-76624107D01*
X159104591Y-76634415D01*
X159063110Y-76638500D01*
X158386890Y-76638500D01*
X158345409Y-76634415D01*
X158311431Y-76624107D01*
X158280110Y-76607366D01*
X158252661Y-76584839D01*
X158230134Y-76557390D01*
X158213393Y-76526069D01*
X158203085Y-76492091D01*
X158199000Y-76450610D01*
X158199000Y-75849390D01*
X158203085Y-75807909D01*
X158213393Y-75773931D01*
X158230134Y-75742610D01*
X158252661Y-75715161D01*
X158280110Y-75692634D01*
X158311431Y-75675893D01*
X158345409Y-75665585D01*
X158386890Y-75661500D01*
X159063110Y-75661500D01*
X159104591Y-75665585D01*
G37*
M02*
