G04 #@! TF.GenerationSoftware,KiCad,Pcbnew,(5.1.5)-3*
G04 #@! TF.CreationDate,2020-09-28T16:56:36+02:00*
G04 #@! TF.ProjectId,MAX30102_Pulse Ox,4d415833-3031-4303-925f-50756c736520,v1.4*
G04 #@! TF.SameCoordinates,Original*
G04 #@! TF.FileFunction,Legend,Bot*
G04 #@! TF.FilePolarity,Positive*
%FSLAX46Y46*%
G04 Gerber Fmt 4.6, Leading zero omitted, Abs format (unit mm)*
G04 Created by KiCad (PCBNEW (5.1.5)-3) date 2020-09-28 16:56:36*
%MOMM*%
%LPD*%
G04 APERTURE LIST*
%ADD10C,0.120000*%
%ADD11C,0.300000*%
%ADD12C,0.150000*%
G04 APERTURE END LIST*
D10*
X155400000Y-95600000D02*
X156400000Y-95600000D01*
X155900000Y-95100000D02*
X155900000Y-96100000D01*
X156120000Y-95340000D02*
X155670000Y-95850000D01*
X155640000Y-95310000D02*
X156120000Y-95820000D01*
D11*
X156400000Y-95600000D02*
G75*
G03X156400000Y-95600000I-500000J0D01*
G01*
D10*
X136425000Y-77000000D02*
X137425000Y-77000000D01*
X136925000Y-76500000D02*
X136925000Y-77500000D01*
X137145000Y-76740000D02*
X136695000Y-77250000D01*
X136665000Y-76710000D02*
X137145000Y-77220000D01*
D11*
X137425000Y-77000000D02*
G75*
G03X137425000Y-77000000I-500000J0D01*
G01*
D10*
X155325000Y-83800000D02*
X156325000Y-83800000D01*
X155825000Y-83300000D02*
X155825000Y-84300000D01*
X156045000Y-83540000D02*
X155595000Y-84050000D01*
X155565000Y-83510000D02*
X156045000Y-84020000D01*
D11*
X156325000Y-83800000D02*
G75*
G03X156325000Y-83800000I-500000J0D01*
G01*
D10*
X133600000Y-88925000D02*
X134600000Y-88925000D01*
X134100000Y-88425000D02*
X134100000Y-89425000D01*
X134320000Y-88665000D02*
X133870000Y-89175000D01*
X133840000Y-88635000D02*
X134320000Y-89145000D01*
D11*
X134600000Y-88925000D02*
G75*
G03X134600000Y-88925000I-500000J0D01*
G01*
D10*
X155400000Y-82325000D02*
X156400000Y-82325000D01*
X155900000Y-81825000D02*
X155900000Y-82825000D01*
X156120000Y-82065000D02*
X155670000Y-82575000D01*
X155640000Y-82035000D02*
X156120000Y-82545000D01*
D11*
X156400000Y-82325000D02*
G75*
G03X156400000Y-82325000I-500000J0D01*
G01*
X134525000Y-98900000D02*
G75*
G03X134525000Y-98900000I-500000J0D01*
G01*
D10*
X133765000Y-98610000D02*
X134245000Y-99120000D01*
X134245000Y-98640000D02*
X133795000Y-99150000D01*
X134025000Y-98400000D02*
X134025000Y-99400000D01*
X133525000Y-98900000D02*
X134525000Y-98900000D01*
D12*
X155327380Y-88516666D02*
X156041666Y-88516666D01*
X156184523Y-88469047D01*
X156279761Y-88373809D01*
X156327380Y-88230952D01*
X156327380Y-88135714D01*
X155422619Y-88945238D02*
X155375000Y-88992857D01*
X155327380Y-89088095D01*
X155327380Y-89326190D01*
X155375000Y-89421428D01*
X155422619Y-89469047D01*
X155517857Y-89516666D01*
X155613095Y-89516666D01*
X155755952Y-89469047D01*
X156327380Y-88897619D01*
X156327380Y-89516666D01*
X154954761Y-84903571D02*
X155002380Y-85046428D01*
X155002380Y-85284523D01*
X154954761Y-85379761D01*
X154907142Y-85427380D01*
X154811904Y-85475000D01*
X154716666Y-85475000D01*
X154621428Y-85427380D01*
X154573809Y-85379761D01*
X154526190Y-85284523D01*
X154478571Y-85094047D01*
X154430952Y-84998809D01*
X154383333Y-84951190D01*
X154288095Y-84903571D01*
X154192857Y-84903571D01*
X154097619Y-84951190D01*
X154050000Y-84998809D01*
X154002380Y-85094047D01*
X154002380Y-85332142D01*
X154050000Y-85475000D01*
X154002380Y-85760714D02*
X154002380Y-86332142D01*
X155002380Y-86046428D02*
X154002380Y-86046428D01*
X154621428Y-86665476D02*
X154621428Y-87427380D01*
X155002380Y-88046428D02*
X154954761Y-87951190D01*
X154859523Y-87903571D01*
X154002380Y-87903571D01*
X155002380Y-88427380D02*
X154335714Y-88427380D01*
X154002380Y-88427380D02*
X154050000Y-88379761D01*
X154097619Y-88427380D01*
X154050000Y-88475000D01*
X154002380Y-88427380D01*
X154097619Y-88427380D01*
X154335714Y-88903571D02*
X155002380Y-88903571D01*
X154430952Y-88903571D02*
X154383333Y-88951190D01*
X154335714Y-89046428D01*
X154335714Y-89189285D01*
X154383333Y-89284523D01*
X154478571Y-89332142D01*
X155002380Y-89332142D01*
X155002380Y-89808333D02*
X154002380Y-89808333D01*
X154621428Y-89903571D02*
X155002380Y-90189285D01*
X154335714Y-90189285D02*
X154716666Y-89808333D01*
X153954761Y-91332142D02*
X155240476Y-90475000D01*
X154002380Y-91522619D02*
X155002380Y-91855952D01*
X154002380Y-92189285D01*
X154097619Y-92475000D02*
X154050000Y-92522619D01*
X154002380Y-92617857D01*
X154002380Y-92855952D01*
X154050000Y-92951190D01*
X154097619Y-92998809D01*
X154192857Y-93046428D01*
X154288095Y-93046428D01*
X154430952Y-92998809D01*
X155002380Y-92427380D01*
X155002380Y-93046428D01*
X141008333Y-78877380D02*
X141008333Y-79591666D01*
X141055952Y-79734523D01*
X141151190Y-79829761D01*
X141294047Y-79877380D01*
X141389285Y-79877380D01*
X140627380Y-78877380D02*
X140008333Y-78877380D01*
X140341666Y-79258333D01*
X140198809Y-79258333D01*
X140103571Y-79305952D01*
X140055952Y-79353571D01*
X140008333Y-79448809D01*
X140008333Y-79686904D01*
X140055952Y-79782142D01*
X140103571Y-79829761D01*
X140198809Y-79877380D01*
X140484523Y-79877380D01*
X140579761Y-79829761D01*
X140627380Y-79782142D01*
X142771428Y-80327380D02*
X142771428Y-81136904D01*
X142723809Y-81232142D01*
X142676190Y-81279761D01*
X142580952Y-81327380D01*
X142390476Y-81327380D01*
X142295238Y-81279761D01*
X142247619Y-81232142D01*
X142200000Y-81136904D01*
X142200000Y-80327380D01*
X141771428Y-81279761D02*
X141628571Y-81327380D01*
X141390476Y-81327380D01*
X141295238Y-81279761D01*
X141247619Y-81232142D01*
X141200000Y-81136904D01*
X141200000Y-81041666D01*
X141247619Y-80946428D01*
X141295238Y-80898809D01*
X141390476Y-80851190D01*
X141580952Y-80803571D01*
X141676190Y-80755952D01*
X141723809Y-80708333D01*
X141771428Y-80613095D01*
X141771428Y-80517857D01*
X141723809Y-80422619D01*
X141676190Y-80375000D01*
X141580952Y-80327380D01*
X141342857Y-80327380D01*
X141200000Y-80375000D01*
X140819047Y-81041666D02*
X140342857Y-81041666D01*
X140914285Y-81327380D02*
X140580952Y-80327380D01*
X140247619Y-81327380D01*
X139342857Y-81327380D02*
X139676190Y-80851190D01*
X139914285Y-81327380D02*
X139914285Y-80327380D01*
X139533333Y-80327380D01*
X139438095Y-80375000D01*
X139390476Y-80422619D01*
X139342857Y-80517857D01*
X139342857Y-80660714D01*
X139390476Y-80755952D01*
X139438095Y-80803571D01*
X139533333Y-80851190D01*
X139914285Y-80851190D01*
X139057142Y-80327380D02*
X138485714Y-80327380D01*
X138771428Y-81327380D02*
X138771428Y-80327380D01*
X133602380Y-96491666D02*
X134316666Y-96491666D01*
X134459523Y-96444047D01*
X134554761Y-96348809D01*
X134602380Y-96205952D01*
X134602380Y-96110714D01*
X133935714Y-97396428D02*
X134602380Y-97396428D01*
X133554761Y-97158333D02*
X134269047Y-96920238D01*
X134269047Y-97539285D01*
X135977380Y-95848809D02*
X134977380Y-95848809D01*
X135072619Y-96277380D02*
X135025000Y-96325000D01*
X134977380Y-96420238D01*
X134977380Y-96658333D01*
X135025000Y-96753571D01*
X135072619Y-96801190D01*
X135167857Y-96848809D01*
X135263095Y-96848809D01*
X135405952Y-96801190D01*
X135977380Y-96229761D01*
X135977380Y-96848809D01*
X135882142Y-97848809D02*
X135929761Y-97801190D01*
X135977380Y-97658333D01*
X135977380Y-97563095D01*
X135929761Y-97420238D01*
X135834523Y-97325000D01*
X135739285Y-97277380D01*
X135548809Y-97229761D01*
X135405952Y-97229761D01*
X135215476Y-97277380D01*
X135120238Y-97325000D01*
X135025000Y-97420238D01*
X134977380Y-97563095D01*
X134977380Y-97658333D01*
X135025000Y-97801190D01*
X135072619Y-97848809D01*
X133452380Y-85541666D02*
X134166666Y-85541666D01*
X134309523Y-85494047D01*
X134404761Y-85398809D01*
X134452380Y-85255952D01*
X134452380Y-85160714D01*
X133452380Y-86494047D02*
X133452380Y-86017857D01*
X133928571Y-85970238D01*
X133880952Y-86017857D01*
X133833333Y-86113095D01*
X133833333Y-86351190D01*
X133880952Y-86446428D01*
X133928571Y-86494047D01*
X134023809Y-86541666D01*
X134261904Y-86541666D01*
X134357142Y-86494047D01*
X134404761Y-86446428D01*
X134452380Y-86351190D01*
X134452380Y-86113095D01*
X134404761Y-86017857D01*
X134357142Y-85970238D01*
X135779761Y-84851190D02*
X135827380Y-84994047D01*
X135827380Y-85232142D01*
X135779761Y-85327380D01*
X135732142Y-85375000D01*
X135636904Y-85422619D01*
X135541666Y-85422619D01*
X135446428Y-85375000D01*
X135398809Y-85327380D01*
X135351190Y-85232142D01*
X135303571Y-85041666D01*
X135255952Y-84946428D01*
X135208333Y-84898809D01*
X135113095Y-84851190D01*
X135017857Y-84851190D01*
X134922619Y-84898809D01*
X134875000Y-84946428D01*
X134827380Y-85041666D01*
X134827380Y-85279761D01*
X134875000Y-85422619D01*
X135827380Y-85851190D02*
X134827380Y-85851190D01*
X134827380Y-86232142D01*
X134875000Y-86327380D01*
X134922619Y-86375000D01*
X135017857Y-86422619D01*
X135160714Y-86422619D01*
X135255952Y-86375000D01*
X135303571Y-86327380D01*
X135351190Y-86232142D01*
X135351190Y-85851190D01*
X135827380Y-86851190D02*
X134827380Y-86851190D01*
X155422380Y-80291666D02*
X156136666Y-80291666D01*
X156279523Y-80244047D01*
X156374761Y-80148809D01*
X156422380Y-80005952D01*
X156422380Y-79910714D01*
X155422380Y-81196428D02*
X155422380Y-81005952D01*
X155470000Y-80910714D01*
X155517619Y-80863095D01*
X155660476Y-80767857D01*
X155850952Y-80720238D01*
X156231904Y-80720238D01*
X156327142Y-80767857D01*
X156374761Y-80815476D01*
X156422380Y-80910714D01*
X156422380Y-81101190D01*
X156374761Y-81196428D01*
X156327142Y-81244047D01*
X156231904Y-81291666D01*
X155993809Y-81291666D01*
X155898571Y-81244047D01*
X155850952Y-81196428D01*
X155803333Y-81101190D01*
X155803333Y-80910714D01*
X155850952Y-80815476D01*
X155898571Y-80767857D01*
X155993809Y-80720238D01*
X155152380Y-77900000D02*
X154152380Y-77900000D01*
X154152380Y-78138095D01*
X154200000Y-78280952D01*
X154295238Y-78376190D01*
X154390476Y-78423809D01*
X154580952Y-78471428D01*
X154723809Y-78471428D01*
X154914285Y-78423809D01*
X155009523Y-78376190D01*
X155104761Y-78280952D01*
X155152380Y-78138095D01*
X155152380Y-77900000D01*
X154866666Y-78852380D02*
X154866666Y-79328571D01*
X155152380Y-78757142D02*
X154152380Y-79090476D01*
X155152380Y-79423809D01*
X155057142Y-80328571D02*
X155104761Y-80280952D01*
X155152380Y-80138095D01*
X155152380Y-80042857D01*
X155104761Y-79900000D01*
X155009523Y-79804761D01*
X154914285Y-79757142D01*
X154723809Y-79709523D01*
X154580952Y-79709523D01*
X154390476Y-79757142D01*
X154295238Y-79804761D01*
X154200000Y-79900000D01*
X154152380Y-80042857D01*
X154152380Y-80138095D01*
X154200000Y-80280952D01*
X154247619Y-80328571D01*
X155247619Y-80519047D02*
X155247619Y-81280952D01*
X154152380Y-81709523D02*
X154152380Y-81900000D01*
X154200000Y-81995238D01*
X154295238Y-82090476D01*
X154485714Y-82138095D01*
X154819047Y-82138095D01*
X155009523Y-82090476D01*
X155104761Y-81995238D01*
X155152380Y-81900000D01*
X155152380Y-81709523D01*
X155104761Y-81614285D01*
X155009523Y-81519047D01*
X154819047Y-81471428D01*
X154485714Y-81471428D01*
X154295238Y-81519047D01*
X154200000Y-81614285D01*
X154152380Y-81709523D01*
X154152380Y-82566666D02*
X154961904Y-82566666D01*
X155057142Y-82614285D01*
X155104761Y-82661904D01*
X155152380Y-82757142D01*
X155152380Y-82947619D01*
X155104761Y-83042857D01*
X155057142Y-83090476D01*
X154961904Y-83138095D01*
X154152380Y-83138095D01*
X154152380Y-83471428D02*
X154152380Y-84042857D01*
X155152380Y-83757142D02*
X154152380Y-83757142D01*
X155377380Y-97216666D02*
X156091666Y-97216666D01*
X156234523Y-97169047D01*
X156329761Y-97073809D01*
X156377380Y-96930952D01*
X156377380Y-96835714D01*
X155377380Y-97597619D02*
X155377380Y-98264285D01*
X156377380Y-97835714D01*
X154428571Y-95478571D02*
X154476190Y-95621428D01*
X154523809Y-95669047D01*
X154619047Y-95716666D01*
X154761904Y-95716666D01*
X154857142Y-95669047D01*
X154904761Y-95621428D01*
X154952380Y-95526190D01*
X154952380Y-95145238D01*
X153952380Y-95145238D01*
X153952380Y-95478571D01*
X154000000Y-95573809D01*
X154047619Y-95621428D01*
X154142857Y-95669047D01*
X154238095Y-95669047D01*
X154333333Y-95621428D01*
X154380952Y-95573809D01*
X154428571Y-95478571D01*
X154428571Y-95145238D01*
X154952380Y-96573809D02*
X154428571Y-96573809D01*
X154333333Y-96526190D01*
X154285714Y-96430952D01*
X154285714Y-96240476D01*
X154333333Y-96145238D01*
X154904761Y-96573809D02*
X154952380Y-96478571D01*
X154952380Y-96240476D01*
X154904761Y-96145238D01*
X154809523Y-96097619D01*
X154714285Y-96097619D01*
X154619047Y-96145238D01*
X154571428Y-96240476D01*
X154571428Y-96478571D01*
X154523809Y-96573809D01*
X154285714Y-96907142D02*
X154285714Y-97288095D01*
X153952380Y-97050000D02*
X154809523Y-97050000D01*
X154904761Y-97097619D01*
X154952380Y-97192857D01*
X154952380Y-97288095D01*
X154285714Y-97478571D02*
X154285714Y-97859523D01*
X153952380Y-97621428D02*
X154809523Y-97621428D01*
X154904761Y-97669047D01*
X154952380Y-97764285D01*
X154952380Y-97859523D01*
X154904761Y-98573809D02*
X154952380Y-98478571D01*
X154952380Y-98288095D01*
X154904761Y-98192857D01*
X154809523Y-98145238D01*
X154428571Y-98145238D01*
X154333333Y-98192857D01*
X154285714Y-98288095D01*
X154285714Y-98478571D01*
X154333333Y-98573809D01*
X154428571Y-98621428D01*
X154523809Y-98621428D01*
X154619047Y-98145238D01*
X154952380Y-99050000D02*
X154285714Y-99050000D01*
X154476190Y-99050000D02*
X154380952Y-99097619D01*
X154333333Y-99145238D01*
X154285714Y-99240476D01*
X154285714Y-99335714D01*
X154285714Y-99573809D02*
X154952380Y-99811904D01*
X154285714Y-100050000D02*
X154952380Y-99811904D01*
X155190476Y-99716666D01*
X155238095Y-99669047D01*
X155285714Y-99573809D01*
M02*
